<svg xmlns="http://www.w3.org/2000/svg" viewBox="0 0 600.95 332.12"><defs><style>.cls-1{fill:#b20c80;}.cls-2{fill:#309da2;}.cls-3{fill:none;}.cls-3,.cls-4{stroke:#211915;stroke-miterlimit:10;}.cls-4{fill:#fff;}</style></defs><g id="Capa_2" data-name="Capa 2"><g id="Capa_1-2" data-name="Capa 1"><path class="cls-1" d="M61.66,0H601a0,0,0,0,1,0,0V293.76a0,0,0,0,1,0,0H61.66A61.66,61.66,0,0,1,0,232.1V61.66A61.66,61.66,0,0,1,61.66,0Z"/><path class="cls-2" d="M292.15,293.12H543a0,0,0,0,1,0,0v20.5a18.5,18.5,0,0,1-18.5,18.5H310.64a18.5,18.5,0,0,1-18.5-18.5v-20.5A0,0,0,0,1,292.15,293.12Z"/><polyline class="cls-3" points="323.97 301.83 312.32 301.83 312.32 290.63"/><circle class="cls-4" cx="324.82" cy="301.83" r="4.18"/></g></g></svg>