<svg xmlns="http://www.w3.org/2000/svg" viewBox="0 0 374.52 124.15"><defs><style>.cls-1{fill:#fff;}</style></defs><g id="Capa_2" data-name="Capa 2"><g id="Capa_1-2" data-name="Capa 1"><path class="cls-1" d="M70.19,41.53q-2.34-.28-3.87-.36a15.62,15.62,0,0,0-3,.14,21.76,21.76,0,0,0-2.91.66c-1,.29-2.19.68-3.65,1.17Q54,49,50.72,54.87T43.8,66.32q-2.62,4.23-6.2,9.47a77.18,77.18,0,0,1-8,9.92,44.16,44.16,0,0,1-9.69,7.73A20.25,20.25,0,0,1,8.52,96.21a6.18,6.18,0,0,1-4.3-1.75A5.22,5.22,0,0,1,3,90.08a14.88,14.88,0,0,1,2-6.34q1.74-3,3.5-5.76A88.33,88.33,0,0,1,17.7,65.73a111.61,111.61,0,0,1,14-13.34,63.62,63.62,0,0,1,16.91-9.84q1.61-3.06,2.92-6.12c.87-2,1.7-4.13,2.47-6.27a54.21,54.21,0,0,0,4.09-16.11q.44-6.92-2-9.48c-1.61-1.69-4.11-1.65-7.51.15S41,10.77,35.93,17.48a238.11,238.11,0,0,0-16,23.62A161.21,161.21,0,0,0,7.5,66.9c-.1.29-.56.51-1.39.66a10,10,0,0,1-2.7.07,16,16,0,0,1-2.55-.44c-.73-.19-1-.48-.8-.87q1.91-5.53,4-10.94T8.23,44.45c.19-.68.6-1.85,1.23-3.5s1.34-3.57,2.12-5.76,1.53-4.47,2.26-6.85,1.33-4.62,1.82-6.71a28.12,28.12,0,0,0,.8-5.39c.05-1.51-.22-2.46-.8-2.84a2.69,2.69,0,0,0-3.35,0,18.51,18.51,0,0,0-2.92,2.33,11.25,11.25,0,0,0-2.7,4.15,16.85,16.85,0,0,0-.94,4.67,19.17,19.17,0,0,0,.36,5A30.53,30.53,0,0,0,7.5,34.39c.09.29,0,.56-.44.8a5.06,5.06,0,0,1-1.39.58,5.88,5.88,0,0,1-1.6.22c-.53,0-.85-.09-1-.29a23,23,0,0,1-1.38-5.54,23.69,23.69,0,0,1,0-5.83,17.2,17.2,0,0,1,1.6-5.47,15.58,15.58,0,0,1,3.43-4.59,14.32,14.32,0,0,1,3-2,11.56,11.56,0,0,1,3.5-1.17,8.12,8.12,0,0,1,3.57.22,6.6,6.6,0,0,1,3.06,2,8.24,8.24,0,0,1,2.33,5.39,24.25,24.25,0,0,1-.44,6c-.29,1.66-.63,3.28-1,4.89s-.82,3.23-1.31,4.88a5.19,5.19,0,0,1,.73-1.09,4.67,4.67,0,0,0,.73-1.24q2.63-3.95,5.39-7.66T32,16.89c1.94-2.42,4.1-4.93,6.49-7.5a51.06,51.06,0,0,1,7.36-6.64A13.06,13.06,0,0,1,51.45.27a15,15,0,0,1,6,.08,12.38,12.38,0,0,1,5.11,2.4,8.45,8.45,0,0,1,2.91,4.52,28.8,28.8,0,0,1,.66,7.8,37.89,37.89,0,0,1-1.24,7.66,67.43,67.43,0,0,1-2.48,7.43Q61,33.81,59.54,37.3a8,8,0,0,0-.65,1.32l-.51,1.31a13.76,13.76,0,0,1,3.79-.88A22.18,22.18,0,0,1,66.83,39a9.51,9.51,0,0,1,3.43.88C71.08,40.29,71.06,40.85,70.19,41.53ZM18.43,88.33A101.49,101.49,0,0,0,34.1,68.72Q41,57.58,46.86,46.2a66.37,66.37,0,0,0-16.11,11,108.32,108.32,0,0,0-12.9,14.06A64.64,64.64,0,0,0,14,76.52c-1.21,1.85-2.35,3.74-3.42,5.69-.49.68-1,1.43-1.46,2.26a15.73,15.73,0,0,0-1.24,2.62,11.23,11.23,0,0,0-.65,2.77,5.14,5.14,0,0,0,.43,2.7,1.73,1.73,0,0,0,2.12,1.31A10.44,10.44,0,0,0,13,92.56a19.73,19.73,0,0,0,3.2-2.33C17.21,89.35,17.94,88.72,18.43,88.33Z"/><path class="cls-1" d="M95.41,38.47c.09-.29.39-.48.87-.58a4.41,4.41,0,0,1,1.39-.07,2.46,2.46,0,0,1,1.09.36.59.59,0,0,1,.29.73A73.48,73.48,0,0,1,91.84,50.5Q87.68,56,83.45,61.22c-1.07,1.45-2.18,2.94-3.35,4.44A45.35,45.35,0,0,1,76.31,70,16.19,16.19,0,0,1,72.45,73a5.1,5.1,0,0,1-4.89.15,11.53,11.53,0,0,1-6.19-5.9A17.92,17.92,0,0,1,60,58.88a29.49,29.49,0,0,1,2.33-9.4,50.57,50.57,0,0,1,5-9.11,40.6,40.6,0,0,1,6.34-7.29A19,19,0,0,1,80.25,29a4.82,4.82,0,0,1,3,.08,5.64,5.64,0,0,1,2.33,1.6,7.07,7.07,0,0,1,1.53,5.76A35.05,35.05,0,0,1,84.62,43a27.06,27.06,0,0,1-4.15,6.34,11.91,11.91,0,0,1-5.18,3.58q-2.78.87-5.4-1.75a1.27,1.27,0,0,1-.14.58c-.2.87-.49,2.21-.88,4s-.72,3.64-1,5.54a30.39,30.39,0,0,0-.36,5.47c.05,1.74.46,3,1.24,3.64a1.9,1.9,0,0,0,1.75.51,3.88,3.88,0,0,0,1.6-.87,14.54,14.54,0,0,0,1.46-1.54c.49-.58.88-1.06,1.17-1.45q3.35-3.8,6.27-7.73t5.83-7.87c1.46-2.14,2.94-4.25,4.44-6.35A60.8,60.8,0,0,0,95.41,38.47ZM77,37.45a46.93,46.93,0,0,0-3.86,5.47,26.48,26.48,0,0,0-2.85,6.49,3.2,3.2,0,0,0,3.43.8,9,9,0,0,0,3.5-2.48,21.71,21.71,0,0,0,3.06-4.45,38.33,38.33,0,0,0,2.19-4.88,16.12,16.12,0,0,0,.94-3.87c.1-1.06-.14-1.6-.72-1.6a5.88,5.88,0,0,0-3.07,1.82C78.5,35.87,77.62,36.77,77,37.45Z"/><path class="cls-1" d="M103,31a1.83,1.83,0,0,0-.73-1.1,5.1,5.1,0,0,0-1.17-.36c-.58.78-.82,2.28-.73,4.52a64.07,64.07,0,0,0,.73,7.07q.59,3.72,1.32,6.92c.48,2.14.82,3.5,1,4.09.87-1,2.06-2.17,3.57-3.58a62.47,62.47,0,0,1,5-4.15,52.42,52.42,0,0,1,5.61-3.72A20.64,20.64,0,0,1,123,38.47a1.35,1.35,0,0,1,1.46.29c.39.39.19.73-.58,1a21,21,0,0,0-4.45,2.34q-2.4,1.6-4.88,3.64c-1.66,1.36-3.33,2.84-5,4.45l-4.89,4.59a13.5,13.5,0,0,1,.73,6.49,16.42,16.42,0,0,1-2,6A18.17,18.17,0,0,1,99.49,72a12.43,12.43,0,0,1-5.1,2.77,11.94,11.94,0,0,1-4.16.44A5.81,5.81,0,0,1,86.81,74a3.64,3.64,0,0,1-1.24-3.13q.08-2,2.4-5.25a53.91,53.91,0,0,1,4.45-5q2.4-2.4,4.88-4.74A46,46,0,0,1,94.61,45.4a34.44,34.44,0,0,1-.15-8.9,13.53,13.53,0,0,1,2.26-6.27,6.92,6.92,0,0,1,4.81-2.84,3,3,0,0,1,2.63,1,3.11,3.11,0,0,1,.65,2,1.92,1.92,0,0,1-.65,1.46Q103.57,32.35,103,31ZM89.72,70.84c.1.68.71.73,1.82.14A14.6,14.6,0,0,0,95,68.29a17.07,17.07,0,0,0,3.06-4.16,6.06,6.06,0,0,0,.81-4.23l-.44-1.31-4,4A24.82,24.82,0,0,0,91,66.9c-.29.49-.63,1.12-1,1.9A2.71,2.71,0,0,0,89.72,70.84Z"/><path class="cls-1" d="M152.27,38.33a1.37,1.37,0,0,1,.73-.22,9.53,9.53,0,0,1,1.23-.08,2.1,2.1,0,0,1,1,.22.5.5,0,0,1,.21.66,24.87,24.87,0,0,1-2.33,3.57c-.87,1.12-1.7,2.26-2.48,3.43-1.26,1.65-2.48,3.3-3.64,5s-2.38,3.31-3.65,5q-3.06,4.23-6.34,8.31a37.11,37.11,0,0,1-7.65,7.14,26.07,26.07,0,0,1-6,3.21,12.57,12.57,0,0,1-6.78.73,9.8,9.8,0,0,1-5.4-2.62A8.68,8.68,0,0,1,109,68a15.24,15.24,0,0,1,.22-5.75,44.79,44.79,0,0,1,1.74-6.05c.73-2,1.49-3.84,2.26-5.54s1.46-3.14,2-4.31c1.07-2.23,2.3-4.71,3.71-7.43a16.74,16.74,0,0,1,5.32-6.27,7.42,7.42,0,0,1,2.85-.88,22.76,22.76,0,0,1,4.08-.21,15.86,15.86,0,0,1,4,.65,4.86,4.86,0,0,1,2.62,1.61,4,4,0,0,1,.88,2.91,9.88,9.88,0,0,1-.88,3.21,14.06,14.06,0,0,1-1.82,3,16.85,16.85,0,0,1-2.11,2.26,1.54,1.54,0,0,1-1.17.22c-.58,0-.73-.27-.44-.66a12.8,12.8,0,0,0,3.06-7.14,5.5,5.5,0,0,0-.21-2.34A1.93,1.93,0,0,0,133.31,34a2.27,2.27,0,0,0-1.89.95A18,18,0,0,1,130,36.58a44.85,44.85,0,0,0-3.86,6.48c-1.12,2.29-2.22,4.55-3.28,6.78-1,2-1.85,4.09-2.63,6.13a63.23,63.23,0,0,0-2,6.41,25.63,25.63,0,0,0-.87,3.86,13.47,13.47,0,0,0,0,4c.09,1.37.43,2.19,1,2.48a3.66,3.66,0,0,0,2.77-.29,20.32,20.32,0,0,0,8.09-5,65.74,65.74,0,0,0,6.34-7.14c1.65-2.14,3.26-4.25,4.81-6.34s3.11-4.16,4.67-6.2q1.61-2.47,3.42-4.95A38.24,38.24,0,0,1,152.27,38.33Z"/><path class="cls-1" d="M184.63,38.76c.19-.38.56-.22,1.09.51a2.13,2.13,0,0,1,.51,2A30.22,30.22,0,0,1,183,46.78a99.38,99.38,0,0,1-6.56,8.46A115.4,115.4,0,0,1,168.08,64a43.33,43.33,0,0,1-8.45,6.48c-2.68,1.51-5,2-7.07,1.53s-3.4-2.52-4.09-6.12c-.19-1.07.27-2.79,1.39-5.18s2.31-4.88,3.57-7.5a61,61,0,0,0,3-7.29c.73-2.24.61-3.74-.36-4.52a27.87,27.87,0,0,1-2.41-2,14.25,14.25,0,0,1-2.11-2.48,8.74,8.74,0,0,1-1.24-2.7,4,4,0,0,1,.22-2.7,24.88,24.88,0,0,1,2.55-4.66,15.84,15.84,0,0,1,3.64-3.94,5.77,5.77,0,0,1,4.3-1.16c1.56.19,3.06,1.36,4.52,3.49a4.08,4.08,0,0,1-.14,4.31,20.92,20.92,0,0,1-2.48,3.71A21.39,21.39,0,0,1,159,37.45c-.78.49-1.12.68-1,.58a2.82,2.82,0,0,1,1.31-.07c.78,0,1.85.8,3.21,2.26a7.17,7.17,0,0,1,1.82,5.61A27.91,27.91,0,0,1,162.83,53a63,63,0,0,1-3,7.36q-1.75,3.64-2.92,6.27c1.85-.29,4-1.48,6.42-3.57a95.1,95.1,0,0,0,7.5-7.29q3.87-4.16,7.51-8.82T184.63,38.76ZM162.47,26.08q-.87-.43-2,.87a20.85,20.85,0,0,0-2.26,3.14,29.63,29.63,0,0,0-1.9,3.72,8.48,8.48,0,0,0-.8,2.62,14.45,14.45,0,0,0,4.23-3,9.47,9.47,0,0,0,2.77-5.17,3.48,3.48,0,0,0,.22-1.1A1.38,1.38,0,0,0,162.47,26.08Z"/><path class="cls-1" d="M185.36,70.69c-2.82.29-4.84-.19-6.05-1.46a7.69,7.69,0,0,1-2-5,24.15,24.15,0,0,1,.65-7,60.69,60.69,0,0,1,2.26-7.59c.93-2.47,1.8-4.71,2.63-6.7s1.43-3.43,1.82-4.3c.1-.2.53-.34,1.31-.44a13.48,13.48,0,0,1,2.48-.07c.87,0,1.68.12,2.41.22s1.09.29,1.09.58c-.78,2.53-1.63,5.05-2.55,7.58s-1.82,5.1-2.7,7.73A8.1,8.1,0,0,0,186,56c-.34,1.07-.7,2.28-1.09,3.64a41.14,41.14,0,0,0-.95,4.16,11,11,0,0,0-.14,3.5c.14.92.56,1.43,1.24,1.53s1.75-.49,3.2-1.75A35.7,35.7,0,0,0,194,60.7q2.55-3.57,5-7.28t4.88-7.59a74,74,0,0,1,5.4-7.36c.19-.29.73-.41,1.6-.36s1.17.31.88.8a68.56,68.56,0,0,1-5.83,9.33q-3.36,4.51-6.42,8.89-1.17,1.75-2.62,4a41.07,41.07,0,0,1-3.21,4.3A22.38,22.38,0,0,1,189.81,69,8.32,8.32,0,0,1,185.36,70.69Zm6.56-38a3,3,0,0,1-1.39,0c-.72-.1-1.14-.29-1.24-.58,0-.1.15-.68.44-1.75s.63-2.26,1-3.57.93-3.09,1.61-5.33c.09-.19.46-.19,1.09,0a13.69,13.69,0,0,1,2,.81,12.51,12.51,0,0,1,1.82,1.09q.8.59.66,1a19.9,19.9,0,0,1-2.48,4.3A27.08,27.08,0,0,1,191.92,32.64Z"/><path class="cls-1" d="M235.8,31.47q2.92-.28,3.94,2a11.78,11.78,0,0,1,.58,6.05A38.81,38.81,0,0,1,238.21,48a52,52,0,0,1-4.23,9,49.4,49.4,0,0,1-5.76,7.88,19.83,19.83,0,0,1-6.71,5.1,10,10,0,0,1-6.92.58q-3.43-.94-6.49-5.61l-1.31,2.19-3.5,10.06q-2.19,5.82-4.3,11.66t-4.3,11.52c-1.46,3.88-2.92,7.8-4.37,11.73a96.21,96.21,0,0,1-5.11,11.45,1.66,1.66,0,0,1-1.16.58,7.88,7.88,0,0,1-1.9.07,4.74,4.74,0,0,1-1.75-.43c-.48-.25-.68-.56-.58-1q7.58-23.47,15.67-47.31t18.15-46.29a3,3,0,0,1,1.1-.29,12.46,12.46,0,0,1,2-.15,8.12,8.12,0,0,1,1.9.22c.58.15.82.32.73.51q-2,6.85-4.16,13.42T210.73,56q1.46-2.19,3.13-4.38t3.43-4.23c1.36-1.74,2.81-3.47,4.37-5.17a67.39,67.39,0,0,1,5-4.89q1.74-1.59,4.23-3.57A9.93,9.93,0,0,1,235.8,31.47ZM216.27,64a21.66,21.66,0,0,0,4.81-3.8,73.51,73.51,0,0,0,5.17-5.75,63.74,63.74,0,0,0,4.6-6.42,57.61,57.61,0,0,0,3.2-5.76,26.61,26.61,0,0,0,1.61-5.54,7.23,7.23,0,0,0,.14-1.31V34.1c-.1-.1-.05-.24.15-.44a4.6,4.6,0,0,1-.51.22,3.41,3.41,0,0,0-.51.22,45.21,45.21,0,0,0-10,8.53q-4.59,5.17-8.38,10.28a72.35,72.35,0,0,0-6.13,8.31,4.13,4.13,0,0,0,2,2.84A3.48,3.48,0,0,0,216.27,64Z"/><path class="cls-1" d="M280,38.33a1.32,1.32,0,0,1,.72-.22,9.81,9.81,0,0,1,1.24-.08,2,2,0,0,1,1,.22.5.5,0,0,1,.22.66,24.87,24.87,0,0,1-2.33,3.57c-.87,1.12-1.7,2.26-2.48,3.43-1.26,1.65-2.48,3.3-3.64,5s-2.39,3.31-3.65,5q-3.06,4.23-6.34,8.31a37.11,37.11,0,0,1-7.65,7.14,26.07,26.07,0,0,1-6,3.21,12.57,12.57,0,0,1-6.78.73,9.8,9.8,0,0,1-5.4-2.62,8.68,8.68,0,0,1-2.18-4.6,15.43,15.43,0,0,1,.21-5.75,44.84,44.84,0,0,1,1.75-6.05c.73-2,1.49-3.84,2.26-5.54s1.46-3.14,2-4.31q1.6-3.35,3.72-7.43A16.66,16.66,0,0,1,252,32.64a7.36,7.36,0,0,1,2.85-.88,22.76,22.76,0,0,1,4.08-.21,15.86,15.86,0,0,1,4,.65,4.9,4.9,0,0,1,2.62,1.61,4,4,0,0,1,.88,2.91,9.88,9.88,0,0,1-.88,3.21,14.48,14.48,0,0,1-1.82,3,17.52,17.52,0,0,1-2.11,2.26,1.54,1.54,0,0,1-1.17.22c-.58,0-.73-.27-.44-.66a12.8,12.8,0,0,0,3.06-7.14,5.35,5.35,0,0,0-.22-2.34A1.9,1.9,0,0,0,261,34a2.27,2.27,0,0,0-1.89.95,19.58,19.58,0,0,1-1.46,1.68,44.85,44.85,0,0,0-3.86,6.48c-1.12,2.29-2.22,4.55-3.28,6.78-1,2-1.85,4.09-2.63,6.13a60.81,60.81,0,0,0-2,6.41,25.63,25.63,0,0,0-.87,3.86,13.47,13.47,0,0,0,0,4c.09,1.37.43,2.19,1,2.48a3.66,3.66,0,0,0,2.77-.29,20.39,20.39,0,0,0,8.09-5,65.74,65.74,0,0,0,6.34-7.14Q265.69,57.13,268,54t4.67-6.2c1.06-1.65,2.21-3.3,3.42-4.95A38.24,38.24,0,0,1,280,38.33Z"/><path class="cls-1" d="M280.56,70.69c-2.82.29-4.84-.19-6.05-1.46a7.69,7.69,0,0,1-2-5,24.15,24.15,0,0,1,.65-7,59.05,59.05,0,0,1,2.26-7.59c.93-2.47,1.8-4.71,2.63-6.7s1.43-3.43,1.82-4.3c.09-.2.53-.34,1.31-.44a13.45,13.45,0,0,1,2.48-.07c.87,0,1.67.12,2.4.22s1.1.29,1.1.58c-.78,2.53-1.63,5.05-2.55,7.58s-1.83,5.1-2.7,7.73a8.1,8.1,0,0,0-.66,1.75c-.34,1.07-.7,2.28-1.09,3.64a41.14,41.14,0,0,0-.95,4.16,11,11,0,0,0-.14,3.5c.14.92.56,1.43,1.24,1.53s1.74-.49,3.2-1.75a35.7,35.7,0,0,0,5.76-6.35q2.55-3.57,5-7.28t4.88-7.59a72.43,72.43,0,0,1,5.4-7.36c.19-.29.73-.41,1.6-.36s1.17.31.87.8a66.65,66.65,0,0,1-5.83,9.33q-3.35,4.51-6.41,8.89-1.17,1.75-2.63,4a39.62,39.62,0,0,1-3.2,4.3A22.08,22.08,0,0,1,285,69,8.25,8.25,0,0,1,280.56,70.69Zm6.56-38a3,3,0,0,1-1.39,0c-.73-.1-1.14-.29-1.24-.58,0-.1.15-.68.44-1.75s.63-2.26,1-3.57.92-3.09,1.6-5.33c.1-.19.46-.19,1.1,0a14.23,14.23,0,0,1,3.79,1.9c.53.39.75.73.65,1a19.4,19.4,0,0,1-2.47,4.3A27.67,27.67,0,0,1,287.12,32.64Zm33.06-7.94c-.18,0-.46-.19-.84-.58s-.53-.74-.41-1c.06-.09.51-.55,1.34-1.4l2.81-2.81,4.25-4.14c.17-.14.4,0,.67.45a8.86,8.86,0,0,1,.71,1.54,9.8,9.8,0,0,1,.45,1.75,1.3,1.3,0,0,1-.22,1.19,24.69,24.69,0,0,1-4.16,2.86A28.16,28.16,0,0,1,320.18,24.7Z"/><path class="cls-1" d="M316.57,56.4c-.68,1.37-1.44,2.75-2.26,4.16a23.23,23.23,0,0,1-2.92,3.94,19.08,19.08,0,0,1-3.72,3.13A12.27,12.27,0,0,1,303,69.38q-4.67.59-7.22-.95a8.17,8.17,0,0,1-3.57-4.37,13.74,13.74,0,0,1-.58-6.42,26.48,26.48,0,0,1,1.82-6.92,22.75,22.75,0,0,1,3.57-6,10.74,10.74,0,0,1,4.81-3.5c.2-.19.73-.22,1.61-.07s1.5.27,1.89.36A33.19,33.19,0,0,1,306.43,37a16.08,16.08,0,0,1,2.34-4.73,7.93,7.93,0,0,1,3.71-2.92c1.46-.53,3.21-.27,5.25.8a5.91,5.91,0,0,1,2.85,4.52,24.11,24.11,0,0,1,0,7,57.22,57.22,0,0,1-1.53,7.43q-1,3.64-1.75,5.54c.29-.09.34-.14.14-.14s-.1-.1.29-.29a10,10,0,0,0,4.45-3.36c1.31-1.65,2.55-3.15,3.72-4.52,1-1.36,1.92-2.69,2.84-4s1.92-2.59,3-3.86a2.62,2.62,0,0,1,1.89-.36c1,0,1.32.31,1,.8A45.45,45.45,0,0,1,330.71,45c-1.46,1.89-3,3.72-4.52,5.47s-2.87,3-3.94,4.08a7.94,7.94,0,0,1-5.1,1.89Zm-12.1,10.06a18.74,18.74,0,0,0,2.91-3,19.34,19.34,0,0,0,2.19-3.42,8.33,8.33,0,0,0,1.16-1.82c.3-.63.59-1.29.88-2a10.86,10.86,0,0,1-3.79-1.61,7.1,7.1,0,0,1-2.63-3.2,5.83,5.83,0,0,1-.72-2.19,18.23,18.23,0,0,1-.15-2.33q-1.6,3.34-3.06,6.92a39.5,39.5,0,0,0-2.19,7.37A7.53,7.53,0,0,0,299,64a6.22,6.22,0,0,0,.8,2.4,2.51,2.51,0,0,0,1.75,1.17A4,4,0,0,0,304.47,66.46Zm11.66-34.11a2.48,2.48,0,0,0-2.48,1.09,12.76,12.76,0,0,0-2,3.65,28,28,0,0,0-1.39,5,29.33,29.33,0,0,0-.51,5.32A15.88,15.88,0,0,0,310.3,52a3.63,3.63,0,0,0,2,2.55c.48-1.17,1.07-2.75,1.75-4.74a59.69,59.69,0,0,0,1.75-6.27,45,45,0,0,0,1-6.27A10,10,0,0,0,316.13,32.35Z"/><path class="cls-1" d="M372.84,37.89c.2,0,.56,0,1.1.07s.7.32.51.8a40.87,40.87,0,0,1-3.07,4.89q-1.74,2.4-3.35,4.74-3.36,4.66-6.56,9.4t-6.71,9.26a11.64,11.64,0,0,1-4.22,3.5,5.91,5.91,0,0,1-5.4,0,3.73,3.73,0,0,1-2-2.48,8.93,8.93,0,0,1-.07-3.43,16.54,16.54,0,0,1,1-3.64c.49-1.22.88-2.21,1.17-3,1.07-2.63,2.26-5.2,3.57-7.73l4-7.73,3.06-7c.19-.49.44-1.19.73-2.12a2.2,2.2,0,0,0-.15-2.11c-.09-.2-.09-.29,0-.29h-.58a3,3,0,0,0-1.82.72,14.27,14.27,0,0,0-1.82,1.68c-.59.64-1.15,1.27-1.68,1.9s-.95,1.14-1.24,1.53a106.79,106.79,0,0,0-7.44,10.35q-3.35,5.4-6.34,10.93T330,69.53c-.1.29-.58.51-1.46.65a15.87,15.87,0,0,1-2.7.22,13.53,13.53,0,0,1-2.55-.22c-.77-.14-1.11-.36-1-.65q1.61-7.87,3.94-15.6a123.85,123.85,0,0,1,5.68-15.17c.1-.19.51-.34,1.24-.43a17.8,17.8,0,0,1,2.41-.15,16.19,16.19,0,0,1,2.33.15c.68.09,1,.29.88.58A164.09,164.09,0,0,0,333,56.26q1.75-3.36,3.79-6.49c1.36-2.09,2.77-4.1,4.23-6.05.78-1.17,1.65-2.45,2.62-3.86a51,51,0,0,1,3.14-4.09,27.88,27.88,0,0,1,3.64-3.57,13.18,13.18,0,0,1,4.16-2.33q5.69-1.76,7.21.51c1,1.51,1.22,3.74.59,6.71a51.57,51.57,0,0,1-3.43,10q-2.48,5.55-4.88,10.43c-1.61,3.25-2.9,5.93-3.87,8s-1.07,3-.29,2.69a2.49,2.49,0,0,0,1-1,6.14,6.14,0,0,1,.88-1.16q1.45-2,2.84-4c.92-1.32,1.87-2.65,2.84-4q2.93-4.08,5.69-8.09t5.69-8.24c.48-.78,1-1.6,1.6-2.48A2.69,2.69,0,0,1,372.84,37.89Z"/></g></g></svg>