<svg xmlns="http://www.w3.org/2000/svg" xmlns:xlink="http://www.w3.org/1999/xlink" viewBox="0 0 36.47 20.5"><defs><style>.cls-1{fill:#be2722;}.cls-2{fill:url(#Degradado_sin_nombre_3);}.cls-3{fill:url(#Degradado_sin_nombre_4);}.cls-4{fill:#d08437;}.cls-5{fill:url(#Degradado_sin_nombre_3-2);}.cls-6{fill:#fff;}</style><linearGradient id="Degradado_sin_nombre_3" x1="19.31" y1="20.55" x2="10.35" y2="10.59" gradientUnits="userSpaceOnUse"><stop offset="0.43" stop-color="#be2722"/><stop offset="0.8" stop-color="#a21d19"/></linearGradient><linearGradient id="Degradado_sin_nombre_4" x1="37.75" y1="2.4" x2="23.09" y2="10.19" gradientUnits="userSpaceOnUse"><stop offset="0.48" stop-color="#d08437"/><stop offset="0.77" stop-color="#c45535"/></linearGradient><linearGradient id="Degradado_sin_nombre_3-2" x1="27.52" y1="20.41" x2="15.84" y2="7.44" xlink:href="#Degradado_sin_nombre_3"/></defs><g id="Capa_2" data-name="Capa 2"><g id="Capa_1-2" data-name="Capa 1"><polygon class="cls-1" points="8.89 10.71 5.06 11.74 0 20.5 4.83 20.5 9.68 12.09 10.77 10.21 8.89 10.71"/><path class="cls-2" d="M15.73,14.2,13.32,10l-.25-.43-2.3.62L9.68,12.09,10.9,14.2l1.22,2.12a8.38,8.38,0,0,0,7.25,4.18h0Z"/><polygon class="cls-3" points="31.64 0 24.37 12.59 29.2 12.59 36.47 0 31.64 0"/><path class="cls-4" d="M24.35,4.22l4.85,8.41H24.37L17.1,0h0A8.37,8.37,0,0,1,24.35,4.22Z"/><path class="cls-5" d="M17.75,12.09l2.44,4.23a8.37,8.37,0,0,0,7.24,4.18h0L20.16,7.91Z"/><polygon class="cls-6" points="26.79 15.71 28.2 13.28 25.38 13.28 26.79 15.71"/><polygon class="cls-6" points="2.9 14.17 4.3 11.73 1.49 11.73 2.9 14.17"/><rect class="cls-1" x="20.16" y="7.91" transform="translate(3.17 21.34) rotate(-59.74)"/><polygon class="cls-1" points="20.16 7.91 20.16 7.91 20.16 7.91 20.16 7.91"/><polygon class="cls-1" points="20.16 7.91 15.98 9.03 14.45 9.44 14.11 10.02 11.7 14.2 8.06 20.5 12.89 20.5 14.29 18.09 16.53 14.2 17.75 12.09 20.16 7.91 20.16 7.91"/></g></g></svg>