<svg xmlns="http://www.w3.org/2000/svg" xmlns:xlink="http://www.w3.org/1999/xlink" viewBox="0 0 121.86 146.81"><defs><style>.cls-1{fill:url(#Degradado_sin_nombre_40);}.cls-2{fill:#fff;}</style><linearGradient id="Degradado_sin_nombre_40" y1="73.4" x2="121.86" y2="73.4" gradientUnits="userSpaceOnUse"><stop offset="0.48" stop-color="#c38037"/><stop offset="0.77" stop-color="#b75535"/></linearGradient></defs><g id="Capa_2" data-name="Capa 2"><g id="Capa_1-2" data-name="Capa 1"><path class="cls-1" d="M11,0h99.8a11,11,0,0,1,11,11V99.9A46.91,46.91,0,0,1,75,146.81H11a11,11,0,0,1-11-11V11A11,11,0,0,1,11,0Z"/><polygon class="cls-2" points="60.2 84.12 57.02 84.97 50.56 86.7 42.02 101.48 50.17 101.48 58.37 87.3 60.2 84.12"/><path class="cls-2" d="M66.54,98l-.46.8c2.5,2.08,5.27,2.67,8.63,2.67h0l-5.06-8.86Z"/><polygon class="cls-2" points="60.42 90.86 60.84 91.59 61.51 90.42 64.92 84.53 64.5 83.8 64.08 83.08 60.74 84.09 58.6 87.71 60.42 90.86"/><path class="cls-2" d="M91.3,88.14l12.27-21.25H95.42L87.84,80l2.3,6.14L83.11,74A14.11,14.11,0,0,0,70.89,67h0L83.15,88.21H91.3l0-.07Z"/><path class="cls-2" d="M72.33,87.82l3.76,6.61a14.13,14.13,0,0,0,12.22,7.06L76.41,80.77Z"/><polygon class="cls-2" points="87.23 93.41 89.61 89.3 84.86 89.3 87.23 93.41"/><polygon class="cls-2" points="49.29 86.69 44.54 86.69 46.91 90.8 49.29 86.69"/><polygon class="cls-2" points="69.24 92.02 69.91 90.86 71.97 87.3 76.05 80.24 76.05 80.23 76.05 80.23 76.04 80.23 76.04 80.23 68.98 82.13 66.41 82.82 65.84 83.8 65.17 84.97 61.77 90.86 61.09 92.02 55.63 101.48 63.78 101.48 65.67 98.21 66.13 97.41 69.24 92.02"/></g></g></svg>