<svg xmlns="http://www.w3.org/2000/svg" xmlns:xlink="http://www.w3.org/1999/xlink" viewBox="0 0 1218.61 1010.58"><defs><style>.cls-1{fill:none;}.cls-2{clip-path:url(#clip-path);}.cls-3{fill:#8eb6a4;}.cls-4{fill:#4d5d69;}.cls-5{fill:#fff;}.cls-6{opacity:0.06;fill:url(#New_Pattern_2);}</style><clipPath id="clip-path"><rect class="cls-1" width="257.64" height="238.56"/></clipPath><pattern id="New_Pattern_2" data-name="New Pattern 2" width="257.64" height="238.56" patternTransform="matrix(0.98, 0.28, -0.25, 1.11, 574.3, -451.9)" patternUnits="userSpaceOnUse" viewBox="0 0 257.64 238.56"><rect class="cls-1" width="257.64" height="238.56"/><g class="cls-2"><rect class="cls-3" x="-160.2" width="578.04" height="74.37"/><path class="cls-4" d="M-128.81,10-160.2,64.37h62.78Zm0,20,14.07,24.37h-28.14Z"/><path class="cls-4" d="M-42.93,10-74.32,64.37h62.78Zm0,20,14.07,24.37H-57Z"/><path class="cls-4" d="M42.94,10,11.55,64.37H74.33Zm0,20L57,54.37H28.87Z"/><path class="cls-4" d="M128.82,10,97.43,64.37h62.78Zm0,20,14.07,24.37H114.75Z"/><path class="cls-4" d="M214.69,10,183.3,64.37h62.78Zm0,20,14.07,24.37H200.62Z"/><path class="cls-4" d="M300.57,10,269.18,64.37H332Zm0,20,14.07,24.37H286.5Z"/><path class="cls-4" d="M386.45,10,355.06,64.37h62.78Zm0,20,14.07,24.37H372.38Z"/><path class="cls-4" d="M-54.48,10h-62.78l31.39,54.37ZM-99.94,20H-71.8L-85.87,44.37Z"/><path class="cls-4" d="M31.4,10H-31.39L0,64.37ZM-14.07,20H14.07L0,44.37Z"/><path class="cls-4" d="M117.27,10H54.49L85.88,64.37ZM71.81,20H100L85.88,44.37Z"/><path class="cls-4" d="M203.15,10H140.37l31.39,54.37ZM157.69,20h28.14L171.76,44.37Z"/><path class="cls-4" d="M289,10H226.24l31.39,54.37ZM243.56,20H271.7L257.63,44.37Z"/><path class="cls-4" d="M374.9,10H312.12l31.39,54.37ZM329.44,20h28.14L343.51,44.37Z"/><rect class="cls-5" x="-160.2" y="74.37" width="578.04" height="37.19"/><rect class="cls-4" x="-160.2" y="201.38" width="578.04" height="37.19"/><polygon class="cls-3" points="128.82 84.37 118.9 101.56 138.74 101.56 128.82 84.37 118.9 101.56 138.74 101.56 128.82 84.37"/><polygon class="cls-3" points="85.88 84.37 75.96 101.56 95.8 101.56 85.88 84.37 75.96 101.56 95.8 101.56 85.88 84.37"/><polygon class="cls-3" points="42.94 84.37 33.02 101.56 52.87 101.56 42.94 84.37 33.02 101.56 52.87 101.56 42.94 84.37"/><polygon class="cls-3" points="0.01 84.37 -9.92 101.56 9.93 101.56 0.01 84.37 -9.92 101.56 9.93 101.56 0.01 84.37"/><polygon class="cls-3" points="-42.93 84.37 -52.85 101.56 -33.01 101.56 -42.93 84.37 -52.85 101.56 -33.01 101.56 -42.93 84.37"/><polygon class="cls-3" points="-85.87 84.37 -95.79 101.56 -75.95 101.56 -85.87 84.37 -95.79 101.56 -75.95 101.56 -85.87 84.37"/><polygon class="cls-3" points="-128.81 84.37 -138.73 101.56 -118.89 101.56 -128.81 84.37 -138.73 101.56 -118.89 101.56 -128.81 84.37"/><polygon class="cls-3" points="171.76 84.37 161.84 101.56 181.68 101.56 171.76 84.37 161.84 101.56 181.68 101.56 171.76 84.37"/><polygon class="cls-3" points="214.7 84.37 204.78 101.56 224.62 101.56 214.7 84.37 204.78 101.56 224.62 101.56 214.7 84.37"/><polygon class="cls-3" points="257.64 84.37 247.72 101.56 267.56 101.56 257.64 84.37 247.72 101.56 267.56 101.56 257.64 84.37"/><polygon class="cls-3" points="300.58 84.37 290.65 101.56 310.5 101.56 300.58 84.37 290.65 101.56 310.5 101.56 300.58 84.37"/><polygon class="cls-3" points="343.52 84.37 333.59 101.56 353.44 101.56 343.52 84.37 333.59 101.56 353.44 101.56 343.52 84.37"/><polygon class="cls-3" points="386.45 84.37 376.53 101.56 396.38 101.56 386.45 84.37 376.53 101.56 396.38 101.56 386.45 84.37"/><polygon class="cls-3" points="128.82 228.56 118.9 211.38 138.74 211.38 128.82 228.56 118.9 211.38 138.74 211.38 128.82 228.56"/><polygon class="cls-3" points="85.88 211.38 75.96 228.56 95.8 228.56 85.88 211.38 75.96 228.56 95.8 228.56 85.88 211.38"/><polygon class="cls-3" points="42.94 228.56 33.02 211.38 52.87 211.38 42.94 228.56 33.02 211.38 52.87 211.38 42.94 228.56"/><polygon class="cls-3" points="0.01 211.38 -9.92 228.56 9.93 228.56 0.01 211.38 -9.92 228.56 9.93 228.56 0.01 211.38"/><polygon class="cls-3" points="-42.93 228.56 -52.85 211.38 -33.01 211.38 -42.93 228.56 -52.85 211.38 -33.01 211.38 -42.93 228.56"/><polygon class="cls-3" points="-85.87 211.38 -95.79 228.56 -75.95 228.56 -85.87 211.38 -95.79 228.56 -75.95 228.56 -85.87 211.38"/><polygon class="cls-3" points="-128.81 228.56 -138.73 211.38 -118.89 211.38 -128.81 228.56 -138.73 211.38 -118.89 211.38 -128.81 228.56"/><polygon class="cls-3" points="171.76 211.38 161.84 228.56 181.68 228.56 171.76 211.38 161.84 228.56 181.68 228.56 171.76 211.38"/><polygon class="cls-3" points="214.7 228.56 204.78 211.38 224.62 211.38 214.7 228.56 204.78 211.38 224.62 211.38 214.7 228.56"/><polygon class="cls-3" points="257.64 211.38 247.72 228.56 267.56 228.56 257.64 211.38 247.72 228.56 267.56 228.56 257.64 211.38"/><polygon class="cls-3" points="300.58 228.56 290.65 211.38 310.5 211.38 300.58 228.56 290.65 211.38 310.5 211.38 300.58 228.56"/><polygon class="cls-3" points="343.52 211.38 333.59 228.56 353.44 228.56 343.52 211.38 333.59 228.56 353.44 228.56 343.52 211.38"/><polygon class="cls-3" points="386.45 228.56 376.53 211.38 396.38 211.38 386.45 228.56 376.53 211.38 396.38 211.38 386.45 228.56"/><rect class="cls-3" x="-160.2" y="111.56" width="578.04" height="89.82"/><path class="cls-5" d="M163.73,156.47l-34.91-34.91L93.91,156.47l34.91,34.91ZM128.82,135.7l20.77,20.77-20.77,20.76-20.77-20.76Z"/><path class="cls-5" d="M128.82,149.84l-6.63,6.63,6.63,6.62,6.62-6.62-6.62-6.63"/><path class="cls-5" d="M77.85,156.47,42.94,121.56,8,156.47l34.91,34.91ZM42.94,135.7l20.77,20.77L42.94,177.23,22.17,156.47Z"/><path class="cls-5" d="M42.94,149.84l-6.62,6.63,6.62,6.62,6.63-6.62-6.63-6.63"/><path class="cls-5" d="M-8,156.47l-34.91-34.91-34.91,34.91,34.91,34.91ZM-42.93,135.7l20.76,20.77-20.76,20.76L-63.7,156.47Z"/><path class="cls-5" d="M-42.93,149.84l-6.63,6.63,6.63,6.62,6.62-6.62-6.62-6.63"/><path class="cls-5" d="M-93.9,156.47l-34.91-34.91-34.91,34.91,34.91,34.91Zm-34.91-20.77L-108,156.47l-20.77,20.76-20.77-20.76Z"/><path class="cls-5" d="M-128.81,149.84l-6.62,6.63,6.62,6.62,6.63-6.62-6.63-6.63"/><path class="cls-5" d="M249.61,156.47,214.7,121.56l-34.91,34.91,34.91,34.91ZM214.7,135.7l20.76,20.77L214.7,177.23l-20.77-20.76Z"/><path class="cls-5" d="M214.7,149.84l-6.63,6.63,6.63,6.62,6.62-6.62-6.62-6.63"/><path class="cls-5" d="M335.49,156.47l-34.91-34.91-34.91,34.91,34.91,34.91ZM300.58,135.7l20.76,20.77-20.76,20.76-20.77-20.76Z"/><path class="cls-5" d="M300.58,149.84,294,156.47l6.63,6.62,6.62-6.62-6.62-6.63"/><path class="cls-5" d="M421.37,156.47l-34.91-34.91-34.92,34.91,34.92,34.91ZM386.46,135.7l20.76,20.77-20.76,20.76-20.77-20.76Z"/><path class="cls-5" d="M386.46,149.84l-6.63,6.63,6.63,6.62,6.62-6.62-6.62-6.63"/><polygon class="cls-5" points="75.11 191.38 85.88 180.61 96.65 191.38 110.79 191.38 85.88 166.47 60.97 191.38 75.11 191.38"/><polygon class="cls-5" points="75.11 121.56 85.88 132.32 96.65 121.56 110.79 121.56 85.88 146.47 60.97 121.56 75.11 121.56"/><polygon class="cls-5" points="-10.76 121.56 0 132.32 10.77 121.56 24.91 121.56 0 146.47 -24.91 121.56 -10.76 121.56"/><polygon class="cls-5" points="-96.64 121.56 -85.87 132.32 -75.11 121.56 -60.96 121.56 -85.87 146.47 -110.78 121.56 -96.64 121.56"/><polygon class="cls-5" points="160.99 121.56 171.76 132.32 182.52 121.56 196.67 121.56 171.76 146.47 146.85 121.56 160.99 121.56"/><polygon class="cls-5" points="246.87 121.56 257.63 132.32 268.4 121.56 282.54 121.56 257.63 146.47 232.72 121.56 246.87 121.56"/><polygon class="cls-5" points="332.74 121.56 343.51 132.32 354.28 121.56 368.42 121.56 343.51 146.47 318.6 121.56 332.74 121.56"/><polygon class="cls-5" points="-10.76 191.38 0.01 180.61 10.77 191.38 24.92 191.38 0.01 166.47 -24.9 191.38 -10.76 191.38"/><polygon class="cls-5" points="-96.64 191.38 -85.87 180.61 -75.1 191.38 -60.96 191.38 -85.87 166.47 -110.78 191.38 -96.64 191.38"/><polygon class="cls-5" points="160.99 191.38 171.76 180.61 182.52 191.38 196.67 191.38 171.76 166.47 146.85 191.38 160.99 191.38"/><polygon class="cls-5" points="246.87 191.38 257.63 180.61 268.4 191.38 282.54 191.38 257.63 166.47 232.72 191.38 246.87 191.38"/><polygon class="cls-5" points="332.74 191.38 343.51 180.61 354.28 191.38 368.42 191.38 343.51 166.47 318.6 191.38 332.74 191.38"/></g></pattern></defs><g id="Capa_2" data-name="Capa 2"><g id="Capa_1-2" data-name="Capa 1"><rect class="cls-6" width="1218.61" height="1010.58"/></g></g></svg>