<svg xmlns="http://www.w3.org/2000/svg" viewBox="0 0 264.58 45.18"><defs><style>.cls-1{fill:#308e93;}</style></defs><g id="Capa_2" data-name="Capa 2"><g id="Capa_1-2" data-name="Capa 1"><path class="cls-1" d="M59.24,38.54C58.39,38.22,58,38,58,37.43s.4-.89,1.1-.89a2.46,2.46,0,0,1,1.34.38l.3-.87a3.22,3.22,0,0,0-1.61-.41,2,2,0,0,0-2.26,1.93c0,.78.55,1.43,1.73,1.85.88.33,1.22.64,1.22,1.21s-.41,1-1.27,1A3.17,3.17,0,0,1,57,41.13l-.29.91a3.73,3.73,0,0,0,1.84.45c1.56,0,2.45-.82,2.45-2C61,39.55,60.38,39,59.24,38.54Z"/><path class="cls-1" d="M73.87,38.33c0-1.32-.48-2.69-2.49-2.69a4,4,0,0,0-2.16.59l.28.78a3.22,3.22,0,0,1,1.7-.49A1.35,1.35,0,0,1,72.69,38v.14c-2.53,0-3.94.85-3.94,2.44a1.87,1.87,0,0,0,2,1.88,2.42,2.42,0,0,0,2-1h0l.1.83H74a9.35,9.35,0,0,1-.11-1.57Zm-1.15,1.81a1.27,1.27,0,0,1-.07.38,1.62,1.62,0,0,1-1.58,1.1,1.06,1.06,0,0,1-1.13-1.14c0-1.27,1.48-1.5,2.78-1.48Z"/><path class="cls-1" d="M86,35.64a2.44,2.44,0,0,0-2.23,1.21h0V32.73H82.57v7.93c0,.58,0,1.24-.06,1.69h1l0-1.08h0a2.35,2.35,0,0,0,2.2,1.23c1.46,0,2.94-1.17,2.94-3.51C88.79,37,87.64,35.64,86,35.64Zm-.42,5.91a1.84,1.84,0,0,1-1.79-1.39,3.12,3.12,0,0,1,0-.44V38.54a2,2,0,0,1,.07-.48,1.9,1.9,0,0,1,1.81-1.47c1.28,0,2,1.13,2,2.44C87.58,40.54,86.84,41.55,85.59,41.55Z"/><path class="cls-1" d="M99.65,35.64c-1.91,0-3.07,1.56-3.07,3.54a3,3,0,0,0,3.22,3.31,5.26,5.26,0,0,0,2.18-.41l-.2-.85a4.32,4.32,0,0,1-1.81.33,2.09,2.09,0,0,1-2.25-2.27h4.6a3.5,3.5,0,0,0,0-.56C102.36,37.53,101.79,35.64,99.65,35.64Zm-1.92,2.79a2,2,0,0,1,1.83-1.93,1.69,1.69,0,0,1,1.65,1.93Z"/><path class="cls-1" d="M111.7,37.08h-.06l0-1.29h-1c0,.61,0,1.28,0,2.05v4.51h1.18v-3.5a3,3,0,0,1,.06-.55,1.66,1.66,0,0,1,1.6-1.53,1.59,1.59,0,0,1,.4,0V35.68a1.67,1.67,0,0,0-.34,0A2,2,0,0,0,111.7,37.08Z"/><path class="cls-1" d="M136,36.78h0a2.2,2.2,0,0,0-2.05-1.14c-1.5,0-2.95,1.26-2.95,3.49a2.92,2.92,0,0,0,2.79,3.19,2.34,2.34,0,0,0,2.09-1.09h0V42c0,1.65-.89,2.29-2.11,2.29a3.76,3.76,0,0,1-1.93-.52l-.29.91a4.24,4.24,0,0,0,2.18.54,3.47,3.47,0,0,0,2.38-.78,3.77,3.77,0,0,0,.94-3V37.59c0-.8,0-1.32.05-1.8h-1Zm-.14,2.78a2.41,2.41,0,0,1-.09.64,1.75,1.75,0,0,1-1.66,1.22c-1.29,0-1.94-1.07-1.94-2.36,0-1.52.82-2.48,2-2.48a1.71,1.71,0,0,1,1.66,1.26,1.54,1.54,0,0,1,.07.54Z"/><path class="cls-1" d="M148.59,35.64a3.21,3.21,0,0,0-3.26,3.49,3.12,3.12,0,0,0,3.15,3.37A3.2,3.2,0,0,0,151.74,39,3.1,3.1,0,0,0,148.59,35.64Zm-.06,6c-1.16,0-2-1.09-2-2.53,0-1.24.61-2.54,2-2.54s2,1.41,2,2.52C150.52,40.54,149.67,41.61,148.53,41.61Z"/><path class="cls-1" d="M160.67,41.38c.3-.34.57-.67.84-1l2.93-3.81v-.75h-5v1H163v0c-.3.35-.57.67-.85,1l-3,3.86v.69h5.33v-1h-3.84Z"/><path class="cls-1" d="M177.11,38.33c0-1.32-.49-2.69-2.5-2.69a4,4,0,0,0-2.15.59l.27.78a3.26,3.26,0,0,1,1.71-.49A1.35,1.35,0,0,1,175.93,38v.14c-2.54,0-4,.85-4,2.44a1.87,1.87,0,0,0,2,1.88,2.42,2.42,0,0,0,2-1h0l.09.83h1.08a9.42,9.42,0,0,1-.1-1.57ZM176,40.14a1.26,1.26,0,0,1-.06.38,1.64,1.64,0,0,1-1.59,1.1,1.05,1.05,0,0,1-1.12-1.14c0-1.27,1.47-1.5,2.77-1.48Z"/><path class="cls-1" d="M186.89,37.08h-.06l0-1.29h-1c0,.61.05,1.28.05,2.05v4.51H187v-3.5a4.31,4.31,0,0,1,.05-.55,1.67,1.67,0,0,1,1.6-1.53,1.62,1.62,0,0,1,.41,0V35.68a1.67,1.67,0,0,0-.34,0A2,2,0,0,0,186.89,37.08Z"/><polygon class="cls-1" points="12.73 12.21 4.19 0.77 0 0.77 0 26.2 5.39 26.2 5.39 11.37 11.5 19.57 13.96 19.57 20.03 11.43 20.03 26.2 25.43 26.2 25.43 0.77 21.27 0.77 12.73 12.21"/><path class="cls-1" d="M47,16.18A5.4,5.4,0,0,1,37.78,20a5.26,5.26,0,0,1-1.57-3.81V.77H30.82V16.18A10.39,10.39,0,0,0,34,23.81a10.78,10.78,0,0,0,15.25,0,10.39,10.39,0,0,0,3.16-7.63V.77H47Z"/><polygon class="cls-1" points="73.19 15.75 62.22 0.77 57.79 0.77 57.79 26.2 63.18 26.2 63.18 11.22 74.15 26.2 78.59 26.2 78.59 0.77 73.19 0.77 73.19 15.75"/><path class="cls-1" d="M93.91.77,82,26.2h6l1.45-3.09h13.06l1.45,3.09h6L97.91.77Zm-2,17,4-8.51,4,8.51Z"/><polygon class="cls-1" points="130.24 0.77 124.02 0.77 123.07 2.39 126.18 7.74 130.24 0.77"/><polygon class="cls-1" points="118.31 10.57 112.61 0.77 106.36 0.77 115.6 16.64 115.6 26.2 121 26.2 121 16.64 123.06 13.1 119.95 7.76 118.31 10.57"/><polygon class="cls-1" points="133.53 0.77 127.83 10.57 126.18 7.74 123.06 13.1 125.12 16.64 125.12 26.2 130.51 26.2 130.51 16.64 139.76 0.77 133.53 0.77"/><polygon class="cls-1" points="122.13 0.77 115.87 0.77 119.95 7.76 123.07 2.39 122.13 0.77"/><polygon class="cls-1" points="123.07 2.39 119.95 7.76 123.06 13.1 126.18 7.74 123.07 2.39"/><path class="cls-1" d="M152.12.77h-4l-12,25.43h6l1.45-3.09h13.07l1.45,3.09h5.94Zm-6,17,4-8.51,4,8.51Z"/><path class="cls-1" d="M183.58,19.2a8.08,8.08,0,0,1-11.43,0,7.81,7.81,0,0,1-2.37-5.73,7.77,7.77,0,0,1,2.37-5.7,8.05,8.05,0,0,1,11.43,0l3.82-3.83a13.51,13.51,0,0,0-19.07,0,13,13,0,0,0-4,9.53,13,13,0,0,0,4,9.55,13.48,13.48,0,0,0,19.07,0Z"/><polygon class="cls-1" points="207.53 10.79 196.74 10.79 196.74 0.77 191.35 0.77 191.35 26.2 196.74 26.2 196.74 16.18 207.53 16.18 207.53 26.2 212.92 26.2 212.92 0.77 207.53 0.77 207.53 10.79"/><path class="cls-1" d="M228.24.77l-12,25.43h6l1.45-3.09h13.07l1.45,3.09h5.94L232.25.77Zm-2,17,4-8.51,4,8.51Z"/><polygon class="cls-1" points="258.35 0.77 252.65 10.57 246.95 0.77 240.69 0.77 249.94 16.64 249.94 26.2 255.33 26.2 255.33 16.64 264.57 0.77 258.35 0.77"/><path class="cls-1" d="M195.57,38.67a1,1,0,1,0,1,1A1,1,0,0,0,195.57,38.67Z"/><circle class="cls-1" cx="51.33" cy="39.7" r="1.03"/></g></g></svg>