<svg xmlns="http://www.w3.org/2000/svg" viewBox="0 0 271.52 192.83"><defs><style>.cls-1{fill:#308e93;}.cls-2{fill:#fff;}.cls-3{fill:#ed7e00;}</style></defs><g id="Capa_2" data-name="Capa 2"><g id="Capa_1-2" data-name="Capa 1"><path class="cls-1" d="M62.35,64c-6.58,1.88-9.32,1.22-10.93-2.55s-.1-6.3,5.51-9.61l-3.11-6.8c-.51-1.13-1.06-2.23-1.52-3.38-1.54-3.83-.2-7.29,3.56-9,7.13-3.29,14.28-6.53,21.42-9.8,15.77-7.2,31.61-14.24,47.26-21.67,6-2.86,11.26-.38,13.23,5.06.7,1.92,1.69,3.75,2.63,5.82,2-.91,3.74-1.73,5.5-2.51,2.33-1,4-.44,5.08,1.89,1.79,4,3.45,8.1,5.25,12.12.81,1.83,1.89,3.53,2.73,5.35q4.8,10.4,9.52,20.83c1.19,2.61.62,4.13-1.95,5.33-1.69.8-3.39,1.56-5.36,2.46l1,2.24c5.48,12,10.93,24,16.44,35.95,1.23,2.67,1.63,5.3.35,8.05a8.88,8.88,0,0,1-4.77,4.33q-19.52,8.85-39,17.78c-9.92,4.53-19.9,8.93-29.73,13.65-4.63,2.22-8.69.19-10.33-3.87-1.26-3.12-2.77-6.13-4.25-9.38-2.68,1.24-5.35,2.48-8,.78A8.42,8.42,0,0,1,80,123.87c-1.67-3.46-.3-5.77,5.34-9.53l-4-8.87c-.79.36-1.57.76-2.39,1.08a6.45,6.45,0,0,1-5.43-11.68c.74-.38,1.52-.69,2.43-1.11l-4.13-9c-2.49,1.16-5.1,2.38-7.71.72a8.39,8.39,0,0,1-3-3.17c-1.69-3.5-.23-6,5.26-9.55ZM60.06,50.46c6.31-2.11,9.23-1.64,10.86,2a8.42,8.42,0,0,1,.53,4.5c-.48,3.16-3.29,4.25-5.8,5.42l4.12,9c.9-.42,1.66-.79,2.44-1.11A6.45,6.45,0,0,1,77.54,82c-.79.4-1.61.74-2.39,1.1l4.15,9.09c.92-.42,1.67-.8,2.45-1.11A6.45,6.45,0,0,1,87,102.84c-.79.4-1.6.74-2.42,1.11L88.74,113c.86-.38,1.59-.77,2.37-1.07,3.58-1.36,7.06-.06,8.54,3.17s.14,6.87-3.33,8.64c-.72.37-1.47.68-2.17,1a6.75,6.75,0,0,0,.25.88c1.39,3.08,2.77,6.16,4.2,9.22,1.05,2.24,2.65,2.87,4.94,1.88,2.62-1.13,5.2-2.35,7.8-3.54l4.11-1.88c-2.47-5.41-4.8-10.55-7.16-15.67-.52-1.13-.71-2.25.59-2.83s2,.29,2.53,1.42c2,4.56,4.14,9.1,6.22,13.65.29.62.63,1.22,1,2l1.91-.87,51.9-23.71c4-1.81,4.87-4.32,3-8.34Q155,52.12,134.56,7.29c-1.87-4.09-4.32-5-8.47-3.09L74.36,27.82l-2,.92,1.08,2.37Q82.54,51,91.63,71c.25.53.72,1.11.64,1.6a3,3,0,0,1-1,2c-.39.23-1.4-.27-1.94-.69s-.55-1-.79-1.53q-9.15-20-18.29-40c-.31-.68-.68-1.33-1.06-2.09C65,32.14,60.92,33.92,57,35.83a3.08,3.08,0,0,0-1.67,4.08C56.79,43.42,58.43,46.87,60.06,50.46Zm.12,3.87c-1.41.65-2.86,1.22-4.23,2a2.78,2.78,0,0,0-1.42,3.76c.63,1.65,2,2.44,3.55,1.84a84.36,84.36,0,0,0,8.83-4A2.83,2.83,0,0,0,68,54a3,3,0,0,0-4-1.42C62.75,53.1,61.47,53.74,60.18,54.33ZM91,122.48h0l2-.89c.7-.32,1.42-.62,2.11-1a3.13,3.13,0,0,0,1.7-3.89,3,3,0,0,0-3.82-1.79c-2.94,1.18-5.83,2.49-8.64,4a2.79,2.79,0,0,0-1,4,2.84,2.84,0,0,0,3.82,1.31C88.38,123.73,89.65,123.07,91,122.48ZM69.6,75.19h0c-1.3.59-2.62,1.14-3.89,1.79a3,3,0,0,0-1.66,3.87,2.88,2.88,0,0,0,3.8,1.79,92.61,92.61,0,0,0,8.47-3.89c1.54-.8,1.79-2.36,1.16-3.9a3,3,0,0,0-4-1.42C72.18,74,70.9,74.6,69.6,75.19Zm12,26.39h0l2-.89c.65-.3,1.31-.57,1.94-.91a3,3,0,0,0,1.55-3.93c-.74-1.5-2.08-2.34-3.7-1.7A92.41,92.41,0,0,0,74.88,98a2.88,2.88,0,0,0-1.15,4,3,3,0,0,0,4,1.31C79.05,102.81,80.33,102.17,81.63,101.58Zm83.89-49.75-5-10.92-5.65,2.58,5,10.92Zm-13-28.35-4.95-10.86L142,15.2l5,10.85Zm-4.11,5.9,4.93,10.81L159,37.62l-4.94-10.81Z"/><path class="cls-1" d="M98.22,85.44a7.21,7.21,0,0,1,1,2.31,2.45,2.45,0,0,1-.85,2,2.18,2.18,0,0,1-2.06-.68,19.62,19.62,0,0,1-2.11-4.58c-.18-.6.42-1.44.66-2.18a6.45,6.45,0,0,1,2.29.85A6.68,6.68,0,0,1,98.22,85.44Z"/><path class="cls-1" d="M105.16,100.62a6.3,6.3,0,0,1,.91,2.12,7.31,7.31,0,0,1-.7,2.36c-.76-.3-1.85-.39-2.23-.95a14.94,14.94,0,0,1-1.93-4.22c-.19-.66.43-1.54.68-2.32a7.17,7.17,0,0,1,2.26.93A6.2,6.2,0,0,1,105.16,100.62Z"/><path class="cls-1" d="M115.77,126.82c-1-4.9-3.63-8.61-6.06-12.79-1.23-2.1-1.34-4.7-2-7A53.12,53.12,0,0,0,105,99.2c-1.54-3.47-3.46-6.77-5-10.24-1.86-4.13-3.21-8.48-5.17-12.56C92,70.52,87.93,65.3,85,59.47c-3.41-6.8-5.24-14.36-9.38-20.8-.91-1.42-2-2.42-2.15-4.07s.63-2.71-.1-4.38c-1.21-2.74-4.22-3.94-6.77-2.15A34.47,34.47,0,0,1,55.85,33.2c-6.47,1.8-.71,13,1,16.92a3.51,3.51,0,0,0,.66,1.1,3.34,3.34,0,0,0,3,.52,17.82,17.82,0,0,1,4.8-.58c1.61.17,3.28,1.23,3.48,2.84.41,3.09-4.48,4.81-4.35,7.92a5.4,5.4,0,0,0,.42,1.67l3.92,10.52a6,6,0,0,1,7.67-1.62c2.41,1.56,2.88,5.56.64,7.36-.88.7-2.12,1.14-2.46,2.21A3.37,3.37,0,0,0,74.78,84L77.6,94.21,84.32,93a3.76,3.76,0,0,1,1.7-.06,3,3,0,0,1,1.65,1.39c2.71,4.27-.42,7.16-3.26,9.78-2,1.8-1.19,2.66,0,4.63,1.41,2.42,2.34,5,3.86,7.43a1,1,0,0,0,.34.37,1,1,0,0,0,.87-.18l2.64-1.53c1.15-.68,2.51-1.37,3.76-.9A17.85,17.85,0,0,1,97.2,119a5.92,5.92,0,0,1-1.68,4.82c-.7.63-1.62,1.06-2.07,1.87-1.39,2.46,2.49,7.34,3.89,9.18,1.54,2,4.4,3.47,6.84,1.79C108.37,133.8,117.25,134.12,115.77,126.82Z"/><path class="cls-1" d="M225.61,34.6a10.43,10.43,0,0,0,8.86,2.07c-.11,1.08-.18,2.12-.34,3.16a93.63,93.63,0,0,1-3,12.8A92.07,92.07,0,0,1,226,66.7a22.72,22.72,0,0,1-2.31,3.73c-.77,1-1.64.82-1.94-.41a20,20,0,0,1-.59-4.2,109.51,109.51,0,0,1,2.3-23.26c.48-2.47,1.26-4.89,1.91-7.34C225.42,35,225.52,34.84,225.61,34.6Z"/><path class="cls-1" d="M235.24,13.69a7.1,7.1,0,0,0,.73,5c.55,1,1.22,1.9,1.83,2.86a16.69,16.69,0,0,1,1.28,2.15c1.32,3,.28,5.68-1.67,8s-4.44,2.79-7.25,2A6.75,6.75,0,0,1,224.87,28a13.74,13.74,0,0,1,3.48-12.17A7.27,7.27,0,0,1,235.24,13.69Z"/><rect class="cls-1" x="84.25" y="27.56" width="47.99" height="3" transform="translate(-2.49 46.32) rotate(-23.89)"/><rect class="cls-1" x="91.13" y="42.38" width="47.99" height="3" transform="translate(-7.91 50.38) rotate(-23.89)"/><rect class="cls-1" x="99.03" y="59.79" width="47.99" height="3" transform="translate(-14.28 55.06) rotate(-23.89)"/><path class="cls-1" d="M135.15,72.14,107.36,84.45l1.21,2.74,26.8-11.86A13.64,13.64,0,0,1,135.15,72.14Z"/><path class="cls-2" d="M210.89,41.78a30.43,30.43,0,0,1-5.91,18c-1.67,2.27-5.12,4.12-4,6.84,1,2.48,5.38,4.29,7.65,5.22,3.65,1.49,7.55,2.54,10.74,4.86,3.65,2.65,6,6.7,8.2,10.63l5,8.84a17.35,17.35,0,0,1,2.28,5.36,17.4,17.4,0,0,1-.32,5.88l-2.24,13.15a9.45,9.45,0,0,1-1.17,3.7,8.76,8.76,0,0,1-3.58,2.73c-15.1,7.52-32.64,7.78-49.51,7.89-15.85.1-32.31.08-46.66-6.66a4.79,4.79,0,0,1-2.09-1.52,5,5,0,0,1-.56-2.59c-.24-6.6-.47-13.25.63-19.76,2.49-14.72,12.51-28.29,26.43-33.68,1.35-.52,3-1.25,3.09-2.69.44-4.91-2.62-7.39-4.86-11.39a30.37,30.37,0,1,1,56.89-14.81Z"/><path class="cls-3" d="M235.62,107.44c-.75-23.14-8.75-34.21-30.37-41.89-.25-.09-.35-.58-.51-.88C218.41,45.8,212,27.45,200.89,17.9a33,33,0,0,0-43.19.26c-13.9,12.23-14.64,29-1.95,48.58l-2.21.91a11.15,11.15,0,0,1,4.53,6.8,33.51,33.51,0,0,1,4-.48c12.07-.67,24.16-.94,36.26-1.19,17.4-.37,30.47,13.09,31.59,32.46.27,4.78.31,9.57.48,15.17l-96.26,2.92C131,108.62,133,95.5,139.44,86.42a11.64,11.64,0,0,1-3.54-6.69,37.33,37.33,0,0,0-8.2,19.16c-.92,6.59,0,13.44.18,20.17.22,8.25,1.17,9.13,9.37,8.89,27.14-.81,54.27-1.68,81.41-2.46C237.66,125,236.22,126.2,235.62,107.44ZM179.36,69.22a26.13,26.13,0,0,1-26.06-26c-.13-14.9,11.32-26.34,26.32-26.3s26.11,11.46,26,26.59A26,26,0,0,1,179.36,69.22Z"/><path class="cls-3" d="M138.05,74.81a3.22,3.22,0,0,1,.53.25,1.36,1.36,0,0,0,2-.2c1.85-1.85,2.86-1.52,3.8,1.06,4.09,11.27,8.29,22.49,12.45,33.73.64,1.72.42,2.2-1.33,2.84-1.92.72-3.83,1.43-5.76,2.13-1.28.46-1.89.2-2.35-1.07q-6.93-18.94-13.82-37.9a4.08,4.08,0,0,1-.1-1.81q1.44-9.56,2.94-19.11c.28-1.84,1.43-2.25,2.85-1q7.44,6.39,14.86,12.82a3.65,3.65,0,0,1,1,1.4q7,18.69,14,37.4c.56,1.48.29,2-1.22,2.6Q165,109,162,110.06c-1.39.51-2,.25-2.47-1.12Q153.1,91.5,146.64,74c-.54-1.48,0-2.41,1.63-2.31s2.51-.44,2.86-2a.75.75,0,0,1,.08-.18c.68-.94.48-1.6-.48-2.29A46.23,46.23,0,0,1,147,64.13a1.12,1.12,0,0,0-1.31-.23c-2.52,1-5,1.9-7.59,2.79a1.25,1.25,0,0,0-.94,1.16c-.23,1.71-.43,3.42-.78,5.09-.18.86,0,1.28.83,1.51A8.16,8.16,0,0,1,138.05,74.81Z"/><path class="cls-3" d="M173.71,122.33a5.73,5.73,0,0,1-3.22,3c-3.74,1.4-7.47,2.82-11.24,4.14a5.58,5.58,0,0,1-7.29-3.39c-.85-2.18-1.63-4.38-2.42-6.58a1.49,1.49,0,0,1,1-2.23q9.31-3.45,18.64-6.88c1.06-.39,1.73-.16,2.09.77q1.43,3.67,2.72,7.4A5.17,5.17,0,0,1,173.71,122.33Z"/><path class="cls-1" d="M270.2,132.2l0,0a5.07,5.07,0,0,0-5.06-1.26,20.59,20.59,0,0,0-5.37,2.25,46,46,0,0,0-5,3.33c-.77.58-1.51,1.17-2.23,1.77-.11-.62-.21-1.25-.32-1.9-.16-1.05-.29-2.08-.39-3.08a4.6,4.6,0,0,0,1.36-.69,5.52,5.52,0,0,0,2.12-4.11A6.49,6.49,0,0,0,254,124.2a6.3,6.3,0,0,0-5.4-2.51l-.56,0a9.74,9.74,0,0,0-6.62,3.94,15.1,15.1,0,0,0-2.58,7c-.05.39-.09.78-.13,1.22l-.55.72a21.37,21.37,0,0,0-.26-3.54,8.86,8.86,0,0,0-3.17-5.77,9.68,9.68,0,0,0,1.64-.66l1.2-.64v-3.85h1.15v-4a8.79,8.79,0,0,0-2.17-6.16,8,8,0,0,0-6.11-2.43,8.5,8.5,0,0,0-6.27,2.58,7.65,7.65,0,0,0-.65.74v-9.31h-8.58v6.09a7.86,7.86,0,0,0-1.32-.1,7.69,7.69,0,0,0-6.07,2.76,10.05,10.05,0,0,0-2.18,6.68,9.32,9.32,0,0,0,2,6.33c.06.08.14.15.21.23-.46.11-.93.22-1.43.37a15.05,15.05,0,0,0-4.67,2.61A27.08,27.08,0,0,0,198,130c-.46.53-.9,1.08-1.34,1.64a5.41,5.41,0,0,0-2.41-.92c-.54-.07-1.12-.12-1.73-.14a6.33,6.33,0,0,0-1.32-.29,7.15,7.15,0,0,0-2.39.13,4.9,4.9,0,0,0-3,1.91,4.53,4.53,0,0,0-.62.89l-.08.18c-.48,1.07-1,2.2-1.48,3.46s-1.18,2.33-1.79,3.43a65.67,65.67,0,0,1-4.11,6.54l-.07.1a41.08,41.08,0,0,1-2.89,3.81c-.17.21-.35.41-.53.61.34-.9.7-1.85,1.08-2.83,1.22-3.1,2.45-6.07,3.65-8.83s2.29-5.15,3.23-7.1c1.4-2.92,1.74-3.73,1.81-4.56a4.24,4.24,0,0,0-.38-2.27,6.78,6.78,0,0,0,2.13-.62l.6-.32a6.56,6.56,0,0,0,3.75,1,7.38,7.38,0,0,0,2.19-.32h7.87V115.42c0-5-2.87-7.86-7.88-7.86a14.34,14.34,0,0,0-3.17.39,13.52,13.52,0,0,0-2.15.65v-.72h-3v-4.73l-8.56,2.45v2.28h-2.13v.05c-.37-.08-.74-.16-1.12-.21a12.84,12.84,0,0,0-4.76.13,8.38,8.38,0,0,0-2.53,1,6,6,0,0,0-.84.64v-1.65H164a4.36,4.36,0,0,0,.42-1.92,4.12,4.12,0,0,0-1.4-3.17,5,5,0,0,0-6.37,0,4.12,4.12,0,0,0-1.42,3.18,4.27,4.27,0,0,0,.44,1.92h-.16v9.76H151.2v-15h-8.67v19.13a7.37,7.37,0,0,0-.84-.06l-.56,0a9.74,9.74,0,0,0-6.62,3.94,12.92,12.92,0,0,0-1.39,2.48,9.09,9.09,0,0,0-1.5-2.39,8.52,8.52,0,0,0-1.33-1.22,5.52,5.52,0,0,0,1.33-2.25,6.22,6.22,0,0,0,.44-2.1c0-1.87-1-4.17-5.66-4.47-1.3-.08-2.85-.16-4.68-.24s-3.45-.11-5.23-.12c.47-1.4,1-2.81,1.43-4.22,1.08-3.17,2.17-6.28,3.24-9.24a4.14,4.14,0,0,0-.1-3.24,4.61,4.61,0,0,0-3.27-2.5,13.84,13.84,0,0,0-5-.13,4.8,4.8,0,0,0-3.87,2.53c-1.56,3.12-3,6.35-4.27,9.59-.89,2.28-1.77,4.6-2.61,6.93-2.2,0-4.4,0-6.61.16-3,.16-6,.24-9,.24H84.63l-1.19,1.33a4.36,4.36,0,0,0-.68,1,7.57,7.57,0,0,0-2.51-.79,8.82,8.82,0,0,0-6.4,1.71,17,17,0,0,0-3.69,3.89c.07-.27.13-.55.2-.82,1.43-5.59,2.91-11.25,4.4-16.84a4.24,4.24,0,0,0-.38-3.21,4.67,4.67,0,0,0-2.35-2L68,99c-.94-.08-1.84-.12-2.67-.12H63.64l-.33,0c-1.19.2-2.44.86-4.46,2.34a45.4,45.4,0,0,0-6.17,6,140.21,140.21,0,0,0-8.76,11.22c-3.1,4.34-6.67,9.94-10.62,16.65h-.06c-2.86.25-5.51.58-7.9,1s-4.83.89-7.16,1.42-4.7,1.13-7,1.78-4.73,1.28-7.58,2l-.5.16a4.72,4.72,0,0,0-3,4.95,6.78,6.78,0,0,0,1.08,3,10.78,10.78,0,0,0,1.43,1.81,4.58,4.58,0,0,0,5.31,1.08c1.39-.54,3-1.16,5-1.88s4.12-1.44,6.47-2.12,4.91-1.33,7.57-1.91l.83-.17c-1,2.11-2,4.23-3.06,6.34l-3.23,6.58c-1,2.13-1.93,4-2.65,5.49l-.39.81v.9c0,1.49.7,3.47,4,4.39.83.23,1.76.44,2.75.62s1.79.32,2.63.44a5,5,0,0,0,4.39-.85l1.4-1.21v-1c.89-2,1.87-4.12,2.91-6.34,1.12-2.4,2.28-4.81,3.43-7.16s2.27-4.59,3.34-6.73c.67-1.35,1.33-2.62,2-3.78,1.57-.18,3.14-.36,4.7-.56.68-.08,1.35-.16,2-.22-.16.76-.32,1.55-.47,2.34s-.44,2.35-.85,4.77-.85,5-1.33,8-.92,6.27-1.28,9.58-.6,6.56-.68,9.47a37.38,37.38,0,0,0,.49,8c.83,4.45,3.14,5.92,4.93,6.37l.48.12h.32l.67.09a18.5,18.5,0,0,0,2.37.15,16,16,0,0,0,2.35-.17,4.58,4.58,0,0,0,3.6-2.35,4.2,4.2,0,0,0,.33-2.91,70.19,70.19,0,0,1-1.39-10.33,76.7,76.7,0,0,1,.06-9.84c.23-3.23.6-6.43,1.09-9.51s1.09-6.37,1.73-9.57c.23-1.31.48-2.55.74-3.7.05-.25.11-.51.17-.77h1.25l3.94.24h.07l-.56,1.2c-1,2.17-2,4.23-3,6.2-1.33,2.83-1.77,4.88-1.45,6.69,1.1,5.76,4.06,7.62,6.35,8.16,2.68.64,5.61.09,8.7-1.66A35.41,35.41,0,0,0,85.68,161a87.36,87.36,0,0,0-2.23,11,34.83,34.83,0,0,0,0,10.66l.15.59c.39,1.18,1.43,2.7,4.13,3.2a15,15,0,0,0,2.83.25,12.66,12.66,0,0,0,3.07-.36,4.79,4.79,0,0,0,4-4.22c.7-5.6,1.61-10.95,2.73-15.87,1-4.28,2.07-8.49,3.27-12.57a18.24,18.24,0,0,0,1.47,6.4,13.48,13.48,0,0,0,7.13,6.91,8.21,8.21,0,0,0,7.64-.32,17.4,17.4,0,0,0,4-3.2c.27-.26.53-.53.78-.8a6.78,6.78,0,0,0,2.39,4.39,8.66,8.66,0,0,0,5.1,1.94,13.62,13.62,0,0,0,4.7-.49,14.26,14.26,0,0,0,5.8-3.13,18.83,18.83,0,0,0,4-4.92l.27-.49a8.28,8.28,0,0,0,4.18,2.34,10.6,10.6,0,0,0,5.39.05,14.68,14.68,0,0,0,3.17-1.24,11.27,11.27,0,0,0,1.26,2.59l.15.23a8.59,8.59,0,0,0,5.12,3.3,9.33,9.33,0,0,0,5.76-.59l.12-.06a19.42,19.42,0,0,0,4.8-3.22l.71-.64a4.94,4.94,0,0,0,3.42,2.08l.44.08h4.76l.49-.07c2.64-.44,3.76-1.79,4.23-2.94,1-2.24,2.09-4.46,3.2-6.63,0,.14,0,.29-.08.44a11.41,11.41,0,0,0,.11,4.33,7,7,0,0,0,3.6,4.66l.2.1a8.79,8.79,0,0,0,7.93,0,13.63,13.63,0,0,0,4.06-3,11.15,11.15,0,0,0,1.6,1.17c2.21,1.32,5,1.75,8.47,1.31l.16,0a14.18,14.18,0,0,0,5.34-2,19.65,19.65,0,0,0,3.83-3.23,23,23,0,0,0,2.9-3.91c.33-.57.65-1.13,1-1.69a10.64,10.64,0,0,0,3.16-1.13c-.72.8-1.4,1.63-2.05,2.47l-.08.1c-1.8,2.47-2.67,4.54-2.74,6.52A7,7,0,0,0,234,167a8.71,8.71,0,0,0,5.1,1.94,13.6,13.6,0,0,0,4.7-.49,14.13,14.13,0,0,0,5.8-3.13,18.83,18.83,0,0,0,4-4.92,17.45,17.45,0,0,0,2.11-6.35,14.84,14.84,0,0,0-.1-4.56c.75-.69,1.51-1.41,2.28-2.14,1.32-1.24,2.64-2.41,3.93-3.47a44.45,44.45,0,0,1,3.68-2.75,13.56,13.56,0,0,1,2.83-1.5,4.64,4.64,0,0,0,3.14-3.36A4.42,4.42,0,0,0,270.2,132.2Z"/><path class="cls-2" d="M74.74,139.68a1.36,1.36,0,0,0,1-.59q.3-.48-.66-.72a12.1,12.1,0,0,0-4-.54c-1.4,0-2.77.06-4.13.06H62.42q1.9-8.61,4.07-17t4.42-16.92q.12-.36-.9-.6a18.77,18.77,0,0,0-2.27-.35c-.84-.08-1.63-.12-2.39-.12H64a9.08,9.08,0,0,0-2.75,1.61,42,42,0,0,0-5.56,5.44,134,134,0,0,0-8.49,10.88q-5,6.94-11.42,18.06a3.87,3.87,0,0,1-1,.12,4,4,0,0,0-1,.12q-4.31.36-7.83.95t-6.94,1.38q-3.4.78-6.87,1.73c-2.31.64-4.87,1.32-7.65,2A.76.76,0,0,0,4,146a2.91,2.91,0,0,0,.48,1.26,5.78,5.78,0,0,0,.89,1.13q.48.48.84.24l5.2-2q3-1.14,6.76-2.21t7.83-2a66.61,66.61,0,0,1,8.43-1.25c-.88,1.91-1.85,4-2.93,6.28s-2.17,4.54-3.29,6.81S26,158.8,25,160.91s-1.91,3.92-2.63,5.44q0,.24,1.08.54c.72.2,1.51.38,2.39.54s1.71.3,2.51.41,1.2.14,1.2.06q1.55-3.47,3.29-7.17c1.15-2.47,2.31-4.88,3.46-7.23s2.27-4.61,3.35-6.76,2.09-4.07,3-5.74q3.35-.36,6.7-.78c2.23-.28,4.46-.45,6.69-.54h1c-.32,1.28-.62,2.52-.9,3.71s-.54,2.43-.78,3.71c-.16.8-.43,2.35-.83,4.66s-.84,5-1.32,8-.89,6.12-1.25,9.39-.58,6.32-.66,9.15a34.06,34.06,0,0,0,.42,7.11c.36,1.92,1,3,2,3.23l1,.12a13.91,13.91,0,0,0,1.85.12,11.37,11.37,0,0,0,1.73-.12q.78-.12.66-.36a74.39,74.39,0,0,1-1.49-11.06A80.85,80.85,0,0,1,57.52,167c.24-3.35.61-6.64,1.13-9.87s1.1-6.43,1.74-9.62c.24-1.36.49-2.65.77-3.89s.58-2.53.9-3.89H66.6c1.36.09,2.71.17,4.07.24A17.44,17.44,0,0,0,74.74,139.68ZM61.16,123q-2.08,7.37-3.76,14.89h-1q-6.22.24-12.43.72c.39-.64.77-1.24,1.13-1.8a16.76,16.76,0,0,1,1.14-1.55q4.3-7,9-13.87t10.1-13.15Q63.25,115.65,61.16,123Z"/><path class="cls-2" d="M118.92,121.51q4.24.24,8.43.24c.16,0,.31-.24.48-.72a5.62,5.62,0,0,0,.23-.84c0-.24-.63-.39-1.91-.47s-2.81-.16-4.6-.24-3.67-.12-5.62-.12-3.61,0-5-.12q1.55-4.67,3.16-9.39t3.29-9.39c.08-.15-.12-.29-.59-.41a7,7,0,0,0-1.68-.18,11.27,11.27,0,0,0-1.73.12c-.52.08-.82.2-.9.35-1.52,3-2.89,6.12-4.13,9.27s-2.41,6.32-3.52,9.51q-4.55-.12-9.21.12t-9.21.24c-.08,0-.1.18-.06.53s.14.54.3.54q4.43,0,8.79.06t8.67.3q-1.8,5-3.59,10.11c-.47,1.34-1,2.68-1.44,4C97.68,137,96,139.17,94,141.72s-4,5-6.16,7.23a77.13,77.13,0,0,1-6.16,6,11.38,11.38,0,0,1-5.26,2.93c.64-1.43,1.43-3.15,2.39-5.14a51.64,51.64,0,0,0,2.45-6,23.16,23.16,0,0,0,1.2-5.86,5.87,5.87,0,0,0-1.5-4.6c-1.11-1.2-2-1.82-2.63-1.86a5.26,5.26,0,0,0-.94,0,7.56,7.56,0,0,0,.7-.43,17.34,17.34,0,0,0,3.23-3.46,17,17,0,0,0,2-3,3.34,3.34,0,0,0,.11-3.53c-1.19-1.75-2.43-2.71-3.7-2.87a4.74,4.74,0,0,0-3.53,1,13,13,0,0,0-3,3.23A21,21,0,0,0,71.15,129a3.24,3.24,0,0,0-.18,2.21,7.38,7.38,0,0,0,1,2.22,11.59,11.59,0,0,0,1.73,2,21.4,21.4,0,0,0,2,1.67c.8.64.9,1.88.3,3.71a48,48,0,0,1-2.45,6c-1,2.15-2,4.2-2.93,6.16s-1.29,3.37-1.14,4.24c.56,3,1.68,4.63,3.35,5s3.61,0,5.8-1.25a36.5,36.5,0,0,0,6.94-5.32,93.55,93.55,0,0,0,6.81-7.18q1.63-1.91,3-3.69c-.74,1.91-1.51,3.91-2.29,6q-2,5.32-3.47,10.83a85.75,85.75,0,0,0-2.21,10.76,31,31,0,0,0,0,9.44q.12.36,1.08.54a11.23,11.23,0,0,0,2.09.18,8.57,8.57,0,0,0,2.09-.24c.64-.16,1-.4,1-.71a163.06,163.06,0,0,1,2.81-16.39q1.73-7.65,3.94-14.88T105.11,136q2.51-7.18,5.26-15.07Q114.67,121.27,118.92,121.51Zm-43.71,11.6a6.78,6.78,0,0,1,.66-2.15,23.71,23.71,0,0,1,1.56-3.05,15.92,15.92,0,0,1,1.85-2.57c.64-.72,1.2-1,1.67-.72a1.13,1.13,0,0,1,.18.9,2.85,2.85,0,0,1-.18.89,7.77,7.77,0,0,1-2.27,4.25A11.89,11.89,0,0,1,75.21,133.11Z"/><path class="cls-2" d="M267.37,135a1.09,1.09,0,0,0-1.2-.24,16.53,16.53,0,0,0-4.42,1.86,43.66,43.66,0,0,0-4.61,3,52.85,52.85,0,0,0-4.06,3.41c-1.24,1.16-2.22,2.14-2.93,2.93-.16-.48-.44-1.59-.84-3.35s-.76-3.64-1.08-5.68a49.37,49.37,0,0,1-.59-5.8c-.08-1.83.12-3.06.59-3.7a3.9,3.9,0,0,1,1,.3,1.47,1.47,0,0,1,.6.89c.32.72.64,1,1,.72a1.55,1.55,0,0,0,.54-1.19,2.55,2.55,0,0,0-.54-1.68,2.46,2.46,0,0,0-2.15-.84,5.64,5.64,0,0,0-3.94,2.34,11,11,0,0,0-1.86,5.14c-.09.69-.13,1.42-.16,2.18-.7.85-1.37,1.72-2,2.6l-2.33,3.29c-1,1.12-2,2.35-3.05,3.71a8.21,8.21,0,0,1-3.65,2.75,1.2,1.2,0,0,0-.29.17c.39-1,.84-2.47,1.37-4.36a45.81,45.81,0,0,0,1.26-6.1,20.41,20.41,0,0,0,0-5.74,4.83,4.83,0,0,0-2.34-3.7,5.29,5.29,0,0,0-4.3-.66,6.55,6.55,0,0,0-3.05,2.39,12.83,12.83,0,0,0-1.91,3.89c-.08.26-.15.5-.22.75a2.18,2.18,0,0,0-1.64,1l-1,1.56a1.26,1.26,0,0,0-.9.11,8.88,8.88,0,0,0-4,2.87,19.08,19.08,0,0,0-2.93,4.91,21.76,21.76,0,0,0-1.45,5.41l-.4.57c-.8,1.11-1.57,2.21-2.33,3.28l-2.33,3.29a5,5,0,0,0-.72,1,2.11,2.11,0,0,1-.84.84c-.63.23-.55-.5.24-2.22s1.86-3.9,3.17-6.57,2.65-5.52,4-8.55a42.22,42.22,0,0,0,2.81-8.19c.51-2.43.36-4.27-.48-5.5s-2.81-1.38-5.92-.42a10.75,10.75,0,0,0-3.41,1.91,23.62,23.62,0,0,0-3,2.93c-.91,1.08-1.77,2.19-2.57,3.35s-1.51,2.21-2.15,3.17c-1.2,1.59-2.35,3.25-3.47,5s-2.15,3.49-3.11,5.32a135.61,135.61,0,0,1,4.67-14.23q.12-.36-.72-.48a13.65,13.65,0,0,0-1.91-.12h-.12a2.13,2.13,0,0,0-.9-.3,3.57,3.57,0,0,0-1.08.06.78.78,0,0,0-.65.48.36.36,0,0,0,0,.09.36.36,0,0,0-.2.15c-.52,1.15-1,2.3-1.48,3.46-.62,1.26-1.26,2.5-1.93,3.72a71.28,71.28,0,0,1-4.36,6.93,46.09,46.09,0,0,1-3.17,4.19c-1.16,1.35-2.38,2.67-3.65,3.94-.64.56-1.3,1.12-2,1.68s-1.34,1.11-2,1.67c-1.51,1.2-2.33,1.22-2.45.06a15.18,15.18,0,0,1,.9-5.32c.72-2.39,1.69-5.16,2.93-8.31s2.47-6.14,3.7-9,2.34-5.24,3.29-7.23a26.4,26.4,0,0,0,1.44-3.23q.12-.36-.72-.54a13,13,0,0,0-2-.24,21.47,21.47,0,0,0-2.27,0q-1.08.06-1.2.3a19.92,19.92,0,0,0-2.15,4c-.56,1.39-1.08,2.8-1.56,4.24a7.33,7.33,0,0,0-1.43-3.71,5.77,5.77,0,0,0-3.59-2,5.25,5.25,0,0,0-3.88.72,15.62,15.62,0,0,0-2.93,2.51c-.86,1-1.67,2.12-2.46,3.22-.33.17-.67.35-1,.55a43.66,43.66,0,0,0-4.61,3,52.85,52.85,0,0,0-4.06,3.41c-1.24,1.16-2.21,2.14-2.93,2.93-.16-.48-.44-1.59-.84-3.35s-.76-3.64-1.07-5.68a51.71,51.71,0,0,1-.6-5.8c-.08-1.83.12-3.06.6-3.7a4,4,0,0,1,.95.3,1.47,1.47,0,0,1,.6.89q.48,1.08,1,.72a1.61,1.61,0,0,0,.54-1.19,2.6,2.6,0,0,0-.54-1.68,2.48,2.48,0,0,0-2.16-.84,5.66,5.66,0,0,0-3.94,2.34,11,11,0,0,0-1.85,5.14,22.35,22.35,0,0,0-.18,3.25c-.78,1.31-1.58,2.59-2.45,3.8q-1.86,2.58-3.65,5.2l-4.78,6.46c-1.6,2.15-3.31,4.27-5.15,6.34-.24.32-.55.72-1,1.19a12.19,12.19,0,0,1-1.2,1.26,3.1,3.1,0,0,1-1.31.72,1.59,1.59,0,0,1-1.44-.42,4,4,0,0,1-1-3,24.71,24.71,0,0,1,.29-4.48c.24-1.56.52-3.07.84-4.55s.56-2.57.72-3.29a1,1,0,0,0,.12-.48c1.43,1.44,2.91,1.92,4.42,1.44a9.63,9.63,0,0,0,4.25-2.93,22.4,22.4,0,0,0,3.41-5.2,29.43,29.43,0,0,0,2-5.38,5.76,5.76,0,0,0-1.26-4.73,4.64,4.64,0,0,0-1.91-1.31,3.93,3.93,0,0,0-2.45-.06,15.26,15.26,0,0,0-5.44,3.35,32.87,32.87,0,0,0-5.2,6,40.74,40.74,0,0,0-4.07,7.47,23.93,23.93,0,0,0-1.91,7.71,14.75,14.75,0,0,0,1.13,6.88,9.5,9.5,0,0,0,5.08,4.84,4.18,4.18,0,0,0,4-.12,13.31,13.31,0,0,0,3.17-2.51,38.49,38.49,0,0,0,3.11-3.53c1-1.23,1.87-2.45,2.75-3.64q3.47-4.31,6.87-8.79c.85-1.11,1.64-2.26,2.4-3.42a38.23,38.23,0,0,0,2.09,7.78c-1.36,1.28-2.69,2.57-4,3.89a45.57,45.57,0,0,0-3.65,4.12,8.69,8.69,0,0,0-2,4.31,3,3,0,0,0,1,2.57,4.76,4.76,0,0,0,2.81,1,10.09,10.09,0,0,0,3.41-.35,10.32,10.32,0,0,0,4.18-2.28,15,15,0,0,0,3.17-3.88,13.42,13.42,0,0,0,1.61-4.9,11.19,11.19,0,0,0-.59-5.33l4-3.76c1.4-1.32,2.77-2.53,4.13-3.65.31-.26.62-.48.93-.73-.32.52-.63,1-.93,1.57-.48,1-1.08,2.29-1.8,4a25.64,25.64,0,0,0-1.55,5.21,11.24,11.24,0,0,0,.06,4.78,3.71,3.71,0,0,0,3,2.75,6.59,6.59,0,0,0,3.41.06,10.68,10.68,0,0,0,3.1-1.38,15.8,15.8,0,0,0,2.81-2.27,25.68,25.68,0,0,0,2.4-2.75v.48a20.71,20.71,0,0,0-.72,4.54,7.34,7.34,0,0,0,1.19,4.43,4.59,4.59,0,0,0,2.75,1.79,5.41,5.41,0,0,0,3.35-.36,15.4,15.4,0,0,0,3.83-2.57q1.78-1.6,3.35-3.29,3-3.22,5.74-6.81a.61.61,0,0,1,.07-.1q-1.42,5-2.47,10.14c-.07.24.2.42.84.54a11.38,11.38,0,0,0,2.09.18,13.48,13.48,0,0,0,2.22-.18c.71-.12,1.11-.3,1.19-.54,1.44-3.19,3-6.29,4.61-9.33s3.36-6,5.2-9a83.54,83.54,0,0,1,6.1-8.49c.23-.32.57-.74,1-1.26s.9-1,1.38-1.55a12,12,0,0,1,1.49-1.38,2.49,2.49,0,0,1,1.5-.6H209q-.12,0,0,.24a1.82,1.82,0,0,1,.12,1.74c-.23.76-.43,1.33-.59,1.73L206,138.13l-3.29,6.34q-1.62,3.1-2.93,6.34c-.24.63-.56,1.45-1,2.45a13.8,13.8,0,0,0-.84,3,7.33,7.33,0,0,0,.06,2.81,3,3,0,0,0,1.62,2,4.79,4.79,0,0,0,4.42,0,9.53,9.53,0,0,0,3.47-2.87q1.41-1.82,2.76-3.69a9.84,9.84,0,0,0,.35,1.24,6.66,6.66,0,0,0,2.93,3.58c1.39.84,3.37,1.1,5.92.78a10.14,10.14,0,0,0,3.82-1.43,15.58,15.58,0,0,0,3-2.57,18.6,18.6,0,0,0,2.39-3.23c.68-1.16,1.3-2.29,1.86-3.41h.48a6.57,6.57,0,0,0,4.18-1.55c.88-.88,2-2,3.23-3.35s2.51-2.93,3.71-4.49c.19-.24.35-.51.54-.76,0,.37.06.74.11,1.12a38.54,38.54,0,0,0,2.21,8.55c-1.35,1.28-2.69,2.57-4,3.89a44.09,44.09,0,0,0-3.65,4.12,8.69,8.69,0,0,0-2,4.31,3,3,0,0,0,1,2.57,4.74,4.74,0,0,0,2.81,1,10,10,0,0,0,3.4-.35,10.29,10.29,0,0,0,4.19-2.28,15,15,0,0,0,3.17-3.88,13.61,13.61,0,0,0,1.61-4.9,11.07,11.07,0,0,0-.6-5.33c1.28-1.19,2.61-2.45,4-3.76s2.77-2.53,4.12-3.65,2.69-2.11,4-3a17.45,17.45,0,0,1,3.65-1.91Q267.83,135.5,267.37,135Zm-148.93,3.41a38.48,38.48,0,0,1,3.17-4.49c.48-.55,1.19-1.29,2.15-2.21a4.79,4.79,0,0,1,2.51-1.49c.48,0,.68.44.6,1.31a13.28,13.28,0,0,1-.78,3.17,31.84,31.84,0,0,1-1.79,4,17.84,17.84,0,0,1-2.51,3.65,7.5,7.5,0,0,1-2.87,2,2.61,2.61,0,0,1-2.81-.66A21.53,21.53,0,0,1,118.44,138.43Zm20.44,17.4a14.11,14.11,0,0,1-2.51,3.41,12.1,12.1,0,0,1-2.87,2.21c-.91.48-1.41.44-1.49-.12a2.19,2.19,0,0,1,.24-1.68c.32-.63.6-1.15.84-1.55a19.37,19.37,0,0,1,2.81-3.53l3.28-3.29.36,1.08A5,5,0,0,1,138.88,155.83ZM166.21,145a74.9,74.9,0,0,1-5.62,7.53l-1.8,2.09a11,11,0,0,1-2.09,2,2,2,0,0,1-1.85.42c-.56-.19-.92-1-1.08-2.45a9.27,9.27,0,0,1,.66-4.18,43.57,43.57,0,0,1,2.33-5.5,57.38,57.38,0,0,1,3.17-5.56,21.46,21.46,0,0,1,3.35-4.19,4.2,4.2,0,0,1,2.81-1.43c.79,0,1.31.89,1.55,2.57a12,12,0,0,1,.18,2.69,19.94,19.94,0,0,1-.3,2.69A28.28,28.28,0,0,1,166.21,145Zm59.66,6a6.4,6.4,0,0,1-1,1.5,16.63,16.63,0,0,1-1.8,2.81,15,15,0,0,1-2.39,2.45,3.25,3.25,0,0,1-2.39.9,2,2,0,0,1-1.43-1,5.19,5.19,0,0,1-.66-2,6.14,6.14,0,0,1,.06-2.27,32.27,32.27,0,0,1,1.79-6q1.2-2.94,2.51-5.68a15.31,15.31,0,0,0,.12,1.91,4.69,4.69,0,0,0,.6,1.79,5.83,5.83,0,0,0,2.15,2.63,8.91,8.91,0,0,0,3.11,1.32C226.35,149.93,226.11,150.47,225.87,151Zm5-17.21a35.86,35.86,0,0,1-.78,5.14,48.18,48.18,0,0,1-1.44,5.14c-.55,1.63-1,2.93-1.43,3.89a3,3,0,0,1-1.67-2.1,13,13,0,0,1-.48-3.7,24.08,24.08,0,0,1,.42-4.37,22,22,0,0,1,1.13-4.12,10.48,10.48,0,0,1,1.68-3,2,2,0,0,1,2-.9A8.14,8.14,0,0,1,230.84,133.77Zm.41,14.28a.69.69,0,0,0,.05-.13l.07,0C231.53,147.94,231.49,148,231.25,148.05Zm14.53,7.78a14.38,14.38,0,0,1-2.51,3.41,12.1,12.1,0,0,1-2.87,2.21c-.91.48-1.41.44-1.49-.12a2.19,2.19,0,0,1,.24-1.68c.32-.63.59-1.15.83-1.55a20.27,20.27,0,0,1,2.81-3.53c1.08-1.07,2.17-2.17,3.29-3.29l.36,1.08A5,5,0,0,1,245.78,155.83Z"/><path class="cls-2" d="M155.74,123.27h-11V104.89h4.14v15h6.81Z"/><path class="cls-2" d="M159.87,108.07a2.37,2.37,0,0,1-1.68-.61,2,2,0,0,1-.66-1.5,1.87,1.87,0,0,1,.66-1.48,2.72,2.72,0,0,1,3.36,0,1.9,1.9,0,0,1,.65,1.48,2,2,0,0,1-.65,1.52A2.41,2.41,0,0,1,159.87,108.07Zm2,15.2h-4.05V110.14h4.05Z"/><path class="cls-2" d="M164.42,122.92v-3.28a8.75,8.75,0,0,0,2,.9,6.83,6.83,0,0,0,1.88.29,4.11,4.11,0,0,0,1.69-.29,1,1,0,0,0,.63-.9.82.82,0,0,0-.29-.64,2.61,2.61,0,0,0-.72-.45,9,9,0,0,0-1-.35,11.82,11.82,0,0,1-2.39-1,4,4,0,0,1-1-.78,3.1,3.1,0,0,1-.61-1,4.21,4.21,0,0,1-.21-1.4,3.62,3.62,0,0,1,.48-1.9,3.88,3.88,0,0,1,1.28-1.3,6,6,0,0,1,1.83-.74,9.45,9.45,0,0,1,2.15-.24,11.94,11.94,0,0,1,1.77.14,13.51,13.51,0,0,1,1.76.39v3.13a6.38,6.38,0,0,0-1.64-.68,7,7,0,0,0-1.73-.22,3.67,3.67,0,0,0-.75.07,2.65,2.65,0,0,0-.62.2,1.13,1.13,0,0,0-.42.35.81.81,0,0,0-.15.48.89.89,0,0,0,.23.62,2,2,0,0,0,.6.44,6.52,6.52,0,0,0,.83.33l.9.3a12.57,12.57,0,0,1,1.46.62,4.46,4.46,0,0,1,1.12.78,3.17,3.17,0,0,1,.72,1,3.67,3.67,0,0,1,.25,1.44,3.73,3.73,0,0,1-.51,2,3.91,3.91,0,0,1-1.34,1.34,6.1,6.1,0,0,1-1.94.76,10.6,10.6,0,0,1-2.27.24A11.56,11.56,0,0,1,164.42,122.92Z"/><path class="cls-2" d="M184.76,123.11a5.94,5.94,0,0,1-2.71.48q-4.28,0-4.28-4.45v-6h-2.13v-3h2.13v-2.83l4-1.15v4h2.95v3h-2.95v5.31c0,1.36.54,2,1.63,2a2.78,2.78,0,0,0,1.32-.38Z"/><path class="cls-2" d="M198,123.27h-3.84v-1.89h-.05a4.28,4.28,0,0,1-3.91,2.21,4.05,4.05,0,0,1-3-1.09,3.87,3.87,0,0,1-1.1-2.89q0-3.81,4.53-4.4l3.56-.48c0-1.43-.78-2.15-2.33-2.15a8,8,0,0,0-4.46,1.39v-3a9.87,9.87,0,0,1,2.31-.76,11.76,11.76,0,0,1,2.67-.34q5.63,0,5.62,5.6Zm-3.81-5.33v-.89l-2.38.31c-1.32.17-2,.76-2,1.78a1.46,1.46,0,0,0,.48,1.13,1.84,1.84,0,0,0,1.3.45,2.42,2.42,0,0,0,1.86-.79A2.85,2.85,0,0,0,194.15,117.94Z"/><path class="cls-2" d="M221.24,123.27h-4.05v-1.81h-.05a4.53,4.53,0,0,1-4.06,2.13,5,5,0,0,1-4-1.74,7.18,7.18,0,0,1-1.5-4.85,7.85,7.85,0,0,1,1.65-5.22,5.43,5.43,0,0,1,4.34-2,3.67,3.67,0,0,1,3.53,1.82h.05v-7.8h4.05Zm-4-6.39v-1a3.12,3.12,0,0,0-.74-2.13,2.48,2.48,0,0,0-1.94-.85,2.45,2.45,0,0,0-2.1,1.06,4.94,4.94,0,0,0-.76,2.9,4.29,4.29,0,0,0,.73,2.67,2.6,2.6,0,0,0,4,0A4.16,4.16,0,0,0,217.27,116.88Z"/><path class="cls-2" d="M236.44,117.86h-8.56c.14,1.9,1.34,2.86,3.6,2.86a7.05,7.05,0,0,0,3.81-1v2.92a10,10,0,0,1-4.73,1,6.11,6.11,0,0,1-6.69-6.68,7,7,0,0,1,1.9-5.18,6.32,6.32,0,0,1,4.66-1.91,5.71,5.71,0,0,1,4.44,1.71,6.53,6.53,0,0,1,1.57,4.62Zm-3.75-2.49q0-2.82-2.28-2.82a2.19,2.19,0,0,0-1.69.81,3.68,3.68,0,0,0-.86,2Z"/></g></g></svg>