<svg xmlns="http://www.w3.org/2000/svg" viewBox="0 0 294.57 208.35"><defs><style>.cls-1{fill:#8c4a05;}.cls-2{fill:#ed7e00;}.cls-3{fill:#308e93;}.cls-4{fill:#fff;}.cls-5{fill:none;}.cls-6,.cls-7{fill:#222221;}.cls-6{fill-rule:evenodd;}</style></defs><g id="Capa_2" data-name="Capa 2"><g id="Capa_1-2" data-name="Capa 1"><path class="cls-1" d="M30.39,8.35c-6,4.25-6.94,14.87-14.2,15.88.93-.14,2.92,5.12,2.53,5.95,3.15-.68,5.05-4.49,8.26-4.77a18.93,18.93,0,0,0,2.5-.07,5.69,5.69,0,0,0,2.69-2c1.15-1.28,2.37-2.74,2.29-4.45.93,2.68,2.48,4,4.23,6s1.9,5.59,1.54,8.05c-.27,1.89.31,4.49-1.43,5.84a9.93,9.93,0,0,1-2,1,7.3,7.3,0,0,0-3.69,4.52,14.21,14.21,0,0,0-.35,5.95,3.93,3.93,0,0,1-.25,2.57A11,11,0,0,1,31.37,54a1.22,1.22,0,0,0-.24,1.46,2.37,2.37,0,0,0,.66.46A2.7,2.7,0,0,1,33,58.71c-.21.93-.94,1.81-.71,2.74a2.91,2.91,0,0,0,.37.8l1.55,2.54a6.63,6.63,0,0,1,1,2.08c.38,1.83-.8,3.63-.83,5.49s1.14,3.65,2.43,5.08a19.66,19.66,0,0,1,3.57,4.49,4.24,4.24,0,0,0,1,1.71,6.4,6.4,0,0,0,2.18.69c.74.23,1.46,1,1.1,1.69.94-1.78,3,2.52,3,3a1.66,1.66,0,0,0,.09.63c.31.64,1.27.33,2,.5s1.19,1.12,1.54,1.89a22.84,22.84,0,0,0,1.91,3.23,2.47,2.47,0,0,0,.53.63,1.69,1.69,0,0,0,1.56.19,13,13,0,0,0,3.71-1.94c1.46,3.06-.49,5.81,2.73,8.33-1.93.41-4.13,1-4.95,2.83-.72,1.59-.13,3.74-1.38,5a31.87,31.87,0,0,1,6-2.61l.07,3.8a.45.45,0,0,0,.12.37c.11.09.27.06.41.07,1,0,1.24,1.49.92,2.48s-.76,2.21,0,2.91a7.08,7.08,0,0,0,3.71,1.15l-.21,2.23a1.82,1.82,0,0,1,1.9,1.22c.24.73,0,1.62.48,2.23a5.78,5.78,0,0,0,1,.73A6.71,6.71,0,0,1,71,127c.4.74,1.22,1.43,2,1.14a3.07,3.07,0,0,0,.86-.63,3.72,3.72,0,0,1,2.52-.85,3.45,3.45,0,0,1,1.87,2c.48,1.22.57,2.7,1.58,3.54-1.7.07-3.87.55-4.1,2.23-.17,1.27,1,2.29,1.56,3.41a4.69,4.69,0,0,1,0,4.27,4.74,4.74,0,0,1,1.62,1,1.6,1.6,0,0,1,.38,1.75,3.36,3.36,0,0,1-.81.83,3.87,3.87,0,0,0-.72,5.27,2.44,2.44,0,0,1,.53.79,1.38,1.38,0,0,1-.69,1.37c-.46.31-1,.49-1.42.83a3.5,3.5,0,0,0-1,3.07c.21,2.58,1.71,5.14,1,7.62-.54,1.77-3.28,6.07,0,7.25.88.31,1.82-.21,2.72-.5s2.17-.13,2.37.79c.09.38,0,.83.17,1.15.4.58,1.41.14,2,.57a1.38,1.38,0,0,1,.39.82,6.75,6.75,0,0,1-.92,4.84c-.45.71-1.07,1.52-.77,2.31.37.95,1.68,1,2.66,1.25a3.48,3.48,0,0,1,2.28,2.19,2.22,2.22,0,0,0,.57,1.12c.31.24.76.22,1.13.36,1,.39,1.27,1.83.91,2.89s-1.11,2-1.37,3.06c-.14.59-.14,1.21-.27,1.8-.21,1-.78,1.86-.69,2.83s.78,1.76,1,2.7a5.68,5.68,0,0,1-.48,3.25,6.17,6.17,0,0,0-.56,3.25c.23,1.09,1.35,2.07,2.4,1.71a3.38,3.38,0,0,0,1.14-.82,17.16,17.16,0,0,1,9.9-4.23,21.06,21.06,0,0,0,3.17-.58c4.19-1.25,7.15-5,11.14-6.78,2.7-1.2,5.74-1.43,8.52-2.44s5.51-3.2,5.66-6.16a4.83,4.83,0,0,1,.13-1.37,3.36,3.36,0,0,1,.73-1.1l1.86-2.1a6.6,6.6,0,0,1,1.89-1.65,2.22,2.22,0,0,1,2.38.14,8,8,0,0,1,1.12,1.8c1.13,1.64,3.56,1.49,5.53,1.16a3.2,3.2,0,0,0,1.55-.54c.75-.61.81-1.69,1.14-2.59.89-2.47,3.77-3.49,6.3-4.2a2.24,2.24,0,0,1,1.76,0c1.93,1.21,4.32,2,4.16,4.73a5.37,5.37,0,0,0,.24,3,2.17,2.17,0,0,0,3.54,0c.26-.43.36-.94.65-1.35.82-1.14,2.54-.87,3.94-.72,4.42.45,8.74-1.67,12.19-4.47a11.17,11.17,0,0,0,3-3.3c.47-.87.75-1.83,1.14-2.74,1.94-4.48,6.82-7.86,6.71-12.74a2.45,2.45,0,0,0,2.28-1.3,7.23,7.23,0,0,0,.75-2.65l1.71-11.55c.79-5.31,1.58-10.69,1.08-16.05a3.55,3.55,0,0,1,0-1.49c.28-.82,1.16-1.46,1.05-2.31-.15-1.1-1.73-1.34-2.3-2.29-.36-.62-.3-1.52-.92-1.88a4,4,0,0,0-1.06-.23c-1.49-.38-1.47-2.51-2.33-3.79a2.76,2.76,0,0,0-4.94.75,11.64,11.64,0,0,1-.35,1.32,2.64,2.64,0,0,1-1.68,1.26,4.34,4.34,0,0,1-3.51-.34c-.71-.43-2.48-2.76-2-3.66.25-.46.75-.86.68-1.37s-.81-.77-1.32-1.08c-.9-.57-1.18-1.73-1.66-2.68a5.8,5.8,0,0,0-4-3c-1.21-.23-2.71.1-3.17,1.24-.27.66-.11,1.42-.33,2.1a2.1,2.1,0,0,1-3.34.78l1.21-1.8a.88.88,0,0,0,.22-.56.9.9,0,0,0-.39-.57,9.27,9.27,0,0,0-6.07-2,3.93,3.93,0,0,1,2.07-3.43c.34-.18.73-.33.89-.68.37-.76-.66-1.39-1.22-2-1.22-1.35-.39-3.59-1.18-5.22-.34-.72-1-1.43-.77-2.19a2.69,2.69,0,0,1,.72-.93A4,4,0,0,0,157.5,85a2,2,0,0,1-1-.42c-.84-.9,1-2.21.7-3.41s-1.9-1-2.8-1.75c-1.3-1-.65-3-.37-4.65a7.75,7.75,0,0,0-.53-4.46,3,3,0,0,0,2.13-2.81c0-1.59-.4-2.41.31-3.92s1-1.69.12-3A4.13,4.13,0,0,0,153,58.72a28.75,28.75,0,0,1-3.84-.45c-2.13-.62-3.84-2.54-6.06-2.6a3.64,3.64,0,0,1-1.72-.2,2.22,2.22,0,0,1-.63-.59,1.68,1.68,0,0,1-.56-1.4c.07-.26.28-.48.38-.74.3-.72-.88-3.22-1.14-4-.68-1.93-2.52-3.92-4.25-1.67-.6.78-.92,1.75-1.57,2.49a6.73,6.73,0,0,1-2.41,1.56,6.88,6.88,0,0,1-3.71.84c-1.54-.2-2.77-1.31-4-2.2a32.77,32.77,0,0,0-4.65-2.55c-1.9-.92-4-1.85-6-1.43-.73.15-1.41.46-2.14.57a2,2,0,0,1-2-.68c-.15-.22-.23-.48-.38-.7a1.42,1.42,0,0,0-1.85-.38c.33-1.3-.43-2.6-1.16-3.72l-1.8-2.77a5,5,0,0,0-1.27-1.48,12.8,12.8,0,0,0-1.78-.78c-2.57-1.21-3.09-4.54-4.27-7.12a1.42,1.42,0,0,0-.53-.69,1.51,1.51,0,0,0-.79-.11,24.58,24.58,0,0,0-6.46.91,20,20,0,0,1-2.91.91A11,11,0,0,1,81,29.28a6.43,6.43,0,0,1-1.53-.52c-1.87-1-.94-2.63-1.73-4.12S76,24.13,74.9,23.8a4.48,4.48,0,0,1-2.41-2.55c-.36-.77-.91-1.6-1.75-1.67a3.35,3.35,0,0,0-1.56.51,5.34,5.34,0,0,1-2.79.43c-.18-1.09-.56-2.39-1.63-2.66a3.47,3.47,0,0,1-1.13-.27c-1-.67-1.11-1.93-2.67-1.5.2-.05.22,2.18.23,2.32A3.33,3.33,0,0,0,62,20.78a2.52,2.52,0,0,1,0,2.48,7.53,7.53,0,0,1-1.66,2,2.22,2.22,0,0,1-1,.66c-1.21.27-1.87-1.3-2.32-2.45-1.56-3.95-5.81-6-9.2-8.52a3,3,0,0,1-1.52-2.25c0-1.64,2.49-2.8,1.89-4.32-.27-.68-1-1-1.51-1.55C45.42,5.25,47,2.45,45.54,1c-1.49-.22-1.86,1.19-3,2.07A13.79,13.79,0,0,1,38.66,5C36,6,32.53,6.43,30.39,8.35Z"/><path class="cls-2" d="M24.39,7.35c-6,4.25-6.94,14.87-14.2,15.88.93-.14,2.92,5.12,2.53,5.95,3.15-.68,5-4.49,8.26-4.77a18.74,18.74,0,0,0,2.49-.07,5.66,5.66,0,0,0,2.7-2c1.15-1.28,2.37-2.74,2.29-4.45.93,2.68,2.48,4,4.23,6s1.9,5.59,1.54,8.05c-.27,1.89.31,4.49-1.43,5.84a9.93,9.93,0,0,1-2,1,7.34,7.34,0,0,0-3.7,4.52,14.38,14.38,0,0,0-.34,5.95,3.93,3.93,0,0,1-.25,2.57A11,11,0,0,1,25.37,53a1.22,1.22,0,0,0-.24,1.46,2.37,2.37,0,0,0,.66.46A2.7,2.7,0,0,1,27,57.71c-.21.93-.94,1.81-.71,2.74a2.91,2.91,0,0,0,.37.8l1.55,2.54a6.63,6.63,0,0,1,.95,2.08c.38,1.83-.8,3.63-.84,5.49s1.15,3.65,2.44,5.08a19.66,19.66,0,0,1,3.57,4.49,4.24,4.24,0,0,0,1,1.71,6.4,6.4,0,0,0,2.18.69c.74.23,1.46,1,1.1,1.69.94-1.78,3,2.52,3,3a1.49,1.49,0,0,0,.09.63c.31.64,1.27.33,2,.5s1.19,1.12,1.54,1.89a22.84,22.84,0,0,0,1.91,3.23,2.47,2.47,0,0,0,.53.63,1.69,1.69,0,0,0,1.56.19,13,13,0,0,0,3.71-1.94c1.46,3.06-.49,5.81,2.73,8.33-1.93.41-4.13,1-4.95,2.83-.72,1.59-.13,3.74-1.38,5a31.87,31.87,0,0,1,6-2.61l.07,3.8a.48.48,0,0,0,.11.37.75.75,0,0,0,.42.07c1,0,1.24,1.49.92,2.48s-.76,2.21,0,2.91a7.05,7.05,0,0,0,3.71,1.15l-.21,2.23a1.82,1.82,0,0,1,1.9,1.22c.24.73,0,1.62.48,2.23a5.78,5.78,0,0,0,1,.73A6.71,6.71,0,0,1,65,126c.4.74,1.22,1.43,2,1.14a3.07,3.07,0,0,0,.86-.63,3.72,3.72,0,0,1,2.52-.85,3.41,3.41,0,0,1,1.86,2c.49,1.22.58,2.7,1.59,3.54-1.7.07-3.87.55-4.1,2.23-.17,1.27,1,2.29,1.56,3.41a4.69,4.69,0,0,1,0,4.27,4.74,4.74,0,0,1,1.62,1,1.57,1.57,0,0,1,.37,1.75,3.15,3.15,0,0,1-.8.83,3.87,3.87,0,0,0-.72,5.27,2.44,2.44,0,0,1,.53.79,1.38,1.38,0,0,1-.69,1.37c-.46.31-1,.49-1.42.83a3.5,3.5,0,0,0-1,3.07c.21,2.58,1.71,5.14,1,7.62-.54,1.77-3.28,6.07,0,7.25.89.31,1.83-.21,2.73-.5s2.17-.13,2.37.79c.08.38,0,.83.17,1.15.4.58,1.41.14,2,.57a1.38,1.38,0,0,1,.39.82,6.75,6.75,0,0,1-.92,4.84c-.45.71-1.07,1.52-.77,2.31.37.95,1.68,1,2.66,1.25a3.48,3.48,0,0,1,2.28,2.19,2.22,2.22,0,0,0,.57,1.12c.31.24.76.22,1.13.36,1,.39,1.27,1.83.91,2.89a33.28,33.28,0,0,0-1.37,3.06c-.14.59-.14,1.21-.27,1.8-.21,1-.78,1.86-.69,2.83s.78,1.76,1,2.7a5.68,5.68,0,0,1-.48,3.25,6.17,6.17,0,0,0-.56,3.25c.23,1.09,1.35,2.07,2.4,1.71a3.38,3.38,0,0,0,1.14-.82,17.16,17.16,0,0,1,9.9-4.23,21.06,21.06,0,0,0,3.17-.58c4.19-1.25,7.15-5,11.14-6.78,2.7-1.2,5.74-1.43,8.52-2.44s5.51-3.2,5.66-6.16a4.83,4.83,0,0,1,.13-1.37,3.36,3.36,0,0,1,.73-1.1l1.86-2.1a6.6,6.6,0,0,1,1.89-1.65,2.22,2.22,0,0,1,2.38.14c.54.46.71,1.21,1.12,1.8,1.13,1.64,3.56,1.49,5.53,1.16a3.24,3.24,0,0,0,1.55-.54c.75-.61.81-1.69,1.14-2.59.89-2.47,3.77-3.49,6.3-4.2a2.24,2.24,0,0,1,1.76,0c1.92,1.21,4.32,2,4.16,4.73a5.37,5.37,0,0,0,.24,3,2.17,2.17,0,0,0,3.54,0c.26-.43.36-.94.65-1.35.82-1.14,2.54-.87,3.94-.72,4.42.45,8.74-1.67,12.19-4.47a11.17,11.17,0,0,0,3-3.3c.47-.87.75-1.83,1.14-2.74,1.94-4.48,6.82-7.86,6.71-12.74a2.45,2.45,0,0,0,2.28-1.3,7.23,7.23,0,0,0,.75-2.65l1.71-11.55c.79-5.31,1.58-10.69,1.08-16.05a3.55,3.55,0,0,1,0-1.49c.28-.82,1.16-1.46,1.05-2.31-.15-1.1-1.73-1.34-2.3-2.29-.36-.62-.3-1.52-.92-1.88a4.08,4.08,0,0,0-1.06-.23c-1.49-.38-1.47-2.51-2.33-3.79a2.76,2.76,0,0,0-4.94.75,11.64,11.64,0,0,1-.35,1.32,2.64,2.64,0,0,1-1.68,1.26,4.34,4.34,0,0,1-3.51-.34c-.71-.43-2.48-2.76-2-3.66.24-.46.75-.86.68-1.37s-.81-.77-1.32-1.08c-.9-.57-1.18-1.73-1.66-2.68a5.8,5.8,0,0,0-4-3c-1.21-.23-2.71.1-3.17,1.24-.27.66-.11,1.42-.33,2.1a2.1,2.1,0,0,1-3.34.78l1.21-1.8a.88.88,0,0,0,.22-.56.9.9,0,0,0-.39-.57,9.27,9.27,0,0,0-6.07-2,3.93,3.93,0,0,1,2.07-3.43c.34-.18.73-.33.89-.68.37-.76-.66-1.39-1.22-2-1.22-1.35-.39-3.59-1.18-5.22-.34-.72-1-1.43-.77-2.19a2.69,2.69,0,0,1,.72-.93A4,4,0,0,0,151.5,84a2,2,0,0,1-1-.42c-.84-.9,1-2.21.7-3.41s-1.9-1-2.8-1.75c-1.3-1-.65-3-.37-4.65a7.75,7.75,0,0,0-.53-4.46,3,3,0,0,0,2.13-2.81c0-1.6-.4-2.41.31-3.92s1-1.69.12-3A4.13,4.13,0,0,0,147,57.72a28.75,28.75,0,0,1-3.84-.45c-2.13-.62-3.84-2.54-6.06-2.6a3.64,3.64,0,0,1-1.72-.2,2.22,2.22,0,0,1-.63-.59,1.68,1.68,0,0,1-.56-1.4c.07-.26.28-.48.38-.74.29-.72-.88-3.22-1.15-4-.67-1.93-2.51-3.92-4.24-1.67-.6.78-.92,1.75-1.57,2.49a6.73,6.73,0,0,1-2.41,1.56,6.88,6.88,0,0,1-3.71.84c-1.54-.2-2.77-1.31-4-2.2a32.77,32.77,0,0,0-4.65-2.55c-1.9-.92-4-1.85-6-1.43-.73.15-1.41.46-2.14.57a2,2,0,0,1-2-.68c-.15-.22-.23-.48-.38-.7a1.42,1.42,0,0,0-1.85-.38c.33-1.3-.43-2.6-1.16-3.72l-1.8-2.77a5,5,0,0,0-1.27-1.48,12.8,12.8,0,0,0-1.78-.78c-2.57-1.21-3.09-4.54-4.27-7.12a1.42,1.42,0,0,0-.53-.69,1.51,1.51,0,0,0-.79-.11,24.58,24.58,0,0,0-6.46.91,20,20,0,0,1-2.91.91A11,11,0,0,1,75,28.28a6.43,6.43,0,0,1-1.53-.52c-1.87-1-.94-2.63-1.73-4.12S70,23.13,68.9,22.8a4.48,4.48,0,0,1-2.41-2.55c-.36-.77-.91-1.6-1.75-1.67a3.42,3.42,0,0,0-1.57.51,5.29,5.29,0,0,1-2.78.43c-.18-1.09-.56-2.39-1.63-2.66a3.47,3.47,0,0,1-1.13-.27c-1-.67-1.11-1.93-2.67-1.5.2-.05.22,2.18.22,2.32A3.38,3.38,0,0,0,56,19.78a2.52,2.52,0,0,1,0,2.48,7.53,7.53,0,0,1-1.66,2,2.22,2.22,0,0,1-1,.66c-1.21.27-1.87-1.3-2.32-2.45-1.56-3.95-5.81-6-9.2-8.52a3,3,0,0,1-1.52-2.25c0-1.64,2.49-2.8,1.89-4.32-.27-.68-1-1-1.51-1.55C39.42,4.25,41,1.45,39.54,0c-1.49-.22-1.86,1.19-3,2.07A13.79,13.79,0,0,1,32.66,4C30,5,26.53,5.43,24.39,7.35Z"/><path class="cls-3" d="M145.91,38.73c-3.7-2.67-8.53-4-13.37-4.37-4.85.38-9.68,1.7-13.38,4.37-7.78,5.64-10.45,13.34-9.8,22.61,0,.68.11,1.36.18,2,2.09,18.62,14.59,32.27,23,48.37,8.41-16.1,20.9-29.75,23-48.37.08-.66.14-1.34.19-2C156.36,52.07,153.7,44.37,145.91,38.73Z"/><circle class="cls-4" cx="132.54" cy="60.23" r="12.81"/><path class="cls-3" d="M293.25,147.64l0,0a5.07,5.07,0,0,0-5.07-1.27,20.73,20.73,0,0,0-5.36,2.25,48.11,48.11,0,0,0-5,3.33c-.77.58-1.51,1.17-2.23,1.77-.11-.62-.21-1.25-.31-1.89-.17-1.06-.3-2.09-.39-3.08a4.7,4.7,0,0,0,1.35-.7,5.53,5.53,0,0,0,2.13-4.11,6.62,6.62,0,0,0-1.28-4.29c-.07-.1-.16-.21-.25-.32l.1-.05v-3.68h1.22v-5.14a10.18,10.18,0,0,0-2.55-7.15,9.29,9.29,0,0,0-7.14-2.88,10.1,10.1,0,0,0-6.36,2.17v-8.49h-11v6.33h-.44a9.07,9.07,0,0,0-7.14,3.26,11.52,11.52,0,0,0-2.53,7.66,10.84,10.84,0,0,0,2.4,7.31A8.56,8.56,0,0,0,246,140.7a11.24,11.24,0,0,0-2,2.09,17.17,17.17,0,0,0-2.16,4.06,6,6,0,0,0-.74.61,9.58,9.58,0,0,0-1.43-6.13,6,6,0,0,0-2.24-2v-9.68c0-5.8-3.47-9.26-9.28-9.26a16.73,16.73,0,0,0-3.56.43,13.77,13.77,0,0,0-3.23,1.1l-1.12.58a8.45,8.45,0,0,0-5.81-2.11,9,9,0,0,0-2.52.34h-9.61v1.4a9.84,9.84,0,0,0-6-1.74,16.73,16.73,0,0,0-3.56.43,14.89,14.89,0,0,0-2.68.85V115.2h-12L175.84,122l-2.35-6.81H161.36V138a9.64,9.64,0,0,0-3.8,3.13,12.87,12.87,0,0,0-1.4,2.47,9.33,9.33,0,0,0-1.49-2.39c-.14-.15-.29-.29-.44-.43a4.85,4.85,0,0,0,2.43-3,6.35,6.35,0,0,0,.45-2.1c0-1.88-1-4.18-5.67-4.47-1.29-.08-2.85-.16-4.67-.25s-3.46-.11-5.24-.12c.47-1.4.95-2.8,1.43-4.21,1.09-3.17,2.18-6.28,3.24-9.25a4.08,4.08,0,0,0-.1-3.23,4.54,4.54,0,0,0-3.26-2.5,13.68,13.68,0,0,0-5-.13A4.78,4.78,0,0,0,134,114c-1.57,3.12-3,6.35-4.27,9.59-.9,2.28-1.78,4.61-2.62,6.93q-3.3,0-6.6.17c-3,.15-6,.23-9,.23l-1.83,0-1.19,1.33a3.7,3.7,0,0,0-.67,1,7.42,7.42,0,0,0-2.52-.8,8.78,8.78,0,0,0-6.4,1.72,16.81,16.81,0,0,0-3.69,3.89c.07-.28.14-.55.2-.83,1.43-5.59,2.91-11.25,4.41-16.83a4.23,4.23,0,0,0-.39-3.21,4.58,4.58,0,0,0-2.35-2l-4-.8c-.94-.09-1.83-.13-2.67-.13H88.68l-.32,0c-1.2.2-2.45.86-4.46,2.34a44.46,44.46,0,0,0-6.17,6A136,136,0,0,0,69,133.9c-3.1,4.33-6.67,9.93-10.61,16.64l-.07,0c-2.86.24-5.51.57-7.9,1s-4.83.89-7.15,1.42-4.71,1.13-7,1.78-4.74,1.28-7.59,2l-.5.17a4.72,4.72,0,0,0-3,4.94,6.78,6.78,0,0,0,1.08,3,10.8,10.8,0,0,0,1.44,1.82,4.59,4.59,0,0,0,5.31,1.07l5-1.88c1.94-.72,4.12-1.43,6.48-2.12s4.91-1.33,7.56-1.9l.84-.18q-1.52,3.18-3.06,6.34l-3.24,6.58c-1,2.13-1.93,4-2.65,5.49l-.38.81v.9c0,1.5.69,3.47,4,4.4.83.23,1.75.43,2.74.61s1.8.32,2.63.44a5,5,0,0,0,4.39-.84l1.4-1.22v-1c.9-2,1.88-4.12,2.91-6.33,1.13-2.41,2.28-4.82,3.44-7.17s2.26-4.58,3.33-6.73c.68-1.35,1.34-2.62,2-3.78,1.57-.17,3.14-.36,4.71-.55.67-.09,1.35-.16,2-.23-.17.77-.33,1.55-.47,2.34s-.44,2.35-.86,4.77-.84,5-1.32,8-.92,6.27-1.29,9.59-.59,6.56-.68,9.47a37.33,37.33,0,0,0,.49,8c.84,4.46,3.14,5.93,4.93,6.37l.48.12h.32l.67.09a18.74,18.74,0,0,0,2.37.15A16,16,0,0,0,84,208.1a4.56,4.56,0,0,0,3.6-2.36,4.09,4.09,0,0,0,.33-2.91,72.79,72.79,0,0,1-1.39-10.33,78.39,78.39,0,0,1,.06-9.83c.23-3.23.6-6.44,1.1-9.52s1.08-6.36,1.72-9.56c.23-1.31.48-2.56.74-3.71.06-.25.11-.5.17-.76h1.25l4,.23h.06c-.18.4-.36.8-.56,1.21-1,2.16-2,4.23-3,6.19-1.32,2.83-1.77,4.88-1.44,6.69,1.09,5.76,4.06,7.62,6.35,8.17,2.68.64,5.6.08,8.69-1.66a35.66,35.66,0,0,0,5.09-3.56,87.22,87.22,0,0,0-2.23,11,35.47,35.47,0,0,0,0,10.66l.15.6c.39,1.18,1.43,2.69,4.13,3.2a15.85,15.85,0,0,0,2.83.25,13.18,13.18,0,0,0,3.07-.36,4.81,4.81,0,0,0,4-4.22c.7-5.61,1.62-10.95,2.73-15.88.63-2.75,1.3-5.47,2-8.15a16.67,16.67,0,0,0,.72,2,13.37,13.37,0,0,0,7.13,6.91,8.19,8.19,0,0,0,7.63-.32,17.4,17.4,0,0,0,4.05-3.2c.26-.26.52-.53.77-.8a6.87,6.87,0,0,0,2.39,4.4,8.74,8.74,0,0,0,5.1,1.93,13.87,13.87,0,0,0,4.7-.48,14.38,14.38,0,0,0,5.8-3.13,19,19,0,0,0,4-4.92l.27-.5a8.32,8.32,0,0,0,4.18,2.34,10.49,10.49,0,0,0,5.39,0,14.45,14.45,0,0,0,3.17-1.23,11.47,11.47,0,0,0,1.26,2.59l.16.22a8.59,8.59,0,0,0,5.11,3.31A9.4,9.4,0,0,0,195,182l.13-.06a19.85,19.85,0,0,0,4.8-3.21l.7-.64a5,5,0,0,0,3.42,2.07l.44.08h4.76l.5-.07c2.63-.44,3.75-1.78,4.23-2.94,1-2.24,2.08-4.46,3.2-6.63,0,.15-.06.3-.08.44a11.21,11.21,0,0,0,.11,4.33,6.92,6.92,0,0,0,3.6,4.66l.2.11a8.77,8.77,0,0,0,7.92,0,13.77,13.77,0,0,0,4.06-3,11.91,11.91,0,0,0,1.6,1.16c2.21,1.32,5,1.75,8.48,1.31l.16,0a14,14,0,0,0,5.33-2,19.6,19.6,0,0,0,3.83-3.22,23,23,0,0,0,2.9-3.92c.33-.56.65-1.13.95-1.68a10.82,10.82,0,0,0,3.16-1.13c-.71.8-1.4,1.62-2.05,2.46l-.08.11c-1.79,2.46-2.66,4.53-2.74,6.51a7,7,0,0,0,2.46,5.79,8.71,8.71,0,0,0,5.1,1.93,13.87,13.87,0,0,0,4.7-.48,14.38,14.38,0,0,0,5.8-3.13,19,19,0,0,0,4-4.92,17.56,17.56,0,0,0,2.1-6.35,15.14,15.14,0,0,0-.09-4.56l2.28-2.15c1.31-1.24,2.63-2.4,3.92-3.47s2.48-1.94,3.68-2.75a13.28,13.28,0,0,1,2.84-1.49,4.65,4.65,0,0,0,3.13-3.37A4.39,4.39,0,0,0,293.25,147.64Zm-214,1.78-2.49.12c1.3-2.07,2.63-4.11,4-6.14C80.2,145.4,79.7,147.41,79.23,149.42Zm13.24-.1.09-.37c0,.12.11.24.17.37Zm29.36-4.2c-.4,1.14-.81,2.28-1.23,3.43-1.31,1.74-2.86,3.76-4.72,6.14-1.62,2.07-3.3,4.08-5,6a24.66,24.66,0,0,0,.62-4.15A9.9,9.9,0,0,0,109,149l.43-.54a20.63,20.63,0,0,0,2.47-3.69,7.71,7.71,0,0,0,1-4.79q3.81,0,7.57.06c1,0,2.09,0,3.14.06Zm14.59.46q.87-2.46,1.75-5l3.55.24a22.42,22.42,0,0,0-2.54,2A36.09,36.09,0,0,0,136.42,145.58Zm107.52,21.34.09-.29.06,0Z"/><path class="cls-4" d="M99.78,155.12a1.4,1.4,0,0,0,1-.6c.19-.32,0-.56-.66-.72a12.15,12.15,0,0,0-4-.54c-1.39.05-2.77.06-4.12.06H87.46q1.92-8.61,4.07-17T96,119.36c.08-.23-.22-.43-.89-.59a17.06,17.06,0,0,0-2.28-.36c-.83-.08-1.63-.12-2.39-.12H89a9.07,9.07,0,0,0-2.75,1.61,41.41,41.41,0,0,0-5.56,5.44,131.84,131.84,0,0,0-8.49,10.88q-5,6.94-11.42,18.06a4,4,0,0,1-1,.12,4,4,0,0,0-1,.12c-2.86.24-5.48.56-7.83,1s-4.66.85-6.93,1.37-4.57,1.1-6.88,1.74-4.86,1.31-7.65,2a.76.76,0,0,0-.54.84,2.88,2.88,0,0,0,.48,1.25,6.66,6.66,0,0,0,.9,1.14c.31.32.59.4.83.24q2.16-.84,5.2-2t6.76-2.21c2.47-.72,5.08-1.37,7.83-2a64.86,64.86,0,0,1,8.43-1.26c-.88,1.92-1.85,4-2.93,6.28s-2.17,4.54-3.29,6.82L50,176.34q-1.56,3.18-2.63,5.44c0,.16.35.34,1.07.54s1.52.38,2.39.54,1.72.3,2.51.42,1.2.14,1.2.06c1-2.32,2.13-4.71,3.29-7.18s2.31-4.88,3.47-7.23,2.27-4.6,3.34-6.76,2.1-4.06,3-5.74c2.23-.24,4.47-.49,6.7-.77s4.46-.46,6.7-.54h1c-.32,1.27-.62,2.51-.89,3.7s-.54,2.44-.78,3.71c-.16.8-.44,2.35-.84,4.66s-.84,5-1.31,8-.9,6.11-1.26,9.38-.58,6.32-.66,9.15a34.21,34.21,0,0,0,.42,7.12c.36,1.91,1,3,2,3.22l1,.12a13.91,13.91,0,0,0,1.85.12,11.5,11.5,0,0,0,1.74-.12c.52-.08.73-.2.66-.36a74.44,74.44,0,0,1-1.5-11.06,80.87,80.87,0,0,1,.06-10.34q.36-5,1.14-9.86t1.73-9.63c.24-1.35.5-2.65.78-3.89l.89-3.88h4.55l4.06.24A17.4,17.4,0,0,0,99.78,155.12ZM86.21,138.44q-2.1,7.35-3.77,14.88h-1q-6.21.24-12.43.72l1.13-1.79a15.66,15.66,0,0,1,1.14-1.56q4.31-7,9-13.87t10.1-13.15Q88.31,131.08,86.21,138.44Z"/><path class="cls-4" d="M144,136.94q4.24.24,8.43.24.24,0,.48-.72a4.77,4.77,0,0,0,.24-.83c0-.24-.64-.4-1.91-.48s-2.81-.16-4.61-.24-3.67-.12-5.62-.12-3.61,0-5-.12q1.55-4.66,3.17-9.39t3.29-9.38c.07-.16-.12-.3-.6-.42a7,7,0,0,0-1.68-.18,11.46,11.46,0,0,0-1.73.12q-.78.12-.9.36-2.26,4.55-4.12,9.26t-3.53,9.51q-4.55-.12-9.21.12c-3.11.16-6.17.24-9.2.24q-.12,0-.06.54t.3.54q4.42,0,8.78.06c2.92,0,5.8.14,8.67.29q-1.78,5-3.58,10.11c-.48,1.34-1,2.68-1.45,4q-2.14,2.86-5.13,6.68t-6.16,7.23a73.86,73.86,0,0,1-6.16,6,11.34,11.34,0,0,1-5.26,2.93c.64-1.43,1.44-3.15,2.39-5.14a51,51,0,0,0,2.46-6,23.48,23.48,0,0,0,1.19-5.86,5.91,5.91,0,0,0-1.49-4.6c-1.12-1.2-2-1.81-2.63-1.85a3.9,3.9,0,0,0-1,0l.71-.43a18.48,18.48,0,0,0,3.23-3.47,17.21,17.21,0,0,0,2-3,3.32,3.32,0,0,0,.12-3.53c-1.2-1.75-2.43-2.71-3.71-2.87a4.8,4.8,0,0,0-3.53,1,13.22,13.22,0,0,0-3,3.23,21.08,21.08,0,0,0-2.09,3.83,3.24,3.24,0,0,0-.18,2.21,7.33,7.33,0,0,0,1,2.21,11.3,11.3,0,0,0,1.73,2,23.37,23.37,0,0,0,2,1.68c.79.64.89,1.87.29,3.7a46.5,46.5,0,0,1-2.45,6c-1,2.15-2,4.21-2.93,6.16s-1.29,3.37-1.13,4.25c.56,3,1.67,4.62,3.35,5s3.6,0,5.8-1.26a35.75,35.75,0,0,0,6.93-5.32,97.52,97.52,0,0,0,6.82-7.17c1.08-1.28,2.08-2.5,3-3.69-.74,1.9-1.5,3.9-2.29,6q-2,5.32-3.46,10.82a84.42,84.42,0,0,0-2.22,10.76,31.09,31.09,0,0,0,0,9.45q.12.36,1.08.54a11.38,11.38,0,0,0,2.09.18,9,9,0,0,0,2.09-.24q1-.24,1-.72,1.08-8.73,2.81-16.38t4-14.89q2.2-7.23,4.72-14.41t5.26-15.07Q139.72,136.7,144,136.94Zm-43.7,11.6a6.85,6.85,0,0,1,.66-2.15,23,23,0,0,1,1.55-3,17,17,0,0,1,1.85-2.57q1-1.08,1.68-.72a1.13,1.13,0,0,1,.18.9,2.71,2.71,0,0,1-.18.89,7.8,7.8,0,0,1-2.27,4.25A12,12,0,0,1,100.26,148.54Z"/><path class="cls-4" d="M290.41,150.45a1.1,1.1,0,0,0-1.2-.23,16.29,16.29,0,0,0-4.42,1.85,42.61,42.61,0,0,0-4.6,3.05,47.27,47.27,0,0,0-4.07,3.41c-1.24,1.15-2.21,2.13-2.93,2.93-.16-.48-.44-1.6-.84-3.35s-.76-3.65-1.07-5.68a52.19,52.19,0,0,1-.6-5.8c-.08-1.83.12-3.07.6-3.71a3.81,3.81,0,0,1,1,.3,1.47,1.47,0,0,1,.6.9c.32.71.64.95,1,.71a1.51,1.51,0,0,0,.54-1.19,2.55,2.55,0,0,0-.54-1.68,2.5,2.5,0,0,0-2.15-.83,5.65,5.65,0,0,0-3.95,2.33,11,11,0,0,0-1.85,5.14,21.26,21.26,0,0,0-.16,2.18c-.7.86-1.37,1.72-2,2.6-.75,1.08-1.53,2.18-2.33,3.29-1,1.12-2,2.35-3.05,3.71a8.11,8.11,0,0,1-3.64,2.75,1.92,1.92,0,0,0-.3.17c.39-1,.84-2.47,1.37-4.36a44.45,44.45,0,0,0,1.26-6.09,19.68,19.68,0,0,0,0-5.74,4.84,4.84,0,0,0-2.33-3.71,5.31,5.31,0,0,0-4.31-.66,6.6,6.6,0,0,0-3,2.39,13.31,13.31,0,0,0-1.91,3.89c-.08.26-.15.5-.22.75a2.21,2.21,0,0,0-1.63,1c-.37.55-.7,1.06-1,1.56-.47,0-.77,0-.9.12a8.78,8.78,0,0,0-3.94,2.87,18.74,18.74,0,0,0-2.93,4.9,22.35,22.35,0,0,0-1.46,5.41l-.39.57c-.8,1.12-1.58,2.21-2.34,3.29s-1.53,2.17-2.33,3.28a5,5,0,0,0-.72,1,2,2,0,0,1-.83.84c-.64.24-.56-.5.24-2.21s1.85-3.91,3.17-6.58,2.64-5.52,4-8.55a41.56,41.56,0,0,0,2.81-8.19q.78-3.65-.48-5.5c-.83-1.24-2.81-1.38-5.92-.42a10.9,10.9,0,0,0-3.4,1.91,23,23,0,0,0-3,2.93,40.8,40.8,0,0,0-2.57,3.35c-.8,1.16-1.52,2.21-2.16,3.17-1.19,1.6-2.35,3.25-3.46,5s-2.16,3.49-3.11,5.32a135.61,135.61,0,0,1,4.66-14.23c.08-.24-.16-.39-.72-.47a13.55,13.55,0,0,0-1.91-.12h-.12a2,2,0,0,0-.9-.3,3.22,3.22,0,0,0-1.07.06.8.8,0,0,0-.66.48.59.59,0,0,0,0,.08.49.49,0,0,0-.2.15c-.52,1.15-1,2.31-1.48,3.47-.62,1.25-1.26,2.49-1.93,3.71a69.41,69.41,0,0,1-4.36,6.93,46.09,46.09,0,0,1-3.17,4.19c-1.16,1.36-2.37,2.67-3.65,3.95-.64.55-1.29,1.11-2,1.67s-1.34,1.12-2,1.67c-1.52,1.2-2.34,1.22-2.45.06a15.11,15.11,0,0,1,.89-5.32c.72-2.39,1.69-5.16,2.93-8.31s2.47-6.14,3.71-9,2.33-5.24,3.29-7.23a26.36,26.36,0,0,0,1.43-3.23q.12-.36-.72-.54a12.72,12.72,0,0,0-2-.24,21.47,21.47,0,0,0-2.27,0q-1.08.06-1.2.3a21,21,0,0,0-2.15,4c-.56,1.39-1.07,2.81-1.55,4.24a7.22,7.22,0,0,0-1.44-3.7,5.74,5.74,0,0,0-3.59-2,5.25,5.25,0,0,0-3.88.72,16.34,16.34,0,0,0-2.93,2.51c-.86,1-1.67,2.12-2.46,3.22l-1,.55a43.62,43.62,0,0,0-4.6,3.05,48.84,48.84,0,0,0-4.07,3.41c-1.23,1.15-2.21,2.13-2.93,2.93-.16-.48-.44-1.6-.83-3.35s-.76-3.65-1.08-5.68a52.19,52.19,0,0,1-.6-5.8c-.08-1.83.12-3.07.6-3.71a3.9,3.9,0,0,1,1,.3,1.47,1.47,0,0,1,.59.9c.32.71.64.95,1,.71a1.51,1.51,0,0,0,.54-1.19,2.55,2.55,0,0,0-.54-1.68,2.5,2.5,0,0,0-2.15-.83,5.65,5.65,0,0,0-4,2.33,11.15,11.15,0,0,0-1.85,5.14,23.94,23.94,0,0,0-.18,3.25c-.77,1.31-1.58,2.59-2.45,3.81-1.24,1.71-2.45,3.44-3.65,5.2l-4.78,6.45q-2.4,3.24-5.14,6.34-.36.48-1,1.2a13.14,13.14,0,0,1-1.19,1.25,3.07,3.07,0,0,1-1.32.72,1.59,1.59,0,0,1-1.44-.42,4,4,0,0,1-1-3,24.8,24.8,0,0,1,.3-4.48c.24-1.56.52-3.07.83-4.55s.56-2.57.72-3.28a1.07,1.07,0,0,0,.12-.48c1.44,1.43,2.91,1.91,4.43,1.43a9.6,9.6,0,0,0,4.24-2.93,21.88,21.88,0,0,0,3.41-5.2,28.45,28.45,0,0,0,2-5.38,5.57,5.57,0,0,0-.12-2.57,5.67,5.67,0,0,0-1.13-2.15,4.6,4.6,0,0,0-1.92-1.32,3.92,3.92,0,0,0-2.45-.06,15.49,15.49,0,0,0-5.44,3.35,33.25,33.25,0,0,0-5.2,6,41.34,41.34,0,0,0-4.07,7.47,24.24,24.24,0,0,0-1.91,7.72,14.58,14.58,0,0,0,1.14,6.87,9.44,9.44,0,0,0,5.08,4.84,4.16,4.16,0,0,0,4-.12,13.06,13.06,0,0,0,3.17-2.51,36.93,36.93,0,0,0,3.11-3.52c1-1.24,1.87-2.46,2.75-3.65q3.47-4.31,6.88-8.79c.84-1.11,1.63-2.26,2.39-3.42a38.71,38.71,0,0,0,2.09,7.78q-2,1.92-4,3.89a44.2,44.2,0,0,0-3.65,4.13,8.7,8.7,0,0,0-2,4.3,3,3,0,0,0,1,2.57,4.79,4.79,0,0,0,2.81,1,9.82,9.82,0,0,0,3.41-.36,10.35,10.35,0,0,0,4.18-2.27,14.67,14.67,0,0,0,3.17-3.89,13.37,13.37,0,0,0,1.62-4.9,11,11,0,0,0-.6-5.32l4-3.77q2.09-2,4.12-3.65l.93-.73c-.31.52-.63,1-.93,1.57-.48,1-1.08,2.29-1.79,4a25,25,0,0,0-1.56,5.2,11.24,11.24,0,0,0,.06,4.78,3.71,3.71,0,0,0,3,2.75,6.59,6.59,0,0,0,3.41.06,10.71,10.71,0,0,0,3.11-1.37,17.12,17.12,0,0,0,2.81-2.28,25.72,25.72,0,0,0,2.39-2.75v.48a20.8,20.8,0,0,0-.72,4.55,7.25,7.25,0,0,0,1.2,4.42,4.52,4.52,0,0,0,2.75,1.79,5.49,5.49,0,0,0,3.35-.35,15.67,15.67,0,0,0,3.82-2.58c1.2-1.07,2.31-2.17,3.35-3.28q3-3.24,5.74-6.82l.07-.09c-.94,3.35-1.77,6.73-2.46,10.13q-.12.36.84.54a11.23,11.23,0,0,0,2.09.18,13.36,13.36,0,0,0,2.21-.18q1.08-.18,1.2-.54,2.14-4.77,4.6-9.32t5.2-9a85.12,85.12,0,0,1,6.1-8.49q.36-.48,1-1.26c.43-.51.89-1,1.37-1.55a12,12,0,0,1,1.5-1.38,2.49,2.49,0,0,1,1.49-.59h.48q-.12,0,0,.24a1.8,1.8,0,0,1,.12,1.73c-.24.76-.44,1.34-.6,1.73l-2.51,5.74c-1.12,2.16-2.21,4.27-3.29,6.34s-2.05,4.19-2.93,6.34c-.24.64-.56,1.45-1,2.45a13.92,13.92,0,0,0-.83,3,7.33,7.33,0,0,0,.06,2.81,3,3,0,0,0,1.61,2,4.81,4.81,0,0,0,4.43,0,9.4,9.4,0,0,0,3.46-2.87q1.41-1.82,2.76-3.68a10.19,10.19,0,0,0,.35,1.23,6.72,6.72,0,0,0,2.93,3.59q2.1,1.25,5.92.78a10,10,0,0,0,3.83-1.44,15.82,15.82,0,0,0,3.05-2.57,19.27,19.27,0,0,0,2.39-3.23c.67-1.15,1.29-2.29,1.85-3.41h.48a6.5,6.5,0,0,0,4.18-1.55c.88-.88,2-2,3.23-3.35s2.51-2.93,3.71-4.48c.19-.25.36-.51.54-.77,0,.38.07.74.12,1.12a37.21,37.21,0,0,0,2.21,8.55c-1.36,1.28-2.69,2.58-4,3.89a44.08,44.08,0,0,0-3.64,4.13,8.61,8.61,0,0,0-2,4.3,3,3,0,0,0,1,2.57,4.77,4.77,0,0,0,2.81,1,9.82,9.82,0,0,0,3.41-.36,10.35,10.35,0,0,0,4.18-2.27,14.87,14.87,0,0,0,3.17-3.89,13.18,13.18,0,0,0,1.61-4.9,11.14,11.14,0,0,0-.59-5.32l4-3.77c1.4-1.31,2.77-2.53,4.13-3.65s2.69-2.11,4-3a17.45,17.45,0,0,1,3.65-1.91Q290.89,150.93,290.41,150.45Zm-148.93,3.41a38.69,38.69,0,0,1,3.17-4.48c.48-.56,1.2-1.3,2.15-2.21a4.79,4.79,0,0,1,2.51-1.5q.72,0,.6,1.32a13.51,13.51,0,0,1-.78,3.17,29.12,29.12,0,0,1-1.79,4,17.2,17.2,0,0,1-2.51,3.65,7.32,7.32,0,0,1-2.87,2,2.61,2.61,0,0,1-2.81-.66A22.08,22.08,0,0,1,141.48,153.86Zm20.45,17.4a14.46,14.46,0,0,1-2.51,3.41,12.24,12.24,0,0,1-2.87,2.21q-1.38.72-1.5-.12a2.16,2.16,0,0,1,.24-1.67q.48-1,.84-1.56a20.17,20.17,0,0,1,2.81-3.53l3.29-3.28.36,1.07A5,5,0,0,1,161.93,171.26Zm27.32-10.88a73.4,73.4,0,0,1-5.62,7.53c-.48.56-1.07,1.26-1.79,2.09a12.15,12.15,0,0,1-2.09,2,2,2,0,0,1-1.86.42c-.56-.2-.91-1-1.07-2.46a9.24,9.24,0,0,1,.65-4.18,45.76,45.76,0,0,1,2.33-5.5A60.86,60.86,0,0,1,183,154.7a22.56,22.56,0,0,1,3.35-4.19,4.22,4.22,0,0,1,2.81-1.43c.8,0,1.32.9,1.56,2.57a13.33,13.33,0,0,1,.18,2.69,23.54,23.54,0,0,1-.3,2.69A26.22,26.22,0,0,1,189.25,160.38Zm59.67,6a6.73,6.73,0,0,1-1,1.49,16.79,16.79,0,0,1-1.79,2.81,15.42,15.42,0,0,1-2.39,2.45,3.28,3.28,0,0,1-2.4.9,2.05,2.05,0,0,1-1.43-1,5.13,5.13,0,0,1-.66-2,6.14,6.14,0,0,1,.06-2.27,31.78,31.78,0,0,1,1.8-6q1.18-2.93,2.51-5.68a15.19,15.19,0,0,0,.12,1.91,4.78,4.78,0,0,0,.59,1.8,5.89,5.89,0,0,0,2.16,2.63,8.82,8.82,0,0,0,3.11,1.31Q249.28,165.64,248.92,166.42Zm5-17.22a35.65,35.65,0,0,1-.78,5.14,50.65,50.65,0,0,1-1.43,5.14c-.56,1.64-1,2.93-1.44,3.89a3,3,0,0,1-1.67-2.09,13.09,13.09,0,0,1-.48-3.71,24.16,24.16,0,0,1,.42-4.37,23,23,0,0,1,1.14-4.12,10.24,10.24,0,0,1,1.67-3,2,2,0,0,1,2-.9A8.16,8.16,0,0,1,253.88,149.2Zm.42,14.29a1.21,1.21,0,0,1,0-.14.1.1,0,0,0,.07,0Q254.66,163.37,254.3,163.49Zm14.53,7.77a14.22,14.22,0,0,1-2.52,3.41,11.84,11.84,0,0,1-2.87,2.21c-.91.48-1.41.44-1.49-.12a2.16,2.16,0,0,1,.24-1.67q.48-1,.84-1.56a19.72,19.72,0,0,1,2.81-3.53l3.28-3.28.36,1.07A5,5,0,0,1,268.83,171.26Z"/><path class="cls-4" d="M186.81,138h-4.32V126.34c0-1.25.06-2.64.17-4.15h-.11a21.66,21.66,0,0,1-.61,2.57L177.4,138h-3.58l-4.62-13.06a24.21,24.21,0,0,1-.61-2.7h-.12c.11,1.91.17,3.59.17,5V138h-3.93v-19.4h6.4l4,11.5a17.26,17.26,0,0,1,.69,2.77h.08a27.14,27.14,0,0,1,.77-2.8l4-11.47h6.24Z"/><path class="cls-4" d="M202.32,138h-4v-2h-.05a4.52,4.52,0,0,1-4.13,2.32,4.32,4.32,0,0,1-3.17-1.14,4.1,4.1,0,0,1-1.16-3q0-4,4.78-4.65l3.76-.5q0-2.28-2.46-2.28a8.45,8.45,0,0,0-4.71,1.48v-3.22a10.18,10.18,0,0,1,2.44-.81,12.46,12.46,0,0,1,2.82-.35q5.92,0,5.92,5.91Zm-4-5.63v-.93l-2.52.32c-1.39.18-2.08.81-2.08,1.88a1.55,1.55,0,0,0,.51,1.2,1.93,1.93,0,0,0,1.37.46,2.52,2.52,0,0,0,2-.83A3,3,0,0,0,198.31,132.32Z"/><path class="cls-4" d="M210,136.34H210v8h-4.27V124.09H210v2.09H210a5.44,5.44,0,0,1,8.6-.58,7.86,7.86,0,0,1,1.47,5,8.53,8.53,0,0,1-1.71,5.56,5.6,5.6,0,0,1-4.55,2.09A4.31,4.31,0,0,1,210,136.34Zm-.13-5.69v1.11a3.54,3.54,0,0,0,.76,2.34,2.46,2.46,0,0,0,2,.91,2.61,2.61,0,0,0,2.26-1.13,5.42,5.42,0,0,0,.81-3.2q0-3.65-2.84-3.65a2.65,2.65,0,0,0-2.14,1A4,4,0,0,0,209.91,130.65Z"/><path class="cls-4" d="M234.14,138h-4v-2H230a4.5,4.5,0,0,1-4.12,2.32,4.33,4.33,0,0,1-3.18-1.14,4.09,4.09,0,0,1-1.15-3q0-4,4.77-4.65l3.76-.5q0-2.28-2.46-2.28a8.45,8.45,0,0,0-4.71,1.48v-3.22a10.33,10.33,0,0,1,2.44-.81,12.6,12.6,0,0,1,2.82-.35q5.92,0,5.93,5.91Zm-4-5.63v-.93l-2.51.32c-1.39.18-2.09.81-2.09,1.88a1.55,1.55,0,0,0,.51,1.2,2,2,0,0,0,1.37.46,2.49,2.49,0,0,0,2-.83A3,3,0,0,0,230.12,132.32Z"/><path class="cls-4" d="M258.72,138h-4.28V136h-.05a4.79,4.79,0,0,1-4.29,2.24,5.26,5.26,0,0,1-4.18-1.83,7.61,7.61,0,0,1-1.58-5.12,8.26,8.26,0,0,1,1.74-5.5,5.71,5.71,0,0,1,4.58-2.07,3.89,3.89,0,0,1,3.73,1.92h.05v-8.24h4.28Zm-4.2-6.74v-1a3.31,3.31,0,0,0-.78-2.25,2.59,2.59,0,0,0-2-.89,2.56,2.56,0,0,0-2.22,1.12,5.17,5.17,0,0,0-.8,3.06,4.5,4.5,0,0,0,.77,2.81,2.57,2.57,0,0,0,2.14,1,2.6,2.6,0,0,0,2.12-1A4.4,4.4,0,0,0,254.52,131.21Z"/><path class="cls-4" d="M274.76,132.24h-9q.22,3,3.81,3a7.41,7.41,0,0,0,4-1.08v3.09a10.61,10.61,0,0,1-5,1,6.44,6.44,0,0,1-7.06-7,7.45,7.45,0,0,1,2-5.47,6.7,6.7,0,0,1,4.93-2,6,6,0,0,1,4.68,1.8,6.88,6.88,0,0,1,1.66,4.88Zm-4-2.63c0-2-.81-3-2.41-3a2.29,2.29,0,0,0-1.78.85,3.9,3.9,0,0,0-.91,2.12Z"/><path class="cls-5" d="M137,101.57A33.4,33.4,0,0,0,131.5,95a49.47,49.47,0,0,0-6.22-4.81l-8.36,12.45c3.4,2.26,5.8,4.37,7.43,7Z"/><path class="cls-6" d="M123.61,98.8l.91-1.19c-.67-.52-1.36-1-2-1.49l-.85,1.24C122.3,97.82,123,98.3,123.61,98.8Z"/><path class="cls-6" d="M126.91,101.68l1.07-1.05c-.6-.62-1.24-1.19-1.88-1.75l-1,1.14C125.74,100.55,126.34,101.1,126.91,101.68Z"/><path class="cls-6" d="M129.69,105l1.24-.85c-.49-.71-1-1.39-1.58-2l-1.14,1A23,23,0,0,1,129.69,105Z"/><path class="cls-5" d="M125.28,90.14c-2-1.36-4-2.56-5.69-3.68s-3.48-2.37-5.28-3.65L105.62,95c1.84,1.31,3.74,2.64,5.74,4s3.87,2.45,5.56,3.59Z"/><polygon class="cls-6" points="112.5 91.36 113.36 90.13 111.33 88.71 110.46 89.93 112.5 91.36"/><polygon class="cls-6" points="116.23 93.85 117.04 92.59 114.98 91.23 114.14 92.48 116.23 93.85"/><polygon class="cls-6" points="119.97 96.25 120.79 94.99 118.69 93.64 117.88 94.9 119.97 96.25"/><path class="cls-5" d="M114.31,82.81c-1.8-1.27-3.65-2.6-5.57-3.93s-4-2.66-5.94-3.85L95,87.81c1.85,1.13,3.52,2.21,5.29,3.43s3.54,2.49,5.38,3.8Z"/><path class="cls-6" d="M101.53,83.71l.81-1.25c-.7-.46-1.4-.91-2.11-1.34l-.8,1.27Q100.5,83,101.53,83.71Z"/><polygon class="cls-6" points="105.2 86.2 106.06 84.97 104 83.56 103.16 84.8 105.2 86.2"/><rect class="cls-7" x="107.5" y="86.19" width="1.5" height="2.49" transform="translate(-25.77 124.88) rotate(-54.54)"/><path class="cls-5" d="M102.8,75a124.9,124.9,0,0,0-12.52-6.81L84,81.81a109.73,109.73,0,0,1,11,6Z"/><path class="cls-6" d="M90,77l.68-1.34c-.75-.38-1.49-.77-2.25-1.12l-.65,1.36C88.53,76.26,89.26,76.64,90,77Z"/><path class="cls-6" d="M93.91,79.11l.73-1.31c-.72-.42-1.46-.8-2.2-1.2l-.7,1.32C92.46,78.32,93.19,78.7,93.91,79.11Z"/><polygon class="cls-6" points="97.73 81.34 98.51 80.06 96.36 78.78 95.6 80.08 97.73 81.34"/><path class="cls-5" d="M90.28,68.22a78,78,0,0,0-13.89-5L72.7,77.71A64.07,64.07,0,0,1,84,81.81Z"/><path class="cls-6" d="M77.73,71.9l.45-1.43c-.81-.24-1.6-.52-2.42-.71l-.4,1.45C76.16,71.4,76.94,71.67,77.73,71.9Z"/><path class="cls-6" d="M81.9,73.37l.54-1.4c-.77-.32-1.57-.59-2.36-.87l-.49,1.42C80.36,72.79,81.14,73.05,81.9,73.37Z"/><polygon class="cls-6" points="85.98 75.07 86.59 73.7 84.29 72.7 83.71 74.08 85.98 75.07"/><path class="cls-5" d="M76.39,63.17a57.33,57.33,0,0,0-15.21-1.86l.22,15a42.67,42.67,0,0,1,11.3,1.4Z"/><path class="cls-6" d="M64.73,69.42l.09-1.5c-.84,0-1.68-.11-2.53-.09v1.5C63.1,69.31,63.92,69.39,64.73,69.42Z"/><path class="cls-6" d="M69.12,69.88l.22-1.48c-.83-.15-1.67-.23-2.51-.32l-.15,1.5C67.49,69.66,68.31,69.73,69.12,69.88Z"/><polygon class="cls-6" points="73.44 70.7 73.79 69.25 71.31 68.72 71.03 70.2 73.44 70.7"/><path class="cls-5" d="M61.18,61.31a52.65,52.65,0,0,0-15.31,2.5l4.5,14.31a37.35,37.35,0,0,1,11-1.81Z"/><polygon class="cls-6" points="51.59 70.55 51.24 69.08 48.79 69.73 49.21 71.17 51.59 70.55"/><path class="cls-6" d="M55.93,69.75l-.21-1.48a23.26,23.26,0,0,0-2.5.41l.28,1.47C54.3,70,55.11,69.86,55.93,69.75Z"/><path class="cls-6" d="M60.3,69.35l-.06-1.5c-.84,0-1.69.12-2.53.18l.14,1.49C58.66,69.47,59.48,69.39,60.3,69.35Z"/><path class="cls-5" d="M45.87,63.81A62.19,62.19,0,0,0,32,70.2L40,82.94a46.5,46.5,0,0,1,10.41-4.82Z"/><path class="cls-6" d="M39.26,75.3,38.55,74c-.76.37-1.47.84-2.2,1.26l.77,1.28C37.83,76.12,38.52,75.66,39.26,75.3Z"/><path class="cls-6" d="M43.22,73.36,42.62,72c-.76.35-1.54.69-2.29,1.06L41,74.4C41.73,74,42.48,73.71,43.22,73.36Z"/><path class="cls-6" d="M47.33,71.78l-.48-1.42c-.81.25-1.6.56-2.38.87l.55,1.4C45.78,72.32,46.54,72,47.33,71.78Z"/><path class="cls-5" d="M32,70.2a68.89,68.89,0,0,0-11.78,9.35L30.8,90.21A53.71,53.71,0,0,1,40,82.94Z"/><path class="cls-6" d="M28.42,82.91l-1-1.13c-.62.57-1.27,1.11-1.86,1.71l1,1.08C27.18,84,27.81,83.46,28.42,82.91Z"/><path class="cls-6" d="M31.83,80.1l-.91-1.2c-.68.5-1.32,1-2,1.58l1,1.15C30.54,81.12,31.17,80.58,31.83,80.1Z"/><path class="cls-6" d="M35.43,77.57l-.81-1.26c-.7.48-1.42.91-2.1,1.42L33.39,79C34.05,78.45,34.76,78,35.43,77.57Z"/><path class="cls-5" d="M20.25,79.55A70.36,70.36,0,0,0,10.8,91.11l12.52,8.25a59.09,59.09,0,0,1,3.52-4.8,58.17,58.17,0,0,1,4-4.35Z"/><path class="cls-6" d="M19.48,92.7l-1.21-.89c-.5.67-1,1.36-1.46,2.06l1.24.84C18.51,94,19,93.36,19.48,92.7Z"/><path class="cls-6" d="M22.23,89.23l-1.15-1c-.55.64-1.09,1.29-1.6,1.95l1.18.92C21.16,90.48,21.69,89.85,22.23,89.23Z"/><polygon class="cls-6" points="25.18 85.96 24.11 84.91 22.38 86.76 23.5 87.77 25.18 85.96"/><path class="cls-5" d="M10.8,91.11a75.25,75.25,0,0,0-6.91,13.15l13.91,5.62a59.92,59.92,0,0,1,5.52-10.52Z"/><path class="cls-6" d="M12.71,104.11l-1.36-.63c-.36.76-.7,1.52-1,2.3l1.38.58C12,105.6,12.36,104.85,12.71,104.11Z"/><path class="cls-6" d="M14.71,100.16l-1.32-.72c-.4.74-.79,1.48-1.17,2.23l1.34.68C13.93,101.61,14.31,100.88,14.71,100.16Z"/><path class="cls-6" d="M17,96.37l-1.27-.81c-.45.71-.89,1.43-1.31,2.15l1.29.76Q16.3,97.41,17,96.37Z"/><path class="cls-5" d="M3.89,104.26A51.32,51.32,0,0,0,.12,119.44l15,1.15a36.66,36.66,0,0,1,2.73-10.71Z"/><path class="cls-6" d="M8.56,116.66l-1.48-.26c-.15.83-.27,1.68-.36,2.52l1.49.16C8.3,118.27,8.42,117.46,8.56,116.66Z"/><path class="cls-6" d="M9.56,112.37,8.12,112c-.23.81-.45,1.63-.64,2.46l1.47.33C9.13,114,9.34,113.16,9.56,112.37Z"/><path class="cls-6" d="M11,108.21l-1.4-.54c-.29.79-.58,1.58-.85,2.38l1.43.47C10.39,109.74,10.68,109,11,108.21Z"/><path class="cls-5" d="M.12,119.44a35.27,35.27,0,0,0,.31,8.43A31.53,31.53,0,0,0,3,136.25l13.58-6.36a18,18,0,0,1-1.52-9.3Z"/><path class="cls-6" d="M9.06,129.67l-1.43.44a23.37,23.37,0,0,0,.86,2.43L9.88,132A22.23,22.23,0,0,1,9.06,129.67Z"/><path class="cls-6" d="M8.2,125.41l-1.49.16a24.57,24.57,0,0,0,.4,2.55l1.47-.31C8.42,127,8.28,126.21,8.2,125.41Z"/><path class="cls-6" d="M8.06,121.05,6.56,121c0,.86,0,1.71,0,2.57l1.5-.06C8,122.68,8,121.86,8.06,121.05Z"/><path class="cls-5" d="M3,136.25a35,35,0,0,0,10.74,13l9-12a20.08,20.08,0,0,1-6.16-7.4Z"/><path class="cls-6" d="M16,140.66l-1,1.09c.64.56,1.25,1.16,1.94,1.68l.94-1.17C17.16,141.77,16.57,141.2,16,140.66Z"/><path class="cls-6" d="M13.05,137.4l-1.19.91c.5.7,1.08,1.33,1.64,2l1.11-1C14.08,138.66,13.53,138.06,13.05,137.4Z"/><path class="cls-6" d="M10.7,133.74l-1.33.69c.43.75.82,1.52,1.32,2.22l1.25-.82C11.47,135.17,11.11,134.44,10.7,133.74Z"/><path class="cls-5" d="M13.75,149.29A38.5,38.5,0,0,0,28.8,156.1l3.11-14.67a23.36,23.36,0,0,1-9.16-4.14Z"/><path class="cls-6" d="M27.17,147.36l-.47,1.42c.8.29,1.64.48,2.46.71l.36-1.46C28.73,147.82,27.94,147.64,27.17,147.36Z"/><path class="cls-6" d="M23.12,145.69,22.45,147c.78.35,1.54.75,2.34,1.05l.56-1.39C24.59,146.4,23.87,146,23.12,145.69Z"/><path class="cls-6" d="M19.38,143.44l-.86,1.23c.69.51,1.43.93,2.16,1.39l.75-1.3C20.75,144.33,20,143.92,19.38,143.44Z"/><path class="cls-5" d="M28.8,156.1a41.27,41.27,0,0,0,16.27.12l-2.82-14.73a26.45,26.45,0,0,1-10.34-.06Z"/><path class="cls-6" d="M40.17,148.8l.14,1.5c.85,0,1.69-.21,2.53-.32l-.24-1.48C41.79,148.61,41,148.77,40.17,148.8Z"/><path class="cls-6" d="M35.79,148.91l-.06,1.5c.85.07,1.7,0,2.55,0l0-1.49C37.42,148.93,36.6,149,35.79,148.91Z"/><path class="cls-6" d="M31.45,148.44l-.27,1.47c.84.19,1.69.25,2.54.36l.15-1.49C33.06,148.67,32.24,148.61,31.45,148.44Z"/><path class="cls-5" d="M45.07,156.22a42,42,0,0,0,15-6.06L51.9,137.61a27,27,0,0,1-9.65,3.88Z"/><path class="cls-6" d="M52.76,145.16l.69,1.34c.78-.36,1.49-.84,2.23-1.25L54.9,144C54.18,144.36,53.51,144.82,52.76,145.16Z"/><path class="cls-6" d="M48.74,146.91l.51,1.41c.81-.25,1.58-.63,2.37-.94L51,146C50.26,146.3,49.52,146.67,48.74,146.91Z"/><path class="cls-6" d="M44.54,148.13l.33,1.46c.84-.15,1.64-.42,2.47-.64l-.43-1.43C46.12,147.72,45.35,148,44.54,148.13Z"/><path class="cls-5" d="M60.12,150.16a39.11,39.11,0,0,0,11.55-11.65l-12.61-8.13a23.86,23.86,0,0,1-7.16,7.23Z"/><path class="cls-6" d="M62.92,136.93l1.17.94c.56-.65,1-1.37,1.54-2.05L64.39,135C63.9,135.62,63.45,136.31,62.92,136.93Z"/><path class="cls-6" d="M59.94,140.14l1,1.09c.65-.56,1.21-1.21,1.81-1.81l-1.11-1C61.09,139,60.56,139.6,59.94,140.14Z"/><path class="cls-6" d="M56.55,142.88l.86,1.23c.71-.46,1.36-1,2-1.54l-1-1.16C57.84,141.9,57.23,142.44,56.55,142.88Z"/><path class="cls-5" d="M71.67,138.51a40.44,40.44,0,0,0,3.72-7.26,40.9,40.9,0,0,0,2.25-7.8L62.89,120.7a27,27,0,0,1-3.83,9.68Z"/><path class="cls-6" d="M69,125.3l1.44.42c.24-.81.42-1.65.63-2.47l-1.47-.32C69.36,123.72,69.19,124.52,69,125.3Z"/><path class="cls-6" d="M67.46,129.43l1.37.6c.36-.78.63-1.58,1-2.38l-1.41-.5C68.06,127.91,67.8,128.69,67.46,129.43Z"/><path class="cls-6" d="M65.45,133.31l1.29.78c.45-.73.83-1.49,1.24-2.24l-1.34-.67C66.24,131.89,65.89,132.62,65.45,133.31Z"/><path class="cls-5" d="M77.64,123.45a40.14,40.14,0,0,0,.71-8.12,37.81,37.81,0,0,0-.94-8.18l-14.64,3.24a23.48,23.48,0,0,1,.58,5.11,24.66,24.66,0,0,1-.46,5.2Z"/><path class="cls-6" d="M70.14,112.25l1.49-.16c-.1-.85-.24-1.69-.37-2.53l-1.47.28C69.91,110.64,70.05,111.44,70.14,112.25Z"/><path class="cls-6" d="M70.32,116.64l1.5,0c0-.85,0-1.7,0-2.55l-1.5.07C70.3,115,70.34,115.82,70.32,116.64Z"/><path class="cls-6" d="M69.92,121l1.48.23c.14-.84.21-1.69.31-2.53l-1.49-.13C70.12,119.37,70.05,120.18,69.92,121Z"/><path class="cls-5" d="M77.41,107.15a53.46,53.46,0,0,0-5.77-14.38L58.52,100a39.08,39.08,0,0,1,4.25,10.36Z"/><path class="cls-6" d="M66.22,99.71l1.34-.66c-.36-.76-.76-1.5-1.15-2.24l-1.32.71C65.47,98.25,65.86,99,66.22,99.71Z"/><path class="cls-6" d="M68,103.75l1.39-.55c-.3-.79-.63-1.57-1-2.34l-1.37.62C67.39,102.23,67.71,103,68,103.75Z"/><path class="cls-6" d="M69.35,107.91l1.46-.37c-.22-.82-.45-1.65-.73-2.45l-1.42.47C68.93,106.34,69.14,107.13,69.35,107.91Z"/><path class="cls-5" d="M71.64,92.77c-2.33-4.22-4.78-8-6.79-11.58L51.76,88.5c2.35,4.2,4.77,7.93,6.76,11.53Z"/><polygon class="cls-6" points="59.59 88.13 60.88 87.36 59.63 85.23 58.33 85.97 59.59 88.13"/><rect class="cls-7" x="61.14" y="89.26" width="1.5" height="2.49" transform="translate(-37.73 44.71) rotate(-30.95)"/><polygon class="cls-6" points="64.12 95.78 65.43 95.04 64.18 92.87 62.88 93.63 64.12 95.78"/><path class="cls-5" d="M64.85,81.19a42.79,42.79,0,0,1-4.39-10.45L45.89,74.3a57.44,57.44,0,0,0,5.87,14.2Z"/><path class="cls-6" d="M53.66,76l1.42-.49c-.28-.76-.5-1.54-.73-2.31l-1.44.4C53.14,74.42,53.37,75.23,53.66,76Z"/><path class="cls-6" d="M55.34,80.2l1.37-.62c-.34-.74-.66-1.49-1-2.24l-1.39.55C54.67,78.67,55,79.44,55.34,80.2Z"/><path class="cls-6" d="M57.35,84.21l1.31-.71c-.38-.73-.77-1.45-1.12-2.18L56.19,82C56.56,82.74,57,83.47,57.35,84.21Z"/><path class="cls-5" d="M60.46,70.74a16.28,16.28,0,0,1,0-9.12L46.23,57a29.1,29.1,0,0,0-1.4,8.89,34.88,34.88,0,0,0,1.06,8.43Z"/><path class="cls-6" d="M52,62.6l1.48.22A22.76,22.76,0,0,1,54,60.5l-1.45-.39A23.41,23.41,0,0,0,52,62.6Z"/><polygon class="cls-6" points="51.83 67.15 53.33 67.08 53.3 65.89 53.34 64.7 51.84 64.61 51.8 65.88 51.83 67.15"/><path class="cls-6" d="M52.43,71.64l1.47-.31c-.18-.79-.3-1.58-.41-2.37L52,69.14C52.12,70,52.24,70.81,52.43,71.64Z"/><path class="cls-5" d="M60.49,61.62a16.47,16.47,0,0,1,5.23-7.4l-9.6-11.53A31.38,31.38,0,0,0,46.23,57Z"/><path class="cls-6" d="M58,50.49l1.1,1c.54-.58,1.12-1.14,1.71-1.68l-1-1.12C59.19,49.28,58.58,49.87,58,50.49Z"/><path class="cls-6" d="M55.24,54.09l1.27.81A20.22,20.22,0,0,1,57.89,53L56.71,52A22.83,22.83,0,0,0,55.24,54.09Z"/><path class="cls-6" d="M53.2,58.15l1.4.54a22.1,22.1,0,0,1,1-2.17l-1.33-.69A22.84,22.84,0,0,0,53.2,58.15Z"/><path class="cls-5" d="M65.72,54.22A19.72,19.72,0,0,1,69.8,51.6a24.46,24.46,0,0,1,4.83-1.72L71,35.31a40.67,40.67,0,0,0-7.76,2.78,35.19,35.19,0,0,0-7.16,4.6Z"/><path class="cls-6" d="M69.33,43.1l.51,1.41c.76-.27,1.52-.51,2.3-.73l-.4-1.44C70.93,42.56,70.12,42.81,69.33,43.1Z"/><path class="cls-6" d="M65.19,44.94l.71,1.32c.7-.37,1.42-.73,2.16-1l-.59-1.38C66.69,44.17,65.93,44.54,65.19,44.94Z"/><path class="cls-6" d="M61.39,47.4l.92,1.19a20.79,20.79,0,0,1,2-1.37L63.47,46A23.38,23.38,0,0,0,61.39,47.4Z"/><path class="cls-5" d="M74.63,49.88a34.57,34.57,0,0,1,10.92-.77l1.19-15A49.61,49.61,0,0,0,71,35.31Z"/><path class="cls-6" d="M82.67,41v1.5c.81,0,1.63,0,2.44.08l.08-1.5C84.35,41,83.51,41,82.67,41Z"/><path class="cls-6" d="M78.16,41.16l.15,1.49c.81-.07,1.61-.13,2.42-.16l0-1.5C79.84,41,79,41.08,78.16,41.16Z"/><path class="cls-6" d="M73.71,41.85,74,43.32c.79-.17,1.58-.32,2.38-.43l-.22-1.49C75.36,41.52,74.54,41.67,73.71,41.85Z"/></g></g></svg>