<svg xmlns="http://www.w3.org/2000/svg" viewBox="0 0 462.78 286.34"><defs><style>.cls-1{fill:#fff;}.cls-2{fill:#602f80;}.cls-3{fill:#10dada;}</style></defs><g id="Capa_2" data-name="Capa 2"><g id="Capa_1-2" data-name="Capa 1"><path class="cls-1" d="M437.51,98.14c-1.32-2.47-4.67-6.69-12.3-7.08-2.09-.11-8.44-.42-13.13,4.27l-.67.72c-.86,1-1.72,2.07-2.55,3.11q-.17-2.79-.59-5.44a25.51,25.51,0,0,0-6.94-14.38,14.79,14.79,0,0,0,5.7-8,18.27,18.27,0,0,0,1.24-6c0-4.54-2.11-12.29-16.25-13.18q-5.11-.31-12.32-.64c-3.85-.17-7.82-.28-11.84-.31q1.54-4.59,3.13-9.21c2.82-8.26,5.68-16.42,8.5-24.27a12.28,12.28,0,0,0-.3-9.62C378,5.62,375.38,2.26,369.65.83a30.19,30.19,0,0,0-7.3-.83A42,42,0,0,0,356,.46c-5.42.84-9.2,3.34-11.21,7.4-4.13,8.27-7.93,16.8-11.29,25.35-2.24,5.71-4.43,11.5-6.54,17.32-5.45,0-10.95.15-16.44.43-7.87.41-15.81.61-23.6.61l-5.43,0-3.57,4c-2.48,2.78-3.51,6.36-3,10.7a13.62,13.62,0,0,0,4,8.49A41.36,41.36,0,0,0,268.48,81c-4.78,3.9-9.33,12.21-15.07,12-1.42,0-5.08-1.46-6.74-1.74-3.74-.61-7.2-1.22-11-.37a14.41,14.41,0,0,0-8.5,5.4,12.35,12.35,0,0,0-1.9,2.76l-.23.47c-1.26,2.8-2.54,5.79-3.91,9.15-1.49,3-3,6-4.63,8.88a172.86,172.86,0,0,1-10.73,17l-.22.32c-1,1.55-2.13,3.1-3.28,4.63,3.08-7.82,6.19-15.32,9.24-22.31,3.17-7.25,6-13.52,8.47-18.64,3.6-7.51,4.67-9.9,4.9-12.39a12.65,12.65,0,0,0-1.58-7.75c-1.36-2.36-4.14-5.43-9.71-6.62a45.06,45.06,0,0,0-7.26-.88c-2.5-.12-4.92-.12-7.24,0s-9,.52-12.56,6.32q-1.34,2-2.52,4a31.06,31.06,0,0,0-8-2.71l-.49-.09a25.85,25.85,0,0,0-18.71,3.75,54.36,54.36,0,0,0-9.89,8.47l-.42.49c-.72.88-1.43,1.78-2.13,2.68a13.44,13.44,0,0,0-1.57,1.63c-9.7,10.76-19,22-27.68,33.27-8.36,10.91-17.36,21.72-26.67,32-4.71,5.13-9.7,10.27-14.82,15.28a72.65,72.65,0,0,1-15,11.35l-.59.36a12,12,0,0,1-5.39,2,5.75,5.75,0,0,1-1.37-1.09l-.14-.14a23.33,23.33,0,0,1-7.39-16.11,71,71,0,0,1,3.56-25.82,144.94,144.94,0,0,1,13.67-30A313.63,313.63,0,0,1,80.83,86.94a259.9,259.9,0,0,1,20.44-24c7.82-8.06,12.7-11.72,15.41-13.37l.25-.16a53.84,53.84,0,0,1,8.46-4.28,28.15,28.15,0,0,1-.64,4.47A35.34,35.34,0,0,1,123.49,54l-.22.63a36.25,36.25,0,0,1-3,7.07c-1.45,2.53-3.1,5.1-4.92,7.65a100.24,100.24,0,0,1-13.79,14.75C95.86,89,90,93.86,84.17,98.5l-1,.92a12.75,12.75,0,0,0-3.79,10.33,12.24,12.24,0,0,0,5.42,9,17.32,17.32,0,0,0,4.28,2,16.19,16.19,0,0,0,7.5.66,17.26,17.26,0,0,0,5.42-1.62l.9-.45.82-.6c6.38-4.67,12.8-9.68,19.11-14.9a124.17,124.17,0,0,0,18-18.33A76.73,76.73,0,0,0,154.51,61a79.9,79.9,0,0,0,3-12.6,29.94,29.94,0,0,0-2.23-17.6l-.29-.59c-3-5.59-7.93-9.89-14.69-12.76A63.82,63.82,0,0,0,123.64,13a85,85,0,0,0-16.51-.54c-6.1.42-10.85,1.43-14.55,3.11C86.46,18.37,80,22.77,72.76,29A214.48,214.48,0,0,0,52.25,49.68,269.36,269.36,0,0,0,32.17,75.84a235.09,235.09,0,0,0-17.06,29.5A182.27,182.27,0,0,0,3.49,136a88.72,88.72,0,0,0-3.21,31.1,60.44,60.44,0,0,0,9.8,28.35c5.8,8.75,14.59,15.67,26.14,20.57a38.11,38.11,0,0,0,16.55,3.33,48.22,48.22,0,0,0,14.81-2.72,63.91,63.91,0,0,0,13-6.37,96.89,96.89,0,0,0,10.87-8,216.42,216.42,0,0,0,21.74-20.75q5.31-5.83,10.56-12a22.93,22.93,0,0,0,12.73,7.84,29.27,29.27,0,0,0,14.89.14,39.75,39.75,0,0,0,7.18-2.64,32.71,32.71,0,0,0,2.91,5.59l.47.67a24,24,0,0,0,14.29,9.23,26.13,26.13,0,0,0,16-1.64l.38-.18a53.42,53.42,0,0,0,13-8.69l.69-.62c-1.2,1.08,9.78,4.89,10.68,5.16,8.89,2.59,21.86,1,25.93-9,1.64-3.61,3.33-7.21,5.06-10.76a29.7,29.7,0,0,0,.72,5.62,20,20,0,0,0,10.19,13.22l.59.3a24.45,24.45,0,0,0,21.15.35c-1.25,5.79-2.26,11.51-3,17.11a94.37,94.37,0,0,0,.07,28.48l.15.91.3.87c.95,2.84,3.76,7.82,12,9.37a40,40,0,0,0,16.12-.32c7.89-2,11.07-7.48,11.5-12.34,1.82-14.69,4.22-28.68,7.14-41.58q1.77-7.76,3.75-15.4a29.59,29.59,0,0,0,8.33,7.44c4.57,2.74,10,4.1,16.44,4.1a55.72,55.72,0,0,0,6.75-.44l.48-.07a38.55,38.55,0,0,0,14.57-5.52A53.09,53.09,0,0,0,385.46,168a61.38,61.38,0,0,0,7.8-10.54q1.14-2,2.22-3.89a25.83,25.83,0,0,0,13.06-6.75c2.38-2.38,5.32-5.43,8.74-9.07l.24-.25c3.55-4,7-8.18,10.28-12.44a111.9,111.9,0,0,0,9.44-14.49A12.79,12.79,0,0,0,437.51,98.14ZM310.45,78.46q3.14,0,6.27.13c-1,2.81-2,5.64-3,8.47a22.78,22.78,0,0,0-3.27-7.44c-.26-.39-.55-.78-.86-1.17Zm50.87,5a46.45,46.45,0,0,0-6.78,13.73l-.18.61a13,13,0,0,0-2.88.93q3.21-9.18,6.55-18.75l5.85.4A32.41,32.41,0,0,0,361.32,83.41Z"/><path class="cls-2" d="M424.62,103c-2.1-.1-3.46.16-4.09.79q-3.46,4.09-6.45,8.33T408,120.76q-3.76,4.41-8,9.75a21.43,21.43,0,0,1-9.59,7.23,3.39,3.39,0,0,0-.76.46c1-2.71,2.21-6.52,3.59-11.47a116.22,116.22,0,0,0,3.3-16,51.54,51.54,0,0,0,0-15.1q-1.1-6.91-6.13-9.75-6.6-3.45-11.32-1.73a17.2,17.2,0,0,0-8,6.29,34.44,34.44,0,0,0-5,10.22,70.9,70.9,0,0,0-2.36,9.75c-.84-.2-2.2-.47-4.09-.78s-3-.26-3.46.15a23.31,23.31,0,0,0-10.38,7.55,49.53,49.53,0,0,0-7.7,12.89,57.43,57.43,0,0,0-3.93,14.94A29.79,29.79,0,0,0,335.31,159a17.63,17.63,0,0,0,7.7,9.43q5.5,3.32,15.57,2a26.43,26.43,0,0,0,10.06-3.78,40.25,40.25,0,0,0,8-6.76,49.35,49.35,0,0,0,6.29-8.49q2.67-4.54,4.88-9h1.25q7.55-.63,11-4.09t8.49-8.8q5-5.67,9.75-11.8a100.05,100.05,0,0,0,8.49-13C427.45,103.68,426.71,103.1,424.62,103Zm-49.37,43.4a17.66,17.66,0,0,1-2.52,3.93,43.52,43.52,0,0,1-4.72,7.39,40.45,40.45,0,0,1-6.29,6.45c-2.51,1.89-4.61,2.67-6.29,2.36a5.39,5.39,0,0,1-3.77-2.52,13.78,13.78,0,0,1-1.73-5.19,16.3,16.3,0,0,1,.16-6A84.47,84.47,0,0,1,354.8,137q3.15-7.71,6.61-14.94a42.45,42.45,0,0,0,.31,5,12.56,12.56,0,0,0,1.58,4.72,15.29,15.29,0,0,0,5.66,6.92,23.34,23.34,0,0,0,8.17,3.46C376.5,143.61,375.87,145,375.25,146.39Zm13.05-45.28a94.87,94.87,0,0,1-2.05,13.52,128.71,128.71,0,0,1-3.77,13.52q-2.21,6.45-3.78,10.22c-2.09-.83-3.56-2.67-4.4-5.5a34.34,34.34,0,0,1-1.25-9.75,62.88,62.88,0,0,1,1.1-11.48,60,60,0,0,1,3-10.85,27.58,27.58,0,0,1,4.41-7.86c1.67-2,3.46-2.78,5.34-2.36Q388.77,94.67,388.3,101.11Zm1.1,37.58c0-.11.08-.24.13-.36s.08,0,.18,0C390.13,138.37,390,138.48,389.4,138.69Z"/><path class="cls-2" d="M349.78,67.3q11.31.95,22.48,1.57t22.17.63q.63,0,1.26-1.89a12.9,12.9,0,0,0,.63-2.2q0-.94-5-1.26t-12.11-.63q-7.08-.3-14.78-.31t-13-.31q4.08-12.27,8.33-24.69t8.65-24.69c.21-.41-.32-.78-1.57-1.1a18.57,18.57,0,0,0-4.41-.47,31.44,31.44,0,0,0-4.56.31c-1.36.22-2.15.53-2.35,1q-6,12-10.85,24.37t-9.28,25q-12-.3-24.22.32t-24.21.62c-.21,0-.26.48-.16,1.42s.37,1.42.79,1.42q11.64,0,23.11.15t22.8.79Q328.71,80.5,324,93.87c-1.21,3.42-2.45,6.83-3.68,10.23a7.67,7.67,0,0,0-1,1.25q-1.89,2.84-3.46,5.35-6.29,9.12-12.26,17.76t-12.27,17.46q-3.13,4.41-6.13,8.65T279,163.22a12.69,12.69,0,0,0-1.89,2.51,5.52,5.52,0,0,1-2.2,2.2c-1.68.63-1.47-1.3.63-5.82s4.87-10.27,8.33-17.29,7-14.52,10.54-22.49a110.16,110.16,0,0,0,7.39-21.54q2-9.58-1.26-14.47T285,85.22a28.59,28.59,0,0,0-9,5,60.78,60.78,0,0,0-7.86,7.7,107.76,107.76,0,0,0-6.76,8.81q-3.15,4.56-5.66,8.33-4.73,6.3-9.12,13.05t-8.18,14a353.87,353.87,0,0,1,12.27-37.43c.2-.63-.43-1-1.89-1.26a37.56,37.56,0,0,0-5-.31h-.32a5.27,5.27,0,0,0-2.35-.79,8.7,8.7,0,0,0-2.83.16,2.07,2.07,0,0,0-1.73,1.26,1.47,1.47,0,0,0-.1.22,1.07,1.07,0,0,0-.53.41c-1.37,3-2.66,6.07-3.91,9.13q-2.43,5-5.06,9.74a184,184,0,0,1-11.47,18.24,117.45,117.45,0,0,1-8.34,11q-4.56,5.35-9.59,10.38-2.52,2.21-5.19,4.4t-5.19,4.41c-4,3.14-6.13,3.2-6.44.15s.47-7.7,2.35-14,4.46-13.57,7.71-21.86,6.49-16.14,9.75-23.58,6.13-13.79,8.65-19S213,85.33,213,84.91c.21-.63-.42-1.1-1.89-1.42a34.21,34.21,0,0,0-5.34-.62,54.19,54.19,0,0,0-6,0c-1.89.1-2.94.36-3.14.78A53.44,53.44,0,0,0,191,94.19q-2.21,5.5-4.09,11.16a19.12,19.12,0,0,0-3.78-9.75q-3.14-4.08-9.43-5.34a13.91,13.91,0,0,0-10.22,1.88,42.25,42.25,0,0,0-7.71,6.61c-1,1.21-2,2.46-2.91,3.71a2.06,2.06,0,0,0-.86.69q-14.46,16-27.36,32.86T97.25,168.88Q90,176.74,82,184.6a84.17,84.17,0,0,1-17.45,13.21,23.88,23.88,0,0,1-11,3.93q-5.65.47-10.69-4.56a35.47,35.47,0,0,1-11-23.9q-.94-14.16,4.09-30.19a156,156,0,0,1,14.78-32.55,321.91,321.91,0,0,1,20.6-30.82A271.78,271.78,0,0,1,92.69,54.56q10.55-10.85,17.77-15.25A65.7,65.7,0,0,1,121,34c4.09-1.67,7.8-1.67,11.16,0a8.28,8.28,0,0,1,4.25,4.56,17,17,0,0,1,.94,6.61,40.36,40.36,0,0,1-.94,7.07,47.46,47.46,0,0,1-1.73,6,48,48,0,0,1-4.09,9.43q-2.52,4.41-5.66,8.81a112.16,112.16,0,0,1-15.57,16.67q-8.65,7.55-17.77,14.78c-.42.42-.47.73-.15.94a6,6,0,0,0,1.41.63,4.46,4.46,0,0,0,2,.16,5.73,5.73,0,0,0,1.74-.48q9.42-6.9,18.55-14.46A111.47,111.47,0,0,0,131.53,78a64.66,64.66,0,0,0,11.64-20.75,68.07,68.07,0,0,0,2.51-10.7,18.15,18.15,0,0,0-1.25-10.69q-2.52-4.71-8.81-7.39a51.59,51.59,0,0,0-13.52-3.62A72.64,72.64,0,0,0,108,24.37q-6.93.48-10.38,2.05-7.54,3.46-17,11.63a200.68,200.68,0,0,0-19.34,19.5,255.36,255.36,0,0,0-19.19,25,222.36,222.36,0,0,0-16.19,28A168.12,168.12,0,0,0,15,139.16a76.13,76.13,0,0,0-2.83,26.89,48.18,48.18,0,0,0,7.86,22.79Q26.82,199.07,41,205a26.28,26.28,0,0,0,11.48,2.36,36.61,36.61,0,0,0,11.16-2,51.73,51.73,0,0,0,10.54-5.19,84.93,84.93,0,0,0,9.59-7.08,203.53,203.53,0,0,0,20.6-19.65q9.58-10.55,18.71-21.86,4.78-5.55,9.45-11.15c-.5,1.82-.94,3.65-1.27,5.49a29.75,29.75,0,0,0,.15,12.58q1.42,5.66,8,7.23a17.29,17.29,0,0,0,9,.16,28.14,28.14,0,0,0,8.18-3.62,43.56,43.56,0,0,0,7.39-6,67.5,67.5,0,0,0,6.29-7.24v1.26a54.74,54.74,0,0,0-1.89,12,19.15,19.15,0,0,0,3.15,11.64,11.91,11.91,0,0,0,7.23,4.71,14.28,14.28,0,0,0,8.81-.94,41.12,41.12,0,0,0,10.06-6.76q4.71-4.24,8.81-8.65,7.85-8.49,15.09-17.92l.18-.25q-3.72,13.23-6.47,26.66c-.21.63.53,1.1,2.2,1.42a30.31,30.31,0,0,0,5.5.47,35.72,35.72,0,0,0,5.82-.47c1.89-.32,2.94-.79,3.15-1.42q5.66-12.57,12.11-24.53t13.67-23.58a225.92,225.92,0,0,1,16-22.33c.63-.84,1.52-1.94,2.68-3.3s2.36-2.73,3.61-4.09a32.22,32.22,0,0,1,3.93-3.62,6.61,6.61,0,0,1,3.93-1.57h1.26q-.31,0,0,.63,1.26,1.57.32,4.56t-1.58,4.56l-6.6,15.09-8.65,16.67q-4.24,8.19-7.7,16.67-.94,2.52-2.52,6.45a36.71,36.71,0,0,0-2.2,7.86,19.2,19.2,0,0,0,.16,7.39,7.9,7.9,0,0,0,4.24,5.34,12.65,12.65,0,0,0,11.64,0,24.89,24.89,0,0,0,9.12-7.54q7.54-9.75,14.46-20,5.21-7.69,10.61-15.28c-2,5-4,10.31-6.05,15.91q-5.19,14-9.12,28.46a222.85,222.85,0,0,0-5.82,28.3,82.48,82.48,0,0,0,0,24.84c.22.63,1.16,1.1,2.83,1.42a30.51,30.51,0,0,0,5.51.47,22.57,22.57,0,0,0,5.5-.63q2.52-.63,2.52-1.89A435.26,435.26,0,0,1,313.14,184q4.56-20.11,10.38-39.15t12.42-37.9Q342.54,88.05,349.78,67.3ZM176.5,130.51a194.93,194.93,0,0,1-14.78,19.81l-4.72,5.5a30.24,30.24,0,0,1-5.5,5.19q-2.67,1.89-4.88,1.1t-2.83-6.44c-.41-2.72.16-6.4,1.73-11a118.08,118.08,0,0,1,6.14-14.47A153.83,153.83,0,0,1,160,115.57a57.37,57.37,0,0,1,8.81-11q4.24-3.91,7.39-3.77t4.08,6.76a32,32,0,0,1,.48,7.08,52.73,52.73,0,0,1-.79,7.07A70.42,70.42,0,0,1,176.5,130.51Z"/><path class="cls-2" d="M424.17,196.28a79.61,79.61,0,0,0-26.1,5V201l-6.21-2.67a22.81,22.81,0,0,0-9.08-1.6,30,30,0,0,0-8.45,1.16H337.84a24.31,24.31,0,0,0-7.85-1.16,30,30,0,0,0-8.45,1.16h-40V211c-.74-1-1.51-1.92-2.34-2.82-7.28-7.91-17.37-11.92-30-11.92A42.67,42.67,0,0,0,213,215.6V197.9h-1.3a20.33,20.33,0,0,0,3-10.87,19.77,19.77,0,0,0-6.7-15.16,24,24,0,0,0-30-.52H87.73v37.52h26.36v75.85h41.47V208.87h16.5v75.85H213v-16a38,38,0,0,0,4.66,5.73c7.88,7.91,18.71,11.92,32.19,11.92,11.46,0,21.13-2.07,28.74-6.14l2.93-1.57v6.09h41V242.8c0-3.23.57-5.68,1.64-7.07.35-.46.68-.89,2.3-.89a7.84,7.84,0,0,1,3.73.77l4.17,2.26v46.85h40.95V242.8c0-3.23.57-5.68,1.64-7.07.35-.46.68-.89,2.3-.89a7.84,7.84,0,0,1,3.73.77l4.35,2.37a31.66,31.66,0,0,0-5.11,18c0,8.78,3,16.35,8.58,21.9s13.2,8.43,22.39,8.43A35.42,35.42,0,0,0,424,284.72h38.79V234.83C462.78,210.34,448.71,196.28,424.17,196.28Z"/><path class="cls-1" d="M171.81,198.63H145.32v75.85h-21V198.63H98v-17h73.84Z"/><path class="cls-1" d="M192.67,197.65a12,12,0,0,1-8.49-3.07,9.92,9.92,0,0,1-3.3-7.55,9.56,9.56,0,0,1,3.3-7.51,13.83,13.83,0,0,1,17,0,9.61,9.61,0,0,1,3.28,7.51,9.87,9.87,0,0,1-3.28,7.64A12.13,12.13,0,0,1,192.67,197.65Zm10.1,76.83H182.3V208.15h20.47Z"/><path class="cls-1" d="M279.59,247.14H236.32q1,14.44,18.21,14.44a35.49,35.49,0,0,0,19.23-5.18v14.77q-9.19,4.92-23.9,4.92-16.06,0-24.94-8.9t-8.87-24.84q0-16.51,9.59-26.17a32,32,0,0,1,23.57-9.65q14.52,0,22.45,8.61t7.93,23.39Zm-19-12.57q0-14.23-11.53-14.25a11,11,0,0,0-8.51,4.09,18.52,18.52,0,0,0-4.38,10.16Z"/><path class="cls-1" d="M335,226.61a17.76,17.76,0,0,0-8.62-2A12.4,12.4,0,0,0,316,229.49q-3.76,4.89-3.76,13.31v31.68H291.77V208.15h20.47v12.3h.26Q317.36,207,330,207a13.13,13.13,0,0,1,5.05.78Z"/><path class="cls-1" d="M387.83,226.61a17.74,17.74,0,0,0-8.62-2,12.4,12.4,0,0,0-10.42,4.89Q365,234.38,365,242.8v31.68H344.56V208.15H365v12.3h.26Q370.15,207,382.78,207a13.13,13.13,0,0,1,5.05.78Z"/><path class="cls-1" d="M452.54,274.48H433.17V265h-.26q-6.68,11.15-19.76,11.14-9.64,0-15.18-5.47T392.43,256q0-19.29,22.86-22.28l18-2.39q0-10.89-11.79-10.89A40.28,40.28,0,0,0,399,227.51V212.1a51,51,0,0,1,11.69-3.89,61.68,61.68,0,0,1,13.51-1.68q28.36,0,28.37,28.3Zm-19.24-27v-4.47l-12.05,1.55q-10,1.3-10,9a7.44,7.44,0,0,0,2.43,5.73,9.33,9.33,0,0,0,6.57,2.23,12.1,12.1,0,0,0,9.39-4A14.37,14.37,0,0,0,433.3,247.53Z"/><path class="cls-3" d="M411.64,203.22H309.19l9.09-40.77h93.36a12.66,12.66,0,0,1,12.65,12.65v15.48A12.65,12.65,0,0,1,411.64,203.22Z"/><path class="cls-1" d="M363.15,196.64h-6.89l-2-6.24h-10l-2,6.24h-6.85l10.21-28h7.49Zm-10.33-11.09-3-9.42a12.9,12.9,0,0,1-.47-2.52h-.15a10.89,10.89,0,0,1-.49,2.44l-3.05,9.5Z"/><path class="cls-1" d="M383.26,196.64h-6.18V167h6.18Z"/><path class="cls-1" d="M405.12,196.64h-5.85v-2.88h-.08a6.51,6.51,0,0,1-6,3.37,6.19,6.19,0,0,1-4.58-1.66,5.89,5.89,0,0,1-1.68-4.4q0-5.83,6.91-6.73l5.43-.72q0-3.28-3.56-3.29a12.08,12.08,0,0,0-6.8,2.14v-4.66a15.58,15.58,0,0,1,3.53-1.17,18.46,18.46,0,0,1,4.07-.51q8.56,0,8.57,8.54Zm-5.81-8.13v-1.35l-3.64.47c-2,.26-3,1.16-3,2.71a2.24,2.24,0,0,0,.74,1.73,2.82,2.82,0,0,0,2,.68,3.67,3.67,0,0,0,2.84-1.2A4.41,4.41,0,0,0,399.31,188.51Z"/></g></g></svg>