<svg xmlns="http://www.w3.org/2000/svg" viewBox="0 0 378.66 114.4"><defs><style>.cls-1{fill:#b20c80;}.cls-2{fill:#fff;}</style></defs><g id="Capa_2" data-name="Capa 2"><g id="Capa_1-2" data-name="Capa 1"><path class="cls-1" d="M185.51,42.1l0,0a8.42,8.42,0,0,0-3.77-1.33,10.06,10.06,0,0,0-3.27.18,7,7,0,0,0-5,4.16c-1.27,2.89-2.67,5.72-4.16,8.43a78.65,78.65,0,0,1-4.31,7c.94-2.32,1.89-4.57,2.82-6.7,1.47-3.37,2.79-6.27,3.92-8.63,1.67-3.46,2.19-4.65,2.31-5.87a6.37,6.37,0,0,0-.78-3.89,7,7,0,0,0-4.81-3.29,21,21,0,0,0-3.44-.42,32.12,32.12,0,0,0-3.4,0c-1.13.07-4.41.26-6.19,3.15q-.51.73-1,1.5A14.86,14.86,0,0,0,151,35.22l-.25,0a12.47,12.47,0,0,0-9,1.81,25.86,25.86,0,0,0-4.67,4l-.2.24a80.09,80.09,0,0,0-5.35,7.34c-.87,1.13-1.78,2.31-2.77,3.57q-1.7,2.17-3.46,4.25c0-.43.08-.85.11-1.27a13.3,13.3,0,0,0-2.69-9.23,27.12,27.12,0,0,0,3.06-4.6,9.94,9.94,0,0,0,0-10.32l-.15-.24c-2.46-3.61-5.4-5.65-8.74-6.07a11.75,11.75,0,0,0-8.61,2.3,21.9,21.9,0,0,0-5,5.4c-.68,1-1.27,2-1.79,2.92a7,7,0,0,0-4.74-3.17,21,21,0,0,0-3.43-.42,32.31,32.31,0,0,0-3.41,0c-1.12.07-4.4.26-6.19,3.15q-.51.73-1,1.5a14.86,14.86,0,0,0-3.43-1.11l-.25,0a12.68,12.68,0,0,0-7.62,1c0-.13,0-.25.05-.38h0a28.15,28.15,0,0,0-.38-8.51,24.37,24.37,0,0,0-3.18-8.09,16.92,16.92,0,0,0-7.53-6.59,25.25,25.25,0,0,0-9.49-2.38l-.64,0c.16-.45.33-.89.5-1.33a6.23,6.23,0,0,0-.24-5.07A6.61,6.61,0,0,0,45.36.33C44.6.21,43.79.11,42.92.05a19.5,19.5,0,0,0-2.86,0A6.69,6.69,0,0,0,34,4.16c-.9,2-2,4.75-3.31,8.1-.33.87-.68,1.77-1,2.7a51,51,0,0,0-4.9,2.66l-.12.07a43,43,0,0,0-14.37,15.4A42.19,42.19,0,0,0,5,53.78c0,2.19,1.39,6,6.57,6.35a13.07,13.07,0,0,0,1.66,0c-.06.16-.12.32-.17.48-.52,1.5-1,2.86-1.43,4.06H7.88A7.43,7.43,0,0,0,1.94,66.9,6.39,6.39,0,0,0,.23,73.17a6.69,6.69,0,0,0,5.1,4.66l.19,0c.49.11,1,.2,1.47.29L5.08,84c-.7,2.16-1.35,4.07-1.92,5.69s-.85,2.43-1,2.87a6.11,6.11,0,0,0,.43,5.14,7,7,0,0,0,6,3.26c.95.05,2,.08,3.19.08s2.25,0,3.31-.08,4.56-.25,6.34-3.25a32.75,32.75,0,0,0,2.87-5.84c.78-2,1.5-4.15,2.13-6.29s1.15-4.13,1.67-6.25q.17-.66.33-1.29a50.5,50.5,0,0,0,10.68-3,52.93,52.93,0,0,0,13-7.56c.09-.06.16-.14.25-.2a19,19,0,0,0,.34,6.94,10.51,10.51,0,0,0,8.07,7.72,13.91,13.91,0,0,0,7.13.06,18.11,18.11,0,0,0,3-1A16,16,0,0,0,72,83.14l.23.34a11.54,11.54,0,0,0,6.9,4.45,12.49,12.49,0,0,0,7.7-.79l.19-.08A25.17,25.17,0,0,0,93.16,83c1.59-1.43,3.1-2.9,4.48-4.39l.54-.59c1.72,6,5.28,8.1,8.09,8.77,3.55.84,7.39.12,11.41-2.14a48,48,0,0,0,8.64-6.44,11.13,11.13,0,0,0,6.12,3.75,13.87,13.87,0,0,0,7.12.06,17.89,17.89,0,0,0,3-1,17.06,17.06,0,0,0,1.2,2.22l.24.34a11.52,11.52,0,0,0,6.89,4.45,12.46,12.46,0,0,0,2.63.29,12.67,12.67,0,0,0,5.07-1.08l.2-.08A25.56,25.56,0,0,0,164.89,83c1.59-1.43,3.1-2.9,4.47-4.39,2.55-2.75,5-5.68,7.38-8.76A80.69,80.69,0,0,0,183,60.27c1.79-3.23,3.47-6.6,5-10l.21-.56A6.58,6.58,0,0,0,185.51,42.1ZM99.84,45.39a14.51,14.51,0,0,0,.7,1.75L98.48,48.3C99,47.26,99.41,46.29,99.84,45.39Zm-4,11.08q-1.25,2-2.61,4c.53-1.3,1.05-2.57,1.58-3.81ZM45.23,24.6l.46,0a14.8,14.8,0,0,1,5.16.57c2.25.67,2.48,1.47,2.58,1.81A11.64,11.64,0,0,1,53,33.38a42.33,42.33,0,0,1-4.87,10.2,64.89,64.89,0,0,1-8,10.28A51.55,51.55,0,0,1,34.53,59c.48-1.49.94-3,1.39-4.43q2.53-8.31,4.95-16.1C42.33,33.69,43.79,29.05,45.23,24.6Z"/><path class="cls-1" d="M378.17,17h0a17.56,17.56,0,0,0-5.33-8.46A12.86,12.86,0,0,0,364,5.21a52.79,52.79,0,0,0-6.09.33l-.35,0a23.87,23.87,0,0,0-6.73,2.33,22.68,22.68,0,0,0-6,4.45,18,18,0,0,0-4.12,6.74,14.18,14.18,0,0,0-.14,8.79,6.45,6.45,0,0,0,5.92,4.81,21,21,0,0,0,2.15.1h.84c-.8.88-1.59,1.81-2.38,2.78a84.12,84.12,0,0,0-6.76,9.75,6.68,6.68,0,0,0-2.57-3.23l0,0a8.43,8.43,0,0,0-3.76-1.33,10.34,10.34,0,0,0-3.22.15,7.85,7.85,0,0,0-2.12.75c-.07-.37-.16-.74-.26-1.11a13.16,13.16,0,0,0-1.71-3.7c.69-.6,1.34-1.2,2-1.8s1.21-1.12,1.84-1.67l.39-.33.57-.32c1.8-1,6-3.28,5.93-8-.06-3.61-2.71-6.47-6.75-7.27a11.27,11.27,0,0,0-7.61.74,11.73,11.73,0,0,0-3.8,3.38l-.73.91c-2,2.41-4.79,5.85-5.23,10a25.46,25.46,0,0,0-8,5,44,44,0,0,0-3.41,3.42l.16-.29.19-.58a6.25,6.25,0,0,0-.41-4.92,7,7,0,0,0-4.52-3.45,16.48,16.48,0,0,0-3.74-.58l-.46,0-3.69.18a7.18,7.18,0,0,0-5.5,3.33q-3.24,5.31-6.67,10.63a.36.36,0,0,1,0-.09,6.72,6.72,0,0,0-4.72-3.66,20,20,0,0,0-6-.31,8.63,8.63,0,0,0-3.42.94,56.18,56.18,0,0,0-1.12-10.68A37.16,37.16,0,0,0,257.52,20a25.82,25.82,0,0,0-8.93-9c-5.84-3.69-10.92-3.34-14.16-2.4a26.53,26.53,0,0,0-11.13,6.8,53.31,53.31,0,0,0-8.48,11.08A119.73,119.73,0,0,0,208.45,39c-1.82,4.14-3.35,8.09-4.57,11.74a81.17,81.17,0,0,0-2.51,8.79,54.09,54.09,0,0,0-1.3,10.42,38.32,38.32,0,0,0,1.31,11.24,28.51,28.51,0,0,0,5.26,10.33A24.1,24.1,0,0,0,217,98.89a24.77,24.77,0,0,0,11.53,1.68,26.27,26.27,0,0,0,10.08-3.12,30,30,0,0,0,5.1-3.54,29,29,0,0,0,2.39,5.8,31.22,31.22,0,0,0,5.63,7.22c3.79,3.68,7.67,6,11.52,6.86a22.53,22.53,0,0,0,5.11.61,17.73,17.73,0,0,0,5.4-.81,19.08,19.08,0,0,0,7.52-4.31c1.51-1.46,3.56-3.76,3.91-6.86l0-.67a8.73,8.73,0,0,0-2.22-5.7,7.2,7.2,0,0,0-5.24-2.77A6.54,6.54,0,0,0,273,95.17c-.36.36-1.26,1.18-1.84,1.12a12.72,12.72,0,0,1-4.77-1.63,11,11,0,0,1-3.75-3.28A25,25,0,0,1,260,86.25,59,59,0,0,1,258.11,80c-.09-.37-.21-.73-.31-1.09a10.87,10.87,0,0,0,1.83.51,27.93,27.93,0,0,0,3.43.37,18.73,18.73,0,0,0,4.06-.22,13,13,0,0,0,3.38-1l.17-.07A9.73,9.73,0,0,0,277,83.74l.69.16a16.9,16.9,0,0,0,6.39-.26,14.08,14.08,0,0,0,6.25-2.88c.54-.41,1.07-.83,1.59-1.27a17.63,17.63,0,0,0,8.82,8.06,11.88,11.88,0,0,0,4.83,1.06,10.86,10.86,0,0,0,5.5-1.5A22.66,22.66,0,0,0,316.24,83a51.17,51.17,0,0,0,4.21-4.79c1.12-1.45,2.26-3,3.37-4.46,2.82-3.51,5.65-7.12,8.4-10.74.38-.5.73-1,1.1-1.52a35.79,35.79,0,0,0-1.16,7.68v.19a6.51,6.51,0,0,0,1.15,3.67,9.83,9.83,0,0,0-1.68,2.07A14.32,14.32,0,0,0,330,78.94a10.75,10.75,0,0,0-.63,3.71,7.23,7.23,0,0,0,4.19,6.53,17.46,17.46,0,0,0,2.08.91l.41.13.43.08a11.42,11.42,0,0,0,2.08.19,10.28,10.28,0,0,0,4.4-1,10.5,10.5,0,0,0,4.49-4A11.34,11.34,0,0,0,349.18,80a10.22,10.22,0,0,0-.6-4c.06-.05.13-.09.18-.14a6.14,6.14,0,0,0,2.07-4,32,32,0,0,1,1.17-5,71.49,71.49,0,0,1,2.55-7.07c1-2.48,2.24-5,3.57-7.53a63.62,63.62,0,0,1,4-6.67,32.15,32.15,0,0,1,3.22-3.7l4.52-4.51a51.6,51.6,0,0,0,4.62-5.29A21.18,21.18,0,0,0,378,25.29,15.8,15.8,0,0,0,378.17,17Zm-21.78,8.13a5.42,5.42,0,0,1,0-2.37,3.27,3.27,0,0,1,.78-1.48,10.65,10.65,0,0,1,3.19-1.77,3,3,0,0,1,.62-.17,4.16,4.16,0,0,1-.22,1.73l-.05.16a7.08,7.08,0,0,1-1.61,2.57c-.8.8-1.64,1.57-2.51,2.32v-.31ZM244.64,52.08a97.06,97.06,0,0,1-2.26,9.47L241.94,63a38,38,0,0,0-6,.77l-.13,0a6.74,6.74,0,0,0-5.3,4.5,6.43,6.43,0,0,0,1.38,6.28,7.23,7.23,0,0,0,4.93,2.46,18.56,18.56,0,0,1-1.11,1.67,19.41,19.41,0,0,1-5.11,4.85,11.06,11.06,0,0,1-5.27,1.83c-.74,0-1.69-.08-3.07-1.46-1.14-1.15-1.85-3.39-2-6.49a58.88,58.88,0,0,1,1-14,110,110,0,0,1,4.36-16.37A94.27,94.27,0,0,1,232,32.34a36.79,36.79,0,0,1,6.7-9.15,6.18,6.18,0,0,1,1.43-1.06,8,8,0,0,1,3.23,3.12A18.43,18.43,0,0,1,245.62,32a48.2,48.2,0,0,1,.32,9.64A86.55,86.55,0,0,1,244.64,52.08Z"/><path class="cls-2" d="M65.46,35.19a22.05,22.05,0,0,0-.29-6.7,18.56,18.56,0,0,0-2.41-6.13,11.08,11.08,0,0,0-4.95-4.3,19.48,19.48,0,0,0-7.29-1.82,32,32,0,0,0-8,.58c-.39.08-.77.18-1.16.27q1.77-5.23,3.71-10.4c.1-.19-.14-.34-.73-.44S43.18,6.09,42.5,6a13,13,0,0,0-2,0c-.63,0-1,.17-1,.36-.87,1.95-2,4.62-3.28,8-.61,1.58-1.24,3.24-1.91,5a49.48,49.48,0,0,0-6.47,3.33A36.75,36.75,0,0,0,15.53,36,36,36,0,0,0,11,53.78c0,.2.34.32,1,.37A8.26,8.26,0,0,0,14.21,54a20.78,20.78,0,0,0,2.19-.51c.68-.19,1-.44,1-.73,0-2.43.08-4.81.22-7.14a36.71,36.71,0,0,1,1-6.64,27.89,27.89,0,0,1,2.33-6,19.42,19.42,0,0,1,4.3-5.39,43.51,43.51,0,0,1,5.91-4.37c.73-.46,1.48-.87,2.24-1.26q-.7,1.85-1.44,3.81-2.33,6.2-4.74,12.9L22.67,51.45q-2.19,6.12-3.94,11.15c-1.16,3.36-2.09,6-2.77,7.8a28.46,28.46,0,0,1-4.15.29H7.51a1.39,1.39,0,0,0-1.31.44c-.39.39-.2.68.58.88a39.74,39.74,0,0,0,8.31.87c-.58,1.66-1.26,3.67-2,6.05s-1.53,4.69-2.26,6.93S9.4,90,8.82,91.69l-1,2.91c-.1.2.27.32,1.09.37s1.78.07,2.85.07,2.06,0,3-.07,1.43-.17,1.53-.37a27.06,27.06,0,0,0,2.4-4.88c.73-1.89,1.39-3.84,2-5.83s1.12-4,1.6-6,1-3.76,1.46-5.32a44.69,44.69,0,0,0,13.12-3.13,47,47,0,0,0,11.52-6.71,51.58,51.58,0,0,0,9.33-9.62,46.35,46.35,0,0,0,6.42-11.89A23.84,23.84,0,0,0,65.46,35.19Zm-6.71-.07a47.76,47.76,0,0,1-5.54,11.66A70.46,70.46,0,0,1,44.47,58a54.51,54.51,0,0,1-10.21,8.46q-5.32,3.34-9.69,3.5,3.06-8.89,5.61-17.21t5-16.11q2.4-7.8,4.81-15.23c.23-.73.49-1.45.73-2.17a29.25,29.25,0,0,1,4.66-.68,21.31,21.31,0,0,1,7.22.81q5.38,1.61,6.63,5.9A17.2,17.2,0,0,1,58.75,35.12Z"/><path class="cls-2" d="M182.16,47.08a2.35,2.35,0,0,0-1.09-.37,4.13,4.13,0,0,0-1.31.07,1,1,0,0,0-.8.59q-2.06,4.66-4.45,9a85.52,85.52,0,0,1-5.32,8.45A57.54,57.54,0,0,1,165.33,70c-1.41,1.65-2.9,3.25-4.45,4.81-.78.68-1.58,1.36-2.41,2s-1.63,1.36-2.4,2q-2.77,2.19-3,.07a18.57,18.57,0,0,1,1.09-6.49q1.32-4.36,3.57-10.13t4.52-10.93q2.27-5.18,4-8.82A30.59,30.59,0,0,0,168,38.62q.15-.43-.87-.66a16.79,16.79,0,0,0-2.48-.29,25.58,25.58,0,0,0-2.77,0c-.88,0-1.36.17-1.46.37a24.74,24.74,0,0,0-2.62,4.88c-.68,1.7-1.32,3.43-1.9,5.18a8.82,8.82,0,0,0-1.75-4.52,7,7,0,0,0-4.37-2.48,6.47,6.47,0,0,0-4.74.87A19.71,19.71,0,0,0,141.49,45a71.41,71.41,0,0,0-5.07,7c-.92,1.2-1.9,2.46-2.95,3.8-2.43,3.12-4.93,6-7.51,8.82a93.44,93.44,0,0,1-7.51,7.29q-3.65,3.13-6.41,3.58,1.17-2.62,2.92-6.27a63.14,63.14,0,0,0,3-7.37,27.76,27.76,0,0,0,1.46-7.14,7.17,7.17,0,0,0-1.82-5.61c-1.36-1.46-2.43-2.21-3.21-2.26a5.05,5.05,0,0,0-1.15,0l.86-.52A22,22,0,0,0,118,42.12a21.44,21.44,0,0,0,2.48-3.72,4.06,4.06,0,0,0,.14-4.3c-1.46-2.14-3-3.3-4.52-3.5a5.82,5.82,0,0,0-4.3,1.17,15.78,15.78,0,0,0-3.64,3.93,25.62,25.62,0,0,0-2.56,4.67,4,4,0,0,0-.21,2.7,8.69,8.69,0,0,0,1.24,2.69,11.59,11.59,0,0,0,.91,1.21.72.72,0,0,0-.33.4q-2,4.66-4.45,9a85.52,85.52,0,0,1-5.32,8.45A57.54,57.54,0,0,1,93.6,70c-1.41,1.65-2.9,3.25-4.45,4.81-.78.68-1.58,1.36-2.41,2s-1.62,1.36-2.4,2c-1.85,1.46-2.84,1.48-3,.07a18.57,18.57,0,0,1,1.09-6.49Q83.76,68.08,86,62.31t4.52-10.93q2.25-5.18,4-8.82a30.59,30.59,0,0,0,1.75-3.94q.15-.43-.87-.66a16.79,16.79,0,0,0-2.48-.29,25.58,25.58,0,0,0-2.77,0c-.87,0-1.36.17-1.46.37a24.74,24.74,0,0,0-2.62,4.88q-1,2.55-1.9,5.18a8.82,8.82,0,0,0-1.75-4.52,7,7,0,0,0-4.37-2.48,6.47,6.47,0,0,0-4.74.87A19.71,19.71,0,0,0,69.76,45a73.54,73.54,0,0,0-7.29,10.64q-.87,1.74-2.19,4.88a31,31,0,0,0-1.89,6.34,13.75,13.75,0,0,0,.07,5.84,4.54,4.54,0,0,0,3.72,3.35,8,8,0,0,0,4.15.07,12.9,12.9,0,0,0,3.79-1.68,19.38,19.38,0,0,0,3.43-2.77,30.59,30.59,0,0,0,2.92-3.35v.58a25.35,25.35,0,0,0-.88,5.54,8.86,8.86,0,0,0,1.46,5.4,5.55,5.55,0,0,0,3.35,2.19,6.65,6.65,0,0,0,4.08-.44,19,19,0,0,0,4.67-3.14c1.46-1.31,2.82-2.64,4.08-4q3.64-3.93,7-8.31A72.54,72.54,0,0,0,106,57.35c1.43-2.57,2.75-5.25,4-8,.39.34.78.65,1.16.93,1,.78,1.1,2.29.37,4.52a59.68,59.68,0,0,1-3,7.29Q106.65,66,105,69.6t-1.39,5.18q1,5.39,4.09,6.12c2,.49,4.39,0,7.07-1.53a43.82,43.82,0,0,0,8.45-6.49c2.57-2.44,5-5,7.26-7.55-.13.53-.24,1-.33,1.57a13.75,13.75,0,0,0,.07,5.84,4.54,4.54,0,0,0,3.72,3.35,8,8,0,0,0,4.15.07,13,13,0,0,0,3.79-1.68,19.38,19.38,0,0,0,3.43-2.77,29.46,29.46,0,0,0,2.91-3.35v.58a26,26,0,0,0-.87,5.54,8.86,8.86,0,0,0,1.46,5.4,5.55,5.55,0,0,0,3.35,2.19,6.65,6.65,0,0,0,4.08-.44,19.15,19.15,0,0,0,4.67-3.14c1.46-1.31,2.82-2.64,4.08-4q3.64-3.93,7-8.31a72.54,72.54,0,0,0,5.76-8.82q2.55-4.59,4.74-9.54A.59.59,0,0,0,182.16,47.08ZM79.38,59.76a89,89,0,0,1-6.85,9.18c-.58.69-1.31,1.54-2.19,2.56a13.94,13.94,0,0,1-2.55,2.4,2.42,2.42,0,0,1-2.26.51c-.68-.24-1.11-1.24-1.31-3a11.4,11.4,0,0,1,.8-5.1,55.63,55.63,0,0,1,2.84-6.71,73.17,73.17,0,0,1,3.87-6.78,27.12,27.12,0,0,1,4.08-5.1c1.31-1.21,2.45-1.8,3.43-1.75s1.6,1.1,1.89,3.14a14.3,14.3,0,0,1,.22,3.28A25.12,25.12,0,0,1,81,55.68,32.62,32.62,0,0,1,79.38,59.76Zm31.2-14.43a8.51,8.51,0,0,1,.8-2.63,31.07,31.07,0,0,1,1.9-3.72,20.74,20.74,0,0,1,2.26-3.13c.78-.87,1.46-1.17,2-.87a1.37,1.37,0,0,1,.22,1.09,3.71,3.71,0,0,1-.22,1.09,9.5,9.5,0,0,1-2.77,5.18A14.64,14.64,0,0,1,110.58,45.33Zm40.53,14.43a89,89,0,0,1-6.85,9.18c-.58.69-1.31,1.54-2.19,2.56a14.26,14.26,0,0,1-2.55,2.4,2.42,2.42,0,0,1-2.26.51c-.68-.24-1.12-1.24-1.31-3a11.26,11.26,0,0,1,.8-5.1,55.63,55.63,0,0,1,2.84-6.71,73.17,73.17,0,0,1,3.87-6.78,26.73,26.73,0,0,1,4.08-5.1c1.31-1.21,2.45-1.8,3.42-1.75s1.61,1.1,1.9,3.14a14.88,14.88,0,0,1,.22,3.28,23.51,23.51,0,0,1-.37,3.28A32.46,32.46,0,0,1,151.11,59.76Z"/><path class="cls-2" d="M277.22,99.42c-2.14,2.13-4.37,3.08-6.71,2.84a18.72,18.72,0,0,1-7.14-2.41,16.69,16.69,0,0,1-5.76-5.17,31.73,31.73,0,0,1-3.21-6.34,66.4,66.4,0,0,1-2.11-6.86,39,39,0,0,0-2.33-6.7,70.16,70.16,0,0,0,3.5-9A83.13,83.13,0,0,0,256,55a74.16,74.16,0,0,0,1-11.37,51.2,51.2,0,0,0-1-11,31,31,0,0,0-3.65-9.55,19.77,19.77,0,0,0-6.92-6.92q-4.81-3.06-9.33-1.75a20.48,20.48,0,0,0-8.61,5.32,47,47,0,0,0-7.5,9.84A110.72,110.72,0,0,0,214,41.39q-2.62,6-4.38,11.23a75.22,75.22,0,0,0-2.33,8.16,47.41,47.41,0,0,0-1.17,9.33,31.85,31.85,0,0,0,1.1,9.48,22.39,22.39,0,0,0,4.15,8.16,18.06,18.06,0,0,0,7.87,5.54,18.57,18.57,0,0,0,8.75,1.31,20.31,20.31,0,0,0,7.8-2.4,24.81,24.81,0,0,0,6.42-5.1A35.3,35.3,0,0,0,247,80.17,40.71,40.71,0,0,1,248.28,86a50.19,50.19,0,0,0,1,5.47,22.71,22.71,0,0,0,2.11,5.39,25.7,25.7,0,0,0,4.52,5.76q4.51,4.38,8.68,5.32a13.82,13.82,0,0,0,7.36-.07,13.1,13.1,0,0,0,5.18-2.91,6.14,6.14,0,0,0,2.11-3.21,2.87,2.87,0,0,0-.8-1.82C277.92,99.29,277.51,99.12,277.22,99.42ZM248.13,63.26a72.51,72.51,0,0,1-2.55,7.43A3.91,3.91,0,0,0,242.16,69a32.88,32.88,0,0,0-5,.65c-.88.2-1.12.51-.73,1a1.27,1.27,0,0,0,1.46.37,4.48,4.48,0,0,1,3.86.51,8.32,8.32,0,0,1,2.55,3.13,20.9,20.9,0,0,1-3.72,7.66,25.34,25.34,0,0,1-6.7,6.34,17.12,17.12,0,0,1-8.1,2.77A9.72,9.72,0,0,1,218,88.19q-3.36-3.36-3.79-10.35a64.71,64.71,0,0,1,1.09-15.46,115.62,115.62,0,0,1,4.59-17.27,100.64,100.64,0,0,1,6.85-15.67,42.77,42.77,0,0,1,7.88-10.65q4.08-3.78,7.58-2.33a14,14,0,0,1,6.34,5.76,24.37,24.37,0,0,1,3,9,53.11,53.11,0,0,1,.36,10.87,90.34,90.34,0,0,1-1.38,11.15A99.82,99.82,0,0,1,248.13,63.26Z"/><path class="cls-2" d="M334.37,47.08a2.39,2.39,0,0,0-1.1-.37,4.66,4.66,0,0,0-1.38.07c-.49.1-.78.3-.88.59A61.71,61.71,0,0,1,326.86,54c-1.51,2.09-3,4.21-4.45,6.34l-5.83,7.88c-1.95,2.62-4,5.2-6.27,7.72-.29.39-.68.88-1.17,1.46a15.38,15.38,0,0,1-1.45,1.53,3.77,3.77,0,0,1-1.61.88,2,2,0,0,1-1.75-.51,4.92,4.92,0,0,1-1.24-3.65,31.44,31.44,0,0,1,.37-5.47q.44-2.84,1-5.54l.87-4a1.22,1.22,0,0,0,.15-.58q2.63,2.63,5.39,1.75a11.69,11.69,0,0,0,5.18-3.57,27,27,0,0,0,4.15-6.34,34.62,34.62,0,0,0,2.48-6.56,6.95,6.95,0,0,0-1.53-5.76A5.69,5.69,0,0,0,318.84,38a4.82,4.82,0,0,0-3-.07A18.71,18.71,0,0,0,309.22,42a40.21,40.21,0,0,0-6.34,7.29A48.48,48.48,0,0,0,299,56l-4.19,6.15a64.68,64.68,0,0,1-11.16,12.46c-.78.58-1,.17-.8-1.24a43.22,43.22,0,0,1,1.6-5.83q1.24-3.72,3.07-8.38t3.64-9q1.83-4.3,3.28-7.65t2-4.38c.1-.29-.19-.53-.87-.73a11.36,11.36,0,0,0-2.41-.36,17.27,17.27,0,0,0-2.7.07c-.87.1-1.36.25-1.45.44q-9,14.86-19.54,29.6c-.29.48-.68,1.09-1.17,1.82a11.12,11.12,0,0,1-1.38,1.75c-.44.43-.83.61-1.17.51s-.56-.73-.65-1.9a25,25,0,0,1,.36-5.68A37.68,37.68,0,0,1,266.94,58a55.48,55.48,0,0,1,4.74-10.2c.09-.2-.15-.37-.73-.52a8.44,8.44,0,0,0-2-.21c-.73,0-1.44,0-2.11.07s-1.07.17-1.17.36a51.44,51.44,0,0,0-3.06,5,50.2,50.2,0,0,0-3.28,7.29,31.68,31.68,0,0,0-1.75,7.44q-.36,3.57,1.38,5.47a2.7,2.7,0,0,0,1.68.8,23.53,23.53,0,0,0,2.7.29,12.57,12.57,0,0,0,2.77-.15,6.81,6.81,0,0,0,1.89-.51,6.55,6.55,0,0,0,2.92-2.4l2.19-3.14c.77-1.07,1.48-2.09,2.11-3.06s1.29-2,2-3.06c-.49,1.56-.9,3.11-1.24,4.66a22.52,22.52,0,0,0-.51,4.82,24.68,24.68,0,0,0,.36,4.15A3.55,3.55,0,0,0,278.68,78a11.15,11.15,0,0,0,4.15-.21,8,8,0,0,0,3.72-1.68,33.75,33.75,0,0,0,4.37-3.94L295,67.78c.24-.27.45-.56.68-.83,0,.27-.08.55-.09.83A17.75,17.75,0,0,0,297,76.16a11.57,11.57,0,0,0,6.2,5.91,5.1,5.1,0,0,0,4.88-.15,16,16,0,0,0,3.86-3.06,45.46,45.46,0,0,0,3.8-4.3q1.74-2.27,3.35-4.45,4.23-5.25,8.38-10.71a73.54,73.54,0,0,0,7.22-11.59A.6.6,0,0,0,334.37,47.08Zm-25.59,4.73a46.79,46.79,0,0,1,3.86-5.46c.59-.68,1.46-1.58,2.63-2.7a5.76,5.76,0,0,1,3.06-1.82c.58,0,.82.53.73,1.6a16.63,16.63,0,0,1-.95,3.86,35.79,35.79,0,0,1-2.19,4.89,21,21,0,0,1-3.06,4.45,8.9,8.9,0,0,1-3.5,2.47,3.19,3.19,0,0,1-3.42-.8A26.8,26.8,0,0,1,308.78,51.81Z"/><path class="cls-2" d="M372.34,18.43A11.54,11.54,0,0,0,368.77,13,6.8,6.8,0,0,0,364,11.21a47.27,47.27,0,0,0-5.39.29,17.77,17.77,0,0,0-5,1.75,16.89,16.89,0,0,0-4.45,3.28,12.1,12.1,0,0,0-2.77,4.52,8.35,8.35,0,0,0,0,5.32c0,.2.24.32.73.37a14.84,14.84,0,0,0,1.53.07,11.28,11.28,0,0,0,1.39-.07c.38,0,.58-.12.58-.22a11.22,11.22,0,0,1-.07-5,9.42,9.42,0,0,1,2.4-4.52,16.24,16.24,0,0,1,5.32-3.13,7.08,7.08,0,0,1,6.05.22,4.76,4.76,0,0,1,2.63,4.08,10.71,10.71,0,0,1-.59,5.1,12.88,12.88,0,0,1-3,4.74,52.55,52.55,0,0,1-4.16,3.72,50.13,50.13,0,0,0-7.44,7.58A78.07,78.07,0,0,0,345.08,49a60,60,0,0,0-4.88,10.5,33,33,0,0,0-2,9.91c0,.29.34.59,1,.88a14.28,14.28,0,0,0,2.26.73,22.81,22.81,0,0,0,2.33.43c.73.1,1.09,0,1.09-.14a37.89,37.89,0,0,1,1.39-6.13A78.32,78.32,0,0,1,349,57.5c1.11-2.67,2.38-5.34,3.79-8a70.3,70.3,0,0,1,4.45-7.36,37.65,37.65,0,0,1,3.86-4.45l4.52-4.52a46.28,46.28,0,0,0,4.08-4.66,15.43,15.43,0,0,0,2.55-4.89A9.73,9.73,0,0,0,372.34,18.43Z"/><path class="cls-2" d="M340.71,76.23a5.26,5.26,0,0,0-2,.3,4.19,4.19,0,0,0-2,1.67,8.5,8.5,0,0,0-.95,2.26v.15a4.51,4.51,0,0,0-.43,2,1.33,1.33,0,0,0,.87,1.17,11.77,11.77,0,0,0,1.31.58,4.73,4.73,0,0,0,2.85-.29,4.61,4.61,0,0,0,2-1.75,5.35,5.35,0,0,0,.81-2.63,4.52,4.52,0,0,0-.81-2.77A1.8,1.8,0,0,0,340.71,76.23Z"/><path class="cls-2" d="M321.17,33.56c1.91-1.44,3.54-3.18,5.33-4.73l.66-.55c1.08-.88,4.19-1.89,4.16-3.5,0-.88-1.06-1.32-1.93-1.49a5.52,5.52,0,0,0-3.66.19,5.92,5.92,0,0,0-1.86,1.77c-1.87,2.36-5.16,5.8-4.69,9A2.31,2.31,0,0,0,321.17,33.56Z"/></g></g></svg>