<svg xmlns="http://www.w3.org/2000/svg" viewBox="0 0 444.22 116.4"><defs><style>.cls-1{fill:#ed7e00;}.cls-2{fill:#fff;}</style></defs><g id="Capa_2" data-name="Capa 2"><g id="Capa_1-2" data-name="Capa 1"><path class="cls-1" d="M187.07,42.26l-.12-.07a9.43,9.43,0,0,0-4.12-1.44,11.26,11.26,0,0,0-3.6.2,8.27,8.27,0,0,0-4,2.16,9.44,9.44,0,0,0,.74-2.39,7.32,7.32,0,0,0-.86-4.83,7.93,7.93,0,0,0-5.47-3.77,22,22,0,0,0-3.6-.44,34.23,34.23,0,0,0-3.51,0c-1.22.07-4.85.28-6.94,3.55-.19.28-.37.56-.55.84a16.3,16.3,0,0,0-2.88-.84l-.24,0a13.44,13.44,0,0,0-9.71,2,26.38,26.38,0,0,0-4.89,4.2l-.21.24A78,78,0,0,0,131.72,49c-.87,1.13-1.78,2.31-2.76,3.56-.51.66-1,1.3-1.55,1.94A14.11,14.11,0,0,0,125,46.91a30.42,30.42,0,0,0,2.67-4.16,11.07,11.07,0,0,0-.06-11.36l-.16-.24a18.83,18.83,0,0,0-2.7-3.2l.36-3.64-2.63,1.91A11.3,11.3,0,0,0,118,24.65a12.86,12.86,0,0,0-9.34,2.49,23.18,23.18,0,0,0-5.28,5.65c-.38.57-.74,1.13-1.08,1.69a8.26,8.26,0,0,0-4.41-2.36,21.86,21.86,0,0,0-3.6-.44,34.23,34.23,0,0,0-3.51,0c-1.21.07-4.85.28-6.94,3.55l-.55.84a16.06,16.06,0,0,0-2.88-.84l-.24,0a14.05,14.05,0,0,0-6.65.49A28.81,28.81,0,0,0,73,28.12a25.43,25.43,0,0,0-3.3-8.42,17.94,17.94,0,0,0-8-7,26.31,26.31,0,0,0-9.16-2.42,7.21,7.21,0,0,0-.26-5.94,7.59,7.59,0,0,0-5.84-4C45.73.22,44.89.12,44,.05a20,20,0,0,0-3,0C37,.37,34.81,2.68,34,5c-.89,2-2,4.66-3.22,7.9-.29.76-.59,1.53-.89,2.33-1.66.81-3.22,1.67-4.66,2.56l-.11.06A44,44,0,0,0,10.4,33.6,43.23,43.23,0,0,0,5,54.78c0,3.29,2.35,7,7.49,7.35l.33,0c-.32.9-.61,1.75-.89,2.54h-3A8.4,8.4,0,0,0,2.23,67.2a7.36,7.36,0,0,0-2,7.24,7.66,7.66,0,0,0,5.86,5.37l.18,0,.38.08L5.14,84.69c-.71,2.15-1.35,4.06-1.92,5.67s-.87,2.47-1,2.89a7.07,7.07,0,0,0,.52,6c1.32,2.3,3.59,3.56,6.76,3.76,1,.05,2.07.08,3.25.08S15,103,16.1,103c1.26-.07,5-.28,7.12-3.69a35,35,0,0,0,3-6c.79-2.06,1.51-4.2,2.15-6.37S29.51,82.7,30,80.57c.05-.22.1-.44.16-.66a51,51,0,0,0,10.25-3,54.93,54.93,0,0,0,11.68-6.52,19.16,19.16,0,0,0,.54,5,11.46,11.46,0,0,0,8.78,8.44,14.89,14.89,0,0,0,7.64.07,20.18,20.18,0,0,0,2.24-.73,16.08,16.08,0,0,0,.89,1.54l.23.33a12.56,12.56,0,0,0,7.49,4.83,13.61,13.61,0,0,0,2.83.3,14,14,0,0,0,5.5-1.16l.2-.09a26.28,26.28,0,0,0,6.37-4.26c1.38-1.25,2.7-2.53,3.93-3.82a13.33,13.33,0,0,0,4.07,5.78l-.34.73.81-.38a10.8,10.8,0,0,0,3.73,1.7c3.8.91,7.89.15,12.13-2.24a47.47,47.47,0,0,0,8.07-5.89,12.13,12.13,0,0,0,5.94,3.29,14.89,14.89,0,0,0,7.64.07,20.88,20.88,0,0,0,2.24-.73,16.08,16.08,0,0,0,.89,1.54l.23.33a12.56,12.56,0,0,0,7.49,4.83,13.7,13.7,0,0,0,8.33-.86l.2-.09a26.23,26.23,0,0,0,6.36-4.26c1.62-1.46,3.14-3,4.54-4.46,2.56-2.77,5.06-5.73,7.44-8.84a80.66,80.66,0,0,0,6.3-9.65c1.81-3.27,3.52-6.71,5.06-10.22l.21-.55A7.59,7.59,0,0,0,187.07,42.26ZM51.58,27.09c1.13.34,1.77.72,1.89,1.12a10.88,10.88,0,0,1-.41,5.88,42.25,42.25,0,0,1-4.76,10,64.4,64.4,0,0,1-7.89,10.12c-.95,1-1.92,1.93-2.9,2.81l.36-1.17q2.55-8.3,5-16.09c1.39-4.52,2.78-8.94,4.14-13.17A14.16,14.16,0,0,1,51.58,27.09Z"/><path class="cls-1" d="M443.71,17.77h0a18.64,18.64,0,0,0-5.63-9,13.83,13.83,0,0,0-9.55-3.6,53.84,53.84,0,0,0-6.27.35l-.34.05a24.52,24.52,0,0,0-7,2.42,23.7,23.7,0,0,0-6.28,4.64,19.12,19.12,0,0,0-4.36,7.11,15.45,15.45,0,0,0-.18,9.28,7.48,7.48,0,0,0,6.81,5.64l.91.07c-.32.39-.65.78-1,1.18a85.59,85.59,0,0,0-6,8.42,7.6,7.6,0,0,0-5.68-3.47l-.14,0c-1-.09-1.45-.1-1.72-.1a9.64,9.64,0,0,0-3.27.56,12.27,12.27,0,0,0-1.94-5c-2-3-6.28-6-15.1-3.27l-.14.05a20.25,20.25,0,0,0-6.36,3.54A36.1,36.1,0,0,0,366,41.13l-.58.69a10,10,0,0,0-2.09-.53c-.52-.07-1.08-.13-1.67-.16a9.47,9.47,0,0,0-1.82-.38,11.68,11.68,0,0,0-3.52.17,10,10,0,0,0-1.23.33A13.73,13.73,0,0,0,352.24,36a12.44,12.44,0,0,0-1.32-1.3c.85-.73,1.64-1.46,2.4-2.17.6-.57,1.21-1.13,1.83-1.67l.4-.34.58-.32c1.79-1,6-3.28,5.92-8-.06-3.61-2.71-6.47-6.75-7.27a11.22,11.22,0,0,0-7.61.75,11.83,11.83,0,0,0-3.8,3.37l-.74.91c-2.38,2.9-6,7.29-5.17,12.67l0,.21a27.13,27.13,0,0,0-7.67,5,47.65,47.65,0,0,0-7.45,8.55c-.18.26-.35.52-.53.8l0,.08c-1.05,1.4-2,2.69-2.79,3.92,0-.08.05-.16.08-.23l.13-.43.18-1.19V48.8a7.23,7.23,0,0,0-.58-2.82,36.8,36.8,0,0,0,2.74-3.34,25.7,25.7,0,0,0,3.36-6l.11-.29a7.81,7.81,0,0,0-3.21-8.87,20.13,20.13,0,0,0-2.8-1.68,19.76,19.76,0,0,0-3-1.23c-4.59-1.41-8,.79-9.42,3.59l-.42,1.06q-1,3.39-1.62,5.37c-.29,1-.54,1.86-.78,2.7a7.25,7.25,0,0,0-.63-1.68,8,8,0,0,0-5.13-3.94,17.86,17.86,0,0,0-3.95-.62,24.54,24.54,0,0,0-3.84.1c-1.23.14-4.9.55-6.75,3.91q-2.81,4.61-5.76,9.22a8,8,0,0,0-4.55-2.83,20.45,20.45,0,0,0-6.3-.33,10.46,10.46,0,0,0-2.36.43,57.13,57.13,0,0,0-1.13-9.39,38.1,38.1,0,0,0-4.48-11.69,26.66,26.66,0,0,0-9.25-9.3c-4.88-3.08-10-4-15-2.52a27.43,27.43,0,0,0-11.55,7.05A54.3,54.3,0,0,0,215,27a120.83,120.83,0,0,0-6.42,12.55c-1.83,4.16-3.38,8.14-4.61,11.82a82.2,82.2,0,0,0-2.53,8.88,53.75,53.75,0,0,0-1.32,10.62,38.91,38.91,0,0,0,1.34,11.53,29.29,29.29,0,0,0,5.44,10.69,24.94,24.94,0,0,0,10.81,7.7,25.81,25.81,0,0,0,12,1.75,27.49,27.49,0,0,0,10.46-3.24,31,31,0,0,0,4.11-2.71,31.61,31.61,0,0,0,2,4.57,32.85,32.85,0,0,0,5.8,7.46c3.93,3.8,8,6.2,12,7.12a24.58,24.58,0,0,0,5.34.63,18.84,18.84,0,0,0,5.71-.86A20.07,20.07,0,0,0,283,111c2.55-2.46,3.93-4.9,4.22-7.47l0-.78a9.71,9.71,0,0,0-2.46-6.35,8.19,8.19,0,0,0-5.93-3.12,7.49,7.49,0,0,0-5.6,2.18,4.52,4.52,0,0,1-1,.83,11.52,11.52,0,0,1-4.36-1.5,10,10,0,0,1-3.41-3A24.45,24.45,0,0,1,262,86.91c-.66-1.79-1.23-3.65-1.72-5.52l.21,0c.88.15,1.8.27,2.76.34l.42,2.09,1.85-2a19.82,19.82,0,0,0,2.8-.25,15.28,15.28,0,0,0,2.92-.74,10.57,10.57,0,0,0,5.29,4.43l4,.8a20.39,20.39,0,0,0,4.79-.47,14.9,14.9,0,0,0,6.65-3.06c.47-.36.94-.73,1.4-1.11A13.62,13.62,0,0,0,295.26,84c1.9,2,5.47,4.2,11.66,3.58a15.32,15.32,0,0,0,8-3,30.26,30.26,0,0,0,2.71-2.23,19.31,19.31,0,0,0,8.49,7.11A12.09,12.09,0,0,0,337.35,89a23.06,23.06,0,0,0,5-3.85,8.25,8.25,0,0,0,3.15,1.61l3.65.53a23.35,23.35,0,0,0,5-.28c4.17-.7,6-3,6.75-4.82l.44-1a10.74,10.74,0,0,0,5,5.44l.29.15a12.93,12.93,0,0,0,11.52-.07,18.56,18.56,0,0,0,6.68-5.53c2.38-3.08,4.71-6.29,6.92-9.56,1.48-2.19,3-4.38,4.55-6.56a35,35,0,0,0-.58,5.14v.19a7.67,7.67,0,0,0,.89,3.54,11.11,11.11,0,0,0-1.28,1.68,15.17,15.17,0,0,0-1.7,4,11.81,11.81,0,0,0-.68,4,8.24,8.24,0,0,0,4.75,7.43,17,17,0,0,0,2.21,1l1,.25a12.53,12.53,0,0,0,2.27.21A11.15,11.15,0,0,0,408,91.43a11.67,11.67,0,0,0,4.92-4.37,12.3,12.3,0,0,0,1.85-6,11.08,11.08,0,0,0-.44-3.72A7.1,7.1,0,0,0,416.39,73a30.89,30.89,0,0,1,1.13-4.85,70.36,70.36,0,0,1,2.52-7c1-2.46,2.22-5,3.53-7.46a62.85,62.85,0,0,1,3.94-6.54,31.1,31.1,0,0,1,3.12-3.58l4.52-4.52a52.78,52.78,0,0,0,4.72-5.39,22.1,22.1,0,0,0,3.68-7.14A16.71,16.71,0,0,0,443.71,17.77Zm-19.4,4.07,0,.05a5.88,5.88,0,0,1-1.37,2.21c-.36.36-.73.72-1.11,1.07a4.42,4.42,0,0,1,.09-1.2,2.25,2.25,0,0,1,.49-1A9,9,0,0,1,424.31,21.84ZM245.94,42.6a82.81,82.81,0,0,1-1.28,10.3c-.63,3.35-1.39,6.5-2.23,9.36l-.24.8a41.47,41.47,0,0,0-5.45.75l-.14,0a7.71,7.71,0,0,0-6,5.17,7.41,7.41,0,0,0,1.59,7.25,8.32,8.32,0,0,0,4,2.54l-.24.33a18.37,18.37,0,0,1-4.85,4.6,10.18,10.18,0,0,1-4.78,1.68c-.38,0-1.07.07-2.31-1.17-.94-.94-1.58-3.07-1.76-5.84a58,58,0,0,1,1-13.77,108.44,108.44,0,0,1,4.32-16.23,94,94,0,0,1,6.36-14.58,36.34,36.34,0,0,1,6.51-8.9,7,7,0,0,1,.76-.63,7,7,0,0,1,2.36,2.46,17.52,17.52,0,0,1,2.1,6.43A46.07,46.07,0,0,1,245.94,42.6Z"/><path class="cls-2" d="M66,42.6a24.94,24.94,0,0,0,1.45-6.3h0a23.11,23.11,0,0,0-.31-7,19.74,19.74,0,0,0-2.53-6.45,12.05,12.05,0,0,0-5.38-4.68,20.31,20.31,0,0,0-7.67-1.92,32.39,32.39,0,0,0-7.64.5c1.12-3.25,2.12-6,3.09-8.61a1.12,1.12,0,0,0,0-1,1.83,1.83,0,0,0-1.46-.82c-.62-.1-1.28-.18-2-.23a15,15,0,0,0-2.12,0c-1.09.08-1.71.45-1.84,1.08-.87,2-2,4.62-3.24,7.94l-1.76,4.59a50.29,50.29,0,0,0-6.23,3.24A38,38,0,0,0,15.65,36.51,37.31,37.31,0,0,0,11,54.78c0,.81.65,1.27,2,1.36A9,9,0,0,0,15.4,56a23.36,23.36,0,0,0,2.28-.53c1.16-.33,1.74-.9,1.74-1.69,0-2.39.08-4.77.22-7.08a35.36,35.36,0,0,1,1-6.45,26.91,26.91,0,0,1,2.25-5.83A18.27,18.27,0,0,1,27,29.29a42,42,0,0,1,5.57-4.15c-.15.4-.31.81-.46,1.22-1.54,4.08-3.13,8.43-4.75,12.92L22.73,52.11q-2.19,6.14-3.94,11.16c-1,3-1.89,5.4-2.56,7.22a29.5,29.5,0,0,1-3.42.2H8.6a2.36,2.36,0,0,0-2.11.74,1.4,1.4,0,0,0-.44,1.4c.23.83,1.18,1.07,1.52,1.15a41.37,41.37,0,0,0,7.12.88c-.48,1.4-1,3-1.59,4.76l-2.26,6.93c-.72,2.19-1.38,4.15-2,5.8l-1,2.9a1.11,1.11,0,0,0,.07,1c.35.61,1.13.71,1.91.76s1.83.07,2.9.07,2.08,0,3-.07c1.17-.07,2-.23,2.34-.85a29.22,29.22,0,0,0,2.48-5c.73-1.91,1.4-3.9,2-5.91s1.12-4,1.62-6c.41-1.71.83-3.26,1.24-4.63a45.4,45.4,0,0,0,12.74-3.14A48.32,48.32,0,0,0,50,64.53a52.66,52.66,0,0,0,9.51-9.81A47.1,47.1,0,0,0,66,42.6ZM53.27,21.33c3.28,1,5.23,2.69,6,5.23a16.38,16.38,0,0,1-.43,9.27,47.66,47.66,0,0,1-5.43,11.42,70.55,70.55,0,0,1-8.62,11.07,53.49,53.49,0,0,1-10,8.3A21.24,21.24,0,0,1,27,69.82c1.83-5.37,3.55-10.67,5.12-15.77q2.55-8.31,5-16.1c1.62-5.23,3.23-10.35,4.81-15.23.13-.4.27-.81.41-1.21l.14-.41a27.86,27.86,0,0,1,3.95-.53A20.29,20.29,0,0,1,53.27,21.33Z"/><path class="cls-2" d="M183.72,47.24h0a3.47,3.47,0,0,0-1.54-.52,5.05,5.05,0,0,0-1.64.09A1.86,1.86,0,0,0,179,48c-1.34,3.07-2.83,6.08-4.4,9a86,86,0,0,1-5.28,8.39,56.82,56.82,0,0,1-3.79,5c-1.39,1.62-2.87,3.22-4.35,4.7-.77.68-1.56,1.35-2.38,2s-1.65,1.38-2.39,2a5.35,5.35,0,0,1-1.36.86s0-.06,0-.1a18,18,0,0,1,1.06-6.1c.87-2.88,2.06-6.27,3.55-10.05s3-7.5,4.5-10.9,2.84-6.38,4-8.79A24.37,24.37,0,0,0,170,39.77a1.29,1.29,0,0,0-.15-.9,2.23,2.23,0,0,0-1.51-.89,18.47,18.47,0,0,0-2.64-.31,27.65,27.65,0,0,0-2.88,0c-1.12.07-1.89.23-2.25.84a26.06,26.06,0,0,0-2.7,5c-.29.72-.57,1.46-.85,2.2A9.14,9.14,0,0,0,156,44a8,8,0,0,0-5-2.86,7.45,7.45,0,0,0-5.45,1,20.51,20.51,0,0,0-3.79,3.26,71.86,71.86,0,0,0-5.09,7c-.92,1.2-1.9,2.45-2.95,3.8-2.39,3.06-4.89,6-7.45,8.75a93.06,93.06,0,0,1-7.43,7.21,17.78,17.78,0,0,1-3.92,2.69c.58-1.24,1.23-2.63,2-4.19a65.43,65.43,0,0,0,3-7.48,29.44,29.44,0,0,0,1.51-7.4,8.19,8.19,0,0,0-2.09-6.36,11.11,11.11,0,0,0-2.57-2.16,39.08,39.08,0,0,0,3-3.49,21.47,21.47,0,0,0,2.6-3.9,5,5,0,0,0,.1-5.34c-1.62-2.38-3.38-3.7-5.22-3.93a6.79,6.79,0,0,0-5,1.35,17.08,17.08,0,0,0-3.88,4.18A26.46,26.46,0,0,0,105.71,41a5,5,0,0,0-.27,3.36,10,10,0,0,0,1.37,3c.15.22.32.45.49.68-1.34,3.06-2.82,6.06-4.39,8.92a86,86,0,0,1-5.28,8.39,54.93,54.93,0,0,1-3.79,5C92.45,71.94,91,73.54,89.49,75c-.77.68-1.56,1.35-2.38,2s-1.64,1.38-2.39,2a5.35,5.35,0,0,1-1.36.86.31.31,0,0,1,0-.1,17.66,17.66,0,0,1,1.05-6.1c.87-2.88,2.06-6.27,3.55-10.05s3-7.5,4.5-10.9,2.84-6.38,4-8.79c1.55-3.23,1.8-3.91,1.84-4.22a1.29,1.29,0,0,0-.15-.9A2.23,2.23,0,0,0,96.63,38,18.47,18.47,0,0,0,94,37.67a27.65,27.65,0,0,0-2.88,0c-1.12.07-1.89.23-2.25.84a26.06,26.06,0,0,0-2.7,5c-.29.72-.57,1.46-.85,2.2A9.14,9.14,0,0,0,84.24,44a8,8,0,0,0-5-2.86,7.45,7.45,0,0,0-5.45,1A20.51,20.51,0,0,0,70,45.4a75.26,75.26,0,0,0-7.41,10.83c-.59,1.18-1.34,2.84-2.22,5a31.37,31.37,0,0,0-2,6.54A14.73,14.73,0,0,0,58.49,74a5.49,5.49,0,0,0,4.43,4.07,9,9,0,0,0,4.67.08,14.28,14.28,0,0,0,4.07-1.8,21.86,21.86,0,0,0,3.6-2.91l.59-.6c-.13.85-.21,1.73-.26,2.61a10,10,0,0,0,1.66,6A6.53,6.53,0,0,0,81.19,84a7.61,7.61,0,0,0,4.72-.51,20.11,20.11,0,0,0,4.91-3.29c1.48-1.34,2.87-2.71,4.15-4.08,2.43-2.63,4.81-5.45,7.06-8.38a77.46,77.46,0,0,0,5.84-8.94c1.17-2.11,2.32-4.38,3.5-6.9l.17.12c.76.61.44,2.2,0,3.43a60.34,60.34,0,0,1-2.94,7.17q-1.9,3.93-3.58,7.52c-1.23,2.63-1.7,4.47-1.46,5.78.76,4,2.39,6.33,4.83,6.91,2.29.55,4.91,0,7.8-1.63a44.75,44.75,0,0,0,8.65-6.64c1.71-1.62,3.39-3.31,5-5.06a13.73,13.73,0,0,0,.32,4.44,5.49,5.49,0,0,0,4.43,4.07,9,9,0,0,0,4.66.08,14.33,14.33,0,0,0,4.08-1.8,21.86,21.86,0,0,0,3.6-2.91l.58-.6c-.12.85-.2,1.73-.25,2.61a9.92,9.92,0,0,0,1.66,6A6.53,6.53,0,0,0,152.92,84a7.53,7.53,0,0,0,1.56.17,7.86,7.86,0,0,0,3.16-.68,20.11,20.11,0,0,0,4.91-3.29c1.48-1.34,2.87-2.71,4.15-4.08,2.43-2.63,4.81-5.45,7.06-8.38a76.09,76.09,0,0,0,5.83-8.94q2.58-4.64,4.82-9.72A1.6,1.6,0,0,0,183.72,47.24Zm-45.78,25a10.55,10.55,0,0,1,.76-4.63,52.92,52.92,0,0,1,2.79-6.58,73.46,73.46,0,0,1,3.81-6.69,26.07,26.07,0,0,1,3.92-4.91c1.31-1.21,2.15-1.48,2.63-1.48h.06c.32,0,.74.73,1,2.31a13.59,13.59,0,0,1,.2,3.06,23.94,23.94,0,0,1-.34,3.09,29,29,0,0,1-1.51,3.83,88.13,88.13,0,0,1-6.73,9l-2.19,2.55a12.72,12.72,0,0,1-2.37,2.24c-.81.58-1.21.44-1.34.39S138.15,74.19,137.94,72.27ZM117.8,37a2.68,2.68,0,0,1-.12.69l-.08.25a8.5,8.5,0,0,1-2.48,4.65,19.58,19.58,0,0,1-1.86,1.58l0-.11a27.62,27.62,0,0,1,1.83-3.59,20.27,20.27,0,0,1,2.15-3A4,4,0,0,1,117.8,37ZM66.21,72.27A10.55,10.55,0,0,1,67,67.64a52.92,52.92,0,0,1,2.79-6.58,73.46,73.46,0,0,1,3.81-6.69,26.07,26.07,0,0,1,3.92-4.91C78.81,48.25,79.64,48,80.12,48h.07c.31,0,.73.73,1,2.31a13.59,13.59,0,0,1,.2,3.06A22.3,22.3,0,0,1,81,56.44a30.32,30.32,0,0,1-1.5,3.83,88.28,88.28,0,0,1-6.74,9l-2.19,2.55a13,13,0,0,1-2.36,2.24c-.82.58-1.22.44-1.35.39S66.42,74.19,66.21,72.27Z"/><path class="cls-2" d="M278.59,99.28a1.41,1.41,0,0,0-1.08.43c-1.93,1.93-3.86,2.76-5.89,2.55a17.69,17.69,0,0,1-6.75-2.27,15.77,15.77,0,0,1-5.42-4.86A30,30,0,0,1,256.34,89a64.3,64.3,0,0,1-2.08-6.75,39.53,39.53,0,0,0-2.2-6.45A71.08,71.08,0,0,0,255.41,67,81.9,81.9,0,0,0,258,56.19a74.88,74.88,0,0,0,1-11.53,51.82,51.82,0,0,0-1-11.22,32.26,32.26,0,0,0-3.77-9.86A20.74,20.74,0,0,0,247,16.32c-3.44-2.19-6.86-2.82-10.14-1.86a21.54,21.54,0,0,0-9,5.57,48.58,48.58,0,0,0-7.67,10A114.6,114.6,0,0,0,214,42c-1.75,4-3.24,7.8-4.41,11.31a73.58,73.58,0,0,0-2.35,8.25,47.94,47.94,0,0,0-1.2,9.53,33.14,33.14,0,0,0,1.13,9.77,23.62,23.62,0,0,0,4.34,8.53,19.24,19.24,0,0,0,8.29,5.84,19.88,19.88,0,0,0,9.22,1.38,21.65,21.65,0,0,0,8.18-2.53,26,26,0,0,0,6.67-5.3,35.84,35.84,0,0,0,3.78-5c.26,1.16.47,2.28.61,3.36a50.54,50.54,0,0,0,1,5.57,23.8,23.8,0,0,0,2.21,5.64,26.62,26.62,0,0,0,4.7,6c3.13,3,6.2,4.91,9.15,5.58a17.94,17.94,0,0,0,4,.48,12.93,12.93,0,0,0,3.89-.58,14,14,0,0,0,5.56-3.15c1.5-1.44,2.29-2.69,2.42-3.81v-.11a3.82,3.82,0,0,0-1-2.47A2.39,2.39,0,0,0,278.59,99.28Zm-27-67A53.19,53.19,0,0,1,251.93,43a90.56,90.56,0,0,1-1.37,11,100.62,100.62,0,0,1-2.38,10c-.7,2.35-1.36,4.35-2,6a4.88,4.88,0,0,0-3.09-.91,33.17,33.17,0,0,0-5.21.68,2,2,0,0,0-1.63,1.15,1.43,1.43,0,0,0,.37,1.43,2.19,2.19,0,0,0,2.45.67,3.54,3.54,0,0,1,3,.36,7,7,0,0,1,2.07,2.45,20.45,20.45,0,0,1-3.46,6.93,24.31,24.31,0,0,1-6.44,6.09,16,16,0,0,1-7.62,2.62,8.69,8.69,0,0,1-6.95-2.92c-2.05-2-3.23-5.31-3.5-9.71a63.17,63.17,0,0,1,1.08-15.21,113.74,113.74,0,0,1,4.55-17.13,100,100,0,0,1,6.78-15.51,42,42,0,0,1,7.68-10.4c1.79-1.65,3.41-2.47,4.91-2.47a3.9,3.9,0,0,1,1.57.32,13.13,13.13,0,0,1,5.9,5.35A23.72,23.72,0,0,1,251.57,32.32Z"/><path class="cls-2" d="M311.4,43.53a8.72,8.72,0,0,0,1,.08,2,2,0,0,0,.94-.18l.23-.16a27,27,0,0,0,3.63-4.16,20.25,20.25,0,0,0,2.62-4.57c.17-.52.13-1.31-1-2.15a13.91,13.91,0,0,0-2-1.17,14.83,14.83,0,0,0-2.12-.87c-1.17-.36-1.94-.18-2.28.52l-.06.15c-.69,2.24-1.22,4-1.61,5.33s-.73,2.51-1,3.59a9.21,9.21,0,0,0-.47,2l0,.31C309.68,43.3,311,43.47,311.4,43.53Z"/><path class="cls-2" d="M399.86,49a1.58,1.58,0,0,0-.05-1.45,1.6,1.6,0,0,0-1.3-.72h0c-.58,0-1-.08-1.18-.08a3.69,3.69,0,0,0-3.17,1.76c-.59.88-1.13,1.72-1.59,2.47l-5.69,8.23c-1.83,2.66-3.74,5.38-5.67,8.08-1,1.37-1.93,2.7-2.85,4l-1.81,2.56c.81-1.7,1.78-3.7,2.94-6.07,1.59-3.23,3.24-6.74,4.9-10.45a52.06,52.06,0,0,0,3.49-10.19c.69-3.23.44-5.74-.73-7.48-1.31-1.93-4-2.22-8.36-.89a14.12,14.12,0,0,0-4.47,2.5,29.36,29.36,0,0,0-3.78,3.7c-1.13,1.33-2.2,2.73-3.19,4.16s-1.86,2.71-2.6,3.84c-1.37,1.82-2.71,3.73-4,5.66,1.05-3.29,2.18-6.49,3.39-9.56A1.3,1.3,0,0,0,364,48a2.12,2.12,0,0,0-1.56-.8,19.64,19.64,0,0,0-2.05-.15,3.44,3.44,0,0,0-1.26-.36,5.73,5.73,0,0,0-1.69.08,2.17,2.17,0,0,0-1.41.81,1.53,1.53,0,0,0-.62.64c-.18.39-.34.78-.51,1.17l-.24.56c-1,1.76-1.95,3.17-2.87,4.43-1.47,2-3,4.19-4.44,6.34l-5.83,7.87q-2.88,3.88-6.26,7.72c-.29.38-.67.85-1.14,1.42a13.45,13.45,0,0,1-1.36,1.43,2.74,2.74,0,0,1-1.17.65c-.11,0-.39.09-.85-.3a4.07,4.07,0,0,1-.9-2.92,29.21,29.21,0,0,1,.35-5.28c.29-1.85.63-3.69,1-5.49.26-1.2.48-2.19.65-3a5.57,5.57,0,0,0,5.09.88,12.63,12.63,0,0,0,5.62-3.86,28.09,28.09,0,0,0,4.31-6.57,35.37,35.37,0,0,0,2.56-6.82,7.73,7.73,0,0,0-.17-3.58,7.64,7.64,0,0,0-1.59-3A6.66,6.66,0,0,0,345,38a5.85,5.85,0,0,0-3.64-.08,19.7,19.7,0,0,0-7,4.29,41.8,41.8,0,0,0-6.5,7.46l-.41.62-.17.28c-1.26,1.68-2.32,3.18-3.23,4.6l-4.88,7.58c-1.58,2.44-3.24,4.88-4.93,7.25a35.52,35.52,0,0,1-5.6,6.17c-1.8,1.56-2.41,1.51-2.42,1.51s-.28,0-.39-.7a9.91,9.91,0,0,1,.15-3.17,37.63,37.63,0,0,1,.92-4c.38-1.35.75-2.55,1.08-3.62s.45-1.3.5-1.43l.16-.3c.87-2.63,1.78-5.22,2.68-7.7s1.79-5.1,2.57-7.63l.05-.3c0-.59-.34-1.35-2-1.57-.74-.1-1.58-.18-2.48-.23a17.34,17.34,0,0,0-1.76,0h-.14a3.77,3.77,0,0,0-1.81.3,1.63,1.63,0,0,0-1.05.81l-.15.34q-5,7.38-9.6,14.15a64.14,64.14,0,0,1-10,11.46,48.43,48.43,0,0,1,1.47-5.19c.82-2.44,1.84-5.24,3.05-8.33s2.43-6.11,3.63-8.94,2.31-5.41,3.28-7.65,1.62-3.62,2-4.27l.08-.19a1.28,1.28,0,0,0-.08-1,2.3,2.3,0,0,0-1.47-1,12,12,0,0,0-2.63-.4,18.09,18.09,0,0,0-2.86.08c-1.14.13-1.92.34-2.2.91-6,9.87-12.56,19.81-19.54,29.6-.28.48-.66,1.07-1.14,1.78a10.38,10.38,0,0,1-1.26,1.6v0a4.72,4.72,0,0,1-.1-.75,24.21,24.21,0,0,1,.35-5.46,36.27,36.27,0,0,1,1.42-5.54,53.15,53.15,0,0,1,4.69-10.08,1.21,1.21,0,0,0,0-1,1.92,1.92,0,0,0-1.4-.91,15.5,15.5,0,0,0-4.4-.17,2.35,2.35,0,0,0-1.93.82,54.4,54.4,0,0,0-3.1,5.09,51.63,51.63,0,0,0-3.34,7.43,33.25,33.25,0,0,0-1.81,7.68c-.26,2.65.28,4.74,1.62,6.21a3.51,3.51,0,0,0,2.27,1.14,23.61,23.61,0,0,0,2.82.31,13.87,13.87,0,0,0,3-.16,7.87,7.87,0,0,0,2.12-.58,7.59,7.59,0,0,0,3.35-2.75L275,69.22,275.8,68a23.4,23.4,0,0,0-.33,4,25.6,25.6,0,0,0,.38,4.33,4.5,4.5,0,0,0,3.55,3.63l.11,0a12.35,12.35,0,0,0,4.53-.23,8.87,8.87,0,0,0,4.11-1.85,34.39,34.39,0,0,0,4.5-4.06l4.11-4.4c.3-.34.59-.69.88-1a23.41,23.41,0,0,0-.37,5.78,8.78,8.78,0,0,0,2.31,5.65c1.44,1.49,3.75,2.09,6.84,1.76a9.35,9.35,0,0,0,5-1.86,23.3,23.3,0,0,0,4-3.73,40.41,40.41,0,0,0,3.29-4.41c.59-.9,1.13-1.75,1.64-2.53a19,19,0,0,0,1.49,8.51A12.54,12.54,0,0,0,328.55,84a6.93,6.93,0,0,0,2.8.64,5.86,5.86,0,0,0,3-.84,17.38,17.38,0,0,0,4.07-3.22,45.69,45.69,0,0,0,3.87-4.39c1.13-1.45,2.26-3,3.34-4.43.88-1.09,1.78-2.22,2.73-3.43-1,3.61-1.84,7.25-2.58,10.87a1.24,1.24,0,0,0,.13,1,2.37,2.37,0,0,0,1.68.9,16.91,16.91,0,0,0,5.59,0c.87-.14,1.9-.42,2.22-1.26C357.12,76,359,72.16,361,68.52s4.09-7.31,6.31-10.87a104.5,104.5,0,0,1,7.38-10.29c.29-.37.69-.87,1.21-1.48s1.07-1.24,1.65-1.86a13.68,13.68,0,0,1,1.69-1.57,2.3,2.3,0,0,1,1.07-.51,1.81,1.81,0,0,1-.08,1.1c-.28.88-.51,1.57-.69,2l-3,6.94-4,7.73c-1.33,2.55-2.54,5.18-3.62,7.83-.29.78-.68,1.76-1.16,3a17.83,17.83,0,0,0-1.08,3.86,9.86,9.86,0,0,0,.08,3.8,4.7,4.7,0,0,0,2.52,3.16,6.87,6.87,0,0,0,6.27,0A12.63,12.63,0,0,0,380,77.55c2.32-3,4.59-6.12,6.74-9.31s4.33-6.29,6.56-9.39c1.07-1.55,2.19-3.14,3.34-4.72a42.24,42.24,0,0,0,3.14-5Zm-64.44,4.3h0A47.37,47.37,0,0,1,339.19,48c.56-.66,1.42-1.54,2.56-2.63a6,6,0,0,1,2.11-1.47,2.25,2.25,0,0,1,0,.44A15.27,15.27,0,0,1,343,48a36.73,36.73,0,0,1-2.12,4.75A20.73,20.73,0,0,1,337.91,57a8,8,0,0,1-3.1,2.21,2,2,0,0,1-1.93-.22A25.68,25.68,0,0,1,335.42,53.33Z"/><path class="cls-2" d="M437.88,19.19a12.74,12.74,0,0,0-3.86-6,7.85,7.85,0,0,0-5.49-2,46.75,46.75,0,0,0-5.57.31,18.67,18.67,0,0,0-5.31,1.84,17.51,17.51,0,0,0-4.71,3.48,13.11,13.11,0,0,0-3,4.89,9.35,9.35,0,0,0,0,5.85c.07.41.38,1,1.61,1.15a15,15,0,0,0,3.14,0c1.21-.15,1.46-.74,1.46-1.21l0-.23a10.34,10.34,0,0,1-.07-4.53,8.38,8.38,0,0,1,2.11-4,15.41,15.41,0,0,1,5-2.93,6.11,6.11,0,0,1,5.25.18,3.79,3.79,0,0,1,2.08,3.29,9.89,9.89,0,0,1-.53,4.65,11.85,11.85,0,0,1-2.76,4.38A50.43,50.43,0,0,1,423.09,32a51.18,51.18,0,0,0-7.59,7.73,80.87,80.87,0,0,0-6.72,9.74,62.42,62.42,0,0,0-5,10.68,34.54,34.54,0,0,0-2.1,10.24c0,1.1,1.23,1.62,1.63,1.79a14.61,14.61,0,0,0,2.42.79c.85.2,1.67.35,2.43.45a5.12,5.12,0,0,0,.74.06,1.59,1.59,0,0,0,1.1-.34,1.12,1.12,0,0,0,.38-.77,37.57,37.57,0,0,1,1.35-5.92,78.21,78.21,0,0,1,2.74-7.56c1.09-2.62,2.35-5.29,3.75-7.93a68.67,68.67,0,0,1,4.37-7.24,37.41,37.41,0,0,1,3.76-4.33l4.52-4.52a46.07,46.07,0,0,0,4.17-4.77,16.31,16.31,0,0,0,2.72-5.21A10.85,10.85,0,0,0,437.88,19.19Z"/><path class="cls-2" d="M405.27,76.23a6.3,6.3,0,0,0-2.37.38,5.12,5.12,0,0,0-2.42,2.08,9,9,0,0,0-1.06,2.53l0,.17a5.59,5.59,0,0,0-.44,2.26,2.28,2.28,0,0,0,1.43,2.06,12.65,12.65,0,0,0,1.44.64l.14,0a6.23,6.23,0,0,0,1.2.11,5.28,5.28,0,0,0,2.25-.48,5.57,5.57,0,0,0,2.39-2.12,6.49,6.49,0,0,0,.95-3.11,5.45,5.45,0,0,0-.94-3.33A2.73,2.73,0,0,0,405.27,76.23Z"/><path class="cls-2" d="M345.9,31c1.91-1.44,3.54-3.18,5.33-4.73l.66-.54c1.08-.88,4.19-1.9,4.16-3.5,0-.89-1.06-1.33-1.93-1.5a5.52,5.52,0,0,0-3.66.19,6.15,6.15,0,0,0-1.86,1.77c-1.87,2.36-5.16,5.8-4.69,9A2.35,2.35,0,0,0,345.9,31Z"/></g></g></svg>