<svg xmlns="http://www.w3.org/2000/svg" xmlns:xlink="http://www.w3.org/1999/xlink" viewBox="0 0 221.24 63.06"><defs><style>.cls-1{fill:none;}.cls-2{fill:#af0811;}.cls-3{fill:#eede00;}.cls-4{opacity:0.24;fill:url(#Nueva_muestra_de_motivo_1);}.cls-5{fill:#960ae2;}</style><pattern id="Nueva_muestra_de_motivo_1" data-name="Nueva muestra de motivo 1" width="240.94" height="237.7" patternTransform="translate(3398.57 -1878.67) scale(0.22)" patternUnits="userSpaceOnUse" viewBox="0 0 240.94 237.7"><rect class="cls-1" width="240.94" height="237.7"/><polygon class="cls-2" points="263.55 207.99 267.58 212.02 241.89 237.7 267.58 263.38 263.55 267.41 233.83 237.7 263.55 207.99"/><polygon class="cls-2" points="22.6 207.99 26.63 212.02 0.95 237.7 26.63 263.38 22.6 267.41 -7.11 237.7 22.6 207.99"/><polygon class="cls-2" points="22.84 207.99 18.81 212.02 44.49 237.7 18.81 263.38 22.84 267.41 52.55 237.7 22.84 207.99"/><polygon class="cls-2" points="82.27 207.99 86.3 212.02 60.62 237.7 86.3 263.38 82.27 267.41 52.55 237.7 82.27 207.99"/><polygon class="cls-2" points="52.55 214.17 46.25 207.99 36.05 207.99 52.55 224.17 69.06 207.99 58.86 207.99 52.55 214.17"/><polygon class="cls-2" points="58.86 207.99 46.25 207.99 52.55 214.17 58.86 207.99"/><polygon class="cls-2" points="22.39 226.66 11.13 237.7 22.39 248.75 33.65 237.7 22.39 226.66"/><polygon class="cls-2" points="22.39 233.53 18.14 237.7 22.39 241.87 26.64 237.7 22.39 233.53"/><polygon class="cls-2" points="82.06 226.66 70.79 237.7 82.06 248.75 93.32 237.7 82.06 226.66"/><polygon class="cls-2" points="82.06 233.53 77.8 237.7 82.06 241.87 86.31 237.7 82.06 233.53"/><polygon class="cls-2" points="141.72 226.66 130.46 237.7 141.72 248.75 152.99 237.7 141.72 226.66"/><polygon class="cls-2" points="141.72 233.53 137.47 237.7 141.72 241.87 145.97 237.7 141.72 233.53"/><polygon class="cls-2" points="201.39 226.66 190.13 237.7 201.39 248.75 212.65 237.7 201.39 226.66"/><polygon class="cls-2" points="201.39 233.53 197.14 237.7 201.39 241.87 205.64 237.7 201.39 233.53"/><polygon class="cls-2" points="82.51 207.99 78.48 212.02 104.16 237.7 78.48 263.38 82.51 267.41 112.22 237.7 82.51 207.99"/><polygon class="cls-2" points="141.94 207.99 145.97 212.02 120.28 237.7 145.97 263.38 141.94 267.41 112.22 237.7 141.94 207.99"/><polygon class="cls-2" points="112.22 214.17 105.92 207.99 95.72 207.99 112.22 224.17 128.72 207.99 118.53 207.99 112.22 214.17"/><polygon class="cls-2" points="118.53 207.99 105.92 207.99 112.22 214.17 118.53 207.99"/><polygon class="cls-2" points="142.18 207.99 138.15 212.02 163.83 237.7 138.15 263.38 142.18 267.41 171.89 237.7 142.18 207.99"/><polygon class="cls-2" points="201.6 207.99 205.63 212.02 179.95 237.7 205.63 263.38 201.6 267.41 171.89 237.7 201.6 207.99"/><polygon class="cls-2" points="171.89 214.17 165.59 207.99 155.39 207.99 171.89 224.17 188.39 207.99 178.19 207.99 171.89 214.17"/><polygon class="cls-2" points="178.19 207.99 165.59 207.99 171.89 214.17 178.19 207.99"/><polygon class="cls-2" points="201.84 207.99 197.81 212.02 223.5 237.7 197.81 263.38 201.84 267.41 231.56 237.7 201.84 207.99"/><polygon class="cls-2" points="231.56 214.17 225.25 207.99 215.06 207.99 231.56 224.17 248.06 207.99 237.86 207.99 231.56 214.17"/><polygon class="cls-2" points="237.86 207.99 225.25 207.99 231.56 214.17 237.86 207.99"/><polygon class="cls-2" points="-9.39 214.17 -15.69 207.99 -25.89 207.99 -9.39 224.17 7.11 207.99 -3.09 207.99 -9.39 214.17"/><polygon class="cls-2" points="263.55 148.56 267.58 152.59 241.89 178.28 267.58 203.96 263.55 207.99 233.83 178.28 263.55 148.56"/><polygon class="cls-2" points="22.6 148.56 26.63 152.59 0.95 178.28 26.63 203.96 22.6 207.99 -7.11 178.28 22.6 148.56"/><polygon class="cls-2" points="22.84 148.56 18.81 152.59 44.49 178.28 18.81 203.96 22.84 207.99 52.55 178.28 22.84 148.56"/><polygon class="cls-2" points="82.27 148.56 86.3 152.59 60.62 178.28 86.3 203.96 82.27 207.99 52.55 178.28 82.27 148.56"/><polygon class="cls-2" points="52.55 154.74 46.25 148.56 36.05 148.56 52.55 164.74 69.06 148.56 58.86 148.56 52.55 154.74"/><polygon class="cls-2" points="58.86 148.56 46.25 148.56 52.55 154.74 58.86 148.56"/><polygon class="cls-2" points="22.39 167.23 11.13 178.28 22.39 189.32 33.65 178.28 22.39 167.23"/><polygon class="cls-2" points="22.39 174.11 18.14 178.28 22.39 182.44 26.64 178.28 22.39 174.11"/><polygon class="cls-2" points="82.06 167.23 70.79 178.28 82.06 189.32 93.32 178.28 82.06 167.23"/><polygon class="cls-2" points="82.06 174.11 77.8 178.28 82.06 182.44 86.31 178.28 82.06 174.11"/><polygon class="cls-2" points="141.72 167.23 130.46 178.28 141.72 189.32 152.99 178.28 141.72 167.23"/><polygon class="cls-2" points="141.72 174.11 137.47 178.28 141.72 182.44 145.97 178.28 141.72 174.11"/><polygon class="cls-2" points="201.39 167.23 190.13 178.28 201.39 189.32 212.65 178.28 201.39 167.23"/><polygon class="cls-2" points="201.39 174.11 197.14 178.28 201.39 182.44 205.64 178.28 201.39 174.11"/><polygon class="cls-2" points="52.55 201.81 58.86 207.99 69.06 207.99 52.55 191.81 36.05 207.99 46.25 207.99 52.55 201.81"/><polygon class="cls-2" points="46.25 207.99 58.86 207.99 52.55 201.81 46.25 207.99"/><polygon class="cls-2" points="82.51 148.56 78.48 152.59 104.16 178.28 78.48 203.96 82.51 207.99 112.22 178.28 82.51 148.56"/><polygon class="cls-2" points="141.94 148.56 145.97 152.59 120.28 178.28 145.97 203.96 141.94 207.99 112.22 178.28 141.94 148.56"/><polygon class="cls-2" points="112.22 154.74 105.92 148.56 95.72 148.56 112.22 164.74 128.72 148.56 118.53 148.56 112.22 154.74"/><polygon class="cls-2" points="118.53 148.56 105.92 148.56 112.22 154.74 118.53 148.56"/><polygon class="cls-2" points="112.22 201.81 118.53 207.99 128.72 207.99 112.22 191.81 95.72 207.99 105.92 207.99 112.22 201.81"/><polygon class="cls-2" points="105.92 207.99 118.53 207.99 112.22 201.81 105.92 207.99"/><polygon class="cls-2" points="142.18 148.56 138.15 152.59 163.83 178.28 138.15 203.96 142.18 207.99 171.89 178.28 142.18 148.56"/><polygon class="cls-2" points="201.6 148.56 205.63 152.59 179.95 178.28 205.63 203.96 201.6 207.99 171.89 178.28 201.6 148.56"/><polygon class="cls-2" points="171.89 154.74 165.59 148.56 155.39 148.56 171.89 164.74 188.39 148.56 178.19 148.56 171.89 154.74"/><polygon class="cls-2" points="178.19 148.56 165.59 148.56 171.89 154.74 178.19 148.56"/><polygon class="cls-2" points="171.89 201.81 178.19 207.99 188.39 207.99 171.89 191.81 155.39 207.99 165.59 207.99 171.89 201.81"/><polygon class="cls-2" points="165.59 207.99 178.19 207.99 171.89 201.81 165.59 207.99"/><polygon class="cls-2" points="201.84 148.56 197.81 152.59 223.5 178.28 197.81 203.96 201.84 207.99 231.56 178.28 201.84 148.56"/><polygon class="cls-2" points="231.56 154.74 225.25 148.56 215.06 148.56 231.56 164.74 248.06 148.56 237.86 148.56 231.56 154.74"/><polygon class="cls-2" points="237.86 148.56 225.25 148.56 231.56 154.74 237.86 148.56"/><polygon class="cls-2" points="231.56 201.81 237.86 207.99 248.06 207.99 231.56 191.81 215.06 207.99 225.25 207.99 231.56 201.81"/><polygon class="cls-2" points="225.25 207.99 237.86 207.99 231.56 201.81 225.25 207.99"/><polygon class="cls-2" points="-9.39 154.74 -15.69 148.56 -25.89 148.56 -9.39 164.74 7.11 148.56 -3.09 148.56 -9.39 154.74"/><polygon class="cls-2" points="-9.39 201.81 -3.09 207.99 7.11 207.99 -9.39 191.81 -25.89 207.99 -15.69 207.99 -9.39 201.81"/><polygon class="cls-2" points="263.55 89.14 267.58 93.17 241.89 118.85 267.58 144.53 263.55 148.56 233.83 118.85 263.55 89.14"/><polygon class="cls-2" points="22.6 89.14 26.63 93.17 0.95 118.85 26.63 144.53 22.6 148.56 -7.11 118.85 22.6 89.14"/><polygon class="cls-2" points="22.84 89.14 18.81 93.17 44.49 118.85 18.81 144.53 22.84 148.56 52.55 118.85 22.84 89.14"/><polygon class="cls-2" points="82.27 89.14 86.3 93.17 60.62 118.85 86.3 144.53 82.27 148.56 52.55 118.85 82.27 89.14"/><polygon class="cls-2" points="52.55 95.32 46.25 89.14 36.05 89.14 52.55 105.32 69.06 89.14 58.86 89.14 52.55 95.32"/><polygon class="cls-2" points="58.86 89.14 46.25 89.14 52.55 95.32 58.86 89.14"/><polygon class="cls-2" points="22.39 107.81 11.13 118.85 22.39 129.9 33.65 118.85 22.39 107.81"/><polygon class="cls-2" points="22.39 114.68 18.14 118.85 22.39 123.02 26.64 118.85 22.39 114.68"/><polygon class="cls-2" points="82.06 107.81 70.79 118.85 82.06 129.9 93.32 118.85 82.06 107.81"/><polygon class="cls-2" points="82.06 114.68 77.8 118.85 82.06 123.02 86.31 118.85 82.06 114.68"/><polygon class="cls-2" points="141.72 107.81 130.46 118.85 141.72 129.9 152.99 118.85 141.72 107.81"/><polygon class="cls-2" points="141.72 114.68 137.47 118.85 141.72 123.02 145.97 118.85 141.72 114.68"/><polygon class="cls-2" points="201.39 107.81 190.13 118.85 201.39 129.9 212.65 118.85 201.39 107.81"/><polygon class="cls-2" points="201.39 114.68 197.14 118.85 201.39 123.02 205.64 118.85 201.39 114.68"/><polygon class="cls-2" points="52.55 142.38 58.86 148.56 69.06 148.56 52.55 132.38 36.05 148.56 46.25 148.56 52.55 142.38"/><polygon class="cls-2" points="46.25 148.56 58.86 148.56 52.55 142.38 46.25 148.56"/><polygon class="cls-2" points="82.51 89.14 78.48 93.17 104.16 118.85 78.48 144.53 82.51 148.56 112.22 118.85 82.51 89.14"/><polygon class="cls-2" points="141.94 89.14 145.97 93.17 120.28 118.85 145.97 144.53 141.94 148.56 112.22 118.85 141.94 89.14"/><polygon class="cls-2" points="112.22 95.32 105.92 89.14 95.72 89.14 112.22 105.32 128.72 89.14 118.53 89.14 112.22 95.32"/><polygon class="cls-2" points="118.53 89.14 105.92 89.14 112.22 95.32 118.53 89.14"/><polygon class="cls-2" points="112.22 142.38 118.53 148.56 128.72 148.56 112.22 132.38 95.72 148.56 105.92 148.56 112.22 142.38"/><polygon class="cls-2" points="105.92 148.56 118.53 148.56 112.22 142.38 105.92 148.56"/><polygon class="cls-2" points="142.18 89.14 138.15 93.17 163.83 118.85 138.15 144.53 142.18 148.56 171.89 118.85 142.18 89.14"/><polygon class="cls-2" points="201.6 89.14 205.63 93.17 179.95 118.85 205.63 144.53 201.6 148.56 171.89 118.85 201.6 89.14"/><polygon class="cls-2" points="171.89 95.32 165.59 89.14 155.39 89.14 171.89 105.32 188.39 89.14 178.19 89.14 171.89 95.32"/><polygon class="cls-2" points="178.19 89.14 165.59 89.14 171.89 95.32 178.19 89.14"/><polygon class="cls-2" points="171.89 142.38 178.19 148.56 188.39 148.56 171.89 132.38 155.39 148.56 165.59 148.56 171.89 142.38"/><polygon class="cls-2" points="165.59 148.56 178.19 148.56 171.89 142.38 165.59 148.56"/><polygon class="cls-2" points="201.84 89.14 197.81 93.17 223.5 118.85 197.81 144.53 201.84 148.56 231.56 118.85 201.84 89.14"/><polygon class="cls-2" points="231.56 95.32 225.25 89.14 215.06 89.14 231.56 105.32 248.06 89.14 237.86 89.14 231.56 95.32"/><polygon class="cls-2" points="237.86 89.14 225.25 89.14 231.56 95.32 237.86 89.14"/><polygon class="cls-2" points="231.56 142.38 237.86 148.56 248.06 148.56 231.56 132.38 215.06 148.56 225.25 148.56 231.56 142.38"/><polygon class="cls-2" points="225.25 148.56 237.86 148.56 231.56 142.38 225.25 148.56"/><polygon class="cls-2" points="-9.39 95.32 -15.69 89.14 -25.89 89.14 -9.39 105.32 7.11 89.14 -3.09 89.14 -9.39 95.32"/><polygon class="cls-2" points="-9.39 142.38 -3.09 148.56 7.11 148.56 -9.39 132.38 -25.89 148.56 -15.69 148.56 -9.39 142.38"/><polygon class="cls-2" points="263.55 29.71 267.58 33.74 241.89 59.42 267.58 85.11 263.55 89.14 233.83 59.42 263.55 29.71"/><polygon class="cls-2" points="22.6 29.71 26.63 33.74 0.95 59.42 26.63 85.11 22.6 89.14 -7.11 59.42 22.6 29.71"/><polygon class="cls-2" points="22.84 29.71 18.81 33.74 44.49 59.42 18.81 85.11 22.84 89.14 52.55 59.42 22.84 29.71"/><polygon class="cls-2" points="82.27 29.71 86.3 33.74 60.62 59.42 86.3 85.11 82.27 89.14 52.55 59.42 82.27 29.71"/><polygon class="cls-2" points="52.55 35.89 46.25 29.71 36.05 29.71 52.55 45.89 69.06 29.71 58.86 29.71 52.55 35.89"/><polygon class="cls-2" points="58.86 29.71 46.25 29.71 52.55 35.89 58.86 29.71"/><polygon class="cls-2" points="22.39 48.38 11.13 59.42 22.39 70.47 33.65 59.42 22.39 48.38"/><polygon class="cls-2" points="22.39 55.26 18.14 59.42 22.39 63.59 26.64 59.42 22.39 55.26"/><polygon class="cls-2" points="82.06 48.38 70.79 59.42 82.06 70.47 93.32 59.42 82.06 48.38"/><polygon class="cls-2" points="82.06 55.26 77.8 59.42 82.06 63.59 86.31 59.42 82.06 55.26"/><polygon class="cls-2" points="141.72 48.38 130.46 59.42 141.72 70.47 152.99 59.42 141.72 48.38"/><polygon class="cls-2" points="141.72 55.26 137.47 59.42 141.72 63.59 145.97 59.42 141.72 55.26"/><polygon class="cls-2" points="201.39 48.38 190.13 59.42 201.39 70.47 212.65 59.42 201.39 48.38"/><polygon class="cls-2" points="201.39 55.26 197.14 59.42 201.39 63.59 205.64 59.42 201.39 55.26"/><polygon class="cls-2" points="52.55 82.96 58.86 89.14 69.06 89.14 52.55 72.96 36.05 89.14 46.25 89.14 52.55 82.96"/><polygon class="cls-2" points="46.25 89.14 58.86 89.14 52.55 82.96 46.25 89.14"/><polygon class="cls-2" points="82.51 29.71 78.48 33.74 104.16 59.42 78.48 85.11 82.51 89.14 112.22 59.42 82.51 29.71"/><polygon class="cls-2" points="141.94 29.71 145.97 33.74 120.28 59.42 145.97 85.11 141.94 89.14 112.22 59.42 141.94 29.71"/><polygon class="cls-2" points="112.22 35.89 105.92 29.71 95.72 29.71 112.22 45.89 128.72 29.71 118.53 29.71 112.22 35.89"/><polygon class="cls-2" points="118.53 29.71 105.92 29.71 112.22 35.89 118.53 29.71"/><polygon class="cls-2" points="112.22 82.96 118.53 89.14 128.72 89.14 112.22 72.96 95.72 89.14 105.92 89.14 112.22 82.96"/><polygon class="cls-2" points="105.92 89.14 118.53 89.14 112.22 82.96 105.92 89.14"/><polygon class="cls-2" points="142.18 29.71 138.15 33.74 163.83 59.42 138.15 85.11 142.18 89.14 171.89 59.42 142.18 29.71"/><polygon class="cls-2" points="201.6 29.71 205.63 33.74 179.95 59.42 205.63 85.11 201.6 89.14 171.89 59.42 201.6 29.71"/><polygon class="cls-2" points="171.89 35.89 165.59 29.71 155.39 29.71 171.89 45.89 188.39 29.71 178.19 29.71 171.89 35.89"/><polygon class="cls-2" points="178.19 29.71 165.59 29.71 171.89 35.89 178.19 29.71"/><polygon class="cls-2" points="171.89 82.96 178.19 89.14 188.39 89.14 171.89 72.96 155.39 89.14 165.59 89.14 171.89 82.96"/><polygon class="cls-2" points="165.59 89.14 178.19 89.14 171.89 82.96 165.59 89.14"/><polygon class="cls-2" points="201.84 29.71 197.81 33.74 223.5 59.42 197.81 85.11 201.84 89.14 231.56 59.42 201.84 29.71"/><polygon class="cls-2" points="231.56 35.89 225.25 29.71 215.06 29.71 231.56 45.89 248.06 29.71 237.86 29.71 231.56 35.89"/><polygon class="cls-2" points="237.86 29.71 225.25 29.71 231.56 35.89 237.86 29.71"/><polygon class="cls-2" points="231.56 82.96 237.86 89.14 248.06 89.14 231.56 72.96 215.06 89.14 225.25 89.14 231.56 82.96"/><polygon class="cls-2" points="225.25 89.14 237.86 89.14 231.56 82.96 225.25 89.14"/><polygon class="cls-2" points="-9.39 35.89 -15.69 29.71 -25.89 29.71 -9.39 45.89 7.11 29.71 -3.09 29.71 -9.39 35.89"/><polygon class="cls-2" points="-9.39 82.96 -3.09 89.14 7.11 89.14 -9.39 72.96 -25.89 89.14 -15.69 89.14 -9.39 82.96"/><polygon class="cls-2" points="263.55 -29.71 267.58 -25.68 241.89 0 267.58 25.68 263.55 29.71 233.83 0 263.55 -29.71"/><polygon class="cls-2" points="22.6 -29.71 26.63 -25.68 0.95 0 26.63 25.68 22.6 29.71 -7.11 0 22.6 -29.71"/><polygon class="cls-2" points="22.84 -29.71 18.81 -25.68 44.49 0 18.81 25.68 22.84 29.71 52.55 0 22.84 -29.71"/><polygon class="cls-2" points="82.27 -29.71 86.3 -25.68 60.62 0 86.3 25.68 82.27 29.71 52.55 0 82.27 -29.71"/><polygon class="cls-2" points="22.39 -11.05 11.13 0 22.39 11.05 33.65 0 22.39 -11.05"/><polygon class="cls-2" points="22.39 -4.17 18.14 0 22.39 4.17 26.64 0 22.39 -4.17"/><polygon class="cls-2" points="82.06 -11.05 70.79 0 82.06 11.05 93.32 0 82.06 -11.05"/><polygon class="cls-2" points="82.06 -4.17 77.8 0 82.06 4.17 86.31 0 82.06 -4.17"/><polygon class="cls-2" points="141.72 -11.05 130.46 0 141.72 11.05 152.99 0 141.72 -11.05"/><polygon class="cls-2" points="141.72 -4.17 137.47 0 141.72 4.17 145.97 0 141.72 -4.17"/><polygon class="cls-2" points="201.39 -11.05 190.13 0 201.39 11.05 212.65 0 201.39 -11.05"/><polygon class="cls-2" points="201.39 -4.17 197.14 0 201.39 4.17 205.64 0 201.39 -4.17"/><polygon class="cls-2" points="52.55 23.53 58.86 29.71 69.06 29.71 52.55 13.53 36.05 29.71 46.25 29.71 52.55 23.53"/><polygon class="cls-2" points="46.25 29.71 58.86 29.71 52.55 23.53 46.25 29.71"/><polygon class="cls-2" points="82.51 -29.71 78.48 -25.68 104.16 0 78.48 25.68 82.51 29.71 112.22 0 82.51 -29.71"/><polygon class="cls-2" points="141.94 -29.71 145.97 -25.68 120.28 0 145.97 25.68 141.94 29.71 112.22 0 141.94 -29.71"/><polygon class="cls-2" points="112.22 23.53 118.53 29.71 128.72 29.71 112.22 13.53 95.72 29.71 105.92 29.71 112.22 23.53"/><polygon class="cls-2" points="105.92 29.71 118.53 29.71 112.22 23.53 105.92 29.71"/><polygon class="cls-2" points="142.18 -29.71 138.15 -25.68 163.83 0 138.15 25.68 142.18 29.71 171.89 0 142.18 -29.71"/><polygon class="cls-2" points="201.6 -29.71 205.63 -25.68 179.95 0 205.63 25.68 201.6 29.71 171.89 0 201.6 -29.71"/><polygon class="cls-2" points="171.89 23.53 178.19 29.71 188.39 29.71 171.89 13.53 155.39 29.71 165.59 29.71 171.89 23.53"/><polygon class="cls-2" points="165.59 29.71 178.19 29.71 171.89 23.53 165.59 29.71"/><polygon class="cls-2" points="201.84 -29.71 197.81 -25.68 223.5 0 197.81 25.68 201.84 29.71 231.56 0 201.84 -29.71"/><polygon class="cls-2" points="231.56 23.53 237.86 29.71 248.06 29.71 231.56 13.53 215.06 29.71 225.25 29.71 231.56 23.53"/><polygon class="cls-2" points="225.25 29.71 237.86 29.71 231.56 23.53 225.25 29.71"/><polygon class="cls-2" points="-9.39 23.53 -3.09 29.71 7.11 29.71 -9.39 13.53 -25.89 29.71 -15.69 29.71 -9.39 23.53"/></pattern></defs><g id="Capa_2" data-name="Capa 2"><g id="Capa_1-2" data-name="Capa 1"><rect class="cls-3" width="221.24" height="63.06" rx="26.69"/><path class="cls-4" d="M5.75,55.64A22.36,22.36,0,0,0,22.4,63.06H198.83a22.36,22.36,0,0,0,16.65-7.42Z"/><path class="cls-5" d="M73.06,17.45v.25L67,8.46H62.53V24.81h4.28V15.27l6.26,9.54h4.27V8.46H73.06Z"/><path class="cls-5" d="M89.13,18c0,2.76-1.34,3.08-2.34,3.08s-2.4-.33-2.4-3.2V8.46H79.91v9.36c0,4.75,2.33,7.26,6.75,7.26s7-2.56,7-7.42V8.46H89.13Z"/><polygon class="cls-5" points="99.64 18.5 104.65 18.5 104.65 14.68 99.64 14.68 99.64 12.29 105.02 12.29 105.02 8.46 95.16 8.46 95.16 24.81 105.38 24.81 105.38 20.99 99.64 20.99 99.64 18.5"/><path class="cls-5" d="M116.62,16.76a6.16,6.16,0,0,0-1.36-1.06,13.13,13.13,0,0,0-1.72-.85c-.44-.18-.83-.36-1.18-.53a5.69,5.69,0,0,1-.83-.49,1.6,1.6,0,0,1-.45-.45A.68.68,0,0,1,111,13a.72.72,0,0,1,.1-.36,1.24,1.24,0,0,1,.35-.33,2.53,2.53,0,0,1,.66-.25,5.25,5.25,0,0,1,1.79,0,5.65,5.65,0,0,1,.89.19,5.19,5.19,0,0,1,.86.31,4.63,4.63,0,0,1,.76.42l.8.56V9l-.33-.13A8.88,8.88,0,0,0,115,8.35a13,13,0,0,0-4.63.13,6.51,6.51,0,0,0-2.08.89A4.57,4.57,0,0,0,106.85,11a4.73,4.73,0,0,0-.55,2.31,4.52,4.52,0,0,0,1,2.93,7.29,7.29,0,0,0,2.88,2c.47.19.9.37,1.3.56a7.33,7.33,0,0,1,1,.53,2.68,2.68,0,0,1,.57.53.81.81,0,0,1,.16.5.63.63,0,0,1-.1.36.94.94,0,0,1-.31.32,2.27,2.27,0,0,1-.66.26,4.35,4.35,0,0,1-1,.1,6,6,0,0,1-2-.36,6.15,6.15,0,0,1-1.86-1.08l-.84-.71V24l.28.14a7.8,7.8,0,0,0,2.11.69,13.26,13.26,0,0,0,2.49.22,11.34,11.34,0,0,0,2.44-.25,6.15,6.15,0,0,0,2.12-.84,4.63,4.63,0,0,0,1.49-1.59,5,5,0,0,0,.55-2.41,4.92,4.92,0,0,0-.32-1.82A4.32,4.32,0,0,0,116.62,16.76Z"/><polygon class="cls-5" points="118.19 12.29 122.54 12.29 122.54 24.81 127.03 24.81 127.03 12.29 131.4 12.29 131.4 8.46 118.19 8.46 118.19 12.29"/><path class="cls-5" d="M143.09,18.74a8.73,8.73,0,0,0-.61-.73,5.94,5.94,0,0,0-.52-.49,5.86,5.86,0,0,0,.55-.3,4.69,4.69,0,0,0,2-2.43,4.88,4.88,0,0,0,.28-1.65c0-2.14-1.06-4.68-6.1-4.68h-6V24.81h4.48V18.94h.41A.75.75,0,0,1,138,19a1.58,1.58,0,0,1,.39.28,4.26,4.26,0,0,1,.44.54c.16.22.32.48.49.77l2.54,4.19H147l-3.4-5.32C143.45,19.25,143.28,19,143.09,18.74Zm-5.91-6.67h1c1.67,0,1.9.76,1.9,1.5a1.61,1.61,0,0,1-.53,1.24,2,2,0,0,1-1.43.5h-1Z"/><path class="cls-5" d="M160,10.51a7.5,7.5,0,0,0-5.68-2.31,7.81,7.81,0,0,0-6,2.41,8.77,8.77,0,0,0-2.24,6.23,8.19,8.19,0,0,0,2.22,5.94,7.62,7.62,0,0,0,5.73,2.3,7.74,7.74,0,0,0,5.85-2.37,8.64,8.64,0,0,0,2.24-6.18A8.49,8.49,0,0,0,160,10.51ZM156.53,20a3,3,0,0,1-2.44,1.1,2.92,2.92,0,0,1-2.4-1.13,5.14,5.14,0,0,1-.95-3.28,5.17,5.17,0,0,1,1-3.29,3,3,0,0,1,2.48-1.17,2.81,2.81,0,0,1,2.37,1.12,5.48,5.48,0,0,1,.91,3.4A5,5,0,0,1,156.53,20Z"/><path class="cls-5" d="M43,27.26a12.24,12.24,0,0,0-8.64,3.1A10.59,10.59,0,0,0,31,38.43a9.91,9.91,0,0,0,3,7.49,11.44,11.44,0,0,0,8.16,2.83,15.86,15.86,0,0,0,6.38-1.1l.29-.13V42.31l-.78.42a10.25,10.25,0,0,1-4.93,1.21,5.9,5.9,0,0,1-4.35-1.56,5.69,5.69,0,0,1-1.62-4.27,5.84,5.84,0,0,1,1.72-4.44,6.29,6.29,0,0,1,4.52-1.61,9.48,9.48,0,0,1,4.66,1.12l.78.43V28.14L48.49,28A17.48,17.48,0,0,0,43,27.26Z"/><path class="cls-5" d="M57.6,27.59,49.39,48.4h6.36L57.27,44h6.9L65.7,48.4h6.38l-8-20.81Zm3.09,6.1,2,5.91h-4.1Z"/><path class="cls-5" d="M88.11,40.84a9.28,9.28,0,0,0-.84-.93,7.5,7.5,0,0,0-.93-.79l0,0a8.65,8.65,0,0,0,1.06-.51A6.52,6.52,0,0,0,89,37.27a5.88,5.88,0,0,0,1.06-1.72,5.69,5.69,0,0,0,.37-2.08c0-3.9-2.8-5.88-8.34-5.88H73.9V48.4h5.87V40.8h.8a1.46,1.46,0,0,1,.6.12,2.29,2.29,0,0,1,.6.41,5.82,5.82,0,0,1,.64.72c.23.3.46.63.7,1l3.5,5.34H93.4l-4.57-6.6Q88.52,41.34,88.11,40.84Zm-8.34-9h1.68C84,31.89,84.32,33,84.32,34a2.22,2.22,0,0,1-.81,1.75,3.11,3.11,0,0,1-2.15.7H79.77Z"/><path class="cls-5" d="M109.12,39.05v1L109,39.9l-8.69-12.31h-6V48.4h5.61V37c0-.52,0-1,0-1.44l.1.14,9,12.69h5.68V27.59h-5.6Z"/><path class="cls-5" d="M124.66,27.59,116.45,48.4h6.36L124.33,44h6.9l1.53,4.41h6.39l-8-20.81Zm3.09,6.1,2.05,5.91h-4.11Z"/><path class="cls-5" d="M152.24,27.59,147.68,41.7l0,0-4.59-14.15h-6.32l7.68,20.81h6.22l7.77-20.81Z"/><path class="cls-5" d="M164.22,27.59,156,48.4h6.35L163.89,44h6.9l1.54,4.41h6.38l-8-20.81Zm3.09,6.1,2.05,5.91h-4.11Z"/><polygon class="cls-5" points="186.4 43.83 186.4 27.59 180.53 27.59 180.53 48.41 194.37 48.41 194.37 43.83 186.4 43.83"/><circle class="cls-5" cx="201.42" cy="28.72" r="5.33"/><circle class="cls-5" cx="21.56" cy="28.72" r="5.33"/></g></g></svg>