<svg xmlns="http://www.w3.org/2000/svg" xmlns:xlink="http://www.w3.org/1999/xlink" viewBox="0 0 223.19 65.54"><defs><style>.cls-1{fill:none;}.cls-2{fill:#af0811;}.cls-3{fill:#800072;}.cls-4{fill:#eede00;}.cls-5{opacity:0.24;fill:url(#Nueva_muestra_de_motivo_1);}.cls-6{fill:#960ae2;}</style><pattern id="Nueva_muestra_de_motivo_1" data-name="Nueva muestra de motivo 1" width="240.94" height="237.7" patternTransform="translate(3366.29 -1878.77) scale(0.21 0.22)" patternUnits="userSpaceOnUse" viewBox="0 0 240.94 237.7"><rect class="cls-1" width="240.94" height="237.7"/><polygon class="cls-2" points="263.55 207.99 267.58 212.02 241.89 237.7 267.58 263.38 263.55 267.41 233.83 237.7 263.55 207.99"/><polygon class="cls-2" points="22.6 207.99 26.63 212.02 0.95 237.7 26.63 263.38 22.6 267.41 -7.11 237.7 22.6 207.99"/><polygon class="cls-2" points="22.84 207.99 18.81 212.02 44.49 237.7 18.81 263.38 22.84 267.41 52.55 237.7 22.84 207.99"/><polygon class="cls-2" points="82.27 207.99 86.3 212.02 60.62 237.7 86.3 263.38 82.27 267.41 52.55 237.7 82.27 207.99"/><polygon class="cls-2" points="52.55 214.17 46.25 207.99 36.05 207.99 52.55 224.17 69.06 207.99 58.86 207.99 52.55 214.17"/><polygon class="cls-2" points="58.86 207.99 46.25 207.99 52.55 214.17 58.86 207.99"/><polygon class="cls-2" points="22.39 226.66 11.13 237.7 22.39 248.75 33.65 237.7 22.39 226.66"/><polygon class="cls-2" points="22.39 233.53 18.14 237.7 22.39 241.87 26.64 237.7 22.39 233.53"/><polygon class="cls-2" points="82.06 226.66 70.79 237.7 82.06 248.75 93.32 237.7 82.06 226.66"/><polygon class="cls-2" points="82.06 233.53 77.8 237.7 82.06 241.87 86.31 237.7 82.06 233.53"/><polygon class="cls-2" points="141.72 226.66 130.46 237.7 141.72 248.75 152.99 237.7 141.72 226.66"/><polygon class="cls-2" points="141.72 233.53 137.47 237.7 141.72 241.87 145.97 237.7 141.72 233.53"/><polygon class="cls-2" points="201.39 226.66 190.13 237.7 201.39 248.75 212.65 237.7 201.39 226.66"/><polygon class="cls-2" points="201.39 233.53 197.14 237.7 201.39 241.87 205.64 237.7 201.39 233.53"/><polygon class="cls-2" points="82.51 207.99 78.48 212.02 104.16 237.7 78.48 263.38 82.51 267.41 112.22 237.7 82.51 207.99"/><polygon class="cls-2" points="141.94 207.99 145.97 212.02 120.28 237.7 145.97 263.38 141.94 267.41 112.22 237.7 141.94 207.99"/><polygon class="cls-2" points="112.22 214.17 105.92 207.99 95.72 207.99 112.22 224.17 128.72 207.99 118.53 207.99 112.22 214.17"/><polygon class="cls-2" points="118.53 207.99 105.92 207.99 112.22 214.17 118.53 207.99"/><polygon class="cls-2" points="142.18 207.99 138.15 212.02 163.83 237.7 138.15 263.38 142.18 267.41 171.89 237.7 142.18 207.99"/><polygon class="cls-2" points="201.6 207.99 205.63 212.02 179.95 237.7 205.63 263.38 201.6 267.41 171.89 237.7 201.6 207.99"/><polygon class="cls-2" points="171.89 214.17 165.59 207.99 155.39 207.99 171.89 224.17 188.39 207.99 178.19 207.99 171.89 214.17"/><polygon class="cls-2" points="178.19 207.99 165.59 207.99 171.89 214.17 178.19 207.99"/><polygon class="cls-2" points="201.84 207.99 197.81 212.02 223.5 237.7 197.81 263.38 201.84 267.41 231.56 237.7 201.84 207.99"/><polygon class="cls-2" points="231.56 214.17 225.25 207.99 215.06 207.99 231.56 224.17 248.06 207.99 237.86 207.99 231.56 214.17"/><polygon class="cls-2" points="237.86 207.99 225.25 207.99 231.56 214.17 237.86 207.99"/><polygon class="cls-2" points="-9.39 214.17 -15.69 207.99 -25.89 207.99 -9.39 224.17 7.11 207.99 -3.09 207.99 -9.39 214.17"/><polygon class="cls-2" points="263.55 148.56 267.58 152.59 241.89 178.28 267.58 203.96 263.55 207.99 233.83 178.28 263.55 148.56"/><polygon class="cls-2" points="22.6 148.56 26.63 152.59 0.95 178.28 26.63 203.96 22.6 207.99 -7.11 178.28 22.6 148.56"/><polygon class="cls-2" points="22.84 148.56 18.81 152.59 44.49 178.28 18.81 203.96 22.84 207.99 52.55 178.28 22.84 148.56"/><polygon class="cls-2" points="82.27 148.56 86.3 152.59 60.62 178.28 86.3 203.96 82.27 207.99 52.55 178.28 82.27 148.56"/><polygon class="cls-2" points="52.55 154.74 46.25 148.56 36.05 148.56 52.55 164.74 69.06 148.56 58.86 148.56 52.55 154.74"/><polygon class="cls-2" points="58.86 148.56 46.25 148.56 52.55 154.74 58.86 148.56"/><polygon class="cls-2" points="22.39 167.23 11.13 178.28 22.39 189.32 33.65 178.28 22.39 167.23"/><polygon class="cls-2" points="22.39 174.11 18.14 178.28 22.39 182.44 26.64 178.28 22.39 174.11"/><polygon class="cls-2" points="82.06 167.23 70.79 178.28 82.06 189.32 93.32 178.28 82.06 167.23"/><polygon class="cls-2" points="82.06 174.11 77.8 178.28 82.06 182.44 86.31 178.28 82.06 174.11"/><polygon class="cls-2" points="141.72 167.23 130.46 178.28 141.72 189.32 152.99 178.28 141.72 167.23"/><polygon class="cls-2" points="141.72 174.11 137.47 178.28 141.72 182.44 145.97 178.28 141.72 174.11"/><polygon class="cls-2" points="201.39 167.23 190.13 178.28 201.39 189.32 212.65 178.28 201.39 167.23"/><polygon class="cls-2" points="201.39 174.11 197.14 178.28 201.39 182.44 205.64 178.28 201.39 174.11"/><polygon class="cls-2" points="52.55 201.81 58.86 207.99 69.06 207.99 52.55 191.81 36.05 207.99 46.25 207.99 52.55 201.81"/><polygon class="cls-2" points="46.25 207.99 58.86 207.99 52.55 201.81 46.25 207.99"/><polygon class="cls-2" points="82.51 148.56 78.48 152.59 104.16 178.28 78.48 203.96 82.51 207.99 112.22 178.28 82.51 148.56"/><polygon class="cls-2" points="141.94 148.56 145.97 152.59 120.28 178.28 145.97 203.96 141.94 207.99 112.22 178.28 141.94 148.56"/><polygon class="cls-2" points="112.22 154.74 105.92 148.56 95.72 148.56 112.22 164.74 128.72 148.56 118.53 148.56 112.22 154.74"/><polygon class="cls-2" points="118.53 148.56 105.92 148.56 112.22 154.74 118.53 148.56"/><polygon class="cls-2" points="112.22 201.81 118.53 207.99 128.72 207.99 112.22 191.81 95.72 207.99 105.92 207.99 112.22 201.81"/><polygon class="cls-2" points="105.92 207.99 118.53 207.99 112.22 201.81 105.92 207.99"/><polygon class="cls-2" points="142.18 148.56 138.15 152.59 163.83 178.28 138.15 203.96 142.18 207.99 171.89 178.28 142.18 148.56"/><polygon class="cls-2" points="201.6 148.56 205.63 152.59 179.95 178.28 205.63 203.96 201.6 207.99 171.89 178.28 201.6 148.56"/><polygon class="cls-2" points="171.89 154.74 165.59 148.56 155.39 148.56 171.89 164.74 188.39 148.56 178.19 148.56 171.89 154.74"/><polygon class="cls-2" points="178.19 148.56 165.59 148.56 171.89 154.74 178.19 148.56"/><polygon class="cls-2" points="171.89 201.81 178.19 207.99 188.39 207.99 171.89 191.81 155.39 207.99 165.59 207.99 171.89 201.81"/><polygon class="cls-2" points="165.59 207.99 178.19 207.99 171.89 201.81 165.59 207.99"/><polygon class="cls-2" points="201.84 148.56 197.81 152.59 223.5 178.28 197.81 203.96 201.84 207.99 231.56 178.28 201.84 148.56"/><polygon class="cls-2" points="231.56 154.74 225.25 148.56 215.06 148.56 231.56 164.74 248.06 148.56 237.86 148.56 231.56 154.74"/><polygon class="cls-2" points="237.86 148.56 225.25 148.56 231.56 154.74 237.86 148.56"/><polygon class="cls-2" points="231.56 201.81 237.86 207.99 248.06 207.99 231.56 191.81 215.06 207.99 225.25 207.99 231.56 201.81"/><polygon class="cls-2" points="225.25 207.99 237.86 207.99 231.56 201.81 225.25 207.99"/><polygon class="cls-2" points="-9.39 154.74 -15.69 148.56 -25.89 148.56 -9.39 164.74 7.11 148.56 -3.09 148.56 -9.39 154.74"/><polygon class="cls-2" points="-9.39 201.81 -3.09 207.99 7.11 207.99 -9.39 191.81 -25.89 207.99 -15.69 207.99 -9.39 201.81"/><polygon class="cls-2" points="263.55 89.14 267.58 93.17 241.89 118.85 267.58 144.53 263.55 148.56 233.83 118.85 263.55 89.14"/><polygon class="cls-2" points="22.6 89.14 26.63 93.17 0.95 118.85 26.63 144.53 22.6 148.56 -7.11 118.85 22.6 89.14"/><polygon class="cls-2" points="22.84 89.14 18.81 93.17 44.49 118.85 18.81 144.53 22.84 148.56 52.55 118.85 22.84 89.14"/><polygon class="cls-2" points="82.27 89.14 86.3 93.17 60.62 118.85 86.3 144.53 82.27 148.56 52.55 118.85 82.27 89.14"/><polygon class="cls-2" points="52.55 95.32 46.25 89.14 36.05 89.14 52.55 105.32 69.06 89.14 58.86 89.14 52.55 95.32"/><polygon class="cls-2" points="58.86 89.14 46.25 89.14 52.55 95.32 58.86 89.14"/><polygon class="cls-2" points="22.39 107.81 11.13 118.85 22.39 129.9 33.65 118.85 22.39 107.81"/><polygon class="cls-2" points="22.39 114.68 18.14 118.85 22.39 123.02 26.64 118.85 22.39 114.68"/><polygon class="cls-2" points="82.06 107.81 70.79 118.85 82.06 129.9 93.32 118.85 82.06 107.81"/><polygon class="cls-2" points="82.06 114.68 77.8 118.85 82.06 123.02 86.31 118.85 82.06 114.68"/><polygon class="cls-2" points="141.72 107.81 130.46 118.85 141.72 129.9 152.99 118.85 141.72 107.81"/><polygon class="cls-2" points="141.72 114.68 137.47 118.85 141.72 123.02 145.97 118.85 141.72 114.68"/><polygon class="cls-2" points="201.39 107.81 190.13 118.85 201.39 129.9 212.65 118.85 201.39 107.81"/><polygon class="cls-2" points="201.39 114.68 197.14 118.85 201.39 123.02 205.64 118.85 201.39 114.68"/><polygon class="cls-2" points="52.55 142.38 58.86 148.56 69.06 148.56 52.55 132.38 36.05 148.56 46.25 148.56 52.55 142.38"/><polygon class="cls-2" points="46.25 148.56 58.86 148.56 52.55 142.38 46.25 148.56"/><polygon class="cls-2" points="82.51 89.14 78.48 93.17 104.16 118.85 78.48 144.53 82.51 148.56 112.22 118.85 82.51 89.14"/><polygon class="cls-2" points="141.94 89.14 145.97 93.17 120.28 118.85 145.97 144.53 141.94 148.56 112.22 118.85 141.94 89.14"/><polygon class="cls-2" points="112.22 95.32 105.92 89.14 95.72 89.14 112.22 105.32 128.72 89.14 118.53 89.14 112.22 95.32"/><polygon class="cls-2" points="118.53 89.14 105.92 89.14 112.22 95.32 118.53 89.14"/><polygon class="cls-2" points="112.22 142.38 118.53 148.56 128.72 148.56 112.22 132.38 95.72 148.56 105.92 148.56 112.22 142.38"/><polygon class="cls-2" points="105.92 148.56 118.53 148.56 112.22 142.38 105.92 148.56"/><polygon class="cls-2" points="142.18 89.14 138.15 93.17 163.83 118.85 138.15 144.53 142.18 148.56 171.89 118.85 142.18 89.14"/><polygon class="cls-2" points="201.6 89.14 205.63 93.17 179.95 118.85 205.63 144.53 201.6 148.56 171.89 118.85 201.6 89.14"/><polygon class="cls-2" points="171.89 95.32 165.59 89.14 155.39 89.14 171.89 105.32 188.39 89.14 178.19 89.14 171.89 95.32"/><polygon class="cls-2" points="178.19 89.14 165.59 89.14 171.89 95.32 178.19 89.14"/><polygon class="cls-2" points="171.89 142.38 178.19 148.56 188.39 148.56 171.89 132.38 155.39 148.56 165.59 148.56 171.89 142.38"/><polygon class="cls-2" points="165.59 148.56 178.19 148.56 171.89 142.38 165.59 148.56"/><polygon class="cls-2" points="201.84 89.14 197.81 93.17 223.5 118.85 197.81 144.53 201.84 148.56 231.56 118.85 201.84 89.14"/><polygon class="cls-2" points="231.56 95.32 225.25 89.14 215.06 89.14 231.56 105.32 248.06 89.14 237.86 89.14 231.56 95.32"/><polygon class="cls-2" points="237.86 89.14 225.25 89.14 231.56 95.32 237.86 89.14"/><polygon class="cls-2" points="231.56 142.38 237.86 148.56 248.06 148.56 231.56 132.38 215.06 148.56 225.25 148.56 231.56 142.38"/><polygon class="cls-2" points="225.25 148.56 237.86 148.56 231.56 142.38 225.25 148.56"/><polygon class="cls-2" points="-9.39 95.32 -15.69 89.14 -25.89 89.14 -9.39 105.32 7.11 89.14 -3.09 89.14 -9.39 95.32"/><polygon class="cls-2" points="-9.39 142.38 -3.09 148.56 7.11 148.56 -9.39 132.38 -25.89 148.56 -15.69 148.56 -9.39 142.38"/><polygon class="cls-2" points="263.55 29.71 267.58 33.74 241.89 59.42 267.58 85.11 263.55 89.14 233.83 59.42 263.55 29.71"/><polygon class="cls-2" points="22.6 29.71 26.63 33.74 0.95 59.42 26.63 85.11 22.6 89.14 -7.11 59.42 22.6 29.71"/><polygon class="cls-2" points="22.84 29.71 18.81 33.74 44.49 59.42 18.81 85.11 22.84 89.14 52.55 59.42 22.84 29.71"/><polygon class="cls-2" points="82.27 29.71 86.3 33.74 60.62 59.42 86.3 85.11 82.27 89.14 52.55 59.42 82.27 29.71"/><polygon class="cls-2" points="52.55 35.89 46.25 29.71 36.05 29.71 52.55 45.89 69.06 29.71 58.86 29.71 52.55 35.89"/><polygon class="cls-2" points="58.86 29.71 46.25 29.71 52.55 35.89 58.86 29.71"/><polygon class="cls-2" points="22.39 48.38 11.13 59.42 22.39 70.47 33.65 59.42 22.39 48.38"/><polygon class="cls-2" points="22.39 55.26 18.14 59.42 22.39 63.59 26.64 59.42 22.39 55.26"/><polygon class="cls-2" points="82.06 48.38 70.79 59.42 82.06 70.47 93.32 59.42 82.06 48.38"/><polygon class="cls-2" points="82.06 55.26 77.8 59.42 82.06 63.59 86.31 59.42 82.06 55.26"/><polygon class="cls-2" points="141.72 48.38 130.46 59.42 141.72 70.47 152.99 59.42 141.72 48.38"/><polygon class="cls-2" points="141.72 55.26 137.47 59.42 141.72 63.59 145.97 59.42 141.72 55.26"/><polygon class="cls-2" points="201.39 48.38 190.13 59.42 201.39 70.47 212.65 59.42 201.39 48.38"/><polygon class="cls-2" points="201.39 55.26 197.14 59.42 201.39 63.59 205.64 59.42 201.39 55.26"/><polygon class="cls-2" points="52.55 82.96 58.86 89.14 69.06 89.14 52.55 72.96 36.05 89.14 46.25 89.14 52.55 82.96"/><polygon class="cls-2" points="46.25 89.14 58.86 89.14 52.55 82.96 46.25 89.14"/><polygon class="cls-2" points="82.51 29.71 78.48 33.74 104.16 59.42 78.48 85.11 82.51 89.14 112.22 59.42 82.51 29.71"/><polygon class="cls-2" points="141.94 29.71 145.97 33.74 120.28 59.42 145.97 85.11 141.94 89.14 112.22 59.42 141.94 29.71"/><polygon class="cls-2" points="112.22 35.89 105.92 29.71 95.72 29.71 112.22 45.89 128.72 29.71 118.53 29.71 112.22 35.89"/><polygon class="cls-2" points="118.53 29.71 105.92 29.71 112.22 35.89 118.53 29.71"/><polygon class="cls-2" points="112.22 82.96 118.53 89.14 128.72 89.14 112.22 72.96 95.72 89.14 105.92 89.14 112.22 82.96"/><polygon class="cls-2" points="105.92 89.14 118.53 89.14 112.22 82.96 105.92 89.14"/><polygon class="cls-2" points="142.18 29.71 138.15 33.74 163.83 59.42 138.15 85.11 142.18 89.14 171.89 59.42 142.18 29.71"/><polygon class="cls-2" points="201.6 29.71 205.63 33.74 179.95 59.42 205.63 85.11 201.6 89.14 171.89 59.42 201.6 29.71"/><polygon class="cls-2" points="171.89 35.89 165.59 29.71 155.39 29.71 171.89 45.89 188.39 29.71 178.19 29.71 171.89 35.89"/><polygon class="cls-2" points="178.19 29.71 165.59 29.71 171.89 35.89 178.19 29.71"/><polygon class="cls-2" points="171.89 82.96 178.19 89.14 188.39 89.14 171.89 72.96 155.39 89.14 165.59 89.14 171.89 82.96"/><polygon class="cls-2" points="165.59 89.14 178.19 89.14 171.89 82.96 165.59 89.14"/><polygon class="cls-2" points="201.84 29.71 197.81 33.74 223.5 59.42 197.81 85.11 201.84 89.14 231.56 59.42 201.84 29.71"/><polygon class="cls-2" points="231.56 35.89 225.25 29.71 215.06 29.71 231.56 45.89 248.06 29.71 237.86 29.71 231.56 35.89"/><polygon class="cls-2" points="237.86 29.71 225.25 29.71 231.56 35.89 237.86 29.71"/><polygon class="cls-2" points="231.56 82.96 237.86 89.14 248.06 89.14 231.56 72.96 215.06 89.14 225.25 89.14 231.56 82.96"/><polygon class="cls-2" points="225.25 89.14 237.86 89.14 231.56 82.96 225.25 89.14"/><polygon class="cls-2" points="-9.39 35.89 -15.69 29.71 -25.89 29.71 -9.39 45.89 7.11 29.71 -3.09 29.71 -9.39 35.89"/><polygon class="cls-2" points="-9.39 82.96 -3.09 89.14 7.11 89.14 -9.39 72.96 -25.89 89.14 -15.69 89.14 -9.39 82.96"/><polygon class="cls-2" points="263.55 -29.71 267.58 -25.68 241.89 0 267.58 25.68 263.55 29.71 233.83 0 263.55 -29.71"/><polygon class="cls-2" points="22.6 -29.71 26.63 -25.68 0.95 0 26.63 25.68 22.6 29.71 -7.11 0 22.6 -29.71"/><polygon class="cls-2" points="22.84 -29.71 18.81 -25.68 44.49 0 18.81 25.68 22.84 29.71 52.55 0 22.84 -29.71"/><polygon class="cls-2" points="82.27 -29.71 86.3 -25.68 60.62 0 86.3 25.68 82.27 29.71 52.55 0 82.27 -29.71"/><polygon class="cls-2" points="22.39 -11.05 11.13 0 22.39 11.05 33.65 0 22.39 -11.05"/><polygon class="cls-2" points="22.39 -4.17 18.14 0 22.39 4.17 26.64 0 22.39 -4.17"/><polygon class="cls-2" points="82.06 -11.05 70.79 0 82.06 11.05 93.32 0 82.06 -11.05"/><polygon class="cls-2" points="82.06 -4.17 77.8 0 82.06 4.17 86.31 0 82.06 -4.17"/><polygon class="cls-2" points="141.72 -11.05 130.46 0 141.72 11.05 152.99 0 141.72 -11.05"/><polygon class="cls-2" points="141.72 -4.17 137.47 0 141.72 4.17 145.97 0 141.72 -4.17"/><polygon class="cls-2" points="201.39 -11.05 190.13 0 201.39 11.05 212.65 0 201.39 -11.05"/><polygon class="cls-2" points="201.39 -4.17 197.14 0 201.39 4.17 205.64 0 201.39 -4.17"/><polygon class="cls-2" points="52.55 23.53 58.86 29.71 69.06 29.71 52.55 13.53 36.05 29.71 46.25 29.71 52.55 23.53"/><polygon class="cls-2" points="46.25 29.71 58.86 29.71 52.55 23.53 46.25 29.71"/><polygon class="cls-2" points="82.51 -29.71 78.48 -25.68 104.16 0 78.48 25.68 82.51 29.71 112.22 0 82.51 -29.71"/><polygon class="cls-2" points="141.94 -29.71 145.97 -25.68 120.28 0 145.97 25.68 141.94 29.71 112.22 0 141.94 -29.71"/><polygon class="cls-2" points="112.22 23.53 118.53 29.71 128.72 29.71 112.22 13.53 95.72 29.71 105.92 29.71 112.22 23.53"/><polygon class="cls-2" points="105.92 29.71 118.53 29.71 112.22 23.53 105.92 29.71"/><polygon class="cls-2" points="142.18 -29.71 138.15 -25.68 163.83 0 138.15 25.68 142.18 29.71 171.89 0 142.18 -29.71"/><polygon class="cls-2" points="201.6 -29.71 205.63 -25.68 179.95 0 205.63 25.68 201.6 29.71 171.89 0 201.6 -29.71"/><polygon class="cls-2" points="171.89 23.53 178.19 29.71 188.39 29.71 171.89 13.53 155.39 29.71 165.59 29.71 171.89 23.53"/><polygon class="cls-2" points="165.59 29.71 178.19 29.71 171.89 23.53 165.59 29.71"/><polygon class="cls-2" points="201.84 -29.71 197.81 -25.68 223.5 0 197.81 25.68 201.84 29.71 231.56 0 201.84 -29.71"/><polygon class="cls-2" points="231.56 23.53 237.86 29.71 248.06 29.71 231.56 13.53 215.06 29.71 225.25 29.71 231.56 23.53"/><polygon class="cls-2" points="225.25 29.71 237.86 29.71 231.56 23.53 225.25 29.71"/><polygon class="cls-2" points="-9.39 23.53 -3.09 29.71 7.11 29.71 -9.39 13.53 -25.89 29.71 -15.69 29.71 -9.39 23.53"/></pattern></defs><g id="Capa_2" data-name="Capa 2"><g id="Capa_1-2" data-name="Capa 1"><rect class="cls-3" x="1.95" y="2.49" width="221.24" height="63.06" rx="26.69"/><rect class="cls-4" width="221.24" height="63.06" rx="26.69"/><path class="cls-5" d="M5.75,55.64a21.89,21.89,0,0,0,16.41,7.42H196a21.9,21.9,0,0,0,16.41-7.42Z"/><path class="cls-6" d="M57.27,19.45c-.07.2-.14.42-.2.65-.06-.21-.13-.43-.2-.64l-2.42-7H50.17v12.1h2.89V17.87c0-.24,0-.48,0-.74l2.63,7.4h2.51l2.57-7.45v7.45h3.12V12.43H59.69Z"/><polygon class="cls-6" points="69.3 19.78 73.08 19.78 73.08 17.12 69.3 17.12 69.3 15.1 73.36 15.1 73.36 12.43 66.15 12.43 66.15 24.53 73.63 24.53 73.63 21.87 69.3 21.87 69.3 19.78"/><path class="cls-6" d="M82.23,19.45l-.2.65c-.06-.21-.12-.43-.19-.64l-2.43-7H75.13v12.1H78V17.87c0-.24,0-.48,0-.74l2.62,7.4h2.52l2.57-7.45a2.44,2.44,0,0,0,0,.27v7.18h3.12V12.43H84.66Z"/><path class="cls-6" d="M96.46,12.24A5.79,5.79,0,0,0,92.05,14a6.48,6.48,0,0,0-1.66,4.61A6.07,6.07,0,0,0,92,23a5.66,5.66,0,0,0,4.24,1.7A5.73,5.73,0,0,0,100.6,23a6.41,6.41,0,0,0,1.66-4.58,6.28,6.28,0,0,0-1.6-4.46A5.54,5.54,0,0,0,96.46,12.24Zm1.78,8.83a2.33,2.33,0,0,1-1.92.87,2.29,2.29,0,0,1-1.89-.9,3.92,3.92,0,0,1-.75-2.54A4,4,0,0,1,94.43,16a2.35,2.35,0,0,1,2-.92,2.21,2.21,0,0,1,1.87.89A4.26,4.26,0,0,1,99,18.55,3.88,3.88,0,0,1,98.24,21.07Z"/><path class="cls-6" d="M111.46,20.13c-.15-.19-.3-.37-.46-.54a4.15,4.15,0,0,0-.5-.45l0,0a3.81,3.81,0,0,0,.57-.29,3.64,3.64,0,0,0,.88-.77,3.21,3.21,0,0,0,.57-1,3.42,3.42,0,0,0,.21-1.21c0-2.27-1.51-3.42-4.48-3.42h-4.4v12.1H107V20.11h.42a.72.72,0,0,1,.33.07,1.41,1.41,0,0,1,.32.24,2.14,2.14,0,0,1,.34.42c.12.17.25.37.38.59l1.88,3.1h3.64l-2.45-3.84ZM107,14.93h.9c1.36,0,1.54.66,1.54,1.24a1.35,1.35,0,0,1-.43,1,1.62,1.62,0,0,1-1.16.4H107Z"/><rect class="cls-6" x="114.79" y="12.43" width="3.15" height="12.1"/><path class="cls-6" d="M123.27,12.43l-4.41,12.1h3.42l.81-2.57h3.71l.82,2.57H131l-4.3-12.1ZM124.92,16l1.1,3.43h-2.2Z"/><path class="cls-6" d="M139,18.65a4.44,4.44,0,0,0-1-.78,10.18,10.18,0,0,0-1.28-.63c-.33-.14-.63-.27-.89-.4a4.67,4.67,0,0,1-.65-.38,1.62,1.62,0,0,1-.37-.37.61.61,0,0,1-.1-.36.58.58,0,0,1,.09-.33.93.93,0,0,1,.3-.29,2,2,0,0,1,.53-.2,4,4,0,0,1,1.39,0,5.87,5.87,0,0,1,.68.14,4.12,4.12,0,0,1,.67.24,4.75,4.75,0,0,1,.59.33l.43.3V12.77l-.18-.07a6.12,6.12,0,0,0-1.34-.35,9.61,9.61,0,0,0-3.45.09,4.7,4.7,0,0,0-1.53.66,3.3,3.3,0,0,0-1.07,1.16,3.34,3.34,0,0,0-.4,1.68,3.25,3.25,0,0,0,.73,2.14,5.2,5.2,0,0,0,2.12,1.46l1,.42a6.48,6.48,0,0,1,.76.42,1.89,1.89,0,0,1,.46.42.77.77,0,0,1,.14.44.63.63,0,0,1-.09.33.89.89,0,0,1-.27.28,2,2,0,0,1-.53.21,3.66,3.66,0,0,1-.8.08,4.71,4.71,0,0,1-1.56-.28,4.54,4.54,0,0,1-1.44-.83l-.45-.38V24l.15.08a5.83,5.83,0,0,0,1.56.51,10.07,10.07,0,0,0,1.86.16,8.82,8.82,0,0,0,1.81-.18,4.52,4.52,0,0,0,1.56-.62,3.33,3.33,0,0,0,1.08-1.16,3.55,3.55,0,0,0,.41-1.76,3.63,3.63,0,0,0-.23-1.33A3.33,3.33,0,0,0,139,18.65Z"/><path class="cls-6" d="M150.58,12.43h-4.37v12.1h4.37a6.5,6.5,0,0,0,4.67-1.69,6,6,0,0,0,1.76-4.5C157,14.42,154.85,12.43,150.58,12.43Zm-1.21,2.67h1a3.39,3.39,0,0,1,2.49.87,3.23,3.23,0,0,1,.87,2.4,3.58,3.58,0,0,1-.89,2.57,3.16,3.16,0,0,1-2.45.93h-1Z"/><polygon class="cls-6" points="161.73 19.78 165.51 19.78 165.51 17.12 161.73 17.12 161.73 15.1 165.79 15.1 165.79 12.43 158.58 12.43 158.58 24.53 166.05 24.53 166.05 21.87 161.73 21.87 161.73 19.78"/><polygon class="cls-6" points="170.71 21.87 170.71 12.43 167.55 12.43 167.55 24.53 174.98 24.53 174.98 21.87 170.71 21.87"/><path class="cls-6" d="M48.5,26.51a10.67,10.67,0,0,0-7.87,3.06,10.88,10.88,0,0,0-3,8,10.2,10.2,0,0,0,2.72,7.39,9.93,9.93,0,0,0,7.43,2.79,13.42,13.42,0,0,0,5.8-1.09l.26-.12V41.36l-.7.41A8.77,8.77,0,0,1,48.61,43a5.16,5.16,0,0,1-4-1.54,5.93,5.93,0,0,1-1.47-4.21,6,6,0,0,1,1.57-4.37,5.41,5.41,0,0,1,4.12-1.6,8.2,8.2,0,0,1,4.24,1.11l.7.42V27.38l-.3-.12A14.63,14.63,0,0,0,48.5,26.51Z"/><path class="cls-6" d="M61.79,26.84,54.32,47.37h5.79L61.49,43h6.29l1.39,4.36H75l-7.3-20.53Zm2.81,6,1.87,5.84H62.73Z"/><path class="cls-6" d="M89.58,39.91a10,10,0,0,0-.77-.93,6.72,6.72,0,0,0-.85-.77l0,0a7.25,7.25,0,0,0,1-.5,5.86,5.86,0,0,0,2.47-3,6.22,6.22,0,0,0,.34-2.06c0-3.84-2.56-5.79-7.6-5.79H76.64V47.37H82V39.86h.73a1.27,1.27,0,0,1,.55.13,1.93,1.93,0,0,1,.54.4,4.93,4.93,0,0,1,.59.71c.2.29.41.62.64,1l3.18,5.27h6.18l-4.16-6.51C90,40.55,89.82,40.23,89.58,39.91ZM82,31.08h1.53c2.31,0,2.61,1.12,2.61,2.1a2.29,2.29,0,0,1-.73,1.73,2.73,2.73,0,0,1-2,.69H82Z"/><path class="cls-6" d="M108.7,38.14c0,.35,0,.67,0,1l-.08-.12-7.91-12.14H95.24V47.37h5.1V36.13c0-.52,0-1,0-1.42l.09.13,8.21,12.53h5.17V26.84h-5.1Z"/><path class="cls-6" d="M122.86,26.84l-7.48,20.53h5.79L122.55,43h6.29l1.39,4.36h5.82l-7.3-20.53Zm2.81,6,1.86,5.84h-3.74Z"/><path class="cls-6" d="M148,26.84l-4.16,13.91v0l-4.18-14h-5.75l7,20.53h5.67l7.07-20.53Z"/><path class="cls-6" d="M158.88,26.84l-7.47,20.53h5.79L158.58,43h6.28l1.4,4.36h5.81l-7.3-20.53Zm2.81,6,1.86,5.84h-3.73Z"/><polygon class="cls-6" points="179.07 42.85 179.07 26.84 173.72 26.84 173.72 47.37 186.32 47.37 186.32 42.85 179.07 42.85"/><circle class="cls-6" cx="202.26" cy="28.72" r="5.33"/><circle class="cls-6" cx="22.4" cy="28.72" r="5.33"/></g></g></svg>