<svg xmlns="http://www.w3.org/2000/svg" xmlns:xlink="http://www.w3.org/1999/xlink" viewBox="0 0 963.34 599.23"><defs><style>.cls-1{fill:none;}.cls-2{fill:#fff;}.cls-3{fill:url(#Nueva_muestra_de_motivo_9);}</style><pattern id="Nueva_muestra_de_motivo_9" data-name="Nueva muestra de motivo 9" width="643.46" height="615.12" patternTransform="translate(6412.15 -3123.09) scale(0.26)" patternUnits="userSpaceOnUse" viewBox="0 0 643.47 615.12"><rect class="cls-1" width="643.46" height="615.12"/><path class="cls-2" d="M720.21,871.59l-77,77v-49.4L667,871.59l-23.76-22.83V789l78.94-82L673,661l75.33-76.75L823.71,661l-50.42,45.91,82.5,82.58L937.93,707l-53.79-46,81-78.58L1040.48,661l-51.65,45.8L1070,789.12l81.6-82-51.9-46.51,77.41-77.43,76.6,77.84-48.68,46c28.12,28.41,54,57.92,82.13,86.4V847.2s-.91,5.9-1,5.86l-24,23.5,24,24.11v52.58c-27.09-28.49-81-81.66-81-81.66s36.11-31.78,54.9-46.68L1176,741.53l-79,80.07c17.16,15.22,53.53,50,53.53,50s-55.33,52.18-81.32,77.87l-77.33-77.87,50.76-49.87c-30.84-31.08-53-54.29-78.63-80.13-26.17,25.78-52.42,53.34-79.59,80.13l53,49.87-82,78-79.94-78,53-49.87c-28.64-28.91-54.34-54-80.26-80.15C722.93,767,696.73,792.68,668,821.72ZM1152.27,661l24.06,24.06L1200.38,661l-24.05-24ZM1045.64,871.61l24,24,24-24-24-24.06ZM940.5,661l24.06,24.06L988.61,661l-24.05-24ZM831.38,871.61l24,24,24.06-24-24.06-24.06ZM724.05,661l24.06,24.06,24-24.06-24-24Z"/><path class="cls-2" d="M76.75,871.59l-77,77v-49.4l23.76-27.57L-.27,848.76V789l78.93-82-49.1-46,75.33-76.75L180.24,661l-50.42,45.91,82.51,82.58L294.46,707l-53.79-46,81-78.58L397,661l-51.64,45.8,81.2,82.32,81.6-82-51.89-46.51,77.4-77.43L610.29,661,561.6,707c28.13,28.41,54,57.92,82.14,86.4V847.2s-.92,5.9-1,5.86l-24,23.5,24,24.11v52.58c-27.09-28.49-81-81.66-81-81.66s36.11-31.78,54.91-46.68l-84.12-83.38-79,80.07c17.17,15.22,53.54,50,53.54,50s-55.33,52.18-81.33,77.87l-77.33-77.87,50.77-49.87c-30.85-31.08-53-54.29-78.64-80.13-26.16,25.78-52.41,53.34-79.59,80.13l53.05,49.87-82,78-79.93-78,53-49.87c-28.65-28.91-54.34-54-80.27-80.15-25.2,25.46-51.4,51.11-80.15,80.15ZM508.81,661l24.06,24.06,24-24.06-24-24ZM402.17,871.61l24.06,24,24-24-24-24.06ZM297,661l24.06,24.06,24-24.06-24-24ZM187.92,871.61l24,24,24.06-24L212,847.55ZM80.59,661l24.06,24.06,24-24.06-24-24Z"/><path class="cls-2" d="M-566.72,871.59l-77,77v-49.4L-620,871.59l-23.76-22.83V789l78.94-82-49.11-46,75.33-76.75L-463.22,661l-50.42,45.91,82.51,82.58L-349,707l-53.79-46,81-78.58L-246.45,661l-51.65,45.8,81.21,82.32,81.6-82-51.9-46.51,77.41-77.43L-33.18,661l-48.68,46c28.12,28.41,54,57.92,82.13,86.4V847.2s-.91,5.9-1,5.86l-24,23.5,24,24.11v52.58c-27.09-28.49-81-81.66-81-81.66s36.11-31.78,54.9-46.68l-84.11-83.38L-190,821.6c17.17,15.22,53.53,50,53.53,50s-55.33,52.18-81.32,77.87l-77.33-77.87,50.76-49.87c-30.84-31.08-53-54.29-78.63-80.13-26.17,25.78-52.42,53.34-79.59,80.13l53,49.87-82,78-79.94-78,53-49.87c-28.64-28.91-54.34-54-80.26-80.15C-564,767-590.2,792.68-618.95,821.72ZM-134.65,661l24.05,24.06,24-24.06-24-24ZM-241.29,871.61l24,24,24.05-24-24.05-24.06ZM-346.43,661l24.06,24.06L-298.32,661l-24.05-24ZM-455.55,871.61l24.05,24,24.06-24-24.06-24.06ZM-562.88,661l24.06,24.06L-514.77,661l-24.05-24Z"/><path class="cls-2" d="M720.21,256.47l-77,77V284.05L667,256.47l-23.76-22.83V173.87l78.94-82L673,45.88l75.33-76.75,75.36,76.75L773.29,91.79l82.5,82.59,82.14-82.52-53.79-46,81-78.58,75.39,78.64-51.65,45.8L1070,174l81.6-82-51.9-46.51L1177.15-32l76.6,77.84-48.68,46c28.12,28.41,54,57.92,82.13,86.4v53.82s-.91,5.9-1,5.86l-24,23.5,24,24.11v52.58c-27.09-28.49-81-81.66-81-81.66s36.11-31.78,54.9-46.67L1176,126.41l-79,80.07c17.16,15.22,53.53,50,53.53,50s-55.33,52.18-81.32,77.87l-77.33-77.87,50.76-49.87c-30.84-31.08-53-54.29-78.63-80.13-26.17,25.78-52.42,53.34-79.59,80.13l53,49.87-82,78-79.94-78,53-49.87c-28.64-28.91-54.34-54-80.26-80.15-25.21,25.46-51.41,51.11-80.16,80.15ZM1152.27,45.92l24.06,24,24.05-24-24.05-24ZM1045.64,256.49l24,24.05,24-24.05-24-24.06ZM940.5,45.92l24.06,24,24.05-24-24.05-24ZM831.38,256.49l24,24.05,24.06-24.05-24.06-24.06ZM724.05,45.92l24.06,24,24-24-24-24Z"/><polygon class="cls-2" points="645.03 118.08 669.07 94.02 645.03 69.97 620.97 94.02 645.03 118.08"/><polygon class="cls-2" points="620.97 403.92 645.03 427.98 669.07 403.92 645.03 379.87 620.97 403.92"/><path class="cls-2" d="M1204.32,566.33s36.06-31.72,54.83-46.6l-84-83.25c-24.41,24.71-50.44,51.08-78.93,79.94,17.14,15.2,53.46,49.91,53.46,49.91s-55.25,52.11-81.2,77.75l-77.21-77.75L1042,516.54c-30.81-31-52.9-54.2-78.52-80-26.12,25.75-52.33,53.27-79.46,80l53,49.79-81.9,77.87-79.82-77.87,52.88-49.79c-28.59-28.87-54.26-53.88-80.14-80-25.16,25.42-51.33,51-80,80l52.15,49.79-76.9,76.85V593.87l23.72-27.54-23.72-22.79V483.62L722,401.73l-49-45.9,75.21-76.63,75.24,76.63-50.33,45.83,82.37,82.46,82-82.39-53.71-46,80.83-78.46,75.27,78.52-51.57,45.73,81.09,82.19,81.47-81.89L1099,355.41l77.28-77.31,76.49,77.73-48.61,45.9c28.09,28.37,53.88,57.84,82,86.27l0,54s-.18,5.9-.23,5.85l-24,23.51,23.23,24.1v52.42C1258.15,619.43,1204.32,566.33,1204.32,566.33ZM771.89,355.82l-24-24.05-24.05,24.05,24.05,24.05ZM879.22,566.39l-24.05-24-24.06,24,24.06,24.05Zm85.07-186.52,24.05-24.05-24.05-24.05-24,24.05Zm129.19,186.52-24-24-24,24,24,24.05Zm106.63-210.57-24-24.05-24,24.05,24,24.05Z"/><polygon class="cls-2" points="508.55 355.82 532.6 379.87 556.65 355.82 532.6 331.77 508.55 355.82"/><polygon class="cls-2" points="320.83 331.77 296.78 355.82 320.83 379.87 344.88 355.82 320.83 331.77"/><polygon class="cls-2" points="401.91 566.39 425.96 590.44 450.01 566.39 425.96 542.34 401.91 566.39"/><polygon class="cls-2" points="187.65 566.39 211.7 590.44 235.75 566.39 211.7 542.34 187.65 566.39"/><polygon class="cls-2" points="80.33 355.82 104.38 379.87 128.43 355.82 104.38 331.77 80.33 355.82"/><polygon class="cls-2" points="450.28 256.49 426.23 232.43 402.17 256.49 426.23 280.54 450.28 256.49"/><polygon class="cls-2" points="345.14 45.92 321.1 21.87 297.04 45.92 321.1 69.97 345.14 45.92"/><polygon class="cls-2" points="236.02 256.49 211.96 232.43 187.92 256.49 211.96 280.54 236.02 256.49"/><polygon class="cls-2" points="128.69 45.92 104.65 21.87 80.59 45.92 104.65 69.97 128.69 45.92"/><polygon class="cls-2" points="556.91 45.92 532.87 21.87 508.81 45.92 532.87 69.97 556.91 45.92"/><path class="cls-2" d="M76.75,256.47l-77,77V284.05l23.76-27.58L-.27,233.64V173.87l78.93-82-49.1-46,75.33-76.75,75.35,76.75L129.82,91.79l82.51,82.59,82.13-82.52-53.79-46,81-78.58L397,45.88l-51.64,45.8L426.57,174l81.6-82L456.28,45.47,533.68-32l76.61,77.84-48.69,46c28.13,28.41,54,57.92,82.14,86.4v53.82s-.92,5.9-1,5.86l-24,23.5,24,24.11v52.58c-27.09-28.49-81-81.66-81-81.66s36.11-31.78,54.91-46.67l-84.12-83.39-79,80.07c17.17,15.22,53.54,50,53.54,50s-55.33,52.18-81.33,77.87l-77.33-77.87,50.77-49.87c-30.85-31.08-53-54.29-78.64-80.13-26.16,25.78-52.41,53.34-79.59,80.13l53.05,49.87-82,78-79.93-78,53-49.87c-28.65-28.91-54.34-54-80.27-80.15-25.2,25.46-51.4,51.11-80.15,80.15ZM508.81,45.92l24.06,24,24-24-24-24ZM402.17,256.49l24.06,24.05,24-24.05-24-24.06ZM297,45.92,321.1,70l24-24-24-24ZM187.92,256.49l24,24.05L236,256.49,212,232.43ZM80.59,45.92l24.06,24,24-24-24-24Z"/><polygon class="cls-2" points="80.33 209.82 104.38 233.88 128.43 209.82 104.38 185.78 80.33 209.82"/><polygon class="cls-2" points="320.83 233.88 344.88 209.82 320.83 185.78 296.78 209.82 320.83 233.88"/><polygon class="cls-2" points="426.23 118.08 450.28 94.02 426.23 69.97 402.17 94.02 426.23 118.08"/><polygon class="cls-2" points="211.71 118.08 235.75 94.02 211.71 69.97 187.65 94.02 211.71 118.08"/><polygon class="cls-2" points="1.56 118.08 25.61 94.02 1.56 69.97 -22.49 94.02 1.56 118.08"/><polygon class="cls-2" points="426.23 427.98 450.28 403.92 426.23 379.87 402.17 403.92 426.23 427.98"/><polygon class="cls-2" points="187.65 403.92 211.71 427.98 235.75 403.92 211.71 379.87 187.65 403.92"/><polygon class="cls-2" points="-22.49 403.92 1.56 427.98 25.61 403.92 1.56 379.87 -22.49 403.92"/><polygon class="cls-2" points="532.87 233.88 556.91 209.82 532.87 185.78 508.81 209.82 532.87 233.88"/><polygon class="cls-2" points="80.33 518.28 104.38 542.34 128.43 518.28 104.38 494.24 80.33 518.28"/><polygon class="cls-2" points="320.83 494.24 296.78 518.28 320.83 542.34 344.88 518.28 320.83 494.24"/><polygon class="cls-2" points="508.81 518.28 532.87 542.34 556.91 518.28 532.87 494.24 508.81 518.28"/><path class="cls-2" d="M560.86,566.33s36.06-31.72,54.82-46.6l-84-83.25-78.93,79.94c17.15,15.2,53.47,49.91,53.47,49.91S451,618.44,425,644.08l-77.21-77.75,50.69-49.79c-30.81-31-52.9-54.2-78.52-80-26.12,25.75-52.33,53.27-79.46,80l53,49.79-81.9,77.87-79.81-77.87,52.87-49.79c-28.59-28.87-54.25-53.88-80.14-80-25.15,25.42-51.32,51-80,80l52.14,49.79L-.27,643.18V593.87l23.72-27.54L-.27,543.54V483.62l78.81-81.89-49-45.9,75.21-76.63L180,355.83l-50.34,45.83L212,484.12l82-82.39-53.71-46,80.83-78.46,75.28,78.52-51.57,45.73,81.08,82.19,81.47-81.89-51.81-46.45,77.28-77.31,76.48,77.73-48.6,45.9c28.08,28.37,53.87,57.84,82,86.27v54s-.19,5.9-.23,5.85l-24,23.51,23.23,24.1v52.42C614.68,619.43,560.86,566.33,560.86,566.33ZM128.43,355.82l-24.05-24.05-24,24.05,24,24.05ZM235.75,566.39l-24.05-24-24,24,24,24.05Zm85.08-186.52,24.05-24.05-24.05-24.05-24.05,24.05ZM450,566.39l-24.05-24-24,24,24,24.05ZM556.65,355.82l-24-24.05-24.05,24.05,24.05,24.05Z"/><path class="cls-2" d="M-566.72,256.47l-77,77V284.05L-620,256.47l-23.76-22.83V173.87l78.94-82-49.11-46,75.33-76.75,75.36,76.75-50.42,45.91,82.51,82.59L-349,91.86l-53.79-46,81-78.58,75.39,78.64-51.65,45.8L-216.89,174l81.6-82-51.9-46.51L-109.78-32l76.6,77.84-48.68,46c28.12,28.41,54,57.92,82.13,86.4v53.82s-.91,5.9-1,5.86l-24,23.5,24,24.11v52.58c-27.09-28.49-81-81.66-81-81.66s36.11-31.78,54.9-46.67l-84.11-83.39L-190,206.48c17.17,15.22,53.53,50,53.53,50s-55.33,52.18-81.32,77.87l-77.33-77.87,50.76-49.87c-30.84-31.08-53-54.29-78.63-80.13-26.17,25.78-52.42,53.34-79.59,80.13l53,49.87-82,78-79.94-78,53-49.87c-28.64-28.91-54.34-54-80.26-80.15-25.21,25.46-51.41,51.11-80.16,80.15ZM-134.65,45.92l24.05,24,24-24-24-24ZM-241.29,256.49l24,24.05,24.05-24.05-24.05-24.06ZM-346.43,45.92l24.06,24,24.05-24-24.05-24ZM-455.55,256.49l24.05,24.05,24.06-24.05-24.06-24.06ZM-562.88,45.92l24.06,24,24.05-24-24.05-24Z"/><path class="cls-2" d="M1204.32-48.78s36.06-31.73,54.83-46.61l-84-83.25L1096.23-98.7c17.14,15.21,53.46,49.92,53.46,49.92s-55.25,52.1-81.2,77.75L991.28-48.78,1042-98.57c-30.81-31-52.9-54.21-78.52-80-26.12,25.74-52.33,53.26-79.46,80l53,49.79-81.9,77.87L775.23-48.78l52.88-49.79c-28.59-28.87-54.26-53.89-80.14-80-25.16,25.42-51.33,51-80,80l52.15,49.79-76.9,76.85V-21.25l23.72-27.53-23.72-22.8V-131.5L722-213.39l-49-45.9,75.21-76.63,75.24,76.63-50.33,45.84L855.46-131l82-82.4-53.71-46,80.83-78.46,75.27,78.52-51.57,45.73,81.09,82.19,81.47-81.89L1099-259.71,1176.31-337l76.49,77.73-48.61,45.9c28.09,28.38,53.88,57.84,82,86.27l0,54s-.18,5.9-.23,5.85l-24,23.51,23.23,24.1V32.75C1258.15,4.31,1204.32-48.78,1204.32-48.78ZM771.89-259.3l-24-24.05L723.79-259.3l24.05,24.05ZM879.22-48.73,855.17-72.78,831.11-48.73l24.06,24Zm85.07-186.52,24.05-24.05-24.05-24.05-24,24.05ZM1093.48-48.73l-24-24.05-24,24.05,24,24ZM1200.11-259.3l-24-24.05-24,24.05,24,24.05Z"/><path class="cls-2" d="M560.86-48.78s36.06-31.73,54.82-46.61l-84-83.25L452.76-98.7c17.15,15.21,53.47,49.92,53.47,49.92S451,3.32,425,29L347.81-48.78,398.5-98.57c-30.81-31-52.9-54.21-78.52-80-26.12,25.74-52.33,53.26-79.46,80l53,49.79-81.9,77.87L131.77-48.78l52.87-49.79c-28.59-28.87-54.25-53.89-80.14-80-25.15,25.42-51.32,51-80,80L76.62-48.78-.27,28.07V-21.25L23.45-48.78-.27-71.58V-131.5l78.81-81.89-49-45.9,75.21-76.63L180-259.29l-50.34,45.84L212-131l82-82.4-53.71-46,80.83-78.46,75.28,78.52-51.57,45.73,81.08,82.19,81.47-81.89-51.81-46.45L532.85-337l76.48,77.73-48.6,45.9c28.08,28.38,53.87,57.84,82,86.27v54s-.19,5.9-.23,5.85l-24,23.51,23.23,24.1V32.75C614.68,4.31,560.86-48.78,560.86-48.78ZM128.43-259.3l-24.05-24.05-24,24.05,24,24.05ZM235.75-48.73,211.7-72.78l-24,24.05,24,24Zm85.08-186.52,24.05-24.05-24.05-24.05L296.78-259.3ZM450-48.73,426-72.78l-24,24.05,24,24ZM556.65-259.3l-24-24.05L508.55-259.3l24.05,24.05Z"/></pattern></defs><g id="Capa_2" data-name="Capa 2"><g id="Capa_1-2" data-name="Capa 1"><rect class="cls-3" width="963.34" height="599.23"/></g></g></svg>