<svg xmlns="http://www.w3.org/2000/svg" viewBox="0 0 1170.62 121.32"><defs><style>.cls-1{fill:#c66505;}.cls-2{fill:#fff;}</style></defs><g id="Capa_2" data-name="Capa 2"><g id="Capa_1-2" data-name="Capa 1"><rect class="cls-1" y="9.63" width="1170.62" height="111.68"/><path class="cls-2" d="M543.93,50.88c.19-.29.65-.44,1.38-.44s1,.25.8.73a46.23,46.23,0,0,1-4.52,8.24,35.73,35.73,0,0,1-5,5.69A44.25,44.25,0,0,1,531,69.47q-3,2-6.48,4.16a68.31,68.31,0,0,1-3.07,10.2,90.07,90.07,0,0,1-5.32,11.59,70.21,70.21,0,0,1-7.07,10.64,34.45,34.45,0,0,1-8,7.51,9.06,9.06,0,0,1-2.11.59,23.16,23.16,0,0,1-3.21.36c-1.12,0-2.18,0-3.21,0a4,4,0,0,1-2.11-.51,2.31,2.31,0,0,1-1.31-2.11,12,12,0,0,1,.29-2.7,25.2,25.2,0,0,1,2.84-8.17A55.27,55.27,0,0,1,497,93.89q4.23-5.53,8.9-10.72a51,51,0,0,1,10.64-9q1.61-4.23,2.91-8.68c.88-3,1.75-5.85,2.63-8.67q-3.21,4.08-6.64,7.94t-7.07,7.66q-1.89,2-4,4.37a40.73,40.73,0,0,1-4.52,4.3,33.13,33.13,0,0,1-5,3.43,16.26,16.26,0,0,1-5.54,1.89c-3.88.59-7,.37-9.4-.65a10.72,10.72,0,0,1-5.32-4.67,17.25,17.25,0,0,1-2-7.36,36.23,36.23,0,0,1,.44-8.6A49.06,49.06,0,0,1,475,56.86a43.29,43.29,0,0,1,2.84-6.56,98.4,98.4,0,0,1,8.9-13.2,107.08,107.08,0,0,1,11.59-12.46,90.65,90.65,0,0,1,13.48-10.28,57.73,57.73,0,0,1,14.87-6.63,9.13,9.13,0,0,1,5.62,0,15.84,15.84,0,0,1,5.46,2.84,14.23,14.23,0,0,1,3.94,4.88,10.34,10.34,0,0,1,1,6.13,29.44,29.44,0,0,1-3.06,9.11,31.9,31.9,0,0,1-5.69,7.8,27.39,27.39,0,0,1-7.58,5.61,21.59,21.59,0,0,1-9.18,2.26c-.78.1-1.19,0-1.24-.44s.31-.63,1.09-.72a18.81,18.81,0,0,0,9.7-3.58A30.51,30.51,0,0,0,534,34.26a32.83,32.83,0,0,0,2.48-3.86,24.9,24.9,0,0,0,1.9-4.38,16.76,16.76,0,0,0,.8-4.59,9.84,9.84,0,0,0-1-4.52c-.87-1.84-2-2.94-3.28-3.28a7.7,7.7,0,0,0-4.3.22A20.53,20.53,0,0,0,526.07,16q-2.27,1.39-4,2.41a80.61,80.61,0,0,0-7.58,5.39q-3.65,2.93-7.15,6.13A120.57,120.57,0,0,0,495,43.3a80.84,80.84,0,0,0-9.69,15.6,45.82,45.82,0,0,0-3.14,9.18,26.29,26.29,0,0,0-.36,9.77,10,10,0,0,0,1.75,4.6,4.81,4.81,0,0,0,4.23,2.11,7.94,7.94,0,0,0,4.59-1.46A34.64,34.64,0,0,0,496.25,80a166.33,166.33,0,0,0,14.22-14.51q6.63-7.65,12.9-15.81a8.37,8.37,0,0,1,1.75-.66,19.53,19.53,0,0,1,3.21-.73,10,10,0,0,1,2.69-.07c.73.09.85.43.37,1q-1.17,5.25-2.55,10.42t-3,10.43a30.29,30.29,0,0,0,6.56-4.6,48.37,48.37,0,0,0,5.1-5.46q2.19-2.77,3.79-5.25C542.37,53.17,543.25,51.85,543.93,50.88Zm-45.34,55.4a78.54,78.54,0,0,0,9.33-13,111.84,111.84,0,0,0,6.85-14.36c-.29.2-.58.42-.88.66s-.58.51-.87.8a84.67,84.67,0,0,0-10.35,11.52c-1.66,2.23-3.28,4.49-4.89,6.78a28.28,28.28,0,0,0-3.71,7.36,13.21,13.21,0,0,0-.66,2.41q-.23,1.23-.51,2.4a10.52,10.52,0,0,1-.22,1.24c-.05.15.22-.07.8-.65Q496.11,108.9,498.59,106.28Z"/><path class="cls-2" d="M583.14,50.3a1,1,0,0,1,.81-.58,3.85,3.85,0,0,1,1.31-.08,2.35,2.35,0,0,1,1.09.37.59.59,0,0,1,.29.73c-1.45,3.3-3,6.48-4.74,9.55a75.31,75.31,0,0,1-5.75,8.82q-3.36,4.36-7,8.31-1.9,2-4.08,4a19.15,19.15,0,0,1-4.67,3.14,6.65,6.65,0,0,1-4.08.44A5.55,5.55,0,0,1,553,82.81a8.84,8.84,0,0,1-1.45-5.39,24.67,24.67,0,0,1,.87-5.54v-.59a31.53,31.53,0,0,1-2.91,3.36A20.72,20.72,0,0,1,546,77.42a13.38,13.38,0,0,1-3.79,1.67,8.06,8.06,0,0,1-4.16-.07,4.5,4.5,0,0,1-3.71-3.35,13.9,13.9,0,0,1-.08-5.84,30.45,30.45,0,0,1,1.9-6.34q1.31-3.14,2.19-4.88A72.75,72.75,0,0,1,545.68,48a19.37,19.37,0,0,1,3.57-3.07A6.47,6.47,0,0,1,554,44a7,7,0,0,1,4.37,2.48A8.91,8.91,0,0,1,560.11,51q.87-2.62,1.89-5.18A24.79,24.79,0,0,1,564.63,41c.09-.2.58-.32,1.46-.37s1.79,0,2.77,0a16.64,16.64,0,0,1,2.47.29c.68.15,1,.37.88.66a30.59,30.59,0,0,1-1.75,3.94q-1.76,3.65-4,8.82t-4.52,10.93q-2.26,5.76-3.57,10.13a18.33,18.33,0,0,0-1.09,6.49c.14,1.41,1.14,1.39,3-.07.78-.68,1.58-1.36,2.41-2s1.63-1.36,2.41-2q2.32-2.34,4.44-4.81a54.46,54.46,0,0,0,3.87-5.11,87.42,87.42,0,0,0,5.32-8.45Q581.1,55,583.14,50.3ZM548.45,71.88a91.73,91.73,0,0,0,6.85-9.19,32.46,32.46,0,0,0,1.6-4.08,25.12,25.12,0,0,0,.37-3.28,15.51,15.51,0,0,0-.22-3.28c-.29-2-.93-3.09-1.9-3.14s-2.11.54-3.42,1.75a26.52,26.52,0,0,0-4.09,5.11,71.64,71.64,0,0,0-3.86,6.77,54.07,54.07,0,0,0-2.84,6.71,11.26,11.26,0,0,0-.8,5.1c.19,1.75.63,2.75,1.31,3a2.4,2.4,0,0,0,2.26-.51,14.61,14.61,0,0,0,2.55-2.4Z"/><path class="cls-2" d="M612,51.17a1,1,0,0,1,.8-.58,5.92,5.92,0,0,1,1.31-.15,1.9,1.9,0,0,1,1.1.3.58.58,0,0,1,.29.72q-2,3.51-4,7.08t-4,6.92c-.87,1.46-2.14,3.5-3.79,6.12A54.74,54.74,0,0,1,598,79.09a29.65,29.65,0,0,1-6.85,5.76,7.58,7.58,0,0,1-7.14.73q-4.66-1.89-5.47-8a45,45,0,0,1,.8-14.28,131,131,0,0,1,4.89-17.72q3.27-9.47,6.92-18.29t6.78-16q3.13-7.22,4.45-11C602.48.1,603,0,603.85,0a19.59,19.59,0,0,1,2.84.22c1,.14,1.94.32,2.77.51s1.19.39,1.09.58q-1.31,3.21-3.72,8.39t-5.24,11.66q-2.85,6.48-5.84,13.85t-5.24,14.94a134.87,134.87,0,0,0-3.58,15A57.68,57.68,0,0,0,586.06,79c.1,1.85.63,2.77,1.6,2.77a5.81,5.81,0,0,0,3.43-1.6,36.29,36.29,0,0,0,4.3-4.31q2.33-2.68,4.37-5.39t3.5-4.81c1-1.41,1.56-2.26,1.75-2.55l3.5-5.83C609.68,55.35,610.84,53.31,612,51.17Z"/><path class="cls-2" d="M638.4,50.3c.09-.29.39-.49.87-.58a4.42,4.42,0,0,1,1.39-.08,2.35,2.35,0,0,1,1.09.37.59.59,0,0,1,.29.73,73.48,73.48,0,0,1-7.21,11.59q-4.16,5.46-8.39,10.71c-1.07,1.46-2.18,2.94-3.35,4.45a45.35,45.35,0,0,1-3.79,4.3,16.19,16.19,0,0,1-3.86,3.06,5.12,5.12,0,0,1-4.89.15,11.51,11.51,0,0,1-6.19-5.91A17.88,17.88,0,0,1,603,70.71a29.42,29.42,0,0,1,2.33-9.4,50.66,50.66,0,0,1,5-9.12,41,41,0,0,1,6.34-7.29,18.82,18.82,0,0,1,6.64-4.08,4.9,4.9,0,0,1,3,.07,5.76,5.76,0,0,1,2.33,1.61,6.78,6.78,0,0,1,1.38,2.62,6.93,6.93,0,0,1,.15,3.14,35.32,35.32,0,0,1-2.48,6.56,27.26,27.26,0,0,1-4.15,6.34,11.8,11.8,0,0,1-5.18,3.57c-1.85.59-3.65,0-5.4-1.75a1.42,1.42,0,0,1-.14.59c-.2.87-.49,2.21-.88,4s-.72,3.64-1,5.53a30.45,30.45,0,0,0-.36,5.47c0,1.75.46,3,1.24,3.65a2,2,0,0,0,1.75.51,3.79,3.79,0,0,0,1.6-.88,14.39,14.39,0,0,0,1.46-1.53c.49-.58.87-1.07,1.17-1.46Q621,75.09,624,71.15l5.83-7.88c1.45-2.13,2.94-4.25,4.44-6.34A61.78,61.78,0,0,0,638.4,50.3Zm-18.37-1a46.1,46.1,0,0,0-3.86,5.47,26.58,26.58,0,0,0-2.85,6.48,3.18,3.18,0,0,0,3.43.8,9,9,0,0,0,3.5-2.47,21.71,21.71,0,0,0,3.06-4.45,39,39,0,0,0,2.19-4.88,16.23,16.23,0,0,0,.94-3.87c.1-1.07-.14-1.6-.73-1.6a5.83,5.83,0,0,0-3.06,1.82C621.49,47.7,620.61,48.6,620,49.28Z"/><path class="cls-2" d="M670.76,50.59c.2-.39.56-.22,1.1.51a2.19,2.19,0,0,1,.51,2,31.86,31.86,0,0,1-3.28,5.54,103.12,103.12,0,0,1-6.56,8.45,117.52,117.52,0,0,1-8.31,8.75,44.16,44.16,0,0,1-8.46,6.49q-4,2.27-7.07,1.53t-4.08-6.12c-.2-1.07.27-2.79,1.38-5.18s2.31-4.88,3.57-7.51a58.13,58.13,0,0,0,3-7.29q1.1-3.34-.36-4.52a27.59,27.59,0,0,1-2.41-2,14,14,0,0,1-2.11-2.48A8.93,8.93,0,0,1,636.43,46a4,4,0,0,1,.22-2.7,24.94,24.94,0,0,1,2.55-4.67,16,16,0,0,1,3.64-3.93,5.84,5.84,0,0,1,4.31-1.17c1.55.2,3.06,1.36,4.52,3.5a4.08,4.08,0,0,1-.15,4.3A20.52,20.52,0,0,1,649,45.05a22,22,0,0,1-3.94,4.23c-.77.48-1.11.68-1,.58s.54-.12,1.32-.07,1.84.8,3.2,2.26a7.21,7.21,0,0,1,1.83,5.61A28.63,28.63,0,0,1,649,64.8a63.22,63.22,0,0,1-3,7.37q-1.76,3.64-2.92,6.27c1.85-.3,4-1.48,6.42-3.58A94.91,94.91,0,0,0,657,67.58c2.57-2.78,5.07-5.71,7.5-8.83S669,52.92,670.76,50.59ZM648.6,37.91c-.58-.3-1.26,0-2,.87a20.85,20.85,0,0,0-2.26,3.14,28.8,28.8,0,0,0-1.89,3.71,8.23,8.23,0,0,0-.8,2.63,14.48,14.48,0,0,0,4.22-3,9.5,9.5,0,0,0,2.77-5.18,3.4,3.4,0,0,0,.22-1.09A1.33,1.33,0,0,0,648.6,37.91Z"/><path class="cls-2" d="M671.49,82.52c-2.82.29-4.83-.19-6-1.46a7.81,7.81,0,0,1-2-5,23.9,23.9,0,0,1,.66-7,57.82,57.82,0,0,1,2.26-7.58c.92-2.48,1.8-4.71,2.62-6.7s1.44-3.43,1.82-4.31c.1-.19.54-.34,1.31-.43a14.39,14.39,0,0,1,2.48-.08c.88,0,1.68.13,2.41.22s1.09.29,1.09.59q-1.17,3.78-2.55,7.58T672.8,66a9.83,9.83,0,0,0-.65,1.75c-.34,1.07-.71,2.29-1.1,3.65a41.54,41.54,0,0,0-.94,4.15,11,11,0,0,0-.15,3.5c.15.93.56,1.44,1.24,1.53s1.75-.48,3.21-1.75a36.05,36.05,0,0,0,5.76-6.34q2.55-3.57,5-7.29c1.61-2.48,3.23-5,4.89-7.58a73.89,73.89,0,0,1,5.39-7.36c.2-.29.73-.41,1.61-.37s1.16.32.87.81a68.81,68.81,0,0,1-5.83,9.33q-3.36,4.51-6.42,8.89c-.78,1.17-1.65,2.5-2.62,4a38.44,38.44,0,0,1-3.21,4.3,22.05,22.05,0,0,1-3.86,3.57A8.42,8.42,0,0,1,671.49,82.52Zm6.56-38a3.26,3.26,0,0,1-1.38,0c-.73-.1-1.15-.3-1.24-.59a17.11,17.11,0,0,1,.44-1.75c.29-1.06.63-2.26,1-3.57s.92-3.08,1.6-5.32c.1-.19.46-.19,1.09,0a13.59,13.59,0,0,1,2,.8,12.53,12.53,0,0,1,1.82,1.1c.54.39.76.72.66,1a19.72,19.72,0,0,1-2.48,4.3A27.08,27.08,0,0,1,678.05,44.47Z"/><path class="cls-2" d="M734.77,50.3a.94.94,0,0,1,.8-.58,3.85,3.85,0,0,1,1.31-.08A2.35,2.35,0,0,1,738,50a.59.59,0,0,1,.29.73q-2.18,4.95-4.73,9.55a76.69,76.69,0,0,1-5.76,8.82q-3.36,4.36-7,8.31-1.89,2-4.08,4A19.15,19.15,0,0,1,712,84.56a6.65,6.65,0,0,1-4.08.44,5.5,5.5,0,0,1-3.35-2.19,8.85,8.85,0,0,1-1.46-5.39,25.25,25.25,0,0,1,.87-5.54v-.59a30.44,30.44,0,0,1-2.91,3.36,20.31,20.31,0,0,1-3.43,2.77,13.38,13.38,0,0,1-3.79,1.67,8,8,0,0,1-4.15-.07A4.52,4.52,0,0,1,686,75.67a13.75,13.75,0,0,1-.07-5.84,30.42,30.42,0,0,1,1.89-6.34c.88-2.09,1.6-3.72,2.19-4.88A73.54,73.54,0,0,1,697.3,48a19.71,19.71,0,0,1,3.57-3.07,6.47,6.47,0,0,1,4.74-.87A7,7,0,0,1,710,46.51,8.91,8.91,0,0,1,711.73,51q.87-2.62,1.9-5.18A24.23,24.23,0,0,1,716.25,41c.1-.2.58-.32,1.46-.37s1.8,0,2.77,0a16.79,16.79,0,0,1,2.48.29q1,.22.87.66a30.59,30.59,0,0,1-1.75,3.94q-1.74,3.65-4,8.82t-4.52,10.93c-1.51,3.84-2.69,7.22-3.57,10.13a18.57,18.57,0,0,0-1.09,6.49q.21,2.11,3-.07,1.15-1,2.4-2c.83-.68,1.63-1.36,2.41-2q2.32-2.34,4.44-4.81A54.46,54.46,0,0,0,725,67.79a85.52,85.52,0,0,0,5.32-8.45Q732.72,55,734.77,50.3Zm-34.7,21.58a91.73,91.73,0,0,0,6.85-9.19,32.46,32.46,0,0,0,1.6-4.08,23.51,23.51,0,0,0,.37-3.28,14.88,14.88,0,0,0-.22-3.28c-.29-2-.93-3.09-1.9-3.14s-2.11.54-3.42,1.75a26.52,26.52,0,0,0-4.08,5.11,71.73,71.73,0,0,0-3.87,6.77,55.63,55.63,0,0,0-2.84,6.71,11.26,11.26,0,0,0-.8,5.1c.19,1.75.63,2.75,1.31,3a2.4,2.4,0,0,0,2.26-.51,14.26,14.26,0,0,0,2.55-2.4Z"/></g></g></svg>