<svg xmlns="http://www.w3.org/2000/svg" viewBox="0 0 594.1 111.06"><defs><style>.cls-1{fill:#fff;}</style></defs><g id="Capa_2" data-name="Capa 2"><g id="Capa_1-2" data-name="Capa 1"><path class="cls-1" d="M66.15,24.6c.88.2,1.26.59,1.17,1.17a3.54,3.54,0,0,1-1.82,1.89c-1,.59-1.78.78-2.26.59h-.15a2.31,2.31,0,0,1-1-.3,4.68,4.68,0,0,1-1.17-.14c-1.84-.29-3.72-.51-5.61-.66s-4-.24-6.34-.29-4.94-.07-7.8-.07-6.2.05-10,.15c-1.07,1.94-2,3.79-2.84,5.53S26.71,36,26,37.72,24.5,41.22,23.73,43a50.94,50.94,0,0,1-2.92,5.54q3.06-.59,7.07-1.09a21.56,21.56,0,0,1,7.36.22,1.05,1.05,0,0,1,.51,1.16c0,.59-.27.93-.65,1a6.75,6.75,0,0,1-2.7.37,18.73,18.73,0,0,0-2.84.07l-5.11.29a41.84,41.84,0,0,0-5.1.59A27.93,27.93,0,0,0,17,55.73q-1.53,3.42-3.07,7.94t-2.69,9.55a48.22,48.22,0,0,0-1.31,9.33,21.1,21.1,0,0,0,.87,7.37,4.78,4.78,0,0,0,4.08,3.5,13.91,13.91,0,0,0,9.92-2.12,44.53,44.53,0,0,0,9.18-7.73,111.91,111.91,0,0,0,8.17-9.91Q45.88,68.48,49,65a53.47,53.47,0,0,0,4.15-6,44.53,44.53,0,0,1,4-5.69,2.49,2.49,0,0,1,.73-.36A3.23,3.23,0,0,1,59,52.74a3.17,3.17,0,0,1,1,.15.4.4,0,0,1,.29.58,17.61,17.61,0,0,1-3.65,7.8Q53.76,65,51,67.9,48.8,70.39,45.89,74t-6.35,7.5Q36.12,85.4,32.4,89a47.23,47.23,0,0,1-7.73,6.2,26.31,26.31,0,0,1-8,3.5,13,13,0,0,1-7.8-.51,12.19,12.19,0,0,1-6.56-4.89A15.51,15.51,0,0,1,0,85.83a31.91,31.91,0,0,1,1-9,87.42,87.42,0,0,1,2.85-9.41q1.67-4.59,3.42-8.6T10.17,52c-.78.2-1.49.34-2.12.44a5.91,5.91,0,0,0-2.11.87,1.19,1.19,0,0,1-1.46-.14c-.48-.39-.68-.63-.58-.73a8.33,8.33,0,0,1,3.72-2.19c1.4-.39,2.84-.73,4.3-1,1.16-1.94,2.21-3.84,3.13-5.69s1.8-3.64,2.63-5.39,1.67-3.55,2.55-5.39a64.15,64.15,0,0,1,3.06-5.69c-2.33.1-4.67.24-7,.44s-4.67.43-7,.73c-.58,0-.95-.44-1.09-1.31s.27-1.41,1.24-1.61l7.87-.87c2.62-.3,5.25-.54,7.87-.73a16.82,16.82,0,0,0,1-1.75l.88-1.75c.09-.2.58-.34,1.46-.44a26.86,26.86,0,0,1,2.77-.14,12.61,12.61,0,0,1,2.48.21c.67.15,1,.37.87.66q-.44.74-.87,1.53a13,13,0,0,0-.73,1.53q3.19-.28,7.43-.44c2.82-.09,5.76-.12,8.82-.07s6,.2,9,.44A66.2,66.2,0,0,1,66.15,24.6Z"/><path class="cls-1" d="M97.79,52.16c.19,0,.56,0,1.09.07s.71.32.51.8a39.54,39.54,0,0,1-3.06,4.89c-1.17,1.6-2.28,3.18-3.35,4.73q-3.36,4.68-6.56,9.41t-6.71,9.26a11.55,11.55,0,0,1-4.23,3.49,5.83,5.83,0,0,1-5.39,0,3.66,3.66,0,0,1-2-2.47,8.93,8.93,0,0,1-.07-3.43,16.54,16.54,0,0,1,1-3.64c.48-1.22.87-2.21,1.16-3,1.07-2.63,2.26-5.2,3.58-7.73l4-7.73,3.07-7c.19-.48.43-1.19.73-2.11a2.2,2.2,0,0,0-.15-2.11q-.15-.3,0-.3h-.58a3.06,3.06,0,0,0-1.83.73,15,15,0,0,0-1.82,1.68c-.58.63-1.14,1.26-1.67,1.9s-1,1.14-1.24,1.53a101.23,101.23,0,0,0-7.44,10.35q-3.36,5.38-6.34,10.93c-2,3.7-3.87,7.49-5.61,11.37-.1.3-.59.51-1.46.66a16,16,0,0,1-2.7.22,13.53,13.53,0,0,1-2.55-.22c-.78-.15-1.12-.36-1-.66q1.61-7.87,3.93-15.6A126.06,126.06,0,0,1,56.82,53c.1-.19.51-.34,1.24-.44a19.69,19.69,0,0,1,2.41-.14,17.9,17.9,0,0,1,2.33.14c.68.1,1,.3.87.59A163.35,163.35,0,0,0,58,70.53c1.16-2.24,2.43-4.4,3.79-6.49S64.55,59.93,66,58c.77-1.17,1.65-2.46,2.62-3.87s2-2.76,3.13-4.08a28.6,28.6,0,0,1,3.65-3.57,13.25,13.25,0,0,1,4.15-2.33q5.68-1.76,7.22.51c1,1.51,1.21,3.74.58,6.71a50.81,50.81,0,0,1-3.42,10c-1.66,3.7-3.28,7.17-4.89,10.43s-2.89,5.93-3.86,8-1.07,3-.29,2.7a2.49,2.49,0,0,0,1-1,6.58,6.58,0,0,1,.87-1.17q1.45-2,2.85-4t2.84-4q2.91-4.08,5.69-8.09T93.85,56c.49-.78,1-1.61,1.61-2.48A2.66,2.66,0,0,1,97.79,52.16Z"/><path class="cls-1" d="M124.76,53.61c.09-.29.36-.48.8-.58a6.48,6.48,0,0,1,1.31-.14,1.92,1.92,0,0,1,1.1.29.6.6,0,0,1,.29.73q-2,3.5-4,7.07t-4,6.92q-1.32,2.19-3.79,6.13a56.1,56.1,0,0,1-5.69,7.5,29.86,29.86,0,0,1-6.85,5.76,7.58,7.58,0,0,1-7.14.73q-4.67-1.89-5.47-7.94a45,45,0,0,1,.8-14.29A132.4,132.4,0,0,1,97,48.07q3.28-9.47,6.93-18.29t6.78-16q3.14-7.22,4.45-11c.09-.19.58-.29,1.45-.29a19.62,19.62,0,0,1,2.85.22c1,.15,1.94.32,2.77.51s1.19.39,1.09.58Q122,7,119.58,12.14T114.33,23.8q-2.83,6.49-5.83,13.85t-5.25,14.94a137.05,137.05,0,0,0-3.57,15,57.71,57.71,0,0,0-.87,13.85c.09,1.85.63,2.77,1.6,2.77a5.81,5.81,0,0,0,3.43-1.6,36.12,36.12,0,0,0,4.3-4.3q2.33-2.7,4.37-5.4t3.5-4.81l1.75-2.55,3.5-5.83C122.43,57.79,123.59,55.75,124.76,53.61Z"/><path class="cls-1" d="M164,52.74a.94.94,0,0,1,.8-.58,4.13,4.13,0,0,1,1.31-.08,2.35,2.35,0,0,1,1.09.37.59.59,0,0,1,.3.73q-2.19,4.95-4.74,9.55A74.13,74.13,0,0,1,157,71.55q-3.36,4.36-7,8.31c-1.26,1.36-2.62,2.69-4.08,4A19.39,19.39,0,0,1,141.23,87a6.65,6.65,0,0,1-4.08.44,5.5,5.5,0,0,1-3.35-2.19,8.85,8.85,0,0,1-1.46-5.39,25.25,25.25,0,0,1,.87-5.54v-.59a30.44,30.44,0,0,1-2.91,3.36,20.31,20.31,0,0,1-3.43,2.77,12.73,12.73,0,0,1-3.79,1.67,7.92,7.92,0,0,1-4.15-.07,4.52,4.52,0,0,1-3.72-3.35,13.7,13.7,0,0,1-.07-5.83A31.12,31.12,0,0,1,117,65.93q1.32-3.12,2.19-4.88a73.54,73.54,0,0,1,7.29-10.64,19.26,19.26,0,0,1,3.57-3.06,6.42,6.42,0,0,1,4.74-.88A7,7,0,0,1,139.19,49a8.82,8.82,0,0,1,1.75,4.52c.58-1.75,1.22-3.48,1.9-5.18a24.74,24.74,0,0,1,2.62-4.88c.1-.19.58-.31,1.46-.37s1.8,0,2.77,0a16.66,16.66,0,0,1,2.48.3c.68.14,1,.36.87.65a30.59,30.59,0,0,1-1.75,3.94q-1.74,3.65-4,8.82t-4.52,10.93q-2.25,5.76-3.57,10.14a18.52,18.52,0,0,0-1.09,6.48q.21,2.11,3-.07c.77-.68,1.58-1.36,2.4-2s1.63-1.36,2.41-2c1.55-1.55,3-3.16,4.44-4.81a55.67,55.67,0,0,0,3.87-5.1,84.51,84.51,0,0,0,5.32-8.46Q161.93,57.4,164,52.74Zm-34.7,21.58a90.6,90.6,0,0,0,6.85-9.19,32.46,32.46,0,0,0,1.6-4.08,23.51,23.51,0,0,0,.37-3.28,14.88,14.88,0,0,0-.22-3.28c-.29-2-.93-3.08-1.9-3.13s-2.11.53-3.42,1.74a26.52,26.52,0,0,0-4.08,5.11A70.65,70.65,0,0,0,124.61,65a55.52,55.52,0,0,0-2.84,6.7,11.28,11.28,0,0,0-.8,5.11c.19,1.74.63,2.74,1.31,3a2.4,2.4,0,0,0,2.26-.51,14.26,14.26,0,0,0,2.55-2.4Z"/><path class="cls-1" d="M196.2,52.59a1.58,1.58,0,0,1,.73-.22,11.83,11.83,0,0,1,1.23-.07,1.93,1.93,0,0,1,1,.22.5.5,0,0,1,.22.66,24.87,24.87,0,0,1-2.33,3.57c-.87,1.12-1.7,2.26-2.48,3.43-1.26,1.65-2.48,3.3-3.64,4.95s-2.39,3.31-3.65,5q-3.06,4.23-6.34,8.31a37.11,37.11,0,0,1-7.65,7.14,26.07,26.07,0,0,1-6.05,3.21,12.67,12.67,0,0,1-6.78.73,9.8,9.8,0,0,1-5.4-2.62,8.71,8.71,0,0,1-2.18-4.6,15.49,15.49,0,0,1,.21-5.76,47.26,47.26,0,0,1,1.75-6c.73-2,1.49-3.84,2.26-5.54s1.46-3.13,2-4.3c1.08-2.23,2.31-4.71,3.72-7.43a16.66,16.66,0,0,1,5.32-6.27,7.36,7.36,0,0,1,2.85-.88,23.71,23.71,0,0,1,4.08-.22,15.43,15.43,0,0,1,4,.66,4.91,4.91,0,0,1,2.62,1.6,4.06,4.06,0,0,1,.88,2.92,9.88,9.88,0,0,1-.88,3.21,14.32,14.32,0,0,1-1.82,3,16.85,16.85,0,0,1-2.11,2.26,1.59,1.59,0,0,1-1.17.22c-.58-.05-.73-.27-.44-.66a12.8,12.8,0,0,0,3.06-7.15,5.46,5.46,0,0,0-.21-2.33,1.93,1.93,0,0,0-1.83-1.31,2.27,2.27,0,0,0-1.89,1,18,18,0,0,1-1.46,1.67A45.51,45.51,0,0,0,170,57.33c-1.12,2.29-2.22,4.55-3.28,6.78-1,2-1.85,4.08-2.63,6.13a63.23,63.23,0,0,0-2,6.41,25.36,25.36,0,0,0-.87,3.86,13.47,13.47,0,0,0,0,4c.09,1.36.43,2.19,1,2.48a3.66,3.66,0,0,0,2.77-.29,20.39,20.39,0,0,0,8.09-5,65.74,65.74,0,0,0,6.34-7.14c1.65-2.14,3.26-4.25,4.81-6.34s3.11-4.16,4.67-6.2c1.06-1.65,2.21-3.3,3.42-5A39.91,39.91,0,0,1,196.2,52.59Z"/><path class="cls-1" d="M222.44,52.74c.09-.29.38-.49.87-.58a4.74,4.74,0,0,1,1.39-.08,2.39,2.39,0,0,1,1.09.37.59.59,0,0,1,.29.73,73.54,73.54,0,0,1-7.22,11.59q-4.16,5.46-8.38,10.71-1.6,2.19-3.35,4.45a45.35,45.35,0,0,1-3.79,4.3,16.05,16.05,0,0,1-3.87,3.06,5.08,5.08,0,0,1-4.88.15,11.57,11.57,0,0,1-6.2-5.91A18,18,0,0,1,187,73.15a29.16,29.16,0,0,1,2.33-9.4,50,50,0,0,1,5-9.12,40.87,40.87,0,0,1,6.34-7.28,18.83,18.83,0,0,1,6.63-4.09,4.82,4.82,0,0,1,3,.08,5.61,5.61,0,0,1,2.34,1.6A6.78,6.78,0,0,1,214,47.56a6.93,6.93,0,0,1,.15,3.14,36,36,0,0,1-2.48,6.56,27,27,0,0,1-4.16,6.34,11.71,11.71,0,0,1-5.17,3.57c-1.85.59-3.65,0-5.4-1.75a1.42,1.42,0,0,1-.14.59c-.2.87-.49,2.21-.88,4s-.73,3.64-1,5.54a30.29,30.29,0,0,0-.36,5.46c0,1.75.46,3,1.24,3.65a1.93,1.93,0,0,0,1.75.51,3.79,3.79,0,0,0,1.6-.88,13.49,13.49,0,0,0,1.46-1.53c.48-.58.87-1.07,1.16-1.45q3.36-3.79,6.27-7.73l5.83-7.87q2.19-3.21,4.45-6.35A61.78,61.78,0,0,0,222.44,52.74Zm-18.37-1a47,47,0,0,0-3.87,5.47,26.94,26.94,0,0,0-2.84,6.48,3.2,3.2,0,0,0,3.43.81,9.11,9.11,0,0,0,3.5-2.48,21.71,21.71,0,0,0,3.06-4.45,36.82,36.82,0,0,0,2.18-4.88,16.31,16.31,0,0,0,.95-3.87c.1-1.06-.14-1.6-.73-1.6A5.9,5.9,0,0,0,206.69,49C205.52,50.14,204.65,51,204.07,51.72Z"/><path class="cls-1" d="M230,45.3a1.83,1.83,0,0,0-.73-1.09,5.1,5.1,0,0,0-1.17-.36c-.58.78-.83,2.28-.73,4.52a64.07,64.07,0,0,0,.73,7.07q.58,3.72,1.31,6.92c.49,2.14.83,3.5,1,4.09Q231.77,65,234,62.87A60.21,60.21,0,0,1,239,58.72,53.57,53.57,0,0,1,244.6,55,20.3,20.3,0,0,1,250,52.74a1.33,1.33,0,0,1,1.46.29c.39.39.19.73-.58,1a21.09,21.09,0,0,0-4.45,2.33c-1.61,1.07-3.23,2.29-4.89,3.65s-3.33,2.84-5,4.45l-4.88,4.59a13.5,13.5,0,0,1,.73,6.49,16.3,16.3,0,0,1-2,6,18.21,18.21,0,0,1-3.86,4.74,12.66,12.66,0,0,1-5.1,2.77,11.94,11.94,0,0,1-4.16.44,5.87,5.87,0,0,1-3.43-1.24,3.7,3.7,0,0,1-1.24-3.13c0-1.36.86-3.11,2.41-5.25a52.5,52.5,0,0,1,4.45-5c1.6-1.61,3.23-3.18,4.88-4.74a46.76,46.76,0,0,1-2.7-10.42,34.85,34.85,0,0,1-.14-8.9,13.53,13.53,0,0,1,2.26-6.27,6.9,6.9,0,0,1,4.81-2.84,3,3,0,0,1,2.62,1,3.07,3.07,0,0,1,.66,2,1.89,1.89,0,0,1-.66,1.46C230.79,46.47,230.4,46.18,230,45.3ZM216.75,85.11c.1.68.71.72,1.82.14a14.41,14.41,0,0,0,3.5-2.7,17,17,0,0,0,3.06-4.15,6,6,0,0,0,.8-4.23l-.43-1.31-4,4a24.35,24.35,0,0,0-3.43,4.3q-.44.73-1,1.89A2.69,2.69,0,0,0,216.75,85.11Z"/><path class="cls-1" d="M320.12,52.74a1,1,0,0,1,.72-.44,3.3,3.3,0,0,1,1.17-.07,3.05,3.05,0,0,1,1,.29.5.5,0,0,1,.29.66,79.85,79.85,0,0,1-6.12,12.46q-3.65,6.06-7.44,11.74-1.61,2.48-3.28,4.74a16.72,16.72,0,0,1-4,3.86,13.21,13.21,0,0,1-6.26,2.33,6.47,6.47,0,0,1-6-2.18,8.79,8.79,0,0,1-2-6.56,59.27,59.27,0,0,1,.8-7.29,38.52,38.52,0,0,1-3.79,4.59q-2,2.11-4.08,4.15c-1.27,1.07-2.55,2.12-3.86,3.14a6.15,6.15,0,0,1-4.6,1.24c-1.75-.2-3-1.48-3.86-3.87a23.07,23.07,0,0,1-1-8.6,50.46,50.46,0,0,1,1.75-10.79,40.68,40.68,0,0,1,4.3-10.42,22.2,22.2,0,0,1,6.85-7.36,12.87,12.87,0,0,1,9.48-1.83,7.16,7.16,0,0,1,3.86,1.61,9,9,0,0,1,2.41,3.35q1.89-6.12,3.79-11.66t4-11.23c1.4-3.79,2.94-7.65,4.59-11.59s3.59-8.19,5.83-12.76A2.93,2.93,0,0,1,315.89,0a17,17,0,0,1,2.26,0c.82,0,1.55.12,2.18.21s.9.25.81.44q-7.15,16.49-13.2,33.9T297.37,70.67q-.87,3.64-1.38,6.86a23.67,23.67,0,0,0-.37,5.24,3.78,3.78,0,0,0,.95,2.7c.53.44,1.38.12,2.55-1a16.05,16.05,0,0,0,2.12-1.89,14.74,14.74,0,0,0,1.67-2.19q1.6-2,3.14-4.3t3.13-4.59q2.91-4.51,5.91-9.11A56.8,56.8,0,0,0,320.12,52.74ZM280.9,76.36a72.55,72.55,0,0,0,4.81-5.91,52.78,52.78,0,0,0,4.88-7.94,30.63,30.63,0,0,0,2.85-8.39A9.2,9.2,0,0,0,292,46.91c-.78-1.07-1.75-1.17-2.92-.29a17.55,17.55,0,0,0-3.79,4.44,63.83,63.83,0,0,0-4.08,7.44q-2,4.3-3.65,8.6a81.5,81.5,0,0,0-2.55,8,16.15,16.15,0,0,0-.73,5.39c.15,1.17.73,1.51,1.75,1S278.66,79.27,280.9,76.36Z"/><path class="cls-1" d="M346.8,52.74c.09-.29.38-.49.87-.58a4.74,4.74,0,0,1,1.39-.08,2.39,2.39,0,0,1,1.09.37.59.59,0,0,1,.29.73,73.54,73.54,0,0,1-7.22,11.59q-4.16,5.46-8.38,10.71-1.6,2.19-3.35,4.45a45.35,45.35,0,0,1-3.79,4.3,16.05,16.05,0,0,1-3.87,3.06,5.08,5.08,0,0,1-4.88.15,11.57,11.57,0,0,1-6.2-5.91,17.87,17.87,0,0,1-1.38-8.38,29.16,29.16,0,0,1,2.33-9.4,49.45,49.45,0,0,1,5-9.12A40.48,40.48,0,0,1,325,47.35a18.75,18.75,0,0,1,6.63-4.09,4.82,4.82,0,0,1,3,.08,5.57,5.57,0,0,1,2.33,1.6,6.67,6.67,0,0,1,1.39,2.62,6.93,6.93,0,0,1,.15,3.14A36,36,0,0,1,336,57.26a27,27,0,0,1-4.16,6.34,11.71,11.71,0,0,1-5.17,3.57c-1.85.59-3.65,0-5.4-1.75a1.42,1.42,0,0,1-.14.59c-.2.87-.49,2.21-.88,4s-.73,3.64-1,5.54a30.29,30.29,0,0,0-.36,5.46c.05,1.75.46,3,1.24,3.65a1.93,1.93,0,0,0,1.75.51,3.79,3.79,0,0,0,1.6-.88,14.43,14.43,0,0,0,1.46-1.53c.48-.58.87-1.07,1.16-1.45q3.36-3.79,6.27-7.73l5.83-7.87q2.19-3.21,4.45-6.35A61.78,61.78,0,0,0,346.8,52.74Zm-18.37-1a47,47,0,0,0-3.87,5.47,26.94,26.94,0,0,0-2.84,6.48,3.2,3.2,0,0,0,3.43.81A9,9,0,0,0,328.64,62a21.34,21.34,0,0,0,3.07-4.45,36.82,36.82,0,0,0,2.18-4.88,16.31,16.31,0,0,0,.95-3.87c.1-1.06-.15-1.6-.73-1.6A5.9,5.9,0,0,0,331.05,49C329.88,50.14,329,51,328.43,51.72Z"/><path class="cls-1" d="M410.07,18.77q4.95.59,7,3.57a13.46,13.46,0,0,1,2,7.73,41,41,0,0,1-1.61,10.64A121.16,121.16,0,0,1,413.42,53Q410.94,59.3,408,65.72t-5.47,12Q400,83.37,398.11,87.8a27.42,27.42,0,0,0-2.18,6.93,58,58,0,0,1,6.48-.51,14.49,14.49,0,0,1,6,1.09c.59.29.73.85.44,1.68s-.63,1.14-1,1a22.69,22.69,0,0,0-8.67-1.1A66.83,66.83,0,0,0,389.29,98a87.87,87.87,0,0,0-9,2.19,40.81,40.81,0,0,0-5.84,2.11c-.19.1-.51-.1-.94-.58s-.46-.93-.08-1.32a7.34,7.34,0,0,1,2.85-1.82c1.31-.53,2.72-1,4.22-1.46s3-.8,4.52-1.09l3.87-.73c-.1,0-.15-.14-.15-.44a73,73,0,0,1,3.06-11.81q2-5.82,4.6-11.66t5.17-11.59q2.63-5.76,5-11.59a67.4,67.4,0,0,0,4.23-13.85,24,24,0,0,1,.51-2.92,24.92,24.92,0,0,0,.51-3.28,14.94,14.94,0,0,0-.08-3.28,6.94,6.94,0,0,0-.94-2.77q-1.17-1.89-4-1.31a17.35,17.35,0,0,0-6.27,3,37.44,37.44,0,0,0-6.78,6.27,38.06,38.06,0,0,0-5.54,8.38,24.63,24.63,0,0,0-2.48,9.33,15,15,0,0,0,2.33,9c.1.2-.17.44-.8.73a10.92,10.92,0,0,1-2.26.73c-.87.2-1.7.34-2.48.44s-1.21.05-1.31-.15a14,14,0,0,1-1.82-7.94,27,27,0,0,1,2.11-9,41,41,0,0,1,5.18-9A44.28,44.28,0,0,1,393.81,25a33.47,33.47,0,0,1,8.09-5A14.83,14.83,0,0,1,410.07,18.77Z"/><path class="cls-1" d="M462.26,52.16c.19,0,.56,0,1.09.07s.71.32.51.8a39.54,39.54,0,0,1-3.06,4.89c-1.17,1.6-2.28,3.18-3.35,4.73q-3.36,4.68-6.56,9.41t-6.71,9.26A11.55,11.55,0,0,1,440,84.81a5.83,5.83,0,0,1-5.39,0,3.66,3.66,0,0,1-2-2.47,8.93,8.93,0,0,1-.07-3.43,16.54,16.54,0,0,1,1-3.64c.48-1.22.87-2.21,1.16-3,1.07-2.63,2.26-5.2,3.58-7.73s2.64-5.1,4-7.73l3.06-7c.19-.48.43-1.19.73-2.11a2.2,2.2,0,0,0-.15-2.11q-.15-.3,0-.3h-.58a3.09,3.09,0,0,0-1.83.73,15.75,15.75,0,0,0-1.82,1.68c-.58.63-1.14,1.26-1.67,1.9s-.95,1.14-1.24,1.53a101.23,101.23,0,0,0-7.44,10.35Q428,66.88,425,72.42T419.4,83.79c-.1.3-.59.51-1.46.66a16,16,0,0,1-2.7.22,13.53,13.53,0,0,1-2.55-.22c-.78-.15-1.12-.36-1-.66q1.6-7.87,3.94-15.6A124.33,124.33,0,0,1,421.29,53c.1-.19.51-.34,1.24-.44a19.69,19.69,0,0,1,2.41-.14,17.9,17.9,0,0,1,2.33.14c.68.1,1,.3.87.59a163.35,163.35,0,0,0-5.68,17.35c1.16-2.24,2.43-4.4,3.79-6.49S429,59.93,430.48,58c.77-1.17,1.65-2.46,2.62-3.87s2-2.76,3.14-4.08a27.88,27.88,0,0,1,3.64-3.57A13.18,13.18,0,0,1,444,44.14q5.68-1.76,7.21.51c1,1.51,1.22,3.74.58,6.71a50.81,50.81,0,0,1-3.42,10c-1.66,3.7-3.28,7.17-4.89,10.43s-2.89,5.93-3.86,8-1.07,3-.29,2.7a2.49,2.49,0,0,0,1-1,6.14,6.14,0,0,1,.88-1.17c1-1.35,1.91-2.69,2.84-4s1.87-2.64,2.84-4q2.91-4.08,5.69-8.09T458.32,56c.49-.78,1-1.61,1.61-2.48A2.66,2.66,0,0,1,462.26,52.16Z"/><path class="cls-1" d="M494.77,36.85q-5.1,0-10.28-.29t-10.42-.73L467.65,54.2q-3.06,8.74-5.76,17.57t-4.81,18.15a201,201,0,0,0-3.42,20c0,.39-.39.68-1.17.88a10.76,10.76,0,0,1-2.55.29,14.42,14.42,0,0,1-2.55-.22q-1.17-.23-1.32-.66a38.23,38.23,0,0,1,0-11.52,105.56,105.56,0,0,1,2.7-13.12q1.83-6.71,4.23-13.19c1.6-4.32,3.13-8.29,4.59-11.88q2.34-6.13,4.52-12.32t4.38-12.32c-3.5-.2-7-.32-10.57-.37s-7.12-.07-10.72-.07q-.29,0-.36-.66c0-.43,0-.65.07-.65q5.54,0,11.22-.29c3.79-.2,7.54-.24,11.23-.15q2-5.84,4.3-11.59t5-11.3c.1-.19.46-.34,1.09-.44a15.18,15.18,0,0,1,2.12-.14,8.22,8.22,0,0,1,2,.22c.58.14.82.31.73.51q-2,5.69-4,11.44T474.8,33.79c1.65.09,3.66.14,6.05.14s4.66,0,6.85.15,4.06.19,5.61.29,2.33.29,2.33.58a5.33,5.33,0,0,1-.29,1C495.16,36.56,495,36.85,494.77,36.85Z"/><path class="cls-1" d="M506.14,52.74c.1-.29.39-.49.88-.58a4.66,4.66,0,0,1,1.38-.08,2.35,2.35,0,0,1,1.09.37.59.59,0,0,1,.3.73,74.28,74.28,0,0,1-7.22,11.59q-4.15,5.46-8.38,10.71c-1.08,1.46-2.19,2.94-3.36,4.45a44,44,0,0,1-3.79,4.3,16.19,16.19,0,0,1-3.86,3.06,5.1,5.1,0,0,1-4.89.15,11.55,11.55,0,0,1-6.19-5.91,17.88,17.88,0,0,1-1.39-8.38,29.45,29.45,0,0,1,2.34-9.4A50,50,0,0,1,478,54.63a41.28,41.28,0,0,1,6.34-7.28A18.87,18.87,0,0,1,491,43.26a4.82,4.82,0,0,1,3,.08,5.57,5.57,0,0,1,2.33,1.6,7,7,0,0,1,1.53,5.76,35.32,35.32,0,0,1-2.48,6.56,27,27,0,0,1-4.15,6.34A11.74,11.74,0,0,1,486,67.17c-1.85.59-3.64,0-5.39-1.75a1.29,1.29,0,0,1-.15.59c-.19.87-.49,2.21-.87,4s-.73,3.64-1,5.54a29.43,29.43,0,0,0-.37,5.46c0,1.75.46,3,1.24,3.65a1.94,1.94,0,0,0,1.75.51,3.73,3.73,0,0,0,1.6-.88,13.49,13.49,0,0,0,1.46-1.53c.49-.58.88-1.07,1.17-1.45q3.35-3.79,6.27-7.73t5.83-7.87q2.19-3.21,4.45-6.35A61.71,61.71,0,0,0,506.14,52.74Zm-18.37-1a46.93,46.93,0,0,0-3.86,5.47,26.58,26.58,0,0,0-2.85,6.48,3.2,3.2,0,0,0,3.43.81A9.11,9.11,0,0,0,488,62a21,21,0,0,0,3.06-4.45,38.33,38.33,0,0,0,2.19-4.88,16.82,16.82,0,0,0,.95-3.87c.09-1.06-.15-1.6-.73-1.6A5.88,5.88,0,0,0,490.39,49C489.23,50.14,488.35,51,487.77,51.72Z"/><path class="cls-1" d="M538.51,53c.19-.39.55-.22,1.09.51a2.19,2.19,0,0,1,.51,2,30.84,30.84,0,0,1-3.28,5.54,104.87,104.87,0,0,1-6.56,8.46A117.4,117.4,0,0,1,522,78.25a43.75,43.75,0,0,1-8.46,6.49q-4,2.27-7.07,1.53t-4.08-6.12c-.19-1.07.27-2.79,1.38-5.18s2.31-4.88,3.58-7.51a58.49,58.49,0,0,0,3-7.28c.73-2.24.61-3.74-.36-4.52a29.68,29.68,0,0,1-2.41-2,14.26,14.26,0,0,1-2.11-2.47,9.09,9.09,0,0,1-1.24-2.7,4,4,0,0,1,.22-2.7,25.15,25.15,0,0,1,2.55-4.66,15.87,15.87,0,0,1,3.65-3.94,5.81,5.81,0,0,1,4.3-1.17q2.33.3,4.52,3.5a4.06,4.06,0,0,1-.15,4.3,19.67,19.67,0,0,1-2.48,3.72,22.43,22.43,0,0,1-3.93,4.23c-.78.49-1.12.68-1,.58a2.8,2.8,0,0,1,1.31-.07c.77.05,1.84.8,3.2,2.26a7.21,7.21,0,0,1,1.83,5.61,28.79,28.79,0,0,1-1.46,7.15,63.79,63.79,0,0,1-3,7.36q-1.76,3.65-2.92,6.27,2.77-.43,6.42-3.57A95.13,95.13,0,0,0,524.73,70q3.85-4.15,7.51-8.82C534.66,58.09,536.76,55.36,538.51,53ZM516.34,40.35q-.87-.43-2,.87A20.85,20.85,0,0,0,512,44.36a28.8,28.8,0,0,0-1.89,3.71,8.23,8.23,0,0,0-.8,2.63,14.48,14.48,0,0,0,4.22-3,9.41,9.41,0,0,0,2.77-5.18,3.33,3.33,0,0,0,.22-1.09A1.33,1.33,0,0,0,516.34,40.35Z"/><path class="cls-1" d="M564.89,52.74c.1-.29.39-.49.88-.58a4.67,4.67,0,0,1,1.38-.08,2.43,2.43,0,0,1,1.1.37.6.6,0,0,1,.29.73,73.54,73.54,0,0,1-7.22,11.59q-4.16,5.46-8.38,10.71-1.61,2.19-3.36,4.45a44,44,0,0,1-3.79,4.3,16,16,0,0,1-3.86,3.06,5.08,5.08,0,0,1-4.88.15,11.57,11.57,0,0,1-6.2-5.91,17.75,17.75,0,0,1-1.38-8.38,29.16,29.16,0,0,1,2.33-9.4,50,50,0,0,1,5-9.12,40.91,40.91,0,0,1,6.35-7.28,18.75,18.75,0,0,1,6.63-4.09,4.82,4.82,0,0,1,3,.08,5.57,5.57,0,0,1,2.33,1.6,6.95,6.95,0,0,1,1.53,5.76,34.62,34.62,0,0,1-2.48,6.56A27,27,0,0,1,550,63.6a11.69,11.69,0,0,1-5.18,3.57c-1.84.59-3.64,0-5.39-1.75a1.29,1.29,0,0,1-.15.59l-.87,4c-.39,1.8-.73,3.64-1,5.54A31.26,31.26,0,0,0,537,81a4.92,4.92,0,0,0,1.24,3.65,1.94,1.94,0,0,0,1.75.51,3.77,3.77,0,0,0,1.61-.88A13.46,13.46,0,0,0,543,82.77c.49-.58.88-1.07,1.17-1.45q3.34-3.79,6.27-7.73t5.83-7.87q2.19-3.21,4.45-6.35A61.71,61.71,0,0,0,564.89,52.74Zm-18.37-1a46.93,46.93,0,0,0-3.86,5.47,26.56,26.56,0,0,0-2.84,6.48,3.19,3.19,0,0,0,3.42.81,9,9,0,0,0,3.5-2.48,21,21,0,0,0,3.06-4.45A37,37,0,0,0,552,52.67a16.82,16.82,0,0,0,1-3.87c.09-1.06-.15-1.6-.73-1.6A5.82,5.82,0,0,0,549.15,49C548,50.14,547.11,51,546.52,51.72Z"/><path class="cls-1" d="M572.47,45.3a1.75,1.75,0,0,0-.73-1.09,5.16,5.16,0,0,0-1.16-.36c-.59.78-.83,2.28-.73,4.52a61.74,61.74,0,0,0,.73,7.07q.57,3.72,1.31,6.92c.48,2.14.82,3.5,1,4.09.88-1,2.06-2.17,3.57-3.58a62.13,62.13,0,0,1,5-4.15A54.5,54.5,0,0,1,587.05,55a20.35,20.35,0,0,1,5.4-2.26,1.31,1.31,0,0,1,1.45.29c.39.39.2.73-.58,1a21.58,21.58,0,0,0-4.45,2.33Q586.47,58,584,60t-5,4.45l-4.88,4.59a13.62,13.62,0,0,1,.73,6.49,16.49,16.49,0,0,1-2,6A18,18,0,0,1,569,86.27a12.53,12.53,0,0,1-5.1,2.77,11.88,11.88,0,0,1-4.15.44,5.84,5.84,0,0,1-3.43-1.24,3.67,3.67,0,0,1-1.24-3.13q.08-2,2.41-5.25a53.79,53.79,0,0,1,4.44-5c1.61-1.61,3.23-3.18,4.89-4.74a46.22,46.22,0,0,1-2.7-10.42,34.44,34.44,0,0,1-.15-8.9,13.75,13.75,0,0,1,2.26-6.27A6.92,6.92,0,0,1,571,41.66a3,3,0,0,1,2.62,1,3.18,3.18,0,0,1,.66,2,1.89,1.89,0,0,1-.66,1.46C573.25,46.47,572.86,46.18,572.47,45.3ZM559.21,85.11c.09.68.7.72,1.82.14a14.61,14.61,0,0,0,3.5-2.7,17.55,17.55,0,0,0,3.06-4.15,6.1,6.1,0,0,0,.8-4.23L568,72.86l-4,4a24.3,24.3,0,0,0-3.42,4.3q-.43.73-1,1.89A2.64,2.64,0,0,0,559.21,85.11Z"/></g></g></svg>