<svg xmlns="http://www.w3.org/2000/svg" viewBox="0 0 265.89 114.56"><defs><style>.cls-1{fill:#fff;}</style></defs><g id="Capa_2" data-name="Capa 2"><g id="Capa_1-2" data-name="Capa 1"><path class="cls-1" d="M71.52,50.88c.19-.29.66-.44,1.39-.44s1,.25.8.73a47.53,47.53,0,0,1-4.52,8.24,36.29,36.29,0,0,1-5,5.69,44.87,44.87,0,0,1-5.61,4.37c-2,1.31-4.16,2.7-6.49,4.16a67,67,0,0,1-3.06,10.2,91.45,91.45,0,0,1-5.32,11.59,71,71,0,0,1-7.07,10.64,34.65,34.65,0,0,1-8,7.51,9.18,9.18,0,0,1-2.12.59,23.19,23.19,0,0,1-3.2.36q-1.68.08-3.21,0A4,4,0,0,1,18,114a2.3,2.3,0,0,1-1.32-2.11,12.62,12.62,0,0,1,.29-2.7A25.22,25.22,0,0,1,19.84,101a55.27,55.27,0,0,1,4.74-7.14q4.22-5.53,8.89-10.72a51.57,51.57,0,0,1,10.64-9Q45.72,70,47,65.53c.87-3,1.75-5.85,2.62-8.67Q46.44,60.94,43,64.8T36,72.46c-1.27,1.36-2.6,2.82-4,4.37a41.63,41.63,0,0,1-4.52,4.3,33.13,33.13,0,0,1-5,3.43,16.33,16.33,0,0,1-5.54,1.89q-5.84.89-9.4-.65a10.7,10.7,0,0,1-5.33-4.67,17.54,17.54,0,0,1-2-7.36,36.77,36.77,0,0,1,.44-8.6,50,50,0,0,1,2.11-8.31A44.25,44.25,0,0,1,5.48,50.3a98.29,98.29,0,0,1,8.89-13.2A108,108,0,0,1,26,24.64,90.74,90.74,0,0,1,39.45,14.36,57.58,57.58,0,0,1,54.32,7.73a9.1,9.1,0,0,1,5.61,0,16,16,0,0,1,5.47,2.84,14.32,14.32,0,0,1,3.93,4.88,10.27,10.27,0,0,1,1,6.13,28.92,28.92,0,0,1-3.06,9.11,31.86,31.86,0,0,1-5.68,7.8A27.68,27.68,0,0,1,54,44.1a21.64,21.64,0,0,1-9.19,2.26c-.78.1-1.19,0-1.24-.44s.32-.63,1.1-.72a18.81,18.81,0,0,0,9.69-3.58,30.55,30.55,0,0,0,7.22-7.36,34.17,34.17,0,0,0,2.48-3.86A25.62,25.62,0,0,0,66,26a16.39,16.39,0,0,0,.8-4.59,10,10,0,0,0-.94-4.52c-.88-1.84-2-2.94-3.29-3.28a7.71,7.71,0,0,0-4.3.22A21,21,0,0,0,53.66,16c-1.51.93-2.84,1.73-4,2.41a83.3,83.3,0,0,0-7.58,5.39q-3.65,2.93-7.14,6.13A119.62,119.62,0,0,0,22.61,43.3a81.38,81.38,0,0,0-9.7,15.6,45.79,45.79,0,0,0-3.13,9.18,26.51,26.51,0,0,0-.37,9.77,10.14,10.14,0,0,0,1.75,4.6,4.81,4.81,0,0,0,4.23,2.11A7.94,7.94,0,0,0,20,83.1,35.72,35.72,0,0,0,23.85,80,166.22,166.22,0,0,0,38.06,65.53Q44.69,57.88,51,49.72a8.37,8.37,0,0,1,1.75-.66,19.53,19.53,0,0,1,3.21-.73,10,10,0,0,1,2.7-.07q1.1.14.36,1-1.17,5.25-2.55,10.42t-3,10.43A30,30,0,0,0,60,65.53a47.59,47.59,0,0,0,5.11-5.46c1.45-1.85,2.72-3.6,3.79-5.25S70.84,51.85,71.52,50.88Zm-45.34,55.4a78,78,0,0,0,9.33-13,110.52,110.52,0,0,0,6.85-14.36q-.44.3-.87.66c-.29.24-.59.51-.88.8A85.34,85.34,0,0,0,30.26,91.85q-2.48,3.34-4.88,6.78A28,28,0,0,0,21.66,106,14.07,14.07,0,0,0,21,108.4q-.21,1.23-.51,2.4a11.57,11.57,0,0,1-.21,1.24c-.06.15.21-.07.8-.65Q23.71,108.9,26.18,106.28Z"/><path class="cls-1" d="M110.74,50.3a.94.94,0,0,1,.8-.58,3.88,3.88,0,0,1,1.31-.08A2.43,2.43,0,0,1,114,50a.6.6,0,0,1,.29.73q-2.19,4.95-4.74,9.55a74.13,74.13,0,0,1-5.76,8.82q-3.36,4.36-7,8.31-1.89,2-4.08,4A19,19,0,0,1,88,84.56a6.65,6.65,0,0,1-4.08.44,5.5,5.5,0,0,1-3.35-2.19,8.85,8.85,0,0,1-1.46-5.39A25.25,25.25,0,0,1,80,71.88v-.59a31.64,31.64,0,0,1-2.92,3.36,20.31,20.31,0,0,1-3.43,2.77,13.14,13.14,0,0,1-3.79,1.67A8,8,0,0,1,65.69,79,4.53,4.53,0,0,1,62,75.67a13.75,13.75,0,0,1-.07-5.84,31,31,0,0,1,1.89-6.34q1.32-3.14,2.19-4.88A73.54,73.54,0,0,1,73.27,48a19.71,19.71,0,0,1,3.57-3.07A6.47,6.47,0,0,1,81.58,44,7,7,0,0,1,86,46.51,8.82,8.82,0,0,1,87.7,51q.89-2.62,1.9-5.18A24.74,24.74,0,0,1,92.22,41c.1-.2.59-.32,1.46-.37s1.8,0,2.77,0a16.79,16.79,0,0,1,2.48.29q1,.22.87.66a30.59,30.59,0,0,1-1.75,3.94q-1.74,3.65-4,8.82T89.53,65.24Q87.26,71,86,75.37a18.57,18.57,0,0,0-1.09,6.49c.15,1.41,1.14,1.39,3-.07q1.17-1,2.4-2c.83-.68,1.63-1.36,2.41-2,1.55-1.56,3-3.16,4.45-4.81A56.12,56.12,0,0,0,101,67.79a85.52,85.52,0,0,0,5.32-8.45Q108.71,55,110.74,50.3ZM76,71.88a90.21,90.21,0,0,0,6.85-9.19,32.62,32.62,0,0,0,1.61-4.08,25.12,25.12,0,0,0,.36-3.28,14.3,14.3,0,0,0-.22-3.28c-.29-2-.92-3.09-1.89-3.14s-2.12.54-3.43,1.75a26.9,26.9,0,0,0-4.08,5.11,71.73,71.73,0,0,0-3.87,6.77,55.63,55.63,0,0,0-2.84,6.71,11.4,11.4,0,0,0-.8,5.1c.2,1.75.63,2.75,1.31,3a2.4,2.4,0,0,0,2.26-.51,13.94,13.94,0,0,0,2.55-2.4Z"/><path class="cls-1" d="M139.6,51.17a1,1,0,0,1,.81-.58,5.79,5.79,0,0,1,1.31-.15,1.87,1.87,0,0,1,1.09.3.58.58,0,0,1,.29.72c-1.36,2.34-2.69,4.7-4,7.08s-2.64,4.69-4,6.92c-.88,1.46-2.14,3.5-3.8,6.12a54.66,54.66,0,0,1-5.68,7.51,30.07,30.07,0,0,1-6.85,5.76,7.59,7.59,0,0,1-7.15.73q-4.67-1.89-5.46-8a44.68,44.68,0,0,1,.8-14.28,130.92,130.92,0,0,1,4.88-17.72q3.28-9.47,6.93-18.29t6.78-16c2.08-4.81,3.57-8.48,4.44-11,.1-.19.59-.29,1.46-.29a19.49,19.49,0,0,1,2.84.22c1,.14,1.95.32,2.77.51s1.19.39,1.1.58q-1.32,3.21-3.72,8.39t-5.25,11.66q-2.84,6.48-5.83,13.85T118.1,50.15a132.61,132.61,0,0,0-3.57,15A57.21,57.21,0,0,0,113.65,79c.1,1.85.63,2.77,1.61,2.77a5.79,5.79,0,0,0,3.42-1.6,34.85,34.85,0,0,0,4.3-4.31q2.34-2.68,4.38-5.39c1.36-1.8,2.52-3.4,3.5-4.81l1.75-2.55q1.74-2.93,3.5-5.83C137.27,55.35,138.44,53.31,139.6,51.17Z"/><path class="cls-1" d="M166,50.3c.1-.29.39-.49.88-.58a4.36,4.36,0,0,1,1.38-.08,2.43,2.43,0,0,1,1.1.37.6.6,0,0,1,.29.73,73.54,73.54,0,0,1-7.22,11.59Q158.27,67.79,154,73q-1.6,2.19-3.36,4.45a44,44,0,0,1-3.79,4.3A16,16,0,0,1,143,84.85a5.1,5.1,0,0,1-4.88.15,11.57,11.57,0,0,1-6.2-5.91,17.75,17.75,0,0,1-1.38-8.38,29.16,29.16,0,0,1,2.33-9.4,49.45,49.45,0,0,1,5-9.12,40.55,40.55,0,0,1,6.34-7.29,18.71,18.71,0,0,1,6.63-4.08,4.9,4.9,0,0,1,3,.07,5.69,5.69,0,0,1,2.33,1.61,6.95,6.95,0,0,1,1.53,5.76,34.62,34.62,0,0,1-2.48,6.56,27,27,0,0,1-4.15,6.34,11.69,11.69,0,0,1-5.18,3.57c-1.84.59-3.64,0-5.39-1.75a1.29,1.29,0,0,1-.15.59l-.87,4c-.39,1.79-.73,3.64-1,5.53a31.44,31.44,0,0,0-.37,5.47,4.92,4.92,0,0,0,1.24,3.65,2,2,0,0,0,1.75.51,3.77,3.77,0,0,0,1.61-.88,14.35,14.35,0,0,0,1.45-1.53c.49-.58.88-1.07,1.17-1.46,2.24-2.52,4.32-5.1,6.27-7.72l5.83-7.88c1.46-2.13,2.94-4.25,4.45-6.34A61.71,61.71,0,0,0,166,50.3Zm-18.37-1a46.1,46.1,0,0,0-3.86,5.47,26.56,26.56,0,0,0-2.84,6.48,3.17,3.17,0,0,0,3.42.8,8.9,8.9,0,0,0,3.5-2.47,21,21,0,0,0,3.06-4.45,36.26,36.26,0,0,0,2.19-4.88,16.82,16.82,0,0,0,.95-3.87c.09-1.07-.15-1.6-.73-1.6a5.76,5.76,0,0,0-3.06,1.82C149.08,47.7,148.21,48.6,147.62,49.28Z"/><path class="cls-1" d="M198.36,50.59c.19-.39.56-.22,1.09.51a2.16,2.16,0,0,1,.51,2,31.2,31.2,0,0,1-3.28,5.54,101,101,0,0,1-6.56,8.45,117.52,117.52,0,0,1-8.31,8.75,43.85,43.85,0,0,1-8.46,6.49q-4,2.27-7.07,1.53t-4.08-6.12c-.19-1.07.27-2.79,1.39-5.18s2.3-4.88,3.57-7.51a59.68,59.68,0,0,0,3-7.29c.73-2.23.6-3.74-.37-4.52a26.13,26.13,0,0,1-2.4-2,14,14,0,0,1-2.12-2.48A9.18,9.18,0,0,1,164,46a4,4,0,0,1,.22-2.7,26.15,26.15,0,0,1,2.55-4.67,16,16,0,0,1,3.65-3.93,5.81,5.81,0,0,1,4.3-1.17c1.55.2,3.06,1.36,4.52,3.5a4,4,0,0,1-.15,4.3,20,20,0,0,1-2.48,3.72,21.77,21.77,0,0,1-3.93,4.23c-.78.48-1.12.68-1,.58s.53-.12,1.31-.07,1.85.8,3.21,2.26A7.17,7.17,0,0,1,178,57.66a28.18,28.18,0,0,1-1.46,7.14,61.51,61.51,0,0,1-3,7.37c-1.16,2.43-2.14,4.52-2.91,6.27,1.84-.3,4-1.48,6.41-3.58a94.91,94.91,0,0,0,7.51-7.28c2.57-2.78,5.08-5.71,7.51-8.83S196.61,52.92,198.36,50.59ZM176.2,37.91c-.59-.3-1.27,0-2,.87a20.85,20.85,0,0,0-2.26,3.14,28.88,28.88,0,0,0-1.9,3.71,8.51,8.51,0,0,0-.8,2.63,14.64,14.64,0,0,0,4.23-3,9.5,9.5,0,0,0,2.77-5.18,3.71,3.71,0,0,0,.22-1.09A1.41,1.41,0,0,0,176.2,37.91Z"/><path class="cls-1" d="M199.09,82.52c-2.82.29-4.84-.19-6.05-1.46a7.77,7.77,0,0,1-2-5,24.61,24.61,0,0,1,.66-7,59.39,59.39,0,0,1,2.26-7.58q1.4-3.72,2.62-6.7c.83-2,1.44-3.43,1.83-4.31.09-.19.53-.34,1.31-.43a14.35,14.35,0,0,1,2.48-.08c.87,0,1.67.13,2.4.22s1.1.29,1.1.59q-1.17,3.78-2.55,7.58T200.4,66a8.65,8.65,0,0,0-.66,1.75c-.34,1.07-.7,2.29-1.09,3.65a41.58,41.58,0,0,0-1,4.15,11,11,0,0,0-.14,3.5c.14.93.56,1.44,1.23,1.53s1.75-.48,3.21-1.75a35.29,35.29,0,0,0,5.76-6.34q2.55-3.57,5-7.29t4.88-7.58A72.43,72.43,0,0,1,223,50.3c.19-.29.72-.41,1.6-.37s1.17.32.87.81a67.83,67.83,0,0,1-5.83,9.33q-3.34,4.51-6.41,8.89c-.78,1.17-1.66,2.5-2.63,4a39.62,39.62,0,0,1-3.2,4.3,22.47,22.47,0,0,1-3.87,3.57A8.42,8.42,0,0,1,199.09,82.52Zm6.56-38a3.33,3.33,0,0,1-1.39,0c-.73-.1-1.14-.3-1.24-.59,0-.09.15-.68.44-1.75s.63-2.26,1-3.57.92-3.08,1.6-5.32c.1-.19.46-.19,1.1,0a14.07,14.07,0,0,1,2,.8,13.71,13.71,0,0,1,1.82,1.1c.53.39.75.72.65,1a19.63,19.63,0,0,1-2.47,4.3A27.67,27.67,0,0,1,205.65,44.47Z"/><path class="cls-1" d="M262.36,50.3a1,1,0,0,1,.8-.58,3.88,3.88,0,0,1,1.31-.08,2.39,2.39,0,0,1,1.1.37.6.6,0,0,1,.29.73q-2.19,4.95-4.74,9.55a74.13,74.13,0,0,1-5.76,8.82q-3.36,4.36-7,8.31-1.89,2-4.08,4a19.1,19.1,0,0,1-4.66,3.14,6.69,6.69,0,0,1-4.09.44,5.53,5.53,0,0,1-3.35-2.19,8.92,8.92,0,0,1-1.46-5.39,25.25,25.25,0,0,1,.88-5.54v-.59a31.64,31.64,0,0,1-2.92,3.36,20.65,20.65,0,0,1-3.42,2.77,13.38,13.38,0,0,1-3.79,1.67,8.06,8.06,0,0,1-4.16-.07,4.53,4.53,0,0,1-3.72-3.35,13.75,13.75,0,0,1-.07-5.84,31,31,0,0,1,1.89-6.34q1.32-3.14,2.19-4.88A73.54,73.54,0,0,1,224.89,48a19.71,19.71,0,0,1,3.57-3.07A6.48,6.48,0,0,1,233.2,44a7.07,7.07,0,0,1,4.38,2.48A8.81,8.81,0,0,1,239.32,51q.88-2.62,1.9-5.18A24.74,24.74,0,0,1,243.84,41c.1-.2.59-.32,1.46-.37s1.8,0,2.77,0a16.79,16.79,0,0,1,2.48.29c.68.15,1,.37.88.66a32.41,32.41,0,0,1-1.75,3.94q-1.76,3.65-4,8.82t-4.52,10.93q-2.27,5.76-3.57,10.13a18.64,18.64,0,0,0-1.1,6.49c.15,1.41,1.14,1.39,3-.07.78-.68,1.58-1.36,2.41-2s1.62-1.36,2.4-2q2.34-2.34,4.45-4.81a52.67,52.67,0,0,0,3.86-5.11,85.52,85.52,0,0,0,5.32-8.45Q260.32,55,262.36,50.3Zm-34.7,21.58a88.75,88.75,0,0,0,6.85-9.19,32.62,32.62,0,0,0,1.61-4.08,25.12,25.12,0,0,0,.36-3.28,14.3,14.3,0,0,0-.22-3.28c-.29-2-.92-3.09-1.89-3.14s-2.12.54-3.43,1.75a26.9,26.9,0,0,0-4.08,5.11A69.51,69.51,0,0,0,223,62.54a54.2,54.2,0,0,0-2.85,6.71,11.4,11.4,0,0,0-.8,5.1c.2,1.75.63,2.75,1.31,3a2.4,2.4,0,0,0,2.26-.51,13.94,13.94,0,0,0,2.55-2.4Z"/></g></g></svg>