<svg xmlns="http://www.w3.org/2000/svg" viewBox="0 0 363.79 111.41"><defs><style>.cls-1{fill:#fff;}</style></defs><g id="Capa_2" data-name="Capa 2"><g id="Capa_1-2" data-name="Capa 1"><path class="cls-1" d="M79.17,29.89a20.66,20.66,0,0,1-6,12.53,47.1,47.1,0,0,1-12,8.61A75.26,75.26,0,0,1,47,56.57q-7.44,2-13,3.06a17.5,17.5,0,0,1,5.32,4.08,15.84,15.84,0,0,1,2.92,5.18A33,33,0,0,1,43.59,75c.29,2.19.54,4.4.73,6.63q.15,2.19.66,5.25a52.41,52.41,0,0,0,1.38,6,21.38,21.38,0,0,0,2.41,5.4,8,8,0,0,0,3.72,3.28,6.3,6.3,0,0,0,4.81.36,11.83,11.83,0,0,0,3.93-2.4A22.38,22.38,0,0,0,64.37,96c.92-1.31,1.67-2.4,2.26-3.28.09-.09.48,0,1.16.3a17.14,17.14,0,0,1,2.12,1.09,9.83,9.83,0,0,1,1.82,1.38c.49.49.68.83.58,1a13.56,13.56,0,0,1-3.42,3.8,26.12,26.12,0,0,1-4.6,2.77,27.8,27.8,0,0,1-5.17,1.82,30.16,30.16,0,0,1-5,.8A17,17,0,0,1,46.36,104a14.78,14.78,0,0,1-5.83-5.39,29.14,29.14,0,0,1-4.15-11q-1-5.91-1.39-11.88-.43-4.08-1.17-8.39a12.25,12.25,0,0,0-3.93-7.21,8.06,8.06,0,0,1-3.43-.51,11.73,11.73,0,0,1-3-1.53,194.93,194.93,0,0,0-8,18.73Q12,86.32,8.16,96.37c-.09.29-.58.46-1.45.51a14.13,14.13,0,0,1-2.85-.15,12.48,12.48,0,0,1-2.69-.65C.39,95.79,0,95.49,0,95.2A50.37,50.37,0,0,1,3.79,82.88q2.77-6.19,5-12c.38-1,1.07-2.5,2-4.59s2-4.49,3.21-7.21,2.35-5.57,3.57-8.53a80.44,80.44,0,0,0,2.91-8.31,35.27,35.27,0,0,0,1.32-6.86c.14-2-.22-3.32-1.1-4A3.63,3.63,0,0,0,17,30.62a7.84,7.84,0,0,0-3.35,2.84,27.48,27.48,0,0,0-2.84,5.1,37.3,37.3,0,0,0-2,5.83,34.15,34.15,0,0,0-1,5.11c-.15,1.5,0,2.45.36,2.84.1.2-.17.39-.8.58a15.69,15.69,0,0,1-2.26.51,14.62,14.62,0,0,1-2.48.22c-.77,0-1.16-.14-1.16-.44A15.06,15.06,0,0,1,2,46.87a28.07,28.07,0,0,1,2.77-6.41A34.69,34.69,0,0,1,9,34.63a44,44,0,0,1,4.88-4.74A10.37,10.37,0,0,1,19,27.7a9.41,9.41,0,0,1,4.95.73,9.72,9.72,0,0,1,3.87,3.21,9.39,9.39,0,0,1,1.75,5.25,29.94,29.94,0,0,1-.73,7.58,82.36,82.36,0,0,1,7.29-9.55,58.31,58.31,0,0,1,9-8.24A63.05,63.05,0,0,1,50.88,23,48.58,48.58,0,0,1,57.3,20a31.24,31.24,0,0,1,6.78-1.82,21.41,21.41,0,0,1,6.78.07,8.17,8.17,0,0,1,3.06,1.46,13.36,13.36,0,0,1,4.74,6.49A9.55,9.55,0,0,1,79.17,29.89ZM30.91,57.3a23.15,23.15,0,0,0,4.66-1.1q2.34-.8,4.23-1.53c1.65-.58,3.65-1.38,6-2.4A77.8,77.8,0,0,0,53,48.62a83.12,83.12,0,0,0,7.36-4.74,42.57,42.57,0,0,0,6.41-5.61A22.38,22.38,0,0,0,71,31.93a12.93,12.93,0,0,0,1-6.85c-.39-3-1.77-4.64-4.15-4.89a17.89,17.89,0,0,0-8,1.31,45.23,45.23,0,0,0-8.53,4.31,62,62,0,0,0-5.83,4.08,66,66,0,0,0-11.37,12q-5,6.7-9.34,13.71h.44A13.48,13.48,0,0,1,30.91,57.3Z"/><path class="cls-1" d="M100.45,50.3c.09-.29.39-.49.87-.58a4.42,4.42,0,0,1,1.39-.08,2.35,2.35,0,0,1,1.09.37.59.59,0,0,1,.29.73,73.48,73.48,0,0,1-7.21,11.59Q92.73,67.79,88.49,73c-1.07,1.46-2.18,2.94-3.35,4.45a45.35,45.35,0,0,1-3.79,4.3,16.19,16.19,0,0,1-3.86,3.06A5.12,5.12,0,0,1,72.6,85a11.51,11.51,0,0,1-6.19-5.91A17.88,17.88,0,0,1,65,70.71a29.42,29.42,0,0,1,2.33-9.4,50.66,50.66,0,0,1,5-9.12,41,41,0,0,1,6.34-7.29,18.82,18.82,0,0,1,6.64-4.08,4.9,4.9,0,0,1,3,.07,5.76,5.76,0,0,1,2.33,1.61A6.78,6.78,0,0,1,92,45.12a6.93,6.93,0,0,1,.15,3.14,35.32,35.32,0,0,1-2.48,6.56,27.26,27.26,0,0,1-4.15,6.34,11.8,11.8,0,0,1-5.18,3.57c-1.85.59-3.65,0-5.39-1.75a1.29,1.29,0,0,1-.15.59c-.2.87-.49,2.21-.88,4s-.72,3.64-1,5.53a30.45,30.45,0,0,0-.36,5.47c0,1.75.46,3,1.24,3.65a2,2,0,0,0,1.75.51,3.79,3.79,0,0,0,1.6-.88,14.39,14.39,0,0,0,1.46-1.53c.49-.58.88-1.07,1.17-1.46Q83.1,75.09,86,71.15l5.83-7.88c1.46-2.13,2.94-4.25,4.44-6.34A61.78,61.78,0,0,0,100.45,50.3Zm-18.37-1a46.1,46.1,0,0,0-3.86,5.47,26.58,26.58,0,0,0-2.85,6.48,3.18,3.18,0,0,0,3.43.8,9,9,0,0,0,3.5-2.47,21.71,21.71,0,0,0,3.06-4.45,39,39,0,0,0,2.19-4.88,16.23,16.23,0,0,0,.94-3.87c.1-1.07-.14-1.6-.72-1.6a5.81,5.81,0,0,0-3.07,1.82C83.54,47.7,82.66,48.6,82.08,49.28Z"/><path class="cls-1" d="M126.84,60.36q-1.75,2.47-3.58,4.88a29.52,29.52,0,0,1-4.15,4.45,9.72,9.72,0,0,1-6.34,2.55A11.53,11.53,0,0,1,106,70.71q.44,8.31.29,16.77a47,47,0,0,1-3.21,16.32,17.73,17.73,0,0,1-2.69,4.52A7.61,7.61,0,0,1,95.93,111q-7,1.3-9.84-1.1a9.15,9.15,0,0,1-3.21-6.48,24.51,24.51,0,0,1,1-8.9c.93-3.2,1.82-6.07,2.7-8.6Q92.44,70.42,98,55t12.18-30.61c.09-.2.48-.34,1.16-.44a11.05,11.05,0,0,1,2.26-.07,20.2,20.2,0,0,1,2.12.22c.58.09.82.29.73.58q-2.34,7.88-5.11,15.74t-5.54,15.75c-.49,1.36-.92,2.67-1.31,3.94s-.83,2.52-1.31,3.79a3.21,3.21,0,0,1,1.53.07,1.21,1.21,0,0,1,1,.95,4.78,4.78,0,0,0,1,2.33,9.1,9.1,0,0,0,2.11,2,7.19,7.19,0,0,0,2.63,1.17A3.35,3.35,0,0,0,114,70a7.78,7.78,0,0,0,2.84-2.26c.82-1,1.63-2,2.41-2.84q2.76-3.36,5.24-7t4.67-7.58c.09-.2.36-.34.8-.44a5.55,5.55,0,0,1,1.24-.14,1.75,1.75,0,0,1,1,.29.59.59,0,0,1,.29.73,15.7,15.7,0,0,1-2.4,5.1ZM101.18,95.93a77.11,77.11,0,0,0,1-14.07q-.15-7.06-.44-14.07c-.87,2.53-1.75,5.06-2.62,7.58s-1.8,5.06-2.77,7.59q-1.61,4.67-3.5,9.54a32.35,32.35,0,0,0-2.19,9.85,9.48,9.48,0,0,0,.36,2.26,9.84,9.84,0,0,0,1,2.47,3.7,3.7,0,0,0,1.68,1.54c.68.29,1.46,0,2.33-.73a10.5,10.5,0,0,0,3.43-5.54Q100.45,98.84,101.18,95.93Z"/><path class="cls-1" d="M158,51.17c.09-.29.36-.48.8-.58a5.79,5.79,0,0,1,1.31-.15,1.87,1.87,0,0,1,1.09.3.58.58,0,0,1,.29.72q-2,3.51-4,7.08c-1.32,2.38-2.65,4.69-4,6.92q-1.32,2.19-3.79,6.12A55.56,55.56,0,0,1,144,79.09a29.86,29.86,0,0,1-6.85,5.76,7.59,7.59,0,0,1-7.15.73q-4.66-1.89-5.46-8a44.68,44.68,0,0,1,.8-14.28,132.4,132.4,0,0,1,4.88-17.72q3.28-9.47,6.93-18.29t6.78-16q3.14-7.22,4.44-11c.1-.19.59-.29,1.46-.29a19.49,19.49,0,0,1,2.84.22c1,.14,1.95.32,2.77.51s1.19.39,1.1.58q-1.32,3.21-3.72,8.39t-5.25,11.66q-2.84,6.48-5.83,13.85t-5.25,14.94a132.61,132.61,0,0,0-3.57,15A57.21,57.21,0,0,0,132.08,79c.1,1.85.64,2.77,1.61,2.77a5.79,5.79,0,0,0,3.42-1.6,35.55,35.55,0,0,0,4.31-4.31q2.33-2.68,4.37-5.39t3.5-4.81L151,63.13q1.74-2.93,3.5-5.83T158,51.17Z"/><path class="cls-1" d="M184.42,50.3c.1-.29.39-.49.88-.58a4.36,4.36,0,0,1,1.38-.08,2.39,2.39,0,0,1,1.1.37.6.6,0,0,1,.29.73,73.54,73.54,0,0,1-7.22,11.59Q176.7,67.79,172.47,73q-1.6,2.19-3.35,4.45a45.35,45.35,0,0,1-3.79,4.3,16.25,16.25,0,0,1-3.87,3.06,5.1,5.1,0,0,1-4.88.15,11.57,11.57,0,0,1-6.2-5.91A17.87,17.87,0,0,1,149,70.71a29.16,29.16,0,0,1,2.33-9.4,49.45,49.45,0,0,1,5-9.12,40.55,40.55,0,0,1,6.34-7.29,18.71,18.71,0,0,1,6.63-4.08,4.89,4.89,0,0,1,3,.07,5.69,5.69,0,0,1,2.33,1.61,6.95,6.95,0,0,1,1.53,5.76,35.21,35.21,0,0,1-2.47,6.56,27.29,27.29,0,0,1-4.16,6.34,11.69,11.69,0,0,1-5.18,3.57c-1.84.59-3.64,0-5.39-1.75a1.29,1.29,0,0,1-.15.59l-.87,4c-.39,1.79-.73,3.64-1,5.53a31.44,31.44,0,0,0-.37,5.47c.06,1.75.47,3,1.24,3.65a2,2,0,0,0,1.75.51,3.77,3.77,0,0,0,1.61-.88,15.47,15.47,0,0,0,1.46-1.53c.48-.58.87-1.07,1.16-1.46q3.36-3.78,6.27-7.72l5.83-7.88c1.46-2.13,2.94-4.25,4.45-6.34A61.71,61.71,0,0,0,184.42,50.3Zm-18.37-1a46.1,46.1,0,0,0-3.86,5.47,26.56,26.56,0,0,0-2.84,6.48,3.17,3.17,0,0,0,3.42.8,8.9,8.9,0,0,0,3.5-2.47,21,21,0,0,0,3.06-4.45,36.26,36.26,0,0,0,2.19-4.88,16.82,16.82,0,0,0,.95-3.87c.09-1.07-.15-1.6-.73-1.6a5.79,5.79,0,0,0-3.06,1.82C167.51,47.7,166.64,48.6,166.05,49.28Z"/><path class="cls-1" d="M217.08,50.3c.19-.29.7-.41,1.53-.37s1.14.32.95.81a101.31,101.31,0,0,1-9,13,30.81,30.81,0,0,0-2.33,3,32.5,32.5,0,0,1-2.48,3.13,20.69,20.69,0,0,1-2.84,2.63,7.5,7.5,0,0,1-3.43,1.46,10.44,10.44,0,0,1-6.56-.59,8.18,8.18,0,0,1-4.08-5.1,18.86,18.86,0,0,0-3.94,3.94c-1.17,1.55-2.31,3.16-3.43,4.81s-2.26,3.28-3.42,4.88A24.23,24.23,0,0,1,174.22,86c-.2.19-.49.09-.88-.29a1.22,1.22,0,0,1-.43-1.17,10.58,10.58,0,0,1,1.82-5.1,37.83,37.83,0,0,1,4-5.18c1.55-1.7,3.16-3.35,4.81-5s3.11-3.08,4.37-4.44a32.42,32.42,0,0,0-1.46-4c-.68-1.61-1.38-3.23-2.11-4.89a43.62,43.62,0,0,1-1.82-4.88,11,11,0,0,1-.59-4c0-.19.37-.41,1.1-.66s1.5-.46,2.33-.65a14,14,0,0,1,2.33-.37c.73,0,1.14,0,1.24.08.29.87.61,1.92.95,3.13s.66,2.48,1,3.79.58,2.58.87,3.79.54,2.26.73,3.14q4.51-5.1,9.11-10.06a83,83,0,0,1,9.84-9,1.92,1.92,0,0,1,1-.15,6.53,6.53,0,0,1,1.67.22c.54.15,1,.29,1.39.44s.43.32.14.51q-5.53,4.82-11.22,10.13a148,148,0,0,0-10.5,10.86,2,2,0,0,1-.29.44,1.45,1.45,0,0,0-.29.44c.09.49.24,1.14.43,2s.42,1.67.66,2.55a13.68,13.68,0,0,0,1,2.48,4.28,4.28,0,0,0,1.46,1.75,2.18,2.18,0,0,0,2.55-.22,19.14,19.14,0,0,0,2-1.68,93.69,93.69,0,0,0,8-9.77Q213,55.11,217.08,50.3Z"/><path class="cls-1" d="M217.81,82.52c-2.82.29-4.84-.19-6.05-1.46a7.71,7.71,0,0,1-2-5,24.21,24.21,0,0,1,.65-7,61.05,61.05,0,0,1,2.26-7.58c.93-2.48,1.8-4.71,2.63-6.7s1.43-3.43,1.82-4.31c.09-.19.53-.34,1.31-.43a14.39,14.39,0,0,1,2.48-.08c.87,0,1.68.13,2.41.22s1.09.29,1.09.59q-1.17,3.78-2.55,7.58c-.93,2.53-1.82,5.1-2.7,7.72a8.65,8.65,0,0,0-.66,1.75c-.34,1.07-.7,2.29-1.09,3.65a41.58,41.58,0,0,0-1,4.15,11,11,0,0,0-.14,3.5c.14.93.56,1.44,1.24,1.53s1.75-.48,3.2-1.75a35.29,35.29,0,0,0,5.76-6.34q2.55-3.57,5-7.29t4.88-7.58a74,74,0,0,1,5.4-7.36c.19-.29.73-.41,1.6-.37s1.17.32.88.81a68.89,68.89,0,0,1-5.84,9.33Q235,64.58,232,69c-.78,1.17-1.65,2.5-2.62,4a41.07,41.07,0,0,1-3.21,4.3,22.47,22.47,0,0,1-3.87,3.57A8.42,8.42,0,0,1,217.81,82.52Zm6.56-38a3.33,3.33,0,0,1-1.39,0c-.73-.1-1.14-.3-1.24-.59,0-.09.15-.68.44-1.75s.63-2.26,1-3.57.93-3.08,1.61-5.32c.09-.19.46-.19,1.09,0a13.59,13.59,0,0,1,2,.8,13.09,13.09,0,0,1,1.82,1.1c.53.39.75.72.66,1a20.14,20.14,0,0,1-2.48,4.3A27.08,27.08,0,0,1,224.37,44.47Z"/><path class="cls-1" d="M253.82,68.23c-.68,1.36-1.44,2.75-2.26,4.16a22.76,22.76,0,0,1-2.92,3.93,19.07,19.07,0,0,1-3.71,3.14,12.38,12.38,0,0,1-4.67,1.75c-3.11.39-5.51.07-7.22-.95a8.16,8.16,0,0,1-3.57-4.38,13.83,13.83,0,0,1-.58-6.41,26.66,26.66,0,0,1,1.82-6.93,23.13,23.13,0,0,1,3.57-6,10.74,10.74,0,0,1,4.81-3.5c.2-.2.73-.22,1.61-.07s1.5.26,1.89.36a33.4,33.4,0,0,1,1.1-4.52A15.88,15.88,0,0,1,246,44.1a7.89,7.89,0,0,1,3.72-2.91q2.17-.81,5.24.8a5.87,5.87,0,0,1,2.85,4.52,24.11,24.11,0,0,1,0,7,54.69,54.69,0,0,1-1.53,7.43c-.68,2.43-1.27,4.28-1.75,5.54.29-.09.34-.15.14-.15s-.09-.09.29-.29a9.88,9.88,0,0,0,4.45-3.35q2-2.47,3.72-4.52,1.46-2,2.84-4c.93-1.31,1.92-2.6,3-3.86a2.68,2.68,0,0,1,1.9-.37q1.46.07,1,.81a47.22,47.22,0,0,1-3.94,6q-2.19,2.84-4.52,5.46c-1.55,1.66-2.87,3-3.94,4.08a7.88,7.88,0,0,1-5.1,1.9Zm-12.1,10.06a18.32,18.32,0,0,0,2.91-3,19.7,19.7,0,0,0,2.19-3.42A8.08,8.08,0,0,0,248,70.05c.29-.63.58-1.28.87-2a10.84,10.84,0,0,1-3.79-1.6,7,7,0,0,1-2.62-3.21,5.8,5.8,0,0,1-.73-2.18,18.38,18.38,0,0,1-.15-2.34q-1.6,3.36-3.06,6.93A39.4,39.4,0,0,0,236.32,73a7.54,7.54,0,0,0-.07,2.77,6.63,6.63,0,0,0,.8,2.41,2.49,2.49,0,0,0,1.75,1.16A4,4,0,0,0,241.72,78.29Zm11.66-34.12a2.51,2.51,0,0,0-2.48,1.1,12.69,12.69,0,0,0-2,3.64,28.47,28.47,0,0,0-1.38,5,29.5,29.5,0,0,0-.51,5.32,15.84,15.84,0,0,0,.58,4.52,3.59,3.59,0,0,0,2,2.55q.74-1.74,1.75-4.73a60.37,60.37,0,0,0,1.75-6.27,43.8,43.8,0,0,0,.95-6.27A10.09,10.09,0,0,0,253.38,44.17Z"/><path class="cls-1" d="M310.09,49.72c.2,0,.56,0,1.1.07s.7.31.51.8a42,42,0,0,1-3.06,4.88q-1.75,2.41-3.36,4.74-3.34,4.66-6.56,9.41T292,78.87a11.48,11.48,0,0,1-4.23,3.5,5.85,5.85,0,0,1-5.4,0,3.66,3.66,0,0,1-2-2.48,8.87,8.87,0,0,1-.08-3.42,17.8,17.8,0,0,1,1-3.65c.49-1.21.88-2.21,1.17-3q1.6-3.93,3.57-7.72l4-7.73,3.06-7c.2-.48.44-1.19.73-2.11a2.25,2.25,0,0,0-.14-2.12c-.1-.19-.1-.29,0-.29h-.59a3.06,3.06,0,0,0-1.82.73,15,15,0,0,0-1.82,1.68q-.89.94-1.68,1.89c-.53.64-.95,1.15-1.24,1.53a104,104,0,0,0-7.43,10.36q-3.36,5.39-6.35,10.93c-2,3.69-3.86,7.49-5.61,11.37-.09.29-.58.51-1.46.66a16.93,16.93,0,0,1-2.69.22,14.45,14.45,0,0,1-2.56-.22q-1.15-.23-1-.66,1.61-7.87,3.94-15.6a124.39,124.39,0,0,1,5.69-15.16c.09-.19.51-.34,1.24-.44a19.52,19.52,0,0,1,2.4-.14,17.78,17.78,0,0,1,2.33.14c.68.1,1,.29.88.59a163.9,163.9,0,0,0-5.69,17.34q1.75-3.35,3.79-6.48t4.23-6.05c.78-1.17,1.65-2.46,2.63-3.87a50.75,50.75,0,0,1,3.13-4.08A28.52,28.52,0,0,1,287.71,44a13.1,13.1,0,0,1,4.16-2.33q5.69-1.76,7.22.51c1,1.5,1.21,3.74.58,6.7a50.11,50.11,0,0,1-3.43,10q-2.48,5.54-4.88,10.42t-3.86,8c-1,2.09-1.07,3-.3,2.7a2.57,2.57,0,0,0,1-1,5.92,5.92,0,0,1,.87-1.17c1-1.36,1.92-2.69,2.84-4l2.85-4q2.91-4.08,5.68-8.09l5.69-8.23c.48-.78,1-1.61,1.6-2.48A2.66,2.66,0,0,1,310.09,49.72Z"/><path class="cls-1" d="M334.59,50.3c.09-.29.38-.49.87-.58a4.42,4.42,0,0,1,1.39-.08,2.39,2.39,0,0,1,1.09.37.59.59,0,0,1,.29.73A73.54,73.54,0,0,1,331,62.33q-4.15,5.46-8.38,10.71-1.61,2.19-3.35,4.45a45.35,45.35,0,0,1-3.79,4.3,16.05,16.05,0,0,1-3.87,3.06,5.1,5.1,0,0,1-4.88.15,11.57,11.57,0,0,1-6.2-5.91,17.87,17.87,0,0,1-1.38-8.38,29.16,29.16,0,0,1,2.33-9.4,49.45,49.45,0,0,1,5-9.12,40.55,40.55,0,0,1,6.34-7.29,18.71,18.71,0,0,1,6.63-4.08,4.89,4.89,0,0,1,3,.07,5.69,5.69,0,0,1,2.33,1.61,6.67,6.67,0,0,1,1.39,2.62,6.93,6.93,0,0,1,.15,3.14,36,36,0,0,1-2.48,6.56,27,27,0,0,1-4.16,6.34,11.71,11.71,0,0,1-5.17,3.57c-1.85.59-3.65,0-5.4-1.75a1.42,1.42,0,0,1-.14.59c-.2.87-.49,2.21-.88,4s-.73,3.64-1,5.53a30.45,30.45,0,0,0-.36,5.47c.05,1.75.46,3,1.24,3.65a2,2,0,0,0,1.75.51,3.79,3.79,0,0,0,1.6-.88,15.47,15.47,0,0,0,1.46-1.53c.48-.58.87-1.07,1.16-1.46q3.36-3.78,6.27-7.72L326,63.27c1.46-2.13,2.94-4.25,4.45-6.34A61.78,61.78,0,0,0,334.59,50.3Zm-18.37-1a46.14,46.14,0,0,0-3.87,5.47,26.94,26.94,0,0,0-2.84,6.48,3.18,3.18,0,0,0,3.43.8,8.87,8.87,0,0,0,3.49-2.47,21.34,21.34,0,0,0,3.07-4.45,37.41,37.41,0,0,0,2.18-4.88,16.31,16.31,0,0,0,.95-3.87c.1-1.07-.15-1.6-.73-1.6a5.83,5.83,0,0,0-3.06,1.82C317.67,47.7,316.8,48.6,316.22,49.28Z"/><path class="cls-1" d="M342.17,42.86a1.83,1.83,0,0,0-.73-1.09,4.27,4.27,0,0,0-1.17-.36c-.58.77-.83,2.28-.73,4.51a64,64,0,0,0,.73,7.08q.59,3.7,1.31,6.92t1,4.08q1.32-1.45,3.58-3.57a60.21,60.21,0,0,1,4.95-4.15,53.57,53.57,0,0,1,5.62-3.72,20.3,20.3,0,0,1,5.39-2.26,1.31,1.31,0,0,1,1.46.29c.38.39.19.73-.59,1a20.81,20.81,0,0,0-4.44,2.33,59.54,59.54,0,0,0-4.89,3.65q-2.48,2-5,4.44l-4.88,4.6a13.47,13.47,0,0,1,.73,6.48,16.35,16.35,0,0,1-2,6,18.21,18.21,0,0,1-3.86,4.74,12.63,12.63,0,0,1-5.11,2.77,12.12,12.12,0,0,1-4.15.44A5.87,5.87,0,0,1,326,85.8a3.71,3.71,0,0,1-1.24-3.14c.05-1.36.86-3.11,2.41-5.24a52.5,52.5,0,0,1,4.45-5q2.4-2.42,4.88-4.74a46.7,46.7,0,0,1-2.7-10.43,34.77,34.77,0,0,1-.14-8.89,13.53,13.53,0,0,1,2.26-6.27,6.9,6.9,0,0,1,4.81-2.84,3,3,0,0,1,2.62,1,3.07,3.07,0,0,1,.66,2,1.89,1.89,0,0,1-.66,1.46C342.94,44,342.55,43.74,342.17,42.86ZM328.9,82.66c.1.68.7.73,1.82.15a14.41,14.41,0,0,0,3.5-2.7A17.28,17.28,0,0,0,337.28,76a6,6,0,0,0,.8-4.23l-.43-1.31c-1.37,1.36-2.7,2.69-4,4a24,24,0,0,0-3.43,4.3q-.43.73-1,1.89A2.67,2.67,0,0,0,328.9,82.66Z"/></g></g></svg>