<svg xmlns="http://www.w3.org/2000/svg" viewBox="0 0 12.01 10.3"><defs><style>.cls-1{fill:#fff;}</style></defs><g id="Capa_2" data-name="Capa 2"><g id="Capa_1-2" data-name="Capa 1"><path class="cls-1" d="M6,0h5a1.31,1.31,0,0,1,.62.13A.77.77,0,0,1,12,1a.82.82,0,0,1-.71.7,3.09,3.09,0,0,1-.43,0H.87A.87.87,0,0,1,0,.84.84.84,0,0,1,.86,0c.78,0,1.57,0,2.36,0Z"/><path class="cls-1" d="M6,6C4.35,6,2.69,6,1,6a1.4,1.4,0,0,1-.72-.21A.73.73,0,0,1,0,4.92.82.82,0,0,1,.78,4.3c.2,0,.4,0,.6,0h9.77a.85.85,0,0,1,.86.83.84.84,0,0,1-.86.87c-.84,0-1.69,0-2.53,0Z"/><path class="cls-1" d="M6,8.58h2.4c.63,0,1,.33,1,.85s-.38.87-1,.87H3.55a.86.86,0,0,1-1-.85c0-.52.37-.86,1-.87Z"/></g></g></svg>