<svg xmlns="http://www.w3.org/2000/svg" viewBox="0 0 27.03 23.06"><defs><style>.cls-1{fill:#fff;}</style></defs><g id="Capa_2" data-name="Capa 2"><g id="Capa_1-2" data-name="Capa 1"><path class="cls-1" d="M9.72,21.49l.84-1.43a9.77,9.77,0,0,0,9.78,0,9.31,9.31,0,0,0,4.62-6A9.8,9.8,0,1,0,5.88,9.65L8.4,7,9.58,8.29,4.8,13.06,0,8.26,1.18,7.12,4.06,10A11.53,11.53,0,0,1,8.68,2.23,11.26,11.26,0,0,1,15.47,0,11.53,11.53,0,1,1,9.72,21.49Z"/><path class="cls-1" d="M18,16.06c-.95-.72-1.84-1.47-2.81-2.08a1.94,1.94,0,0,1-1-1.94c.07-2.55,0-5.11,0-7.66V3.85h1.71v.48c0,2.56,0,5.11,0,7.67a.69.69,0,0,0,.31.63c.92.67,1.83,1.36,2.76,2.06Z"/><path class="cls-1" d="M6.44,15.41l.74,1.39-1.45.92-.85-1.63Z"/><path class="cls-1" d="M8.12,18.07l1.14,1.08L8.18,20.47,6.85,19.2Z"/></g></g></svg>