<svg xmlns="http://www.w3.org/2000/svg" viewBox="0 0 19.57 21.46"><defs><style>.cls-1{fill:#fff;}</style></defs><g id="Capa_2" data-name="Capa 2"><g id="Capa_1-2" data-name="Capa 1"><path class="cls-1" d="M19.48,6.34a1.09,1.09,0,0,0-.3-.63C17.46,4,15.71,2.24,14,.5A1.48,1.48,0,0,0,12.91,0H5.83A2.59,2.59,0,0,0,3.1,2.75c0,2.14,0,4.28,0,6.43a3.53,3.53,0,0,0,0,4.11c0,1,0,1.92,0,2.88H2.87A2.87,2.87,0,0,0,0,19.05v2.41H.78V19.05A2.09,2.09,0,0,1,2.87,17H9.13a2.11,2.11,0,0,1,2.09,1.93v2.58H12V20.23h4.83a2.6,2.6,0,0,0,2.72-2.74c0-2.83,0-5.66,0-8.5C19.56,8.11,19.54,7.23,19.48,6.34ZM13.91,2.47l3.18,3.19H13.91ZM8.65,10.12a2.76,2.76,0,0,1,.23,1.11,2.71,2.71,0,0,1-.15.91,2.82,2.82,0,0,1-1,1.34,2.84,2.84,0,0,1-3.33.08,2.82,2.82,0,0,1,0-4.64,2.79,2.79,0,0,1,3-.15A2.79,2.79,0,0,1,8.65,10.12Zm9.56-2.71c0,3.35,0,6.69,0,10a1.28,1.28,0,0,1-1.44,1.43H12a2.86,2.86,0,0,0-1-2,2.93,2.93,0,0,0-1.86-.68H4.44V14.46a3.6,3.6,0,0,0,4.43-1h4.51c.67,0,1.33,0,2,0a.67.67,0,0,0,.68-.68.68.68,0,0,0-.68-.66H9.54a3.51,3.51,0,0,0-.06-2h5.66a1.29,1.29,0,0,0,.34,0A.63.63,0,0,0,16,9.55a.59.59,0,0,0-.31-.68,1.13,1.13,0,0,0-.49-.1H8.67A3.54,3.54,0,0,0,6.05,7.63,3.48,3.48,0,0,0,4.44,8V2.8A1.28,1.28,0,0,1,5.89,1.35h6.65V3c0,1.06,0,2.11,0,3.16,0,.65.22.88.85.88h4.82Z"/></g></g></svg>