<svg xmlns="http://www.w3.org/2000/svg" viewBox="0 0 18.61 21.44"><defs><style>.cls-1{fill:#fff;}</style></defs><g id="Capa_2" data-name="Capa 2"><g id="Capa_1-2" data-name="Capa 1"><path class="cls-1" d="M9.39,11.18A5.59,5.59,0,1,1,15,5.59,5.59,5.59,0,0,1,9.39,11.18Zm0-10a4.38,4.38,0,1,0,4.38,4.38A4.39,4.39,0,0,0,9.39,1.21Z"/><path class="cls-1" d="M1.21,21.44V17.7a3.25,3.25,0,0,1,3.24-3.25h9.71A3.25,3.25,0,0,1,17.4,17.7v3.74h1.21V17.7a4.46,4.46,0,0,0-4.45-4.46H4.45A4.46,4.46,0,0,0,0,17.7v3.74Z"/></g></g></svg>