<svg xmlns="http://www.w3.org/2000/svg" viewBox="0 0 19.49 19.49"><defs><style>.cls-1{fill:#fff;}</style></defs><g id="Capa_2" data-name="Capa 2"><g id="Capa_1-2" data-name="Capa 1"><path class="cls-1" d="M9.75,0h6.33a3.21,3.21,0,0,1,3.4,3.4q0,6.36,0,12.7a3.21,3.21,0,0,1-3.38,3.38H3.4A3.21,3.21,0,0,1,0,16.08V3.38A3.21,3.21,0,0,1,3.39,0ZM1.39,13.79l.08,0c.87-1.15,1.79-2.27,2.59-3.47a1.71,1.71,0,0,1,2.9.11c.69,1.13,1.44,2.22,2.16,3.33.2.3.4.61.64,1,.11-.15.2-.25.27-.36,1.59-2.24,3.2-4.46,4.75-6.73a1.55,1.55,0,0,1,2.65-.05c.18.27.4.51.66.83v-5a1.85,1.85,0,0,0-2-2H3.44a1.86,1.86,0,0,0-2,2.05V13.79Zm14.7-5.55L14.64,10.3,11,15.44a1.44,1.44,0,0,1-1.72.62,1.72,1.72,0,0,1-.87-.77c-.87-1.35-1.76-2.7-2.64-4-.21-.33-.36-.34-.58-.05L1.51,16.13a.64.64,0,0,0-.09.41,1.81,1.81,0,0,0,1.85,1.55c4.32,0,8.63,0,12.94,0a1.81,1.81,0,0,0,1.88-1.86c0-1.77,0-3.55,0-5.32a.57.57,0,0,0-.08-.32C17.39,9.82,16.76,9.06,16.09,8.24Z"/><path class="cls-1" d="M9.77,5.57A2.44,2.44,0,1,1,7.31,8,2.43,2.43,0,0,1,9.77,5.57Zm1,2.44a1,1,0,1,0-1,1A1,1,0,0,0,10.78,8Z"/></g></g></svg>