<svg xmlns="http://www.w3.org/2000/svg" viewBox="0 0 23.2 23.39"><defs><style>.cls-1{fill:#fff;}</style></defs><g id="Capa_2" data-name="Capa 2"><g id="Capa_1-2" data-name="Capa 1"><path class="cls-1" d="M14,16.84a16.51,16.51,0,0,1-3,1.18,4.59,4.59,0,0,1-5.2-3.21A7.63,7.63,0,0,1,8.85,6.14a5.07,5.07,0,0,1,3.46-.73A2.86,2.86,0,0,1,14.6,6.86c.3-1.09,1.06-1.18,1.92-1.12s1.4.6,1.2,1.59C17.36,9,17,10.75,16.6,12.47a9.9,9.9,0,0,0-.23,1.71c0,.82.47,1.24,1.21.9a3.69,3.69,0,0,0,1.6-1.37A7.12,7.12,0,0,0,14.4,3.32,9.84,9.84,0,0,0,9,3.54a8.64,8.64,0,0,0-5.46,9.58c.69,4.92,4.6,7.81,9.86,7.21a19.65,19.65,0,0,0,2.91-.64c.79-.21,1.31.06,1.66,1s.13,1.57-.68,1.87a15.18,15.18,0,0,1-6.51.81C4.36,22.81,0,18.19,0,11.89A11.62,11.62,0,0,1,10.67.07a12.32,12.32,0,0,1,8.25,2A10,10,0,0,1,22,14.87a5.81,5.81,0,0,1-5.77,3.21A2.94,2.94,0,0,1,14,16.84Zm-.09-6c-.14-1.32-.58-2.23-1.35-2.5A2.42,2.42,0,0,0,9.78,9.38a5.08,5.08,0,0,0-.93,4.16,1.72,1.72,0,0,0,2.58,1.38,3.29,3.29,0,0,0,1.46-1.32A17.5,17.5,0,0,0,13.87,10.83Z"/></g></g></svg>