<svg xmlns="http://www.w3.org/2000/svg" viewBox="0 0 225.69 139.64"><defs><style>.cls-1{fill:#fff;}.cls-2{fill:#602f80;}.cls-3{fill:#10dada;}</style></defs><g id="Capa_2" data-name="Capa 2"><g id="Capa_1-2" data-name="Capa 1"><path class="cls-1" d="M213.36,47.86a6.73,6.73,0,0,0-6-3.45,8.24,8.24,0,0,0-6.4,2.08l-.32.35c-.43.5-.84,1-1.25,1.52,0-.91-.15-1.79-.28-2.66a12.49,12.49,0,0,0-3.39-7,7.24,7.24,0,0,0,2.78-3.88,8.85,8.85,0,0,0,.6-2.91c0-2.22-1-6-7.92-6.43-1.66-.1-3.66-.21-6-.31-1.88-.08-3.81-.14-5.77-.15.5-1.5,1-3,1.52-4.49,1.38-4,2.77-8,4.15-11.84A6,6,0,0,0,184.92,4,6.57,6.57,0,0,0,180.27.4a15.15,15.15,0,0,0-3.56-.4,20.6,20.6,0,0,0-3.11.22,6.82,6.82,0,0,0-5.48,3.62c-2,4-3.86,8.18-5.5,12.36-1.09,2.78-2.16,5.61-3.19,8.44-2.66,0-5.34.08-8,.21-3.83.2-7.7.3-11.51.3l-2.65,0-1.73,1.94A6.38,6.38,0,0,0,134,32.33,6.64,6.64,0,0,0,136,36.47a20.05,20.05,0,0,0-5,3c-2.33,1.9-4.55,6-7.35,5.84-.69,0-2.47-.71-3.28-.85a13.68,13.68,0,0,0-5.37-.18,7.07,7.07,0,0,0-4.14,2.63,6.2,6.2,0,0,0-.93,1.35l-.11.23c-.62,1.36-1.24,2.82-1.91,4.46-.73,1.47-1.49,2.93-2.26,4.33a84.67,84.67,0,0,1-5.23,8.32l-.11.15c-.5.76-1,1.52-1.6,2.26,1.5-3.81,3-7.47,4.51-10.88s2.93-6.6,4.13-9.09c1.76-3.66,2.28-4.83,2.39-6a6.18,6.18,0,0,0-.77-3.78A6.83,6.83,0,0,0,104.16,35a22,22,0,0,0-3.54-.43,34.63,34.63,0,0,0-3.53,0c-1.11.07-4.37.25-6.12,3.08q-.66,1-1.23,1.95a15.43,15.43,0,0,0-3.9-1.32l-.24,0a12.61,12.61,0,0,0-9.12,1.83,25.68,25.68,0,0,0-4.82,4.13l-.21.24c-.35.43-.7.86-1,1.3a6.37,6.37,0,0,0-.76.8c-4.73,5.25-9.27,10.71-13.5,16.22-4.08,5.32-8.47,10.59-13,15.63-2.3,2.5-4.73,5-7.23,7.45A35.49,35.49,0,0,1,28.6,91.4l-.28.17a5.9,5.9,0,0,1-2.63,1A2.68,2.68,0,0,1,25,92L25,92a11.4,11.4,0,0,1-3.61-7.85,34.84,34.84,0,0,1,1.74-12.6,70.49,70.49,0,0,1,6.67-14.65A151.68,151.68,0,0,1,39.42,42.4a127.54,127.54,0,0,1,10-11.73,41.29,41.29,0,0,1,7.51-6.52l.12-.08A26.74,26.74,0,0,1,61.15,22a14.09,14.09,0,0,1-.31,2.19,16.18,16.18,0,0,1-.62,2.15l-.1.31a18.14,18.14,0,0,1-1.49,3.45c-.71,1.23-1.51,2.49-2.4,3.73A48.2,48.2,0,0,1,49.5,41c-2.75,2.41-5.6,4.77-8.45,7l-.5.44a6.21,6.21,0,0,0-1.85,5,5.94,5.94,0,0,0,2.64,4.38,8.43,8.43,0,0,0,2.09,1,8,8,0,0,0,3.66.32,8.57,8.57,0,0,0,2.64-.79l.44-.22.4-.29c3.11-2.28,6.24-4.73,9.32-7.27a60.74,60.74,0,0,0,8.78-8.94,37.26,37.26,0,0,0,6.68-12,38.21,38.21,0,0,0,1.45-6.14A14.6,14.6,0,0,0,75.72,15l-.15-.28a14,14,0,0,0-7.16-6.23A31.09,31.09,0,0,0,60.3,6.34a40.44,40.44,0,0,0-8-.27,20.53,20.53,0,0,0-7.1,1.52,41.85,41.85,0,0,0-9.67,6.56,104.89,104.89,0,0,0-10,10.08A130.87,130.87,0,0,0,15.69,37,114.77,114.77,0,0,0,7.37,51.37,88.85,88.85,0,0,0,1.7,66.32,43.21,43.21,0,0,0,.14,81.49,29.42,29.42,0,0,0,4.92,95.31c2.82,4.27,7.11,7.64,12.74,10A18.62,18.62,0,0,0,25.74,107,23.71,23.71,0,0,0,33,105.64a30.85,30.85,0,0,0,6.32-3.11,46,46,0,0,0,5.31-3.91A105.62,105.62,0,0,0,55.19,88.5c1.73-1.89,3.45-3.85,5.15-5.85a11.07,11.07,0,0,0,6.21,3.82,14.19,14.19,0,0,0,7.26.07,18.9,18.9,0,0,0,3.5-1.29A16.12,16.12,0,0,0,78.73,88l.23.33a11.7,11.7,0,0,0,7,4.5,12.78,12.78,0,0,0,7.81-.8l.18-.09a25.7,25.7,0,0,0,6.33-4.24l.34-.3c-.59.53,4.77,2.39,5.21,2.52,4.33,1.26,10.66.49,12.64-4.37.8-1.76,1.62-3.52,2.47-5.25a14.46,14.46,0,0,0,.35,2.74,9.74,9.74,0,0,0,5,6.45l.29.15a11.88,11.88,0,0,0,10.31.16c-.61,2.83-1.1,5.62-1.47,8.35a46,46,0,0,0,0,13.89l.07.44.15.43c.46,1.38,1.83,3.81,5.83,4.56a19.29,19.29,0,0,0,7.86-.15c3.85-1,5.4-3.64,5.61-6,.89-7.16,2.06-14,3.48-20.27.58-2.53,1.19-5,1.83-7.52a14.28,14.28,0,0,0,4.06,3.63,15.2,15.2,0,0,0,8,2,27.3,27.3,0,0,0,3.29-.21l.24,0a18.65,18.65,0,0,0,7.1-2.69,25.26,25.26,0,0,0,5-4.25,30.07,30.07,0,0,0,3.8-5.14c.38-.63.74-1.27,1.09-1.9a12.55,12.55,0,0,0,6.36-3.29c1.17-1.16,2.6-2.65,4.27-4.42l.11-.12c1.73-2,3.42-4,5-6.07a53.9,53.9,0,0,0,4.6-7.07A6.23,6.23,0,0,0,213.36,47.86Zm-62-9.6,3.06.06L153,42.46a11,11,0,0,0-1.59-3.63q-.19-.28-.42-.57Zm24.81,2.42a22.49,22.49,0,0,0-3.31,6.69l-.09.3a7.11,7.11,0,0,0-1.4.45L174.6,39l2.86.19A15.42,15.42,0,0,0,176.21,40.68Z"/><path class="cls-2" d="M207.08,50.23a2.77,2.77,0,0,0-2,.38q-1.68,2-3.14,4.06t-3,4.22Q197.11,61,195,63.65a10.4,10.4,0,0,1-4.68,3.52,2.49,2.49,0,0,0-.37.22q.73-2,1.75-5.58A58.75,58.75,0,0,0,193.35,54a25.17,25.17,0,0,0,0-7.36,6.2,6.2,0,0,0-3-4.75q-3.23-1.69-5.52-.84a8.33,8.33,0,0,0-3.91,3.06,17,17,0,0,0-2.46,5,35.92,35.92,0,0,0-1.15,4.75c-.41-.1-1.07-.23-2-.38s-1.48-.13-1.69.07a11.4,11.4,0,0,0-5.06,3.68,24.39,24.39,0,0,0-3.75,6.29,27.36,27.36,0,0,0-1.92,7.29,14.6,14.6,0,0,0,.61,6.75,8.64,8.64,0,0,0,3.76,4.6q2.68,1.61,7.59,1a12.84,12.84,0,0,0,4.91-1.84A20,20,0,0,0,183.69,78a24.33,24.33,0,0,0,3.07-4.15c.86-1.48,1.66-2.93,2.37-4.37h.62q3.67-.3,5.36-2t4.15-4.29c1.63-1.84,3.22-3.76,4.75-5.76a48.89,48.89,0,0,0,4.14-6.36C208.46,50.56,208.1,50.28,207.08,50.23ZM183,71.39a8.9,8.9,0,0,1-1.23,1.92,20.77,20.77,0,0,1-2.3,3.6,19.49,19.49,0,0,1-3.07,3.15,4.19,4.19,0,0,1-3.06,1.15A2.63,2.63,0,0,1,171.5,80a6.78,6.78,0,0,1-.85-2.53,8.07,8.07,0,0,1,.08-2.91,41.08,41.08,0,0,1,2.3-7.75c1-2.5,2.1-4.93,3.22-7.28A20.26,20.26,0,0,0,176.4,62a6.2,6.2,0,0,0,.77,2.3,7.41,7.41,0,0,0,2.76,3.37,11.53,11.53,0,0,0,4,1.69C183.61,70,183.31,70.73,183,71.39Zm6.36-22.08a45.6,45.6,0,0,1-1,6.59,66.13,66.13,0,0,1-1.84,6.6q-1.08,3.14-1.84,5a3.79,3.79,0,0,1-2.15-2.68,16.77,16.77,0,0,1-.61-4.76,30.76,30.76,0,0,1,.53-5.6,30.07,30.07,0,0,1,1.46-5.29,13.37,13.37,0,0,1,2.15-3.83,2.61,2.61,0,0,1,2.6-1.15A10.31,10.31,0,0,1,189.36,49.31Zm.54,18.32.06-.17.09,0Q190.36,67.48,189.9,67.63Z"/><path class="cls-2" d="M170.58,32.82c3.68.31,7.33.56,11,.77s7.23.3,10.81.3c.21,0,.41-.3.62-.92a6.5,6.5,0,0,0,.3-1.07c0-.31-.81-.51-2.45-.61s-3.6-.21-5.9-.31-4.71-.15-7.21-.15-4.63,0-6.37-.16q2-6,4.07-12t4.22-12c.1-.2-.16-.38-.77-.53a8.59,8.59,0,0,0-2.15-.23,14.91,14.91,0,0,0-2.22.15c-.67.1-1.05.26-1.15.46q-2.93,5.83-5.29,11.89t-4.53,12.19q-5.82-.15-11.81.15T139.9,31c-.1,0-.12.23-.07.69s.18.69.38.69q5.67,0,11.27.08c3.74.05,7.44.18,11.12.38q-2.29,6.43-4.6,13-.88,2.51-1.79,5a3.11,3.11,0,0,0-.51.61c-.61.92-1.17,1.79-1.68,2.6l-6,8.67q-2.91,4.21-6,8.51-1.53,2.15-3,4.22t-3,4.22a6.14,6.14,0,0,0-.92,1.22,2.77,2.77,0,0,1-1.07,1.08c-.82.3-.72-.64.3-2.84s2.38-5,4.07-8.44,3.4-7.07,5.14-11a54.47,54.47,0,0,0,3.6-10.51c.66-3.11.46-5.47-.61-7S143,40.33,139,41.56A13.7,13.7,0,0,0,134.61,44a28.85,28.85,0,0,0-3.83,3.75,52.18,52.18,0,0,0-3.3,4.3q-1.53,2.22-2.76,4.06-2.3,3.07-4.45,6.37t-4,6.82a172,172,0,0,1,6-18.25c.1-.31-.21-.51-.92-.61a17.92,17.92,0,0,0-2.46-.16h-.15a2.61,2.61,0,0,0-1.15-.38,4.28,4.28,0,0,0-1.38.08,1,1,0,0,0-.84.61l-.05.11a.51.51,0,0,0-.26.2c-.67,1.47-1.29,3-1.9,4.45q-1.18,2.41-2.47,4.75a88.42,88.42,0,0,1-5.6,8.89A56.48,56.48,0,0,1,101,74.38Q98.8,77,96.35,79.44c-.82.72-1.66,1.44-2.53,2.15S92.11,83,91.29,83.74c-1.94,1.53-3,1.56-3.14.07A19.36,19.36,0,0,1,89.3,77q1.38-4.6,3.75-10.66t4.76-11.5q2.37-5.44,4.21-9.28a34.58,34.58,0,0,0,1.85-4.14c.1-.31-.21-.54-.92-.69a17,17,0,0,0-2.61-.31,28.42,28.42,0,0,0-2.92,0q-1.38.08-1.53.39a25.73,25.73,0,0,0-2.76,5.13q-1.08,2.68-2,5.45a9.41,9.41,0,0,0-1.84-4.76A7.43,7.43,0,0,0,84.69,44a6.75,6.75,0,0,0-5,.92A20.6,20.6,0,0,0,76,48.16c-.48.59-1,1.2-1.42,1.81a1,1,0,0,0-.42.33q-7,7.83-13.34,16t-13.34,16Q43.91,86.19,40,90a41,41,0,0,1-8.51,6.45,11.6,11.6,0,0,1-5.37,1.91,6.48,6.48,0,0,1-5.21-2.22A17.28,17.28,0,0,1,15.53,84.5a40.25,40.25,0,0,1,2-14.72,76.5,76.5,0,0,1,7.21-15.87,155.87,155.87,0,0,1,10.05-15A133,133,0,0,1,45.2,26.61a48,48,0,0,1,8.67-7.44A31.85,31.85,0,0,1,59,16.56a6.38,6.38,0,0,1,5.44,0,4.05,4.05,0,0,1,2.07,2.23A8.17,8.17,0,0,1,67,22a19,19,0,0,1-.46,3.45,21.22,21.22,0,0,1-.84,2.91,22.85,22.85,0,0,1-2,4.6,45.7,45.7,0,0,1-2.76,4.3,55.08,55.08,0,0,1-7.59,8.13q-4.21,3.68-8.66,7.2c-.21.21-.23.36-.08.46a2.52,2.52,0,0,0,.69.31,2.21,2.21,0,0,0,1,.08,2.77,2.77,0,0,0,.84-.23q4.6-3.37,9.05-7.06a54.74,54.74,0,0,0,8-8.13,31.62,31.62,0,0,0,5.67-10.12,33,33,0,0,0,1.23-5.21,8.87,8.87,0,0,0-.62-5.22,8.31,8.31,0,0,0-4.29-3.6,24.77,24.77,0,0,0-6.6-1.76,34.15,34.15,0,0,0-6.9-.23,15.35,15.35,0,0,0-5.06,1,36.68,36.68,0,0,0-8.28,5.68,97.65,97.65,0,0,0-9.43,9.51,125.51,125.51,0,0,0-9.36,12.19,109.52,109.52,0,0,0-7.9,13.65,82.8,82.8,0,0,0-5.29,14A37.62,37.62,0,0,0,5.94,81,23.59,23.59,0,0,0,9.78,92.1q3.29,5,10.2,7.89a12.75,12.75,0,0,0,5.59,1.15,17.81,17.81,0,0,0,5.45-1,25.76,25.76,0,0,0,5.14-2.53,43.07,43.07,0,0,0,4.67-3.45,100.14,100.14,0,0,0,10.05-9.59Q55.56,79.45,60,73.92c1.56-1.8,3.1-3.62,4.61-5.44-.24.89-.46,1.78-.62,2.68a14.49,14.49,0,0,0,.08,6.14A4.74,4.74,0,0,0,68,80.82a8.44,8.44,0,0,0,4.37.08,13.83,13.83,0,0,0,4-1.76,21.83,21.83,0,0,0,3.6-2.92A32.74,32.74,0,0,0,83,72.69v.62a26.6,26.6,0,0,0-.92,5.83,9.32,9.32,0,0,0,1.53,5.67,5.84,5.84,0,0,0,3.53,2.3,7,7,0,0,0,4.29-.46,20.15,20.15,0,0,0,4.91-3.3q2.3-2.07,4.29-4.21Q104.48,75,108,70.39a1.25,1.25,0,0,0,.08-.12q-1.82,6.47-3.15,13c-.1.3.25.53,1.07.69a15,15,0,0,0,2.69.23,17.53,17.53,0,0,0,2.83-.23c.92-.16,1.44-.39,1.54-.69q2.76-6.14,5.9-12t6.67-11.5a112,112,0,0,1,7.82-10.89c.31-.4.74-.94,1.31-1.61s1.15-1.32,1.76-2a15,15,0,0,1,1.92-1.76,3.18,3.18,0,0,1,1.92-.77H141c-.1,0-.1.1,0,.31a2.31,2.31,0,0,1,.15,2.22c-.3,1-.56,1.71-.76,2.22l-3.23,7.36c-1.43,2.76-2.83,5.48-4.21,8.13s-2.64,5.37-3.76,8.13q-.46,1.23-1.23,3.15a17.55,17.55,0,0,0-1.07,3.83,9.21,9.21,0,0,0,.08,3.6A3.84,3.84,0,0,0,129,84.35a6.17,6.17,0,0,0,5.67,0,12.22,12.22,0,0,0,4.45-3.68q3.68-4.76,7.05-9.74c1.69-2.5,3.43-5,5.18-7.45-1,2.45-1.94,5-3,7.76q-2.53,6.83-4.45,13.88a107.51,107.51,0,0,0-2.84,13.8,40.24,40.24,0,0,0,0,12.12q.15.45,1.38.69a14.9,14.9,0,0,0,2.69.23,11.26,11.26,0,0,0,2.68-.31c.82-.21,1.23-.51,1.23-.92q1.38-11.2,3.6-21t5.06-19.1q2.83-9.27,6.06-18.48T170.58,32.82ZM86.07,63.65a93.5,93.5,0,0,1-7.2,9.66c-.62.71-1.38,1.61-2.3,2.68a14.73,14.73,0,0,1-2.69,2.53,2.52,2.52,0,0,1-2.37.54c-.72-.25-1.18-1.3-1.39-3.14A12,12,0,0,1,71,70.55a57.34,57.34,0,0,1,3-7.06A77,77,0,0,1,78,56.36,28.06,28.06,0,0,1,82.32,51c1.38-1.27,2.58-1.89,3.6-1.84s1.69,1.15,2,3.3a15.85,15.85,0,0,1,.23,3.45,25.82,25.82,0,0,1-.39,3.45A33.57,33.57,0,0,1,86.07,63.65Z"/><path class="cls-2" d="M206.86,95.72a39,39,0,0,0-12.73,2.45V98l-3-1.3a11.07,11.07,0,0,0-4.43-.79,14.86,14.86,0,0,0-4.12.57H164.76a11.88,11.88,0,0,0-3.83-.57,14.81,14.81,0,0,0-4.12.57H137.29v6.4a13.57,13.57,0,0,0-1.14-1.37c-3.55-3.86-8.47-5.82-14.61-5.82a20.47,20.47,0,0,0-15.05,6.19,19.64,19.64,0,0,0-2.61,3.23V96.51h-.63a9.92,9.92,0,0,0,1.45-5.3,9.64,9.64,0,0,0-3.26-7.39A11,11,0,0,0,94,81.13a11.14,11.14,0,0,0-7.15,2.43h-44v18.3H55.64v37H75.86v-37h8v37h20V131a19,19,0,0,0,2.27,2.8c3.84,3.85,9.13,5.81,15.7,5.81,5.59,0,10.31-1,14-3l1.42-.77v3h20V118.41a5.89,5.89,0,0,1,.79-3.45c.18-.22.34-.43,1.13-.43a3.75,3.75,0,0,1,1.81.37l2,1.11v22.84h20V118.41a5.88,5.88,0,0,1,.8-3.45c.17-.22.33-.43,1.12-.43a3.82,3.82,0,0,1,1.82.37l2.12,1.16a15.41,15.41,0,0,0-2.49,8.79,14.62,14.62,0,0,0,4.19,10.68,14.91,14.91,0,0,0,10.92,4.11,17.33,17.33,0,0,0,5.28-.79h18.92V114.52C225.69,102.58,218.82,95.72,206.86,95.72Z"/><path class="cls-1" d="M83.79,96.86H70.87v37H60.63v-37H47.78v-8.3h36Z"/><path class="cls-1" d="M94,96.39a5.84,5.84,0,0,1-4.14-1.5,4.85,4.85,0,0,1-1.61-3.68,4.66,4.66,0,0,1,1.61-3.66,6.72,6.72,0,0,1,8.29,0,4.65,4.65,0,0,1,1.6,3.66,4.8,4.8,0,0,1-1.6,3.73A5.92,5.92,0,0,1,94,96.39Zm4.93,37.47h-10V101.51h10Z"/><path class="cls-1" d="M136.35,120.52h-21.1q.51,7,8.88,7a17.31,17.31,0,0,0,9.38-2.53v7.2q-4.48,2.4-11.66,2.4-7.83,0-12.16-4.34t-4.33-12.11q0-8.06,4.68-12.76a15.56,15.56,0,0,1,11.5-4.71q7.06,0,10.94,4.2t3.87,11.4Zm-9.25-6.12q0-7-5.63-7a5.35,5.35,0,0,0-4.15,2,9,9,0,0,0-2.13,5Z"/><path class="cls-1" d="M163.39,110.51a8.69,8.69,0,0,0-4.2-1,6.06,6.06,0,0,0-5.09,2.39,10.4,10.4,0,0,0-1.83,6.49v15.45h-10V101.51h10v6h.13q2.37-6.57,8.53-6.57a6.47,6.47,0,0,1,2.46.38Z"/><path class="cls-1" d="M189.14,110.51a8.75,8.75,0,0,0-4.21-1,6,6,0,0,0-5.08,2.39,10.4,10.4,0,0,0-1.83,6.49v15.45H168V101.51h10v6h.12q2.37-6.57,8.53-6.57a6.52,6.52,0,0,1,2.47.38Z"/><path class="cls-1" d="M220.69,133.86h-9.44v-4.65h-.13a10.54,10.54,0,0,1-9.63,5.43,10.07,10.07,0,0,1-7.41-2.66,9.58,9.58,0,0,1-2.7-7.13q0-9.41,11.15-10.86l8.78-1.17q0-5.31-5.75-5.31a19.65,19.65,0,0,0-11,3.44v-7.51a24.64,24.64,0,0,1,5.7-1.9,29.84,29.84,0,0,1,6.59-.82q13.83,0,13.83,13.8Zm-9.38-13.15v-2.18l-5.88.76c-3.24.42-4.86,1.89-4.86,4.39a3.63,3.63,0,0,0,1.18,2.8,4.54,4.54,0,0,0,3.21,1.09,5.93,5.93,0,0,0,4.58-1.94A7,7,0,0,0,211.31,120.71Z"/><path class="cls-3" d="M200.75,99.11h-50l4.43-19.88h45.53a6.16,6.16,0,0,1,6.16,6.16v7.55A6.16,6.16,0,0,1,200.75,99.11Z"/><path class="cls-1" d="M177.1,95.9h-3.36l-1-3.05h-4.86l-1,3.05h-3.33l5-13.68h3.66Zm-5-5.41L170.6,85.9a5.74,5.74,0,0,1-.23-1.23h-.08a5,5,0,0,1-.24,1.19l-1.48,4.63Z"/><path class="cls-1" d="M186.91,95.9h-3V81.44h3Z"/><path class="cls-1" d="M197.57,95.9h-2.85V94.49h0a3.18,3.18,0,0,1-2.91,1.64,3,3,0,0,1-2.24-.8,2.91,2.91,0,0,1-.81-2.15q0-2.85,3.36-3.28l2.65-.35c0-1.07-.57-1.61-1.73-1.61a6,6,0,0,0-3.32,1V86.72a7.43,7.43,0,0,1,1.72-.58,9.35,9.35,0,0,1,2-.24c2.78,0,4.18,1.38,4.18,4.16Zm-2.84-4v-.66L193,91.5c-1,.13-1.47.57-1.47,1.33a1.09,1.09,0,0,0,.36.84,1.37,1.37,0,0,0,1,.33,1.8,1.8,0,0,0,1.38-.59A2.08,2.08,0,0,0,194.73,91.93Z"/></g></g></svg>