<svg xmlns="http://www.w3.org/2000/svg" viewBox="0 0 295.31 87.99"><defs><style>.cls-1{fill:#fff;}.cls-2{fill:#602f80;}</style></defs><g id="Capa_2" data-name="Capa 2"><g id="Capa_1-2" data-name="Capa 1"><path class="cls-1" d="M294.79,39.09a4.79,4.79,0,0,0-4.26-2.46A5.81,5.81,0,0,0,286,38.11l-.23.25c-.24.29-.48.57-.71.86,0-.55-.1-1.08-.19-1.6a8.89,8.89,0,0,0-2.3-4.87,5.19,5.19,0,0,0,1.88-2.68,6.21,6.21,0,0,0,.42-2.06c0-1.58-.73-4.28-5.62-4.59-1.16-.07-2.55-.14-4.19-.21-1.26-.06-2.57-.09-3.89-.11l1-3c1-2.82,1.94-5.59,2.89-8.25A4.22,4.22,0,0,0,275,8.51,4.68,4.68,0,0,0,271.66,6a13,13,0,0,0-4.7-.13,4.84,4.84,0,0,0-3.88,2.58c-1.41,2.81-2.7,5.71-3.85,8.62-.75,1.92-1.48,3.87-2.2,5.83-1.83,0-3.68,0-5.52.15-2.67.13-5.37.2-8,.2l-1.89,0-1.24,1.38a4.58,4.58,0,0,0-.35.45,4.44,4.44,0,0,0-1.43,1.65l-.15.31-.1.32c-.5,1.65-.9,3-1.18,3.93s-.56,1.9-.78,2.71a8.77,8.77,0,0,0-.47,2.38v.59a4.58,4.58,0,0,0-3,2.38l-.07.15c-.21.48-.52,1.2-.91,2.12S231,43.25,230.51,44L228,48.22,226.8,50c-.67,1-1.5,2.12-2.46,3.38-.77,1-1.61,2.07-2.49,3.12.11-1.23.27-2.49.5-3.79a97.55,97.55,0,0,1,2.51-10.55c1.06-3.56,2.31-7.12,3.72-10.58s2.85-6.91,4.23-10,2.66-6,3.81-8.47,2.13-4.66,2.79-6.28a4.23,4.23,0,0,0-.07-3.48A5,5,0,0,0,235.72.64C235,.47,234.19.32,233.33.2a19.68,19.68,0,0,0-2.67-.2c-2.36,0-4,.85-4.8,2.53l-.21.49c-.6,1.73-1.65,4.35-3.14,7.77s-3.22,7.51-5,11.83-3.54,9-5.17,13.65c-.57,1.64-1.11,3.35-1.66,5.22-.77,1.62-1.44,3-2.11,4.19a59.08,59.08,0,0,1-3.65,5.78l-.07.11c-.22.32-.43.64-.66,1,.95-2.4,1.91-4.7,2.86-6.86,1.07-2.47,2-4.6,2.87-6.33,1.24-2.58,1.6-3.4,1.68-4.26a4.38,4.38,0,0,0-.55-2.69,4.85,4.85,0,0,0-3.37-2.29,14.81,14.81,0,0,0-2.48-.31,22.55,22.55,0,0,0-2.47,0A5.19,5.19,0,0,0,198.37,32c-.28.42-.55.85-.8,1.28a10.8,10.8,0,0,0-2.66-.89l-.17,0a8.93,8.93,0,0,0-6.44,1.29,19.05,19.05,0,0,0-3.38,2.9l-.14.17c-.44.53-.88,1.09-1.35,1.72,1.07-2.8,2.09-5.65,3-8.49.84-2.33-.55-5.43-2.95-6-3.71-.89-7.76-.4-10.43,2.53-.78.84-1.47,1.63-2.07,2.34a28.72,28.72,0,0,0-2.18,3c-2.06,3.21-9.4-1.12-10.68,4.72-.26,1.17-.49,2.36-.7,3.53-.87,2-1.81,3.85-2.78,5.62A59.08,59.08,0,0,1,151,51.46l-.07.11c-.22.32-.43.64-.66,1,.95-2.4,1.91-4.7,2.86-6.86,1.07-2.47,2-4.6,2.87-6.33,1.24-2.58,1.6-3.4,1.68-4.26a4.38,4.38,0,0,0-.55-2.69,4.85,4.85,0,0,0-3.37-2.29,14.81,14.81,0,0,0-2.48-.31,22.55,22.55,0,0,0-2.47,0A5.16,5.16,0,0,0,144.49,32c-.29.42-.56.85-.81,1.28a10.8,10.8,0,0,0-2.66-.89l-.17,0a8.93,8.93,0,0,0-6.44,1.29,19.05,19.05,0,0,0-3.38,2.9l-.1.11a8.3,8.3,0,0,0-1.35-3.86c-1.3-1.92-4.08-3.82-10-2l-.09,0a13.66,13.66,0,0,0-4.36,2.43c-1.25,1-2.5,3.17-3.83,3.89s-1.82.3-3.47,0c-2.72-.53-6-.61-7.42,2.29l-.08.16-.12.27c-1.09,1.45-2.34,3.06-3.75,4.87-1,1.28-2,2.52-3.06,3.73.08-.58.14-1.14.18-1.7A9.5,9.5,0,0,0,91.57,40l.07-.09a19,19,0,0,0,2.28-3.4,7.09,7.09,0,0,0,0-7.33L93.81,29c-1.76-2.59-3.86-4.06-6.24-4.35a8.4,8.4,0,0,0-6.15,1.64,15.74,15.74,0,0,0-3.64,3.9,23.94,23.94,0,0,0-1.51,2.52c0-.1-.1-.21-.16-.31a4.85,4.85,0,0,0-3.36-2.29,15.08,15.08,0,0,0-2.49-.31,22.55,22.55,0,0,0-2.47,0A5.18,5.18,0,0,0,63.44,32c-.29.42-.56.85-.81,1.28A10.8,10.8,0,0,0,60,32.37l-.17,0a8.9,8.9,0,0,0-6.43,1.29A18.77,18.77,0,0,0,50,36.53l-.14.17c-.25.3-.49.6-.72.91a4,4,0,0,0-.54.55c-3.29,3.66-6.46,7.47-9.41,11.32s-5.9,7.38-9.07,10.89c-1.6,1.74-3.29,3.48-5,5.19A24.51,24.51,0,0,1,20,69.4l-.2.13a4.22,4.22,0,0,1-1.76.68,2.38,2.38,0,0,1-.47-.39,7.9,7.9,0,0,1-2.48-5.41,24.06,24.06,0,0,1,1.21-8.75,49.14,49.14,0,0,1,4.64-10.19,104.49,104.49,0,0,1,6.73-10.08,89.23,89.23,0,0,1,6.94-8.17,29.61,29.61,0,0,1,5.22-4.53l.09-.06a17.85,17.85,0,0,1,2.71-1.38,8.32,8.32,0,0,1-.2,1.34,12.45,12.45,0,0,1-.43,1.5l-.07.21a12.57,12.57,0,0,1-1,2.39,29,29,0,0,1-1.67,2.59,34,34,0,0,1-4.67,5c-1.92,1.67-3.9,3.32-5.89,4.9l-.37.32A4.46,4.46,0,0,0,27,43.09a4.24,4.24,0,0,0,1.89,3.13,6.16,6.16,0,0,0,1.48.71,5.56,5.56,0,0,0,2.59.22,6.11,6.11,0,0,0,1.87-.55l.32-.16.28-.21c2.18-1.59,4.36-3.3,6.51-5.07a42.54,42.54,0,0,0,6.13-6.25,26.17,26.17,0,0,0,4.68-8.37,26.89,26.89,0,0,0,1-4.3,10.31,10.31,0,0,0-.77-6l-.1-.2a9.85,9.85,0,0,0-5-4.39,21.8,21.8,0,0,0-5.69-1.52,28.85,28.85,0,0,0-5.63-.19,14.31,14.31,0,0,0-5,1.07,29.23,29.23,0,0,0-6.77,4.59,73.72,73.72,0,0,0-7,7A91.9,91.9,0,0,0,11,31.5a78.31,78.31,0,0,0-5.81,10A62.38,62.38,0,0,0,1.19,52,30,30,0,0,0,.1,62.59a20.63,20.63,0,0,0,3.34,9.68,19.47,19.47,0,0,0,8.9,7,13.31,13.31,0,0,0,5.71,1.16,16.9,16.9,0,0,0,5.06-.93,21.92,21.92,0,0,0,4.43-2.18,33.55,33.55,0,0,0,3.69-2.72,73,73,0,0,0,7.42-7.08c1.18-1.3,2.36-2.63,3.52-4a7.85,7.85,0,0,0,4.31,2.6,9.92,9.92,0,0,0,5.1,0A13.73,13.73,0,0,0,54,65.34a11.33,11.33,0,0,0,1,1.82l.16.23A8.2,8.2,0,0,0,60,70.57a8.93,8.93,0,0,0,5.5-.56l.14-.06a18.38,18.38,0,0,0,4.43-3c1.16-1,2.26-2.13,3.27-3.21L74,63c1.19,4.61,3.81,6.18,5.88,6.68a11.28,11.28,0,0,0,8.2-1.55A32.44,32.44,0,0,0,93,64.67a4.41,4.41,0,0,0,.54,1.44c2.21,3.74,11.37,3.51,13.08-.67.5-1.11,1-2.22,1.54-3.31a11.35,11.35,0,0,0,.23,1.55,6.89,6.89,0,0,0,3.51,4.55l.21.11a8.41,8.41,0,0,0,7.6,0,12.65,12.65,0,0,0,4.53-3.73,8.43,8.43,0,0,0,3.28,1.58,10,10,0,0,0,5.11,0,13.73,13.73,0,0,0,2.37-.86,11.33,11.33,0,0,0,1,1.82l.16.23A8.2,8.2,0,0,0,141,70.57a8.93,8.93,0,0,0,5.5-.56l.14-.06a18.38,18.38,0,0,0,4.43-3c1.16-1,2.26-2.13,3.26-3.21.5-.53,1-1.08,1.47-1.63-1,1.16,2.2,4.51,3.1,5,2.69,1.42,6.94,1.63,9.38-.29a10.61,10.61,0,0,0,2.2-2.37,20.26,20.26,0,0,0,1.32-2.17c.31-.58.6-1.14.87-1.69.8-1.31,1.57-2.67,2.29-4l.38-.73a13.75,13.75,0,0,0,.29,4.83,7.47,7.47,0,0,0,5.74,5.48,10,10,0,0,0,5.11,0,13.73,13.73,0,0,0,2.37-.86,11.33,11.33,0,0,0,1,1.82l.16.23a8.2,8.2,0,0,0,4.92,3.18,8.93,8.93,0,0,0,5.5-.56l.14-.06A18.38,18.38,0,0,0,205,67c1.16-1,2.26-2.13,3.26-3.21l.12-.12a10.2,10.2,0,0,0,6.14,7.12,9.65,9.65,0,0,0,9-.81,25.94,25.94,0,0,0,5.44-4.42,8.14,8.14,0,0,0,.8,1c1.81,1.88,4.43,2.66,7.79,2.33a9.92,9.92,0,0,0,3.85-1.08c-.49,2.17-.87,4.32-1.16,6.42a32.2,32.2,0,0,0,0,9.72l.06.31.1.31a5,5,0,0,0,4.14,3.24,13.57,13.57,0,0,0,5.53-.1,4.86,4.86,0,0,0,4-4.28,142.85,142.85,0,0,1,2.43-14.13q.57-2.53,1.22-5a10.29,10.29,0,0,0,2.73,2.39,11,11,0,0,0,5.69,1.4,17.86,17.86,0,0,0,2.26-.15l.17,0a13.14,13.14,0,0,0,5-1.89,18.29,18.29,0,0,0,3.54-3,21.65,21.65,0,0,0,2.67-3.6c.25-.43.49-.86.73-1.29a8.8,8.8,0,0,0,4.44-2.31c.82-.82,1.82-1.86,3-3.09l.08-.08c1.21-1.37,2.39-2.79,3.5-4.24a37.41,37.41,0,0,0,3.22-4.94A4.46,4.46,0,0,0,294.79,39.09ZM243.68,49.75l-.34.53q.34-1,.69-1.92c.7-1.91,1.35-3.84,1.94-5.76l.18-.6v-.63a4.35,4.35,0,0,0-.62-2.23,25.26,25.26,0,0,0,2.39-2.86,18.81,18.81,0,0,0,2.19-3.75h1.39l2,0-1.32,3.72-.81,2.27a58.79,58.79,0,0,0-4.11,5.63Q245.45,47,243.68,49.75Zm25-15.68a15.75,15.75,0,0,0-2.32,4.7l0,.15a5.48,5.48,0,0,0-.73.22c.7-2,1.4-4,2.13-6.09l1.7.11A11.17,11.17,0,0,0,268.72,34.07ZM75,39.33l.19-.39v0a10.27,10.27,0,0,0,.77,2l-2.33,1.31C74.1,41.2,74.56,40.21,75,39.33ZM70,51.46l-.07.12c-.22.31-.43.63-.66.94q1-2.51,2-4.86l1.4-.28Q71.4,49.48,70,51.46Z"/><path class="cls-2" d="M241,36.78a2.26,2.26,0,0,0,1,0,20.31,20.31,0,0,0,2.57-2.94,14.71,14.71,0,0,0,1.82-3.16c.07-.21-.09-.46-.49-.75a9.75,9.75,0,0,0-1.33-.8,10.05,10.05,0,0,0-1.45-.59c-.46-.14-.73-.14-.8,0q-.75,2.46-1.17,3.9c-.29,1-.54,1.84-.75,2.62a12,12,0,0,0-.32,1.29C240.14,36.56,240.44,36.71,241,36.78Z"/><path class="cls-2" d="M264.87,28.65q3.86.32,7.65.53t7.54.22c.14,0,.28-.22.43-.64a4.63,4.63,0,0,0,.21-.75c0-.22-.57-.36-1.71-.43s-2.51-.14-4.12-.21-3.28-.11-5-.11-3.23,0-4.44-.11c.92-2.78,1.87-5.57,2.83-8.39s1.94-5.62,2.94-8.4c.07-.14-.1-.26-.53-.37a6.1,6.1,0,0,0-1.5-.16,10.36,10.36,0,0,0-1.55.11c-.46.07-.73.18-.8.32q-2,4.07-3.69,8.28T260,27.05c-2.71-.08-5.46,0-8.24.1s-5.52.22-8.23.22q-.11,0-.06.48t.27.48q4,0,7.86.05c2.6,0,5.19.13,7.75.27-1.07,3-2.13,6-3.2,9-.38,1.07-.77,2.14-1.16,3.2a.53.53,0,0,0-.23.17,52.71,52.71,0,0,0-4,5.4c-1.21,1.89-2.41,3.75-3.58,5.56s-2.39,3.6-3.64,5.35A26.08,26.08,0,0,1,239.32,62c-1.07.93-1.86,1.36-2.35,1.28s-.81-.44-.91-1.12a8.25,8.25,0,0,1,.1-2.57,28.49,28.49,0,0,1,.7-3c.28-1,.55-1.89.8-2.68a6.5,6.5,0,0,1,.48-1.28q1-2.88,2-5.67T242,41.37c0-.21-.27-.35-.8-.42s-1.12-.13-1.76-.16a9.86,9.86,0,0,0-1.82.05c-.57.07-.89.18-1,.32-.23.5-.55,1.26-1,2.27s-1.07,1.87-1.6,2.76l-2.57,4.27c-.14.22-.57.84-1.28,1.87s-1.57,2.21-2.57,3.53-2.07,2.64-3.2,4A26.57,26.57,0,0,1,221.3,63a4.24,4.24,0,0,1-2.51,1.18c-.72,0-1.11-.68-1.18-2A42.34,42.34,0,0,1,218.25,52a100.79,100.79,0,0,1,2.62-11q1.66-5.56,3.85-11T229,19.83q2.08-4.75,3.85-8.56c1.18-2.53,2.08-4.58,2.73-6.15q.1-.21-.81-.42c-.6-.14-1.28-.27-2-.38a15.88,15.88,0,0,0-2.08-.16c-.64,0-1,.07-1.07.22q-1,2.78-3.26,8.07c-1.54,3.53-3.19,7.45-5,11.76s-3.47,8.79-5.07,13.42c-.64,1.83-1.19,3.6-1.69,5.33-.75,1.61-1.53,3.19-2.38,4.72a59.68,59.68,0,0,1-3.9,6.2,40,40,0,0,1-2.83,3.75q-1.56,1.82-3.27,3.53c-.57.49-1.15,1-1.76,1.49s-1.19,1-1.76,1.5c-1.36,1.07-2.09,1.09-2.2,0a13.66,13.66,0,0,1,.81-4.76q1-3.19,2.62-7.43c1.1-2.81,2.2-5.49,3.31-8s2.09-4.68,2.94-6.47a22.32,22.32,0,0,0,1.28-2.88c.07-.22-.14-.38-.64-.48a11.63,11.63,0,0,0-1.81-.22c-.72,0-1.39,0-2,0s-1,.13-1.07.27A18.76,18.76,0,0,0,200,37.79c-.5,1.25-1,2.51-1.39,3.8a6.5,6.5,0,0,0-1.28-3.32,5.23,5.23,0,0,0-3.21-1.82,4.72,4.72,0,0,0-3.48.65A14.71,14.71,0,0,0,188,39.34c-.66.8-1.28,1.63-1.9,2.47s-1.44,1.54-2.1,2.34c-.9,1.07-1.84,2.11-2.84,3.1a17,17,0,0,1-2.56,1.88,3.14,3.14,0,0,1-3.11.16,1.59,1.59,0,0,1-1-.75q2.35-4.82,4.33-9.84t3.69-10.16c.14-.35,0-.57-.37-.64a5.85,5.85,0,0,0-.91-.11,25.76,25.76,0,0,0-2.78.16,3.27,3.27,0,0,0-2.25,1.23c-.78.86-1.46,1.63-2,2.3A26.17,26.17,0,0,0,172.38,34a24.87,24.87,0,0,0-1.6,3.1,15.42,15.42,0,0,0-1.07,3.47,17.83,17.83,0,0,0-.27,3.58,7.89,7.89,0,0,0,.81,3.32,3.64,3.64,0,0,0,.69.91,6.67,6.67,0,0,1,.7.8q-1.5,3.21-3.21,6.25a67.25,67.25,0,0,1-3.75,5.94,1.26,1.26,0,0,1-.21.32.44.44,0,0,0-.11.32,1.67,1.67,0,0,0-.42.32,5.12,5.12,0,0,1,.1-1.17c0-.5,0-1,.06-1.39s.09-.9.16-1.39c.07-1.22.17-2.36.32-3.43s.28-2.17.43-3.31q.53-3.42,1.17-6.9t1.5-6.89c0-.22-.27-.38-.8-.49s-1.14-.19-1.82-.26a8.89,8.89,0,0,0-1.93,0c-.6.07-.9.18-.9.32-.3,1.34-.54,2.63-.75,3.86-1,2.2-2,4.34-3.16,6.4a59.68,59.68,0,0,1-3.9,6.2,40,40,0,0,1-2.83,3.75q-1.56,1.82-3.26,3.53c-.58.49-1.16,1-1.77,1.49s-1.19,1-1.76,1.5c-1.36,1.07-2.09,1.09-2.2,0a13.66,13.66,0,0,1,.81-4.76q1-3.19,2.62-7.43c1.1-2.81,2.2-5.49,3.31-8s2.09-4.68,2.94-6.47a22.32,22.32,0,0,0,1.28-2.88c.07-.22-.14-.38-.64-.48a11.63,11.63,0,0,0-1.81-.22c-.72,0-1.39,0-2,0s-1,.13-1.07.27a18.76,18.76,0,0,0-1.92,3.58c-.5,1.25-1,2.51-1.39,3.8a6.5,6.5,0,0,0-1.28-3.32,5.23,5.23,0,0,0-3.21-1.82,4.72,4.72,0,0,0-3.48.65,14.71,14.71,0,0,0-2.62,2.24A55,55,0,0,0,128.85,47l-1.7,2.46q-2,2.94-4.17,5.93l-2.08,2.94c-.68,1-1.37,1.94-2.09,2.94a5,5,0,0,0-.64.86,1.86,1.86,0,0,1-.75.75c-.57.21-.5-.45.22-2s1.66-3.49,2.83-5.88,2.37-4.94,3.58-7.65A38,38,0,0,0,126.57,40q.69-3.27-.43-4.92c-.75-1.11-2.51-1.23-5.29-.38a9.77,9.77,0,0,0-3,1.71,21.38,21.38,0,0,0-2.68,2.62c-.82,1-1.58,2-2.29,3s-1.36,2-1.93,2.83q-1.61,2.15-3.1,4.44c-1,1.53-1.92,3.12-2.78,4.76a121,121,0,0,1,4.17-12.73c.07-.21-.14-.35-.64-.42a12.39,12.39,0,0,0-1.71-.11,13.77,13.77,0,0,0-1.77.11c-.53.07-.83.17-.91.32s-.18.44-.28.66c-1.18,1.56-2.54,3.33-4.1,5.32-1.78,2.29-3.62,4.44-5.5,6.47a67.9,67.9,0,0,1-5.51,5.35,10.18,10.18,0,0,1-4.71,2.62c.57-1.28,1.29-2.82,2.14-4.6a44.26,44.26,0,0,0,2.19-5.4,20.28,20.28,0,0,0,1.07-5.24,5.28,5.28,0,0,0-1.33-4.11c-1-1.07-1.79-1.62-2.36-1.66a3.54,3.54,0,0,0-.84,0l.63-.39a15.94,15.94,0,0,0,2.89-3.1,15.49,15.49,0,0,0,1.82-2.72,3,3,0,0,0,.1-3.16c-1.07-1.56-2.17-2.42-3.31-2.56a4.24,4.24,0,0,0-3.16.85,11.72,11.72,0,0,0-2.67,2.89,18.4,18.4,0,0,0-1.87,3.42,2.88,2.88,0,0,0-.16,2,6.64,6.64,0,0,0,.91,2,10.77,10.77,0,0,0,.67.88.58.58,0,0,0-.25.29Q79,44.47,77.27,47.68a59.68,59.68,0,0,1-3.9,6.2,38.38,38.38,0,0,1-2.83,3.75c-1,1.21-2.12,2.39-3.26,3.53-.58.49-1.16,1-1.77,1.49s-1.19,1-1.76,1.5c-1.36,1.07-2.09,1.09-2.19,0a13.59,13.59,0,0,1,.8-4.76q1-3.19,2.62-7.43c1.1-2.81,2.21-5.49,3.31-8s2.09-4.68,2.94-6.47a23.44,23.44,0,0,0,1.29-2.88c.07-.22-.15-.38-.65-.48a11.63,11.63,0,0,0-1.81-.22c-.72,0-1.39,0-2,0s-1,.13-1.06.27A18.27,18.27,0,0,0,65,37.79c-.5,1.25-1,2.51-1.39,3.8a6.5,6.5,0,0,0-1.28-3.32,5.23,5.23,0,0,0-3.21-1.82,4.72,4.72,0,0,0-3.48.65,14.71,14.71,0,0,0-2.62,2.24c-.34.41-.66.84-1,1.26a.76.76,0,0,0-.29.24Q46.85,46.29,42.47,52t-9.3,11.18Q30.71,65.86,28,68.53A28.6,28.6,0,0,1,22.05,73a8.08,8.08,0,0,1-3.75,1.34,4.52,4.52,0,0,1-3.63-1.55,12,12,0,0,1-3.74-8.13,27.89,27.89,0,0,1,1.39-10.26,52.89,52.89,0,0,1,5-11.07,110.41,110.41,0,0,1,7-10.48,91.28,91.28,0,0,1,7.27-8.55,33.25,33.25,0,0,1,6-5.19,23.31,23.31,0,0,1,3.58-1.82,4.5,4.5,0,0,1,3.8,0,2.81,2.81,0,0,1,1.44,1.56,5.59,5.59,0,0,1,.32,2.24,13.83,13.83,0,0,1-.32,2.41,15.3,15.3,0,0,1-.59,2,16.47,16.47,0,0,1-1.39,3.21c-.57,1-1.21,2-1.92,3a37.93,37.93,0,0,1-5.3,5.67q-2.94,2.56-6,5c-.14.15-.16.25,0,.32a1.81,1.81,0,0,0,.48.22,1.44,1.44,0,0,0,.69.05,1.84,1.84,0,0,0,.59-.16q3.21-2.35,6.31-4.92a37.7,37.7,0,0,0,5.56-5.67,22.11,22.11,0,0,0,4-7,23,23,0,0,0,.85-3.64A6.16,6.16,0,0,0,49.21,18a5.84,5.84,0,0,0-3-2.52,17.9,17.9,0,0,0-4.6-1.23,25.16,25.16,0,0,0-4.81-.16,10.71,10.71,0,0,0-3.53.7A25.32,25.32,0,0,0,27.5,18.7a70,70,0,0,0-6.58,6.63,87.19,87.19,0,0,0-6.52,8.51,76.24,76.24,0,0,0-5.51,9.51,58,58,0,0,0-3.68,9.73,25.73,25.73,0,0,0-1,9.14A16.36,16.36,0,0,0,6.92,70,15.35,15.35,0,0,0,14,75.48a9,9,0,0,0,3.9.81,12.47,12.47,0,0,0,3.8-.7,18.25,18.25,0,0,0,3.58-1.76,28.94,28.94,0,0,0,3.26-2.41,70.18,70.18,0,0,0,7-6.68q3.27-3.58,6.37-7.43,1.62-1.89,3.21-3.8c-.17.62-.32,1.25-.44,1.87a10.2,10.2,0,0,0,.06,4.28,3.32,3.32,0,0,0,2.72,2.46,6,6,0,0,0,3,.05,9.66,9.66,0,0,0,2.78-1.23,14.5,14.5,0,0,0,2.51-2A21.42,21.42,0,0,0,58,56.45v.43a18.92,18.92,0,0,0-.64,4.06,6.55,6.55,0,0,0,1.07,4,4.05,4.05,0,0,0,2.46,1.6,4.78,4.78,0,0,0,3-.32,14,14,0,0,0,3.43-2.3c1.07-1,2.06-1.94,3-2.94q2.67-2.88,5.13-6.09a55.26,55.26,0,0,0,4.23-6.47c1-1.89,2-3.86,2.94-5.87.29.24.57.47.85.68.71.57.8,1.68.27,3.32a45.18,45.18,0,0,1-2.19,5.34c-.93,1.93-1.8,3.76-2.62,5.51a7.37,7.37,0,0,0-1,3.8q.75,3.95,3,4.49A7.24,7.24,0,0,0,86,64.52a32,32,0,0,0,6.2-4.75,85.3,85.3,0,0,0,6.1-6.42c.79-.93,1.52-1.82,2.21-2.7-.19.58-.38,1.16-.56,1.74-1.13,3.78-2.1,7.59-2.88,11.44q-.1.32.75.48a9.88,9.88,0,0,0,1.87.16,11.76,11.76,0,0,0,2-.16c.64-.11,1-.27,1.06-.48q1.94-4.28,4.12-8.34t4.65-8A75,75,0,0,1,117,39.88c.21-.29.51-.66.91-1.13s.8-.92,1.22-1.39a11.75,11.75,0,0,1,1.34-1.23,2.25,2.25,0,0,1,1.34-.53h.43q-.12,0,0,.21a1.62,1.62,0,0,1,.1,1.55c-.21.68-.39,1.2-.53,1.55l-2.25,5.14-2.94,5.66q-1.44,2.79-2.62,5.67c-.21.57-.5,1.3-.85,2.19a12.38,12.38,0,0,0-.75,2.68,6.38,6.38,0,0,0,0,2.51,2.72,2.72,0,0,0,1.45,1.82,4.3,4.3,0,0,0,3.95,0A8.43,8.43,0,0,0,121,62c1.68-2.16,3.28-4.37,4.82-6.64h0a10.2,10.2,0,0,0,.06,4.28,3.32,3.32,0,0,0,2.72,2.46,6,6,0,0,0,3.05.05,9.66,9.66,0,0,0,2.78-1.23,14.5,14.5,0,0,0,2.51-2A21.42,21.42,0,0,0,139,56.45v.43a18.32,18.32,0,0,0-.64,4.06,6.49,6.49,0,0,0,1.07,4,4.05,4.05,0,0,0,2.46,1.6,4.78,4.78,0,0,0,3-.32,14.22,14.22,0,0,0,3.43-2.3c1.06-1,2.06-1.94,3-2.94q2.67-2.88,5.13-6.09a54.55,54.55,0,0,0,4.2-6.43c0,.37-.06.76-.08,1.13q-.16,2.84-.27,5.67T160,61.16a2.67,2.67,0,0,0,1,2.4,3.94,3.94,0,0,0,3,.7,3.32,3.32,0,0,0,1.71-.7,6.38,6.38,0,0,0,1.34-1.44,17.71,17.71,0,0,0,1.07-1.77c.32-.6.62-1.19.91-1.76q1.17-1.92,2.24-4c.72-1.35,1.46-2.74,2.25-4.17a7.49,7.49,0,0,0,3.26.59,9.84,9.84,0,0,0,3.37-.69,8,8,0,0,0,1.28-.63l-.43,1a22.7,22.7,0,0,0-1.39,4.65,10.2,10.2,0,0,0,.06,4.28,3.32,3.32,0,0,0,2.72,2.46,6,6,0,0,0,3,.05,9.66,9.66,0,0,0,2.78-1.23,14.5,14.5,0,0,0,2.51-2,21.42,21.42,0,0,0,2.14-2.46v.43a18.32,18.32,0,0,0-.64,4.06,6.49,6.49,0,0,0,1.07,4,4.05,4.05,0,0,0,2.46,1.6,4.78,4.78,0,0,0,3-.32,14,14,0,0,0,3.42-2.3q1.6-1.44,3-2.94,2.67-2.88,5.13-6.09c.75-1,1.46-2,2.14-3a31.1,31.1,0,0,0-.37,9.28c.39,3,1.72,4.9,4,5.83a5.55,5.55,0,0,0,5.23-.54,21.55,21.55,0,0,0,5-4.22,39.69,39.69,0,0,0,4.17-5.51l1.18-1.88h0a17.62,17.62,0,0,0-.48,5.14,5.63,5.63,0,0,0,1.49,3.68q1.33,1.4,4.44,1.07a6.12,6.12,0,0,0,3.26-1.23,15.89,15.89,0,0,0,2.83-2.62,28.1,28.1,0,0,0,2.36-3.15c.71-1.1,1.35-2.09,1.92-2.94,1.45-2.08,3-4.19,4.56-6.33-.86,2.18-1.76,4.51-2.69,7q-1.75,4.77-3.1,9.68a76.34,76.34,0,0,0-2,9.63,28.33,28.33,0,0,0,0,8.44c.08.22.4.38,1,.48a9.88,9.88,0,0,0,1.87.16,7.81,7.81,0,0,0,1.87-.21c.57-.14.85-.36.85-.64.65-5.21,1.48-10.09,2.52-14.65s2.21-9,3.53-13.31,2.72-8.61,4.22-12.89S263.23,33.35,264.87,28.65ZM60.11,50.14a67,67,0,0,1-5,6.74l-1.61,1.87a10,10,0,0,1-1.87,1.76,1.78,1.78,0,0,1-1.66.38q-.73-.27-1-2.19A8.33,8.33,0,0,1,49.58,55,40.9,40.9,0,0,1,51.66,50a53.09,53.09,0,0,1,2.84-5,19.56,19.56,0,0,1,3-3.74A3.73,3.73,0,0,1,60,40c.72,0,1.18.8,1.39,2.3a10.61,10.61,0,0,1,.17,2.4,19.1,19.1,0,0,1-.27,2.41A24.52,24.52,0,0,1,60.11,50.14ZM83,39.56a6.23,6.23,0,0,1,.59-1.93A23.4,23.4,0,0,1,85,34.9a15.59,15.59,0,0,1,1.66-2.29c.57-.65,1.07-.86,1.5-.65a1.07,1.07,0,0,1,.16.81,2.71,2.71,0,0,1-.16.8,7,7,0,0,1-2,3.79A10.59,10.59,0,0,1,83,39.56Zm58.17,10.58a67,67,0,0,1-5,6.74l-1.61,1.87a10.31,10.31,0,0,1-1.87,1.76,1.78,1.78,0,0,1-1.66.38q-.75-.27-1-2.19a8.33,8.33,0,0,1,.59-3.75A40.9,40.9,0,0,1,132.71,50a53.09,53.09,0,0,1,2.84-5,19.56,19.56,0,0,1,3-3.74A3.73,3.73,0,0,1,141.05,40c.72,0,1.18.8,1.39,2.3a10.07,10.07,0,0,1,.16,2.4,17.42,17.42,0,0,1-.26,2.41A24.52,24.52,0,0,1,141.16,50.14ZM173.24,46a1.32,1.32,0,0,0-.05-.37.83.83,0,0,1-.06-.27,12.07,12.07,0,0,1,1.29-6.84,42.39,42.39,0,0,1,3.52-5.56A19.37,19.37,0,0,1,179,31.11,133.16,133.16,0,0,1,173.24,46Zm21.81,4.17a67,67,0,0,1-5,6.74l-1.61,1.87a10.31,10.31,0,0,1-1.87,1.76,1.78,1.78,0,0,1-1.66.38q-.75-.27-1-2.19a8.33,8.33,0,0,1,.59-3.75A40.9,40.9,0,0,1,186.6,50a53.09,53.09,0,0,1,2.84-5,19.56,19.56,0,0,1,3-3.74A3.73,3.73,0,0,1,194.94,40c.72,0,1.18.8,1.39,2.3a10.07,10.07,0,0,1,.16,2.4,17.42,17.42,0,0,1-.26,2.41A24.52,24.52,0,0,1,195.05,50.14Z"/><path class="cls-2" d="M290.32,40.79a2,2,0,0,0-1.39.26c-.78.93-1.51,1.87-2.19,2.84s-1.37,1.94-2.09,2.94-1.76,2.1-2.72,3.31a7.32,7.32,0,0,1-3.26,2.46.9.9,0,0,0-.26.16c.34-.92.75-2.21,1.22-3.9a39.89,39.89,0,0,0,1.12-5.45,17.68,17.68,0,0,0,0-5.14A4.32,4.32,0,0,0,278.67,35a4.74,4.74,0,0,0-3.85-.59,5.85,5.85,0,0,0-2.73,2.14A11.59,11.59,0,0,0,270.38,40a24.33,24.33,0,0,0-.8,3.32c-.29-.07-.75-.16-1.39-.27s-1-.09-1.18,0a8,8,0,0,0-3.53,2.57A17,17,0,0,0,260.86,50a19.74,19.74,0,0,0-1.33,5.08,10.2,10.2,0,0,0,.42,4.71A6,6,0,0,0,262.57,63a8.34,8.34,0,0,0,5.3.69,9,9,0,0,0,3.42-1.28,13.89,13.89,0,0,0,2.73-2.3,16.7,16.7,0,0,0,2.13-2.89c.61-1,1.16-2,1.66-3h.43a5.84,5.84,0,0,0,3.74-1.4c.79-.78,1.75-1.78,2.89-3s2.24-2.62,3.31-4a33.16,33.16,0,0,0,2.89-4.44C291.28,41,291,40.82,290.32,40.79ZM273.53,55.54a6,6,0,0,1-.85,1.34,15.31,15.31,0,0,1-1.6,2.51,14.32,14.32,0,0,1-2.14,2.19,2.93,2.93,0,0,1-2.14.8,1.83,1.83,0,0,1-1.29-.85,4.62,4.62,0,0,1-.58-1.76,5.56,5.56,0,0,1,.05-2,29.12,29.12,0,0,1,1.6-5.4q1.08-2.61,2.25-5.08a14.06,14.06,0,0,0,.11,1.72,4.32,4.32,0,0,0,.53,1.6,5.21,5.21,0,0,0,1.93,2.35,8.06,8.06,0,0,0,2.78,1.18C274,54.6,273.75,55.08,273.53,55.54ZM278,40.14a31.66,31.66,0,0,1-.69,4.6,43.42,43.42,0,0,1-1.29,4.6c-.5,1.46-.92,2.62-1.28,3.47a2.65,2.65,0,0,1-1.5-1.87,11.83,11.83,0,0,1-.42-3.31,21.4,21.4,0,0,1,.37-3.9,20.14,20.14,0,0,1,1-3.69,9.23,9.23,0,0,1,1.49-2.68,1.84,1.84,0,0,1,1.82-.8A7.23,7.23,0,0,1,278,40.14Zm.38,12.78s0-.08,0-.12h.06C278.6,52.81,278.56,52.85,278.35,52.92Z"/></g></g></svg>