<svg xmlns="http://www.w3.org/2000/svg" viewBox="0 0 291.16 141.85"><defs><style>.cls-1{fill:#10dada;}.cls-2{fill:#fff;}.cls-3{fill:#602f80;}</style></defs><g id="Capa_2" data-name="Capa 2"><g id="Capa_1-2" data-name="Capa 1"><path class="cls-1" d="M116.55,0h68.53a12.59,12.59,0,0,1,12.59,12.59V43.11a0,0,0,0,1,0,0H104a0,0,0,0,1,0,0V12.59A12.59,12.59,0,0,1,116.55,0Z"/><path class="cls-2" d="M290.36,44.77a7.44,7.44,0,0,0-6.6-3.82,9,9,0,0,0-7,2.3l-.36.39c-.26.31-.52.61-.77.92-.06-.66-.14-1.31-.24-2A12.82,12.82,0,0,0,269,33l-.18-.1a14,14,0,0,0-18.19,4.29,24.43,24.43,0,0,0-2.07,3.45,12.49,12.49,0,0,0-2-5.39c-2-2.95-6.27-5.89-15.26-3.13l-.15,0a21.21,21.21,0,0,0-6.65,3.71,37.28,37.28,0,0,0-4.87,4.78c-.42.49-.83,1-1.24,1.5a8.53,8.53,0,0,0-2.86-.89,27.86,27.86,0,0,0-7,0,9.22,9.22,0,0,0-4.11,1.49V40.52l1.66-.76a23.81,23.81,0,0,0,2.79-1.52,7.33,7.33,0,0,0,3.54-8.06,11,11,0,0,0-1.58-3.63,11.41,11.41,0,0,0-2.64-2.81c-5.73-4.3-12.64,1.12-17.18,5a13.23,13.23,0,0,1-4.13,2.74,28.16,28.16,0,0,1-3.88.7c-3.57.68-6.56,3-9.8,4.65-2.63,1.35-7.22,2.9-9.9.81-2.53-2-2-4.53-5.79-5.48a18.05,18.05,0,0,0-8.45-.34,10.35,10.35,0,0,0-6.58,4.91c-4.75-1.63-11.27-1.65-15.82.6-5.39,2.65-5.8.14-6.87-5.06A13,13,0,0,0,111,22.61c-5.15-1.52-11.42,1.06-15.53,4.19.18-1.54.37-3.1.61-4.64a44.89,44.89,0,0,0,.47-4.94,24.7,24.7,0,0,0-.44-5.63,13.53,13.53,0,0,0-3-6.26A11.65,11.65,0,0,0,83.37,1,16.06,16.06,0,0,0,75.13,4.1,37.2,37.2,0,0,0,69,9.69c-1.74,2-3.41,4-5,6s-2.95,4-4.1,5.77-1.89,3-2.38,3.81q-3.21,5.15-6.33,10.18l-.07.12A24.26,24.26,0,0,0,50,30a17.74,17.74,0,0,0-6.45-8.7c-3.11-2.24-7.28-3.31-12.38-3.16l-.29,0a26.11,26.11,0,0,0-15.15,6.18A44.92,44.92,0,0,0,6.05,35.45a50,50,0,0,0-3.9,8.16,33.59,33.59,0,0,0-2.1,9.72A24.91,24.91,0,0,0,1.48,63.45a18.31,18.31,0,0,0,7.24,9c1.58,1.2,4.06,2,7.7.41A18.7,18.7,0,0,0,19.74,71c.29-.2.57-.39.83-.59C19.25,74,18.1,77.18,17.11,80S15.16,85.32,14,88.06a49.88,49.88,0,0,0-3,10l-.11.59v.59c0,2.88,1.86,6.47,7.11,7.08a38,38,0,0,0,7.84,0c1.2-.14,4.78-.54,6.57-3.78A39.24,39.24,0,0,0,35,97c.56-1.47,1.1-3,1.6-4.47,6-11.13,12.33-22.3,18.82-33.19C58.68,54,62,48.57,65.36,43.21c-.87,2.73-1.72,5.34-2.55,7.79q-1.8,5.3-3.09,9.27c-.87,2.63-1.41,4.35-1.67,5.24L54.77,76a39.41,39.41,0,0,0-1.83,13c.08,2.4,1.7,6.31,7.37,6.68a52.1,52.1,0,0,0,6.25,0c3.24-.22,5.5-1.54,6.71-3.94l.23-.44.66-2c2.13-4.47,4.31-9.09,6.48-13.74a112.23,112.23,0,0,1,7-12.83l.08-.12c2.42-4,5.06-8,7.86-11.95-.43,1.54-.84,2.93-1.24,4.18-.77,2.36-1,3-1.09,3.2a174.28,174.28,0,0,0-5.54,16.78,105,105,0,0,0-3.27,18.08l0,.29a29.55,29.55,0,0,0,.92,8.77,13.54,13.54,0,0,0,8.43,9.33,16.29,16.29,0,0,0,5,1.1c.69.06,1.39.09,2.08.09a25.05,25.05,0,0,0,3.13-.2,22,22,0,0,0,5.14-1.26,9.83,9.83,0,0,0,5.83-5.28l.06-.16a7,7,0,0,0-.65-6.58,7.26,7.26,0,0,0-6.18-3.1,10.37,10.37,0,0,0-2.48.26,24.51,24.51,0,0,1,.46-4.07c.65-3.51,1.6-7.44,2.82-11.67a11.78,11.78,0,0,0,7.63,5.47,15.22,15.22,0,0,0,7.81.07,20.62,20.62,0,0,0,3.43-1.22,17.46,17.46,0,0,0,1.38,2.59l.26.36A12.63,12.63,0,0,0,137,92.61a13.73,13.73,0,0,0,8.43-.87l.21-.09a28,28,0,0,0,6.74-4.52c1.77-1.59,3.43-3.22,5-4.86l1.32-1.45c.21.32.42.65.64,1a10.43,10.43,0,0,0,2.2,2.41c-.07.22-.13.44-.19.66a10.66,10.66,0,0,0,1.51,8.7A16,16,0,0,0,163.94,95a74.6,74.6,0,0,0-8.88,5.46,52.41,52.41,0,0,0-8,7,24.77,24.77,0,0,0-5.62,9.31l0,.1a21,21,0,0,0-.49,9.81,15.74,15.74,0,0,0,5.41,9.43,19.67,19.67,0,0,0,5.67,3.34,32.85,32.85,0,0,0,6.33,1.81,35.61,35.61,0,0,0,6.33.59,17,17,0,0,0,6.78-1.3,29.2,29.2,0,0,0,11.16-7.91,37.5,37.5,0,0,0,7-11.61,40.79,40.79,0,0,0,1.39-4.4L198.65,102a18.64,18.64,0,0,1,3,.66,5.14,5.14,0,0,1,2,1.1,7.42,7.42,0,0,0,4.77,2.61,11.25,11.25,0,0,0,3,0,8.46,8.46,0,0,0,4-1.57,6.89,6.89,0,0,0,1.87-8.9,15.47,15.47,0,0,0-8.31-7.7l-.13,0a6.9,6.9,0,0,0,3-3.4q1-2.2,2-4.36A15.13,15.13,0,0,0,214.2,82a10.57,10.57,0,0,0,5.41,7l.32.17a13,13,0,0,0,11.65-.06,20.18,20.18,0,0,0,5.09-3.61,16.2,16.2,0,0,0,1.52,1c3.15,1.89,7.23,2.54,12.13,1.92l.26,0a19.9,19.9,0,0,0,7.61-2.88,27.34,27.34,0,0,0,5.38-4.53,31.86,31.86,0,0,0,4.06-5.48c.36-.62.72-1.25,1.06-1.87a13.57,13.57,0,0,0,6.73-3.52c1.24-1.24,2.75-2.81,4.5-4.67l.12-.13c1.83-2.06,3.62-4.22,5.3-6.41a58,58,0,0,0,4.88-7.49A6.91,6.91,0,0,0,290.36,44.77ZM27.75,45A108.85,108.85,0,0,1,25,57c-.31,1.08-.63,2.16-1,3.23a6.68,6.68,0,0,0-1.93-2.07,9.45,9.45,0,0,1-3.06-3.5,9.27,9.27,0,0,1-.88-4.21,14.09,14.09,0,0,1,1.07-5,24.15,24.15,0,0,1,2.81-5.18,34.14,34.14,0,0,1,4.25-4.94,13,13,0,0,1,1.16-1c.13.42.26,1,.4,1.61A26,26,0,0,1,27.75,45Zm141.46,69.24a21,21,0,0,1-2.52,4.55,17.73,17.73,0,0,1-3.49,3.54l-.39.33a8.23,8.23,0,0,1-2.1,1.35,5.88,5.88,0,0,1-1.71.54l-.06-.16a3.72,3.72,0,0,1,.19-3.38,21.38,21.38,0,0,1,4.73-6.12,42.24,42.24,0,0,1,6.41-4.86A18.66,18.66,0,0,1,169.21,114.22ZM189,86.84c-1.37.25-2.67.51-3.88.79l-.37-.34-1.34-1.22a25.24,25.24,0,0,0,7.49-4.48,6.77,6.77,0,0,0,.89,4.19c.13.21.26.41.4.6C191.13,86.5,190.07,86.64,189,86.84Zm3.29,18.88A32,32,0,0,0,192,102q.67-.09,1.35-.15Z"/><path class="cls-3" d="M111.59,28.46a5.74,5.74,0,0,0-4.77-.49,15,15,0,0,0-4.44,2.27,42.08,42.08,0,0,0-7.51,7.42q-3.8,4.7-7.43,9.94T80.74,58q-3.08,5.16-5,9a1.51,1.51,0,0,0,.16-.64,1.42,1.42,0,0,1,.16-.65q1.62-5,3.88-10.26T84.37,45q2.17-5.23,4-10.49a58.35,58.35,0,0,0,2.66-10.58c.11-1.08.27-2.32.49-3.72A37.28,37.28,0,0,0,92,16a17.69,17.69,0,0,0-.32-4.12A7,7,0,0,0,90.1,8.59a5.21,5.21,0,0,0-4.36-2.1,9.69,9.69,0,0,0-4.92,1.94,30.35,30.35,0,0,0-5,4.6c-1.67,1.89-3.23,3.77-4.68,5.66s-2.72,3.66-3.8,5.33-1.83,2.88-2.26,3.63q-3.24,5.18-6.38,10.26T52.31,48.16q-4.2,7.11-8,14.14T36.8,76.59c.76-2.15,1.48-4.22,2.18-6.22s1.38-4,2-6.05,1.4-4.5,2.26-7.35,1.62-5.79,2.27-8.81a58.37,58.37,0,0,0,1.21-9,20.83,20.83,0,0,0-1-8,11.31,11.31,0,0,0-4.12-5.57c-1.94-1.4-4.74-2-8.4-1.94A19.79,19.79,0,0,0,21.78,28.3a38.08,38.08,0,0,0-8.23,9.53,42.8,42.8,0,0,0-3.4,7.1,26.87,26.87,0,0,0-1.69,7.84,18.32,18.32,0,0,0,1,7.51,12,12,0,0,0,5,6c.11.11.54,0,1.3-.32A12.65,12.65,0,0,0,18,64.72c.7-.49,1.31-.94,1.85-1.37s.7-.7.49-.81a15.3,15.3,0,0,1-6.7-13.17,20.54,20.54,0,0,1,1.53-7.26,30,30,0,0,1,3.55-6.54,39.5,39.5,0,0,1,5.09-5.9,13.23,13.23,0,0,1,5.09-3.23,4.42,4.42,0,0,1,4.36.89q1.94,1.62,2.91,6.46a32.06,32.06,0,0,1-.08,11.3,113.31,113.31,0,0,1-2.91,12.76q-1.86,6.46-4.12,12.6T25.17,81.11q-1.44,4.2-3.23,8.48a43.3,43.3,0,0,0-2.58,8.64c0,.33.46.54,1.37.65a26.87,26.87,0,0,0,3.15.16,28.82,28.82,0,0,0,3.23-.16q1.45-.16,1.62-.48a32.7,32.7,0,0,0,2.18-4.61Q31.8,91.45,32.6,89,41.81,71.9,51.82,55.11T72.66,22a49.19,49.19,0,0,1,5.65-7.84C79.5,13,80.22,13,80.49,14.08s.14,3-.4,5.74-1.29,5.95-2.26,9.61-2.08,7.48-3.31,11.47-2.45,7.72-3.64,11.22-2.21,6.57-3.07,9.21-1.4,4.33-1.61,5.09L62.89,77A33.26,33.26,0,0,0,61.35,87.9c0,.21.43.34,1.3.4s1.77.08,2.74.08,1.86,0,2.67-.08,1.26-.19,1.37-.4.21-.65.32-1l.33-1q3.39-7.11,6.62-14a119,119,0,0,1,7.43-13.57q4.2-6.95,9.12-13.73a89.59,89.59,0,0,1,10.91-12.44q1.94-1.61,2.58-.48a7.7,7.7,0,0,1,.48,4,37.48,37.48,0,0,1-1,6.54c-.59,2.48-1.21,4.92-1.85,7.35s-1.27,4.55-1.86,6.38-1,3-1.21,3.55a164,164,0,0,0-5.33,16.15,98.08,98.08,0,0,0-3.07,17,22.87,22.87,0,0,0,.73,6.87,7,7,0,0,0,4.6,4.92,10.27,10.27,0,0,0,3.07.65,19.26,19.26,0,0,0,3.87-.08,16,16,0,0,0,3.64-.89,3.57,3.57,0,0,0,2.18-1.78q.32-.81-.81-.81a2.15,2.15,0,0,0-1.45.33q-2.27,1.93-4.2.64a7.21,7.21,0,0,1-2.75-3.23q-1.12-3.06,0-9.2A134.53,134.53,0,0,1,105,76.51q2.19-7.35,4.69-15.26t4-14.7A50.21,50.21,0,0,0,115,34.84Q114.82,29.92,111.59,28.46Z"/><path class="cls-3" d="M208.49,93.23a22.64,22.64,0,0,0-7.75-1.62,39.44,39.44,0,0,0-8.64.65A64,64,0,0,0,184.59,94a8.15,8.15,0,0,0-2.26-2.9l-3.56-3.23A20.7,20.7,0,0,1,176,84.83a1.91,1.91,0,0,1-.08-2.59,7.22,7.22,0,0,1,1.37-1.13c.38-.21.89-.53,1.53-1A19,19,0,0,0,190,74.41a28.78,28.78,0,0,0,6.7-11.06,33.67,33.67,0,0,0,1.7-12.84,19.93,19.93,0,0,0-3.64-10.91A6.94,6.94,0,0,1,197.67,37c1.51-1,2.72-1.7,3.64-2.18s1.66-.86,2.26-1.13l1.77-.81a19.51,19.51,0,0,0,2.18-1.21.87.87,0,0,0,.49-1.05,4.14,4.14,0,0,0-.65-1.45A4.9,4.9,0,0,0,206.23,28a2,2,0,0,0-1-.48A35.83,35.83,0,0,0,198.4,31a28.26,28.26,0,0,0-5.57,4.85c-.22.22-.49.46-.81.73a4.46,4.46,0,0,0-.81.88,15.67,15.67,0,0,0-9.29-.08,21.59,21.59,0,0,0-8,4.53,28.64,28.64,0,0,0-6.06,7.67,36.12,36.12,0,0,0-3.32,8.28,91.3,91.3,0,0,1-5.32,8.35A59.63,59.63,0,0,1,155,71.91q-2.34,2.75-4.92,5.33c-.87.75-1.76,1.51-2.67,2.26s-1.8,1.51-2.66,2.26c-2,1.61-3.15,1.64-3.32.08s.25-4,1.22-7.19,2.28-7,4-11.22,3.34-8.29,5-12.12,3.15-7.08,4.44-9.77a35.24,35.24,0,0,0,1.94-4.36c.11-.32-.22-.56-1-.73a18.48,18.48,0,0,0-2.75-.32q-1.6-.08-3.06,0c-1,.06-1.51.19-1.62.4A27.84,27.84,0,0,0,146.63,42q-1.12,2.82-2.1,5.73a9.82,9.82,0,0,0-1.93-5,7.78,7.78,0,0,0-4.85-2.74,7.09,7.09,0,0,0-5.25,1,21.66,21.66,0,0,0-4,3.39,81.83,81.83,0,0,0-8.07,11.79q-1,1.94-2.42,5.41a33.94,33.94,0,0,0-2.1,7A15.22,15.22,0,0,0,116,75a5,5,0,0,0,4.11,3.71,8.92,8.92,0,0,0,4.61.08,14.48,14.48,0,0,0,4.2-1.86,22.69,22.69,0,0,0,3.79-3.06A35,35,0,0,0,136,70.13v.65a28,28,0,0,0-1,6.13,9.86,9.86,0,0,0,1.62,6,6.14,6.14,0,0,0,3.71,2.42,7.35,7.35,0,0,0,4.53-.48A21.4,21.4,0,0,0,150,81.36q2.41-2.19,4.52-4.45,4-4.35,7.75-9.2c.4-.52.77-1.06,1.16-1.59a25.78,25.78,0,0,0,.13,2.64,17.76,17.76,0,0,0,3.07,8.48,6.19,6.19,0,0,0,3.23,2.18,18.81,18.81,0,0,0,3.72,1q-3.56,3.06-4,5a4.1,4.1,0,0,0,.56,3.48,16.24,16.24,0,0,0,3,3.15,15.7,15.7,0,0,1,3.39,4q-3.39,1.45-7.59,3.64a67.77,67.77,0,0,0-8.15,5,46.26,46.26,0,0,0-7,6.14,18.43,18.43,0,0,0-4.2,6.87,14.3,14.3,0,0,0-.32,6.78,9.11,9.11,0,0,0,3.23,5.65,13.31,13.31,0,0,0,3.87,2.27,26.62,26.62,0,0,0,5.09,1.45,29.18,29.18,0,0,0,5.17.48,10.41,10.41,0,0,0,4.28-.8,22.65,22.65,0,0,0,8.8-6.22,31,31,0,0,0,5.82-9.61,35.25,35.25,0,0,0,2.26-11,22.54,22.54,0,0,0-1.86-10.33,31.31,31.31,0,0,1,6.38-1.7,32.55,32.55,0,0,1,6.87-.4,24.91,24.91,0,0,1,6.46,1.13,11.22,11.22,0,0,1,5,3.07.92.92,0,0,0,.73.4,4.89,4.89,0,0,0,1.21,0,2.16,2.16,0,0,0,1-.32c.22-.16.22-.41,0-.73A9,9,0,0,0,208.49,93.23ZM139.2,60.6a98.88,98.88,0,0,1-7.59,10.18l-2.42,2.82a16,16,0,0,1-2.83,2.67,2.7,2.7,0,0,1-2.5.56c-.75-.27-1.24-1.37-1.45-3.31a12.59,12.59,0,0,1,.88-5.65,60.3,60.3,0,0,1,3.15-7.43,80.38,80.38,0,0,1,4.28-7.51,29.11,29.11,0,0,1,4.53-5.65c1.45-1.35,2.71-2,3.79-1.94s1.78,1.21,2.1,3.47a15.69,15.69,0,0,1,.24,3.63,27.2,27.2,0,0,1-.4,3.64A34.15,34.15,0,0,1,139.2,60.6ZM173.28,76a13.11,13.11,0,0,1-1.21-6.3,33.88,33.88,0,0,1,1.13-7.84,32.23,32.23,0,0,1,2-6c.75-1.73,1.59-3.56,2.5-5.5a37.5,37.5,0,0,1,3.07-5.33,14.24,14.24,0,0,1,3.8-3.79,6.52,6.52,0,0,1,4.52-1,9.83,9.83,0,0,1-2.26,2.42c-.65.43-.7,1.19-.16,2.26a4.34,4.34,0,0,0,1.61,1.46q1.29.81,1.62.48a2.82,2.82,0,0,0,1.21-1.37,11,11,0,0,1,.89-1.86,6.62,6.62,0,0,1,1.69,4.68,25.35,25.35,0,0,1-.8,6.71,49.81,49.81,0,0,1-2.59,7.59,47.64,47.64,0,0,1-3.79,7.19,36.9,36.9,0,0,1-4.2,5.41,7.68,7.68,0,0,1-3.88,2.5C175.87,78.26,174.14,77.7,173.28,76Zm5.58,31.49a26.43,26.43,0,0,1-1.7,8.16,27.12,27.12,0,0,1-3.31,6,24.08,24.08,0,0,1-4.77,4.85,14.4,14.4,0,0,1-3.71,2.42,12.07,12.07,0,0,1-4.12,1.13,6.66,6.66,0,0,1-3.71-.72,6.13,6.13,0,0,1-2.67-3.48,10.16,10.16,0,0,1,.4-8.72,27.64,27.64,0,0,1,6.14-8,48,48,0,0,1,8.56-6.3,47.28,47.28,0,0,1,7.84-3.8A23.47,23.47,0,0,1,178.86,107.52Z"/><path class="cls-3" d="M285.37,46.47a2.91,2.91,0,0,0-2.1.4c-1.18,1.4-2.29,2.83-3.31,4.28s-2.07,2.94-3.15,4.44q-1.94,2.27-4.12,5a11,11,0,0,1-4.92,3.72,1.67,1.67,0,0,0-.39.23c.51-1.39,1.13-3.35,1.84-5.89a61.1,61.1,0,0,0,1.7-8.24,27.15,27.15,0,0,0,0-7.75,6.54,6.54,0,0,0-3.15-5q-3.39-1.77-5.82-.88A8.81,8.81,0,0,0,257.83,40a17.61,17.61,0,0,0-2.58,5.25c-.11.35-.2.68-.3,1a3,3,0,0,0-2.2,1.41c-.49.74-.94,1.43-1.37,2.11-.64-.07-1,0-1.22.15a12,12,0,0,0-5.33,3.88,25.57,25.57,0,0,0-4,6.62,29.61,29.61,0,0,0-2,7.31l-.54.76c-1.08,1.51-2.12,3-3.15,4.45s-2.07,2.93-3.15,4.44a7,7,0,0,0-1,1.29A2.78,2.78,0,0,1,230,79.82c-.86.32-.75-.67.33-3s2.5-5.27,4.28-8.88,3.58-7.46,5.41-11.55a56.36,56.36,0,0,0,3.79-11.06c.7-3.29.49-5.76-.64-7.43s-3.8-1.86-8-.57a14.52,14.52,0,0,0-4.6,2.59,31.37,31.37,0,0,0-4,4A55.48,55.48,0,0,0,223,48.41c-1.08,1.56-2.05,3-2.91,4.28-1.61,2.15-3.18,4.38-4.68,6.7s-2.91,4.71-4.2,7.19a181.92,181.92,0,0,1,6.3-19.22c.1-.33-.22-.54-1-.65a18.25,18.25,0,0,0-2.59-.16,19.81,19.81,0,0,0-2.66.16c-.81.11-1.27.27-1.37.48a137.4,137.4,0,0,0-6.3,16.8q-2.58,8.57-4.36,17.28c-.11.33.27.57,1.13.73a15.44,15.44,0,0,0,2.82.24,18.28,18.28,0,0,0,3-.24c1-.16,1.51-.4,1.62-.73q2.9-6.45,6.21-12.59t7-12.12a115.27,115.27,0,0,1,8.24-11.47c.32-.42.78-1,1.37-1.69s1.21-1.4,1.86-2.1a15.9,15.9,0,0,1,2-1.86,3.34,3.34,0,0,1,2-.81h.64q-.17,0,0,.33a2.43,2.43,0,0,1,.16,2.34c-.32,1-.59,1.8-.8,2.34l-3.4,7.75c-1.51,2.91-3,5.77-4.44,8.56s-2.77,5.66-3.95,8.56c-.33.87-.76,2-1.3,3.32a19,19,0,0,0-1.13,4,10,10,0,0,0,.08,3.8,4.07,4.07,0,0,0,2.18,2.74,6.51,6.51,0,0,0,6,0,12.66,12.66,0,0,0,4.68-3.87q1.9-2.46,3.73-5a13.3,13.3,0,0,0,.47,1.67,9.08,9.08,0,0,0,4,4.84c1.88,1.13,4.55,1.48,8,1a13.52,13.52,0,0,0,5.17-1.94,20.57,20.57,0,0,0,4.12-3.47A24.85,24.85,0,0,0,264,71.34c.91-1.56,1.75-3.09,2.5-4.6h.65q3.88-.33,5.65-2.1c1.19-1.19,2.64-2.69,4.36-4.52s3.4-4,5-6.06a50.33,50.33,0,0,0,4.36-6.7C286.83,46.82,286.45,46.52,285.37,46.47ZM260,68.76a9.05,9.05,0,0,1-1.29,2,22.14,22.14,0,0,1-2.42,3.79,21.1,21.1,0,0,1-3.23,3.31c-1.29,1-2.37,1.38-3.23,1.21a2.76,2.76,0,0,1-1.94-1.29,7.06,7.06,0,0,1-.89-2.66,8.5,8.5,0,0,1,.08-3.07,43,43,0,0,1,2.43-8.16c1.07-2.64,2.2-5.19,3.39-7.67a20.31,20.31,0,0,0,.16,2.58,6.53,6.53,0,0,0,.81,2.43,7.83,7.83,0,0,0,2.9,3.55,12.28,12.28,0,0,0,4.2,1.78C260.66,67.33,260.34,68.06,260,68.76Zm6.71-23.26a49.13,49.13,0,0,1-1.05,6.94,66.42,66.42,0,0,1-1.94,7c-.76,2.21-1.4,4-1.94,5.25a4,4,0,0,1-2.26-2.83,17.65,17.65,0,0,1-.65-5,32.3,32.3,0,0,1,.57-5.89A31.91,31.91,0,0,1,261,45.34a14.28,14.28,0,0,1,2.26-4A2.75,2.75,0,0,1,266,40.09,11,11,0,0,1,266.72,45.5Zm.56,19.3.07-.18a.14.14,0,0,0,.09,0C267.66,64.64,267.61,64.69,267.28,64.8Z"/><path class="cls-2" d="M114.43,26.14V9.4h5.93q8.91,0,8.92,8.16a8.28,8.28,0,0,1-2.44,6.25,9,9,0,0,1-6.48,2.33Zm3.77-13.67V23.08h1.87a5,5,0,0,0,3.84-1.47,5.57,5.57,0,0,0,1.4-4,5.05,5.05,0,0,0-1.39-3.77A5.28,5.28,0,0,0,120,12.47Z"/><path class="cls-2" d="M142.43,21.22h-7.8c.13,1.73,1.22,2.6,3.28,2.6a6.43,6.43,0,0,0,3.47-.93v2.66a9.12,9.12,0,0,1-4.31.88,6.06,6.06,0,0,1-4.49-1.6,6,6,0,0,1-1.6-4.48,6.4,6.4,0,0,1,1.73-4.71A5.76,5.76,0,0,1,137,13.9a5.19,5.19,0,0,1,4,1.55,6,6,0,0,1,1.43,4.21ZM139,19c0-1.71-.69-2.57-2.08-2.57a2,2,0,0,0-1.53.74,3.32,3.32,0,0,0-.79,1.83Z"/><path class="cls-2" d="M143.84,25.83v-3a8.32,8.32,0,0,0,1.82.82,6.29,6.29,0,0,0,1.71.26,3.87,3.87,0,0,0,1.55-.26.88.88,0,0,0,.56-.82.76.76,0,0,0-.25-.59,2.63,2.63,0,0,0-.66-.4,6.61,6.61,0,0,0-.89-.32c-.31-.09-.62-.2-.92-.31a9.81,9.81,0,0,1-1.25-.58,3.71,3.71,0,0,1-.91-.72,2.75,2.75,0,0,1-.56-1,3.68,3.68,0,0,1-.2-1.27,3.32,3.32,0,0,1,.44-1.73,3.57,3.57,0,0,1,1.17-1.18,5.43,5.43,0,0,1,1.67-.68,8.9,8.9,0,0,1,1.95-.21,11,11,0,0,1,1.61.12,11.15,11.15,0,0,1,1.62.36v2.84a6.14,6.14,0,0,0-1.5-.61,6.2,6.2,0,0,0-1.57-.2,3.77,3.77,0,0,0-.69.06,2.17,2.17,0,0,0-.56.19,1,1,0,0,0-.39.31.77.77,0,0,0-.14.44.81.81,0,0,0,.21.56,1.66,1.66,0,0,0,.55.4,5.11,5.11,0,0,0,.75.31l.83.27a11.09,11.09,0,0,1,1.33.56,4.51,4.51,0,0,1,1,.71,3,3,0,0,1,.65,1,3.45,3.45,0,0,1,.23,1.31,3.36,3.36,0,0,1-.46,1.81,3.71,3.71,0,0,1-1.23,1.23,5.78,5.78,0,0,1-1.76.69,10.09,10.09,0,0,1-2.07.21A10.81,10.81,0,0,1,143.84,25.83Z"/><path class="cls-2" d="M162.94,11.27a3.64,3.64,0,0,0-1.36-.28c-1.19,0-1.78.64-1.78,1.93v1.27h2.73v2.72H159.8v9.23h-3.68V16.91h-2V14.19h2V12.71a4.32,4.32,0,0,1,1.34-3.3,5.06,5.06,0,0,1,3.61-1.25,6.2,6.2,0,0,1,1.87.24Z"/><path class="cls-2" d="M166.18,12.3a2.13,2.13,0,0,1-1.53-.56,1.78,1.78,0,0,1-.6-1.36,1.71,1.71,0,0,1,.6-1.35,2.47,2.47,0,0,1,3.06,0,1.74,1.74,0,0,1,.59,1.35,1.8,1.8,0,0,1-.59,1.38A2.17,2.17,0,0,1,166.18,12.3ZM168,26.14h-3.69v-12H168Z"/><path class="cls-2" d="M174.79,26.14H171.1V8.44h3.69Z"/><path class="cls-2" d="M188.64,21.22h-7.8c.12,1.73,1.21,2.6,3.28,2.6a6.4,6.4,0,0,0,3.46-.93v2.66a9.1,9.1,0,0,1-4.3.88,6.08,6.08,0,0,1-4.5-1.6,6.09,6.09,0,0,1-1.6-4.48,6.4,6.4,0,0,1,1.73-4.71,5.76,5.76,0,0,1,4.25-1.74,5.23,5.23,0,0,1,4.05,1.55,6,6,0,0,1,1.43,4.21ZM185.21,19c0-1.71-.69-2.57-2.07-2.57a2,2,0,0,0-1.54.74,3.4,3.4,0,0,0-.79,1.83Z"/></g></g></svg>