<svg xmlns="http://www.w3.org/2000/svg" viewBox="0 0 1170.62 116.73"><defs><style>.cls-1{fill:#c66505;}.cls-2{fill:#fff;}</style></defs><g id="Capa_2" data-name="Capa 2"><g id="Capa_1-2" data-name="Capa 1"><rect class="cls-1" y="5.05" width="1170.62" height="111.68"/><path class="cls-2" d="M547.89,29.89a20.66,20.66,0,0,1-6,12.53A47,47,0,0,1,530,51a75.1,75.1,0,0,1-14.29,5.54q-7.44,2-13,3.06A17.23,17.23,0,0,1,508,63.71a15.49,15.49,0,0,1,2.92,5.18A33,33,0,0,1,512.31,75q.45,3.28.73,6.63.15,2.19.66,5.25a52.41,52.41,0,0,0,1.38,6,21.38,21.38,0,0,0,2.41,5.4,8,8,0,0,0,3.72,3.28A6.3,6.3,0,0,0,526,102a11.87,11.87,0,0,0,3.94-2.4A22.32,22.32,0,0,0,533.09,96c.92-1.31,1.68-2.4,2.26-3.28.1-.09.48,0,1.17.3a17,17,0,0,1,2.11,1.09,9.51,9.51,0,0,1,1.82,1.38c.49.49.68.83.59,1a13.43,13.43,0,0,1-3.43,3.79,25.85,25.85,0,0,1-4.59,2.78,28.15,28.15,0,0,1-5.18,1.82,30,30,0,0,1-5,.8,17,17,0,0,1-7.73-1.75,14.85,14.85,0,0,1-5.83-5.39,29.21,29.21,0,0,1-4.15-11q-1-5.91-1.39-11.88-.43-4.08-1.16-8.39a12.27,12.27,0,0,0-3.94-7.21,8.22,8.22,0,0,1-3.43-.51,11.49,11.49,0,0,1-3-1.53,189,189,0,0,0-8,18.73q-3.51,9.55-7.29,19.61c-.1.29-.59.46-1.46.51a14,14,0,0,1-2.84-.15,12.73,12.73,0,0,1-2.7-.65c-.78-.29-1.17-.59-1.17-.88a50.8,50.8,0,0,1,3.79-12.32q2.78-6.19,5-12,.58-1.45,2-4.59t3.21-7.21c1.17-2.72,2.35-5.57,3.57-8.53a80.64,80.64,0,0,0,2.92-8.31,35.17,35.17,0,0,0,1.31-6.86c.14-2-.22-3.32-1.09-4a3.64,3.64,0,0,0-3.72-.72,7.86,7.86,0,0,0-3.36,2.84,28.07,28.07,0,0,0-2.84,5.1,39.08,39.08,0,0,0-2,5.83,34.15,34.15,0,0,0-1,5.11c-.14,1.5,0,2.45.37,2.84.09.2-.17.39-.8.58a16.34,16.34,0,0,1-2.26.51,14.8,14.8,0,0,1-2.48.22c-.78,0-1.17-.14-1.17-.44a15.06,15.06,0,0,1,.51-6.34,28.07,28.07,0,0,1,2.77-6.41,35.84,35.84,0,0,1,4.23-5.83,44,44,0,0,1,4.88-4.74,10.37,10.37,0,0,1,5.18-2.19,9.44,9.44,0,0,1,5,.73,9.76,9.76,0,0,1,3.86,3.21,9.39,9.39,0,0,1,1.75,5.24,30,30,0,0,1-.73,7.59,82.36,82.36,0,0,1,7.29-9.55,58.77,58.77,0,0,1,9-8.24A63.05,63.05,0,0,1,519.6,23,49.19,49.19,0,0,1,526,20a31.24,31.24,0,0,1,6.78-1.82,21.41,21.41,0,0,1,6.78.07,8.17,8.17,0,0,1,3.06,1.46,13.36,13.36,0,0,1,4.74,6.49A9.55,9.55,0,0,1,547.89,29.89ZM499.63,57.3a23.4,23.4,0,0,0,4.67-1.1c1.55-.53,3-1,4.22-1.53q2.49-.87,6-2.4a77.8,77.8,0,0,0,7.22-3.65,81.68,81.68,0,0,0,7.36-4.74,43.16,43.16,0,0,0,6.42-5.61,22.56,22.56,0,0,0,4.22-6.34,12.83,12.83,0,0,0,1-6.85c-.39-3-1.77-4.64-4.15-4.89a17.91,17.91,0,0,0-8,1.31A45.78,45.78,0,0,0,520,25.8a65,65,0,0,0-5.83,4.09,66,66,0,0,0-11.37,12q-5,6.7-9.33,13.71h.43A13.43,13.43,0,0,1,499.63,57.3Z"/><path class="cls-2" d="M569.17,50.3c.1-.29.39-.49.88-.59a4.64,4.64,0,0,1,1.38-.07,2.35,2.35,0,0,1,1.09.37.59.59,0,0,1,.3.73,73.54,73.54,0,0,1-7.22,11.59q-4.15,5.46-8.38,10.71-1.61,2.19-3.36,4.45a44,44,0,0,1-3.79,4.3,16,16,0,0,1-3.86,3.06,5.1,5.1,0,0,1-4.88.15,11.54,11.54,0,0,1-6.2-5.91,17.88,17.88,0,0,1-1.39-8.38,29.45,29.45,0,0,1,2.34-9.4A50,50,0,0,1,541,52.19a41,41,0,0,1,6.35-7.29A18.71,18.71,0,0,1,554,40.82a4.82,4.82,0,0,1,3,.07,5.69,5.69,0,0,1,2.33,1.61,6.94,6.94,0,0,1,1.39,2.62,6.79,6.79,0,0,1,.14,3.14,35.32,35.32,0,0,1-2.48,6.56,27,27,0,0,1-4.15,6.34,11.74,11.74,0,0,1-5.18,3.57c-1.85.58-3.64,0-5.39-1.75a1.29,1.29,0,0,1-.15.59c-.19.87-.49,2.21-.87,4s-.73,3.65-1,5.54a30.49,30.49,0,0,0-.37,5.47c0,1.75.46,3,1.24,3.65a2,2,0,0,0,1.75.51,3.73,3.73,0,0,0,1.6-.88,14.35,14.35,0,0,0,1.46-1.53c.49-.58.88-1.07,1.17-1.46q3.35-3.78,6.27-7.72l5.83-7.88C562,61.14,563.51,59,565,56.93A61.71,61.71,0,0,0,569.17,50.3Zm-18.37-1a46.1,46.1,0,0,0-3.86,5.47,26.18,26.18,0,0,0-2.84,6.48,3.16,3.16,0,0,0,3.42.8,8.9,8.9,0,0,0,3.5-2.47,21,21,0,0,0,3.06-4.45,39,39,0,0,0,2.19-4.88,16.82,16.82,0,0,0,1-3.87c.09-1.07-.15-1.6-.73-1.6a5.76,5.76,0,0,0-3.06,1.82C552.26,47.7,551.38,48.6,550.8,49.28Z"/><path class="cls-2" d="M597.89,51.17a1,1,0,0,1,.8-.58,5.94,5.94,0,0,1,1.32-.15,1.89,1.89,0,0,1,1.09.3.58.58,0,0,1,.29.72q-2,3.51-4,7.08t-4,6.92c-.87,1.46-2.14,3.5-3.79,6.12a55.48,55.48,0,0,1-5.68,7.51A30.15,30.15,0,0,1,577,84.85a7.58,7.58,0,0,1-7.14.73q-4.67-1.89-5.47-8a45.27,45.27,0,0,1,.8-14.28,132.53,132.53,0,0,1,4.89-17.72q3.28-9.47,6.92-18.29t6.78-16q3.13-7.22,4.45-11c.1-.19.58-.29,1.46-.29a19.59,19.59,0,0,1,2.84.22c1,.14,1.94.32,2.77.51s1.19.39,1.09.58q-1.3,3.21-3.71,8.39t-5.25,11.66q-2.85,6.48-5.83,13.85t-5.25,14.94a132.61,132.61,0,0,0-3.57,15A57.21,57.21,0,0,0,571.94,79c.1,1.85.63,2.77,1.6,2.77a5.79,5.79,0,0,0,3.43-1.6,35.55,35.55,0,0,0,4.3-4.31c1.56-1.79,3-3.59,4.38-5.39s2.52-3.4,3.49-4.81,1.56-2.26,1.75-2.55l3.5-5.83Q596.15,54.38,597.89,51.17Z"/><path class="cls-2" d="M637.11,50.3a1,1,0,0,1,.8-.59,4.14,4.14,0,0,1,1.31-.07,2.39,2.39,0,0,1,1.1.37.6.6,0,0,1,.29.73q-2.19,4.95-4.74,9.55a74.13,74.13,0,0,1-5.76,8.82q-3.36,4.36-7,8.31-1.89,2-4.08,4a19.1,19.1,0,0,1-4.66,3.14,6.69,6.69,0,0,1-4.09.44,5.53,5.53,0,0,1-3.35-2.19,8.92,8.92,0,0,1-1.46-5.39,25.25,25.25,0,0,1,.88-5.54v-.59a31.64,31.64,0,0,1-2.92,3.36A20.65,20.65,0,0,1,600,77.42a13.31,13.31,0,0,1-3.8,1.67,8,8,0,0,1-4.15-.07,4.53,4.53,0,0,1-3.72-3.35,13.75,13.75,0,0,1-.07-5.84,31,31,0,0,1,1.89-6.34q1.32-3.14,2.19-4.88A73.54,73.54,0,0,1,599.64,48a19.71,19.71,0,0,1,3.57-3.07A6.48,6.48,0,0,1,608,44a7.07,7.07,0,0,1,4.38,2.48A8.81,8.81,0,0,1,614.07,51q.88-2.62,1.9-5.18A24.74,24.74,0,0,1,618.59,41c.1-.2.59-.32,1.46-.37a25.58,25.58,0,0,1,2.77,0,16.79,16.79,0,0,1,2.48.29c.68.15,1,.37.88.66a32.41,32.41,0,0,1-1.75,3.94q-1.75,3.65-4,8.82T615.9,65.24q-2.26,5.76-3.57,10.13a18.64,18.64,0,0,0-1.1,6.49c.15,1.41,1.14,1.39,3-.07.78-.68,1.58-1.36,2.41-2s1.62-1.36,2.4-2c1.55-1.56,3-3.16,4.45-4.81a53.92,53.92,0,0,0,3.86-5.11,85.52,85.52,0,0,0,5.32-8.45Q635.08,55,637.11,50.3Zm-34.7,21.58a88.75,88.75,0,0,0,6.85-9.19,32.62,32.62,0,0,0,1.61-4.08,25.12,25.12,0,0,0,.36-3.28,14.3,14.3,0,0,0-.22-3.28c-.29-2-.92-3.09-1.89-3.14s-2.12.54-3.43,1.75a26.9,26.9,0,0,0-4.08,5.11,69.51,69.51,0,0,0-3.86,6.77,54.2,54.2,0,0,0-2.85,6.71,11.4,11.4,0,0,0-.8,5.1c.2,1.75.63,2.75,1.31,3a2.4,2.4,0,0,0,2.26-.51,13.94,13.94,0,0,0,2.55-2.4Z"/><path class="cls-2" d="M671.52,34.41c-3.41,0-6.83-.1-10.28-.29s-6.93-.44-10.43-.73Q647.47,43,644.4,51.76t-5.76,17.56q-2.7,8.84-4.81,18.16t-3.43,20c0,.39-.38.68-1.16.87a10.25,10.25,0,0,1-2.55.3,14.45,14.45,0,0,1-2.56-.22c-.77-.15-1.21-.37-1.31-.66a38.23,38.23,0,0,1,0-11.52,101.7,101.7,0,0,1,2.7-13.12c1.22-4.47,2.62-8.87,4.23-13.19s3.13-8.29,4.59-11.88q2.34-6.14,4.52-12.32t4.37-12.32q-5.25-.3-10.57-.37C629.12,33,625.54,33,622,33c-.2,0-.32-.22-.37-.66s0-.65.08-.65q5.54,0,11.22-.3t11.23-.14q2-5.84,4.3-11.59t5-11.3c.09-.19.46-.34,1.09-.44a15.07,15.07,0,0,1,2.12-.14,8.33,8.33,0,0,1,2,.22c.58.14.82.31.73.51q-2.05,5.68-4,11.44t-3.87,11.44q2.48.15,6.05.15t6.86.15c2.18.09,4,.19,5.61.29s2.33.29,2.33.58a6.33,6.33,0,0,1-.29,1C671.9,34.12,671.71,34.41,671.52,34.41Z"/><path class="cls-2" d="M668.45,68.23q-1,2-2.26,4.16a22.71,22.71,0,0,1-2.91,3.93,19.13,19.13,0,0,1-3.72,3.14,12.43,12.43,0,0,1-4.66,1.75q-4.67.58-7.22-.95a8.16,8.16,0,0,1-3.57-4.38,13.82,13.82,0,0,1-.59-6.41,26.29,26.29,0,0,1,1.83-6.93,22.85,22.85,0,0,1,3.57-6,10.74,10.74,0,0,1,4.81-3.5c.19-.2.73-.22,1.6-.07s1.51.26,1.9.36a33.19,33.19,0,0,1,1.09-4.52,15.88,15.88,0,0,1,2.33-4.74,7.89,7.89,0,0,1,3.72-2.91q2.19-.81,5.25.8a5.89,5.89,0,0,1,2.84,4.52,24.11,24.11,0,0,1,0,7,54.69,54.69,0,0,1-1.53,7.43q-1,3.64-1.75,5.54c.29-.09.34-.15.15-.15s-.1-.09.29-.29a10,10,0,0,0,4.45-3.35q2-2.47,3.71-4.52c1-1.36,1.92-2.7,2.85-4s1.92-2.6,3-3.86a2.66,2.66,0,0,1,1.89-.37q1.46.07,1,.81a47.15,47.15,0,0,1-3.93,6q-2.19,2.84-4.52,5.46t-3.94,4.08a7.88,7.88,0,0,1-5.1,1.9Zm-12.1,10.06a18.8,18.8,0,0,0,2.92-3,21,21,0,0,0,2.19-3.42,8.39,8.39,0,0,0,1.16-1.83c.29-.63.59-1.28.88-2a10.68,10.68,0,0,1-3.79-1.6,7.13,7.13,0,0,1-2.63-3.21,5.8,5.8,0,0,1-.73-2.18,20.41,20.41,0,0,1-.14-2.34q-1.61,3.36-3.06,6.93A39.4,39.4,0,0,0,651,73a7.54,7.54,0,0,0-.07,2.77,6.27,6.27,0,0,0,.8,2.41,2.47,2.47,0,0,0,1.75,1.16A3.92,3.92,0,0,0,656.35,78.29ZM668,44.17a2.5,2.5,0,0,0-2.48,1.1,12.69,12.69,0,0,0-2,3.64,27.63,27.63,0,0,0-1.39,5,29.41,29.41,0,0,0-.51,5.32,15.83,15.83,0,0,0,.59,4.52,3.54,3.54,0,0,0,2,2.55Q665,64.59,666,61.6a63,63,0,0,0,1.75-6.27,43.72,43.72,0,0,0,.94-6.27A10,10,0,0,0,668,44.17Z"/><path class="cls-2" d="M691.78,42.86a1.83,1.83,0,0,0-.73-1.09,4.62,4.62,0,0,0-1.17-.37c-.58.78-.82,2.29-.72,4.52a63.89,63.89,0,0,0,.72,7.08q.58,3.7,1.32,6.92t1,4.08q1.31-1.45,3.57-3.57a62.13,62.13,0,0,1,5-4.15,52.42,52.42,0,0,1,5.61-3.72,20.3,20.3,0,0,1,5.39-2.26,1.31,1.31,0,0,1,1.46.29c.39.39.2.73-.58,1a21.1,21.1,0,0,0-4.45,2.33q-2.4,1.61-4.88,3.65c-1.66,1.36-3.33,2.84-5,4.44s-3.33,3.14-4.89,4.6a13.47,13.47,0,0,1,.73,6.48,16.17,16.17,0,0,1-2,6,18.21,18.21,0,0,1-3.86,4.74,12.6,12.6,0,0,1-5.1,2.77A12.18,12.18,0,0,1,679,87a5.83,5.83,0,0,1-3.42-1.24,3.65,3.65,0,0,1-1.24-3.14q.07-2,2.4-5.24a55.39,55.39,0,0,1,4.45-5q2.4-2.42,4.88-4.74a46.12,46.12,0,0,1-2.69-10.43,34.36,34.36,0,0,1-.15-8.89,13.49,13.49,0,0,1,2.26-6.27,6.92,6.92,0,0,1,4.81-2.84,3,3,0,0,1,2.63,1,3.11,3.11,0,0,1,.65,2,1.92,1.92,0,0,1-.65,1.46C692.56,44,692.17,43.74,691.78,42.86Zm-13.27,39.8q.15,1,1.83.15a14.58,14.58,0,0,0,3.49-2.7A17.32,17.32,0,0,0,686.9,76a6.12,6.12,0,0,0,.8-4.23l-.44-1.31c-1.36,1.36-2.7,2.69-4,4a23.94,23.94,0,0,0-3.42,4.3c-.3.48-.64,1.12-1,1.89A2.71,2.71,0,0,0,678.51,82.66Z"/></g></g></svg>